<svg width="260" height="200" viewBox="0 0 260 200" fill="none" xmlns="http://www.w3.org/2000/svg">
<path d="M149.23 45.164C147.6 45.054 145.95 44.984 144.28 44.954C142.67 44.934 141.07 44.954 139.49 45.014C141.38 46.044 143.16 47.134 144.83 48.274C145.34 48.254 145.85 48.224 146.36 48.214C148.79 48.144 151.17 48.184 153.5 48.304C165.3 48.904 175.78 51.794 183.28 56.174C175.54 50.284 163.31 46.134 149.23 45.164Z" fill="white"/>
<path d="M146.5 38.254C161.19 37.844 174.44 40.964 183.42 46.214C174.77 39.634 160.55 35.224 144.41 34.994C138.97 34.914 133.73 35.324 128.84 36.134C126.17 36.574 123.61 37.144 121.17 37.814C124 38.564 126.72 39.434 129.33 40.404C131.86 39.814 134.51 39.334 137.23 38.984C140.24 38.594 143.33 38.344 146.5 38.254Z" fill="white"/>
<path d="M146.44 42.994C161.13 42.584 174.38 45.704 183.36 50.954C174.71 44.374 160.49 39.964 144.35 39.734C142.62 39.704 140.91 39.734 139.23 39.804C136.08 39.934 133.02 40.234 130.07 40.674C132.51 41.604 134.84 42.634 137.05 43.734C139.85 43.364 142.75 43.124 145.72 43.014C145.96 43.014 146.2 43.004 146.44 42.994Z" fill="white"/>
<path d="M146.58 33.034C161.27 32.624 174.52 35.744 183.5 40.994C174.85 34.414 160.63 30.004 144.49 29.774C134.54 29.634 125.28 31.094 117.57 33.724C115.65 34.374 113.83 35.104 112.12 35.894C114.05 36.204 116 36.574 117.97 37.024C118.94 37.244 119.91 37.484 120.86 37.734C122.9 36.984 125.05 36.304 127.3 35.714C133.18 34.174 139.7 33.224 146.58 33.034Z" fill="white"/>
<path d="M109.35 49.834C114.07 50.904 118.55 52.314 122.69 53.974C124.63 53.174 126.68 52.464 128.82 51.864C123.71 49.804 118.06 48.144 112.03 47.034C96.15 44.124 81.34 45.684 71.58 50.454C81.41 47.064 95.01 46.574 109.35 49.834Z" fill="white"/>
<path d="M72.49 45.484C82.32 42.084 95.93 41.604 110.26 44.854C117.34 46.464 123.86 48.824 129.54 51.674C134.18 50.434 139.24 49.684 144.56 49.484C136.89 43.874 126.14 39.344 113.85 37.084C97.97 34.174 83.16 35.724 73.4 40.494C83.23 37.094 96.84 36.604 111.17 39.864C120.53 41.994 128.93 45.424 135.68 49.594C129.17 46.254 121.42 43.614 112.93 42.054C97.06 39.154 82.25 40.714 72.49 45.484Z" fill="white"/>
<path d="M116.56 57.054C118.07 56.134 119.69 55.294 121.39 54.534C118.12 53.524 114.68 52.674 111.11 52.024C95.23 49.114 80.42 50.664 70.66 55.434C80.49 52.034 94.1 51.544 108.43 54.804C111.23 55.454 113.95 56.204 116.56 57.054Z" fill="white"/>
<path d="M98.68 34.334C97.95 32.924 97.53 31.344 97.49 29.654C97.35 23.694 102.08 18.734 108.04 18.584C114 18.444 118.96 23.174 119.1 29.134C119.12 30.134 119.01 31.104 118.78 32.024C119.69 31.734 120.61 31.464 121.56 31.204C121.66 30.504 121.7 29.794 121.68 29.064C121.5 21.684 115.36 15.824 107.98 16.004C100.6 16.184 94.74 22.324 94.91 29.704C94.95 31.344 95.29 32.904 95.86 34.354C96.79 34.344 97.73 34.334 98.68 34.334Z" fill="white"/>
<path d="M121.96 32.434C121.96 32.434 117.42 33.804 114.46 34.724Z" fill="white"/>
<path d="M149.23 45.164C147.6 45.054 145.95 44.984 144.28 44.954C142.67 44.934 141.07 44.954 139.49 45.014C141.38 46.044 143.16 47.134 144.83 48.274C145.34 48.254 145.85 48.224 146.36 48.214C148.79 48.144 151.17 48.184 153.5 48.304C165.3 48.904 175.78 51.794 183.28 56.174C175.54 50.284 163.31 46.134 149.23 45.164Z" fill="white"/>
<path d="M146.5 38.254C161.19 37.844 174.44 40.964 183.42 46.214C174.77 39.634 160.55 35.224 144.41 34.994C138.97 34.914 133.73 35.324 128.84 36.134C126.17 36.574 123.61 37.144 121.17 37.814C124 38.564 126.72 39.434 129.33 40.404C131.86 39.814 134.51 39.334 137.23 38.984C140.24 38.594 143.33 38.344 146.5 38.254Z" fill="white"/>
<path d="M146.44 42.994C161.13 42.584 174.38 45.704 183.36 50.954C174.71 44.374 160.49 39.964 144.35 39.734C142.62 39.704 140.91 39.734 139.23 39.804C136.08 39.934 133.02 40.234 130.07 40.674C132.51 41.604 134.84 42.634 137.05 43.734C139.85 43.364 142.75 43.124 145.72 43.014C145.96 43.014 146.2 43.004 146.44 42.994Z" fill="white"/>
<path d="M146.58 33.034C161.27 32.624 174.52 35.744 183.5 40.994C174.85 34.414 160.63 30.004 144.49 29.774C134.54 29.634 125.28 31.094 117.57 33.724C115.65 34.374 113.83 35.104 112.12 35.894C114.05 36.204 116 36.574 117.97 37.024C118.94 37.244 119.91 37.484 120.86 37.734C122.9 36.984 125.05 36.304 127.3 35.714C133.18 34.174 139.7 33.224 146.58 33.034Z" fill="white"/>
<path d="M109.35 49.834C114.07 50.904 118.55 52.314 122.69 53.974C124.63 53.174 126.68 52.464 128.82 51.864C123.71 49.804 118.06 48.144 112.03 47.034C96.15 44.124 81.34 45.684 71.58 50.454C81.41 47.064 95.01 46.574 109.35 49.834Z" fill="white"/>
<path d="M72.49 45.484C82.32 42.084 95.93 41.604 110.26 44.854C117.34 46.464 123.86 48.824 129.54 51.674C134.18 50.434 139.24 49.684 144.56 49.484C136.89 43.874 126.14 39.344 113.85 37.084C97.97 34.174 83.16 35.724 73.4 40.494C83.23 37.094 96.84 36.604 111.17 39.864C120.53 41.994 128.93 45.424 135.68 49.594C129.17 46.254 121.42 43.614 112.93 42.054C97.06 39.154 82.25 40.714 72.49 45.484Z" fill="white"/>
<path d="M116.56 57.054C118.07 56.134 119.69 55.294 121.39 54.534C118.12 53.524 114.68 52.674 111.11 52.024C95.23 49.114 80.42 50.664 70.66 55.434C80.49 52.034 94.1 51.544 108.43 54.804C111.23 55.454 113.95 56.204 116.56 57.054Z" fill="white"/>
<path d="M98.68 34.334C97.95 32.924 97.53 31.344 97.49 29.654C97.35 23.694 102.08 18.734 108.04 18.584C114 18.444 118.96 23.174 119.1 29.134C119.12 30.134 119.01 31.104 118.78 32.024C119.69 31.734 120.61 31.464 121.56 31.204C121.66 30.504 121.7 29.794 121.68 29.064C121.5 21.684 115.36 15.824 107.98 16.004C100.6 16.184 94.74 22.324 94.91 29.704C94.95 31.344 95.29 32.904 95.86 34.354C96.79 34.344 97.73 34.334 98.68 34.334Z" fill="white"/>
<path d="M121.96 32.434C121.96 32.434 117.42 33.804 114.46 34.724Z" fill="white"/>
<path d="M149.23 45.164C147.6 45.054 145.95 44.984 144.28 44.954C142.67 44.934 141.07 44.954 139.49 45.014C141.38 46.044 143.16 47.134 144.83 48.274C145.34 48.254 145.85 48.224 146.36 48.214C148.79 48.144 151.17 48.184 153.5 48.304C165.3 48.904 175.78 51.794 183.28 56.174C175.54 50.284 163.31 46.134 149.23 45.164Z" fill="white"/>
<path d="M146.5 38.254C161.19 37.844 174.44 40.964 183.42 46.214C174.77 39.634 160.55 35.224 144.41 34.994C138.97 34.914 133.73 35.324 128.84 36.134C126.17 36.574 123.61 37.144 121.17 37.814C124 38.564 126.72 39.434 129.33 40.404C131.86 39.814 134.51 39.334 137.23 38.984C140.24 38.594 143.33 38.344 146.5 38.254Z" fill="white"/>
<path d="M146.44 42.994C161.13 42.584 174.38 45.704 183.36 50.954C174.71 44.374 160.49 39.964 144.35 39.734C142.62 39.704 140.91 39.734 139.23 39.804C136.08 39.934 133.02 40.234 130.07 40.674C132.51 41.604 134.84 42.634 137.05 43.734C139.85 43.364 142.75 43.124 145.72 43.014C145.96 43.014 146.2 43.004 146.44 42.994Z" fill="white"/>
<path d="M146.58 33.034C161.27 32.624 174.52 35.744 183.5 40.994C174.85 34.414 160.63 30.004 144.49 29.774C134.54 29.634 125.28 31.094 117.57 33.724C115.65 34.374 113.83 35.104 112.12 35.894C114.05 36.204 116 36.574 117.97 37.024C118.94 37.244 119.91 37.484 120.86 37.734C122.9 36.984 125.05 36.304 127.3 35.714C133.18 34.174 139.7 33.224 146.58 33.034Z" fill="white"/>
<path d="M109.35 49.834C114.07 50.904 118.55 52.314 122.69 53.974C124.63 53.174 126.68 52.464 128.82 51.864C123.71 49.804 118.06 48.144 112.03 47.034C96.15 44.124 81.34 45.684 71.58 50.454C81.41 47.064 95.01 46.574 109.35 49.834Z" fill="white"/>
<path d="M72.49 45.484C82.32 42.084 95.93 41.604 110.26 44.854C117.34 46.464 123.86 48.824 129.54 51.674C134.18 50.434 139.24 49.684 144.56 49.484C136.89 43.874 126.14 39.344 113.85 37.084C97.97 34.174 83.16 35.724 73.4 40.494C83.23 37.094 96.84 36.604 111.17 39.864C120.53 41.994 128.93 45.424 135.68 49.594C129.17 46.254 121.42 43.614 112.93 42.054C97.06 39.154 82.25 40.714 72.49 45.484Z" fill="white"/>
<path d="M116.56 57.054C118.07 56.134 119.69 55.294 121.39 54.534C118.12 53.524 114.68 52.674 111.11 52.024C95.23 49.114 80.42 50.664 70.66 55.434C80.49 52.034 94.1 51.544 108.43 54.804C111.23 55.454 113.95 56.204 116.56 57.054Z" fill="white"/>
<path d="M98.68 34.334C97.95 32.924 97.53 31.344 97.49 29.654C97.35 23.694 102.08 18.734 108.04 18.584C114 18.444 118.96 23.174 119.1 29.134C119.12 30.134 119.01 31.104 118.78 32.024C119.69 31.734 120.61 31.464 121.56 31.204C121.66 30.504 121.7 29.794 121.68 29.064C121.5 21.684 115.36 15.824 107.98 16.004C100.6 16.184 94.74 22.324 94.91 29.704C94.95 31.344 95.29 32.904 95.86 34.354C96.79 34.344 97.73 34.334 98.68 34.334Z" fill="white"/>
<path d="M121.96 32.434C121.96 32.434 117.42 33.804 114.46 34.724Z" fill="white"/>
<path d="M241.16 150.114H13.01V147.024H241.16V150.114Z" fill="white"/>
<path d="M241.16 112.704H13.01V109.624H241.16V112.704Z" fill="white"/>
<path d="M241.16 64.394H13.01V61.304H241.16V64.394Z" fill="white"/>
<path d="M29.06 102.224C28.54 102.294 28.07 102.334 27.65 102.334C26.71 102.334 25.96 102.174 25.41 101.844C24.73 101.424 24.39 100.724 24.39 99.754V88.774C25.2 88.774 26.15 88.804 27.25 88.874C28.35 88.944 29.05 88.974 29.34 88.974C33.93 88.974 37.39 88.234 39.72 86.744C42.31 85.094 43.6 82.484 43.6 78.934C43.6 75.894 42.61 73.534 40.64 71.844C38.66 70.164 36.03 69.324 32.73 69.324H13.93V71.514C14.29 71.514 14.78 71.514 15.39 71.514C17.01 71.514 18.04 71.634 18.46 71.884C18.88 72.124 19.09 72.794 19.09 73.894V99.654C19.09 100.654 18.87 101.324 18.43 101.644C17.99 101.964 17.33 102.134 16.45 102.134C16.22 102.134 15.82 102.134 15.23 102.134C14.64 102.134 14.21 102.134 13.91 102.134V104.434H29.86V102.134C29.85 102.114 29.58 102.154 29.06 102.224ZM25.11 71.914C25.59 71.634 26.42 71.504 27.59 71.504C27.94 71.504 28.5 71.504 29.24 71.504C32.51 71.504 34.8 72.064 36.11 73.174C37.42 74.294 38.08 76.174 38.08 78.824C38.08 81.414 37.45 83.314 36.18 84.544C34.66 86.034 32 86.774 28.21 86.774L24.37 86.584V73.884C24.38 72.844 24.62 72.194 25.11 71.914Z" fill="white"/>
<path d="M58.27 102.224C57.75 102.294 57.28 102.334 56.86 102.334C55.92 102.334 55.17 102.174 54.62 101.844C53.93 101.424 53.59 100.724 53.59 99.754V87.394H54.99C58.25 87.394 60.49 88.064 61.7 89.394C62.91 90.724 63.77 93.744 64.29 98.454C64.61 100.984 65.19 102.764 66.03 103.784C66.87 104.804 68.19 105.314 70 105.314C72.32 105.314 73.94 104.444 74.84 102.704C75.49 101.444 75.81 99.414 75.81 96.614H74.01C74.01 99.984 73.33 101.664 71.95 101.664C70.98 101.664 69.85 98.764 68.55 92.954C68.06 91.004 67.28 89.574 66.2 88.644C65.11 87.724 63.59 87.064 61.62 86.674C65.95 85.994 68.95 84.844 70.6 83.234C71.83 82.004 72.44 80.244 72.44 77.944C72.44 75.164 71.4 72.984 69.33 71.394C67.52 70.004 65.27 69.304 62.58 69.304H43.14V71.604C43.5 71.604 43.99 71.604 44.6 71.604C46.22 71.604 47.25 71.724 47.67 71.964C48.09 72.204 48.3 72.874 48.3 73.964V99.634C48.3 100.634 48.08 101.294 47.64 101.614C47.2 101.934 46.54 102.094 45.66 102.094C45.43 102.094 45.03 102.094 44.44 102.094C43.85 102.094 43.41 102.094 43.12 102.094V104.394H59.07V102.094C59.06 102.114 58.79 102.154 58.27 102.224ZM54.37 71.754C54.89 71.514 55.83 71.384 57.19 71.384C57.48 71.384 57.93 71.384 58.55 71.384C61.79 71.384 64.08 72.034 65.4 73.334C66.44 74.374 66.96 75.984 66.96 78.164C66.96 81.964 65.28 84.164 61.9 84.744C60.61 84.974 57.83 85.084 53.59 85.084V73.634C53.59 72.624 53.85 72.004 54.37 71.754Z" fill="white"/>
<path d="M107.81 91.214L107.18 104.414H77.59V102.224C77.88 102.224 78.32 102.224 78.91 102.224C79.49 102.224 79.9 102.224 80.13 102.224C81.01 102.224 81.66 102.064 82.1 101.744C82.54 101.424 82.76 100.754 82.76 99.754V73.994C82.76 72.894 82.55 72.224 82.13 71.984C81.71 71.744 80.68 71.624 79.06 71.624C78.44 71.624 77.96 71.624 77.6 71.624V69.324H106.03L106.71 81.794H104.62C103.94 77.284 102.79 74.424 101.15 73.214C99.52 72.004 96.18 71.404 91.14 71.404C90.01 71.404 89.21 71.594 88.74 71.964C88.27 72.334 88.04 72.994 88.04 73.944V85.114C90.89 85.114 92.87 84.724 93.97 83.954C95.33 82.984 96.01 81.164 96.01 78.484H98.09V93.744H96.01C96.01 91.354 95.54 89.714 94.6 88.814C93.47 87.714 91.28 87.174 88.04 87.174V99.754C88.04 101.474 88.61 102.424 89.74 102.624C89.93 102.654 90.21 102.654 90.57 102.624C95.55 102.624 98.94 102.074 100.75 100.984C103.17 99.504 104.93 96.254 106.03 91.224H107.81V91.214Z" fill="white"/>
<path d="M132.6 104.414H130.7L119.18 72.454V96.064C119.18 98.364 119.45 99.904 120.01 100.684C120.79 101.784 122.44 102.334 124.97 102.334V104.414H110.82V102.334C112.96 102.334 114.44 101.964 115.25 101.214C116.22 100.304 116.71 98.584 116.71 96.044V73.894C116.71 72.824 116.47 72.154 116 71.894C115.53 71.634 114.43 71.504 112.71 71.504C112.09 71.504 111.59 71.504 111.2 71.504V69.314H123.36L132.8 96.164L141.86 69.314H153.78V71.504C153.45 71.504 153 71.504 152.41 71.504C151.82 71.504 151.42 71.504 151.19 71.504C150.34 71.504 149.7 71.674 149.26 72.014C148.82 72.354 148.6 73.004 148.6 73.974V99.734C148.6 100.864 148.87 101.544 149.43 101.774C149.98 102.004 151.43 102.114 153.77 102.114V104.414H138V102.114C138.42 102.114 138.97 102.114 139.64 102.114C140.32 102.114 140.78 102.114 141.04 102.114C141.91 102.114 142.54 101.954 142.92 101.634C143.31 101.314 143.5 100.654 143.5 99.654V72.494L132.6 104.414Z" fill="white"/>
<path d="M172.57 102.224V104.414H156.73V102.224C156.96 102.224 157.34 102.224 157.89 102.224C158.44 102.224 158.86 102.224 159.15 102.224C160.05 102.224 160.73 102.074 161.19 101.784C161.77 101.394 162.06 100.714 162.06 99.744V73.994C162.06 72.894 161.83 72.224 161.38 71.984C160.93 71.744 159.88 71.624 158.23 71.624C157.58 71.624 157.08 71.624 156.73 71.624V69.324H172.57V71.624C172.02 71.624 171.57 71.624 171.23 71.624C170.89 71.624 170.62 71.624 170.43 71.624C169.2 71.624 168.39 71.754 168.02 72.014C167.65 72.274 167.46 72.944 167.46 74.014V99.844C167.46 100.984 167.75 101.664 168.33 101.894C168.92 102.114 170.33 102.224 172.57 102.224Z" fill="white"/>
<path d="M205.91 91.214L205.28 104.414H175.68V102.224C175.97 102.224 176.41 102.224 177 102.224C177.59 102.224 177.99 102.224 178.22 102.224C179.1 102.224 179.76 102.064 180.2 101.744C180.64 101.424 180.86 100.754 180.86 99.754V73.994C180.86 72.894 180.65 72.224 180.23 71.984C179.81 71.744 178.78 71.624 177.16 71.624C176.54 71.624 176.05 71.624 175.69 71.624V69.324H204.12L204.8 81.794H202.72C202.04 77.284 200.88 74.424 199.25 73.214C197.62 72.004 194.28 71.404 189.24 71.404C188.11 71.404 187.31 71.594 186.84 71.964C186.37 72.334 186.14 72.994 186.14 73.944V85.114C189 85.114 190.97 84.724 192.07 83.954C193.43 82.984 194.11 81.164 194.11 78.484H196.19V93.744H194.11C194.11 91.354 193.64 89.714 192.7 88.814C191.57 87.714 189.38 87.174 186.14 87.174V99.754C186.14 101.474 186.7 102.424 187.84 102.624C188.03 102.654 188.31 102.654 188.66 102.624C193.64 102.624 197.03 102.074 198.84 100.984C201.27 99.504 203.02 96.254 204.12 91.224H205.91V91.214Z" fill="white"/>
<path d="M222.67 102.224C222.15 102.294 221.68 102.334 221.26 102.334C220.31 102.334 219.57 102.174 219.02 101.844C218.34 101.424 218 100.724 218 99.754V87.394H219.4C222.66 87.394 224.9 88.064 226.11 89.394C227.32 90.724 228.18 93.744 228.7 98.454C229.02 100.984 229.6 102.764 230.44 103.784C231.28 104.804 232.6 105.314 234.41 105.314C236.74 105.314 238.35 104.444 239.26 102.704C239.9 101.444 240.23 99.414 240.23 96.614H238.43C238.43 99.984 237.74 101.664 236.37 101.664C235.4 101.664 234.27 98.764 232.97 92.954C232.49 91.004 231.7 89.574 230.62 88.644C229.54 87.724 228.01 87.064 226.03 86.674C230.36 85.994 233.36 84.844 235 83.234C236.23 82.004 236.84 80.244 236.84 77.944C236.84 75.164 235.8 72.984 233.73 71.394C231.92 70.004 229.67 69.304 226.98 69.304H207.52V71.604C207.88 71.604 208.36 71.604 208.98 71.604C210.6 71.604 211.63 71.724 212.05 71.964C212.48 72.204 212.69 72.874 212.69 73.964V99.634C212.69 100.634 212.47 101.294 212.03 101.614C211.59 101.934 210.94 102.094 210.06 102.094C209.83 102.094 209.43 102.094 208.84 102.094C208.25 102.094 207.81 102.094 207.52 102.094V104.394H223.47V102.094C223.46 102.114 223.19 102.154 222.67 102.224ZM218.77 71.754C219.29 71.514 220.23 71.384 221.59 71.384C221.88 71.384 222.33 71.384 222.95 71.384C226.19 71.384 228.47 72.034 229.81 73.334C230.84 74.374 231.36 75.984 231.36 78.164C231.36 81.964 229.68 84.164 226.31 84.744C225.01 84.974 222.24 85.084 218 85.084V73.634C218 72.624 218.25 72.004 218.77 71.754Z" fill="white"/>
<path d="M160.33 129.874C162.86 129.874 164.64 130.354 165.65 131.304C166.46 132.054 166.86 133.234 166.86 134.854C166.86 136.764 166.27 138.054 165.09 138.714C164.18 139.234 162.6 139.494 160.36 139.494C159.2 139.494 158.44 139.404 158.09 139.234C157.74 139.054 157.56 138.634 157.56 137.974V129.874H160.33ZM167.96 139.564C169.72 138.484 170.61 136.874 170.61 134.734C170.6 134.584 170.6 134.434 170.61 134.264C170.61 133.204 170.32 132.314 169.74 131.584C168.74 130.364 166.91 129.534 164.26 129.094C165.9 128.694 167.16 128.104 168.03 127.314C168.98 126.444 169.46 125.334 169.46 124.004C169.46 122.254 168.98 120.914 168.03 119.984C166.93 118.904 165.16 118.364 162.73 118.364H150.93V119.774C151.16 119.774 151.47 119.774 151.87 119.774C152.91 119.774 153.57 119.854 153.84 120.004C154.11 120.164 154.24 120.594 154.24 121.304V137.904C154.24 138.554 154.1 138.974 153.82 139.184C153.54 139.394 153.12 139.494 152.55 139.494C152.4 139.494 152.15 139.494 151.77 139.494C151.39 139.494 151.11 139.494 150.92 139.494V140.904H162.35C164.62 140.904 166.49 140.464 167.96 139.564ZM158.15 119.964C158.4 119.834 158.9 119.774 159.65 119.774C159.81 119.774 160.07 119.774 160.4 119.774C162.79 119.774 164.39 120.294 165.2 121.334C165.66 121.914 165.88 122.854 165.88 124.144C165.88 125.854 165.38 127.044 164.38 127.734C163.52 128.314 162.11 128.604 160.14 128.604L157.55 128.574V121.174C157.56 120.574 157.76 120.174 158.15 119.964Z" fill="white"/>
<path d="M171.53 138.844C171.07 139.204 170.34 139.394 169.32 139.394V140.904H177.34V139.394C176.2 139.394 175.4 139.284 174.94 139.054C174.47 138.824 174.24 138.444 174.24 137.904C174.24 137.554 174.34 137.064 174.55 136.434C174.76 135.814 175.05 135.074 175.42 134.224C175.59 133.854 175.68 133.654 175.7 133.634H184.12L185.53 137.514C185.67 137.884 185.73 138.204 185.73 138.474C185.73 138.894 185.61 139.154 185.36 139.284C185.11 139.414 184.75 139.474 184.27 139.474C184 139.454 183.73 139.444 183.46 139.424C183.19 139.404 182.94 139.404 182.71 139.404V140.914H192.03V139.404H191.72C190.87 139.404 190.27 139.264 189.91 138.994C189.66 138.804 189.45 138.434 189.29 137.864L181.32 118.054H180.1L172.81 136.774C172.42 137.784 171.99 138.474 171.53 138.844ZM183.49 132.034H176.28L179.78 122.934L183.49 132.034Z" fill="white"/>
<path d="M198.8 139.574V140.904H190.15V139.564C191.48 139.444 192.37 139.084 192.82 138.504C193.28 137.924 193.5 136.934 193.5 135.544V120.874C193.15 120.434 192.8 120.154 192.46 120.034C192.12 119.914 191.35 119.844 190.15 119.844V118.364L196.23 118.384L208.57 135.404V123.734C208.57 122.154 208.32 121.084 207.81 120.524C207.3 119.974 206.34 119.694 204.93 119.694V118.354H213.62V119.694C212.36 119.694 211.47 119.974 210.98 120.534C210.48 121.094 210.23 122.154 210.23 123.714V141.464H208.96L195.05 122.494V135.524C195.05 137.274 195.37 138.394 196.02 138.894C196.58 139.354 197.51 139.574 198.8 139.574Z" fill="white"/>
<path d="M224.39 139.494V140.904H214.51V139.494C214.63 139.494 214.87 139.494 215.21 139.494C215.55 139.494 215.82 139.494 216.01 139.494C216.55 139.494 216.96 139.404 217.23 139.214C217.58 138.964 217.76 138.524 217.76 137.904V121.304C217.76 120.594 217.6 120.164 217.28 120.004C216.96 119.844 216.04 119.774 214.52 119.774V118.364H224.4V119.774C224.21 119.774 223.94 119.774 223.59 119.774C223.24 119.774 222.97 119.774 222.81 119.774C222.25 119.774 221.82 119.884 221.53 120.104C221.24 120.324 221.09 120.744 221.09 121.364V130.754L229.63 121.934C230.05 121.314 230.25 120.854 230.25 120.574C230.25 120.034 229.29 119.764 227.36 119.764V118.354H236.73V119.764C235.79 119.764 235.05 119.854 234.51 120.054C233.59 120.374 232.69 120.994 231.79 121.914L226.98 126.874L234.61 138.024C234.9 138.624 235.29 139.024 235.78 139.204C236.27 139.384 237.01 139.474 238 139.474V140.884H227.68V139.474C228.1 139.474 228.39 139.474 228.58 139.474C229.43 139.474 230.05 139.434 230.44 139.364C230.83 139.284 231.03 139.104 231.03 138.824C231.03 138.644 230.91 138.374 230.67 138.004L224.65 129.324L221.08 132.904V137.914C221.08 138.844 221.43 139.354 222.12 139.444C222.28 139.484 223.04 139.494 224.39 139.494Z" fill="white"/>
<path d="M35.47 122.544L28.21 141.584H27.05L19.1 121.264C18.89 120.624 18.67 120.244 18.44 120.114C18.09 119.894 17.32 119.784 16.16 119.784V118.374H25.77V119.784C25.73 119.784 25.57 119.784 25.29 119.784C25.01 119.784 24.76 119.784 24.55 119.784C24.01 119.784 23.58 119.864 23.27 120.024C22.96 120.184 22.8 120.504 22.8 120.984C22.8 121.254 22.85 121.544 22.95 121.834L28.53 135.994L33.42 123.364C33.75 122.624 33.91 122.014 33.91 121.544C33.91 120.374 32.84 119.784 30.71 119.784V118.374H38.92V119.784C38.02 119.784 37.32 119.974 36.83 120.344C36.31 120.724 35.87 121.454 35.47 122.544Z" fill="white"/>
<path d="M35.64 138.934C35.18 139.304 34.44 139.484 33.42 139.484V141.004H41.47V139.484C40.33 139.484 39.52 139.374 39.06 139.144C38.59 138.914 38.36 138.524 38.36 137.984C38.36 137.624 38.46 137.134 38.67 136.514C38.88 135.884 39.17 135.144 39.55 134.294C39.72 133.914 39.81 133.724 39.83 133.694H48.28L49.69 137.594C49.83 137.974 49.89 138.294 49.89 138.564C49.89 138.984 49.76 139.254 49.51 139.374C49.26 139.494 48.89 139.564 48.41 139.564C48.14 139.544 47.87 139.534 47.6 139.514C47.33 139.494 47.08 139.484 46.85 139.484V141.004H56.2V139.484H55.89C55.03 139.484 54.43 139.344 54.07 139.074C53.82 138.884 53.61 138.504 53.44 137.944L45.43 118.054H44.21L36.89 136.854C36.53 137.864 36.1 138.564 35.64 138.934ZM47.64 132.094H40.4L43.92 122.954L47.64 132.094Z" fill="white"/>
<path d="M75.98 132.334L75.48 140.994H57.15V139.584C57.34 139.584 57.62 139.584 58 139.584C58.38 139.584 58.64 139.584 58.78 139.584C59.35 139.584 59.77 139.484 60.05 139.264C60.33 139.054 60.47 138.624 60.47 137.974V121.304C60.47 120.594 60.33 120.154 60.06 120.004C59.79 119.844 59.13 119.774 58.08 119.774C57.68 119.774 57.37 119.774 57.14 119.774V118.364H67.21V119.774C67.02 119.774 66.75 119.774 66.38 119.774C66.01 119.774 65.75 119.774 65.58 119.774C65.01 119.774 64.59 119.874 64.31 120.084C64.03 120.294 63.89 120.724 63.89 121.364V137.984C63.89 138.734 64.08 139.194 64.45 139.344C64.83 139.504 65.8 139.584 67.36 139.584C69.86 139.584 71.54 139.214 72.39 138.484C73.45 137.564 74.24 135.514 74.77 132.324H75.98V132.334Z" fill="white"/>
<path d="M96.47 132.334L95.97 140.994H77.64V139.584C77.83 139.584 78.11 139.584 78.49 139.584C78.87 139.584 79.13 139.584 79.28 139.584C79.85 139.584 80.27 139.484 80.55 139.264C80.83 139.054 80.98 138.624 80.98 137.974V121.304C80.98 120.594 80.84 120.154 80.57 120.004C80.3 119.844 79.64 119.774 78.59 119.774C78.19 119.774 77.88 119.774 77.65 119.774V118.364H87.72V119.774C87.53 119.774 87.26 119.774 86.89 119.774C86.52 119.774 86.26 119.774 86.09 119.774C85.52 119.774 85.1 119.874 84.82 120.084C84.54 120.294 84.4 120.724 84.4 121.364V137.984C84.4 138.734 84.59 139.194 84.96 139.344C85.33 139.504 86.3 139.584 87.87 139.584C90.37 139.584 92.05 139.214 92.9 138.484C93.96 137.564 94.75 135.514 95.28 132.324H96.47V132.334Z" fill="white"/>
<path d="M117.62 132.494L117.21 141.004H98.13V139.594C98.32 139.594 98.6 139.594 98.98 139.594C99.36 139.594 99.62 139.594 99.77 139.594C100.34 139.594 100.76 139.494 101.04 139.284C101.32 139.074 101.46 138.644 101.46 138.004V121.394C101.46 120.684 101.32 120.254 101.05 120.094C100.78 119.934 100.12 119.854 99.07 119.854C98.67 119.854 98.36 119.854 98.13 119.854V118.374H116.46L116.9 126.414H115.56C115.12 123.504 114.38 121.664 113.33 120.884C112.28 120.104 110.13 119.714 106.87 119.714C106.14 119.714 105.63 119.834 105.32 120.074C105.02 120.314 104.87 120.744 104.87 121.344V128.544C106.71 128.544 107.99 128.294 108.7 127.794C109.58 127.174 110.02 125.994 110.02 124.274H111.36V134.124H110.02C110.02 132.584 109.72 131.534 109.11 130.944C108.38 130.234 106.97 129.884 104.88 129.884V137.994C104.88 139.104 105.25 139.724 105.97 139.844C106.1 139.864 106.27 139.864 106.5 139.844C109.71 139.844 111.9 139.494 113.07 138.784C114.63 137.824 115.77 135.734 116.47 132.494H117.62V132.494Z" fill="white"/>
<path d="M137.4 121.644L131.61 131.464V138.044C131.61 138.764 131.71 139.194 131.9 139.354C132.1 139.514 132.69 139.594 133.66 139.594H135.19V141.004H124.58V139.594C124.85 139.594 125.21 139.594 125.67 139.594C126.13 139.594 126.43 139.594 126.57 139.594C127.13 139.594 127.54 139.494 127.78 139.284C128.03 139.074 128.16 138.644 128.16 138.004V131.664L121.87 121.654C121.37 120.864 120.95 120.364 120.62 120.164C120.29 119.964 119.66 119.864 118.74 119.864V118.384H128.34V119.864C127.4 119.864 126.85 119.874 126.69 119.894C125.9 119.994 125.51 120.274 125.51 120.714C125.51 120.984 125.64 121.324 125.9 121.724L130.83 129.574L135 122.424C135.3 121.904 135.45 121.484 135.45 121.144C135.45 120.294 134.41 119.864 132.33 119.864V118.384H140.59V119.864C139.65 119.864 139.02 119.954 138.7 120.114C138.38 120.274 137.94 120.784 137.4 121.644Z" fill="white"/>
<path d="M26.9 182.374V184.064H25.62C24.76 184.064 23.97 183.734 23.81 182.724C23.21 183.654 21.92 184.264 20.27 184.264C17.94 184.264 16.46 183.054 16.46 181.034C16.46 179.244 17.59 177.924 20.48 177.924H23.55V177.384C23.55 175.844 22.62 175.114 21.24 175.114C19.84 175.114 18.93 175.814 18.87 176.904H16.79C16.85 174.624 18.72 173.304 21.32 173.304C23.79 173.304 25.81 174.534 25.81 177.404V181.674C25.81 182.254 26.04 182.374 26.51 182.374H26.9V182.374ZM23.55 179.474H20.79C19.27 179.474 18.79 180.154 18.79 180.934C18.79 182.004 19.64 182.474 20.79 182.474C22.36 182.474 23.55 181.624 23.55 179.904V179.474Z" fill="white"/>
<path d="M43.26 168.764V184.064H41.2L41.01 182.454C40.37 183.524 38.99 184.264 37.37 184.264C34.47 184.264 32.36 182.254 32.36 178.814C32.36 175.274 34.56 173.294 37.37 173.294C39.02 173.294 40.35 173.994 40.99 175.064V168.764H43.26ZM40.96 178.814C40.96 176.644 39.6 175.294 37.83 175.314C35.98 175.314 34.7 176.674 34.7 178.814C34.7 180.994 36 182.274 37.83 182.274C39.6 182.274 40.96 180.994 40.96 178.814Z" fill="white"/>
<path d="M45.82 169.194H48.31V171.544H45.82V169.194ZM45.95 173.524H48.2V184.064H45.95V173.524Z" fill="white"/>
<path d="M55.26 181.674L58.37 173.494H60.8L56.47 184.054H53.96L49.74 173.494H52.11L55.26 181.674Z" fill="white"/>
<path d="M62.2 169.194H64.69V171.544H62.2V169.194ZM62.33 173.524H64.58V184.064H62.33V173.524Z" fill="white"/>
<path d="M68.86 180.874C68.88 181.964 69.89 182.604 71.27 182.604C72.65 182.604 73.47 182.084 73.47 181.164C73.47 180.364 73.06 179.934 71.86 179.744L69.74 179.374C67.68 179.024 66.88 177.954 66.88 176.454C66.88 174.554 68.75 173.324 71.14 173.324C73.71 173.324 75.59 174.554 75.61 176.654H73.39C73.37 175.584 72.44 174.994 71.14 174.994C69.9 174.994 69.12 175.504 69.12 176.364C69.12 177.124 69.65 177.474 70.83 177.684L72.91 178.054C74.87 178.404 75.77 179.374 75.77 180.954C75.77 183.144 73.75 184.264 71.3 184.264C68.52 184.264 66.65 182.934 66.61 180.874H68.86V180.874Z" fill="white"/>
<path d="M77.8 169.194H80.29V171.544H77.8V169.194ZM77.92 173.524H80.17V184.064H77.92V173.524Z" fill="white"/>
<path d="M87.91 173.294C91.12 173.294 93.35 175.544 93.35 178.794C93.35 182.044 91.13 184.264 87.91 184.264C84.72 184.264 82.49 182.044 82.49 178.794C82.49 175.544 84.72 173.294 87.91 173.294ZM87.91 182.334C89.8 182.334 91.04 180.934 91.04 178.774C91.04 176.584 89.8 175.214 87.91 175.214C86.04 175.214 84.8 176.584 84.8 178.774C84.81 180.934 86.04 182.334 87.91 182.334Z" fill="white"/>
<path d="M105.43 177.764V184.064H103.16V178.234C103.16 176.254 102.15 175.294 100.61 175.294C98.86 175.294 97.91 176.524 97.91 178.404V184.074H95.66V173.534H97.7L97.86 174.954C98.46 173.944 99.59 173.324 101.2 173.324C103.86 173.314 105.43 175.064 105.43 177.764Z" fill="white"/>
<path d="M116.97 173.294C120.18 173.294 122.41 175.544 122.41 178.794C122.41 182.044 120.19 184.264 116.97 184.264C113.78 184.264 111.55 182.044 111.55 178.794C111.55 175.544 113.77 173.294 116.97 173.294ZM116.97 182.334C118.86 182.334 120.1 180.934 120.1 178.774C120.1 176.584 118.86 175.214 116.97 175.214C115.1 175.214 113.86 176.584 113.86 178.774C113.86 180.934 115.09 182.334 116.97 182.334Z" fill="white"/>
<path d="M125.44 173.524V171.814C125.44 169.814 126.39 168.744 128.67 168.744H130.21V170.644H129.06C127.93 170.644 127.7 171.204 127.7 171.974V173.524H130.21V175.494H127.7V184.064H125.43V175.494H123.7V173.524H125.44V173.524Z" fill="white"/>
<path d="M138.44 177.674V184.064H136.11V169.404H138.44V175.544H145.63V169.404H147.96V184.064H145.63V177.674H138.44Z" fill="white"/>
<path d="M157 184.064H154.69V171.464H149.89V169.404H161.79V171.464H157V184.064Z" fill="white"/>
<path d="M173.11 181.914V184.064H163.74V169.404H166.07V181.924H173.11V181.914Z" fill="white"/>
<path d="M177.54 171.464V175.854H183.95V177.874H177.54V184.074H175.21V169.414H184.91V171.474H177.54V171.464Z" fill="white"/>
<path d="M202.39 180.004C202.39 182.494 200.54 184.064 197.51 184.064H190.92V169.404H197.04C200.17 169.404 201.88 170.904 201.88 173.254C201.88 174.484 201.39 175.854 199.88 176.464C201.48 176.954 202.39 178.314 202.39 180.004ZM196.91 171.424H193.24V175.684H197.09C198.63 175.684 199.52 174.834 199.52 173.544C199.52 172.284 198.66 171.424 196.91 171.424ZM199.96 179.834C199.96 178.414 198.99 177.574 197.39 177.574H193.25V182.044H197.27C199.01 182.044 199.96 181.224 199.96 179.834Z" fill="white"/>
<path d="M214.44 182.374V184.064H213.16C212.3 184.064 211.51 183.734 211.35 182.724C210.75 183.654 209.46 184.264 207.81 184.264C205.48 184.264 204 183.054 204 181.034C204 179.244 205.13 177.924 208.02 177.924H211.09V177.384C211.09 175.844 210.16 175.114 208.78 175.114C207.38 175.114 206.47 175.814 206.41 176.904H204.33C204.39 174.624 206.26 173.304 208.86 173.304C211.33 173.304 213.35 174.534 213.35 177.404V181.674C213.35 182.254 213.58 182.374 214.05 182.374H214.44V182.374ZM211.08 179.474H208.32C206.8 179.474 206.32 180.154 206.32 180.934C206.32 182.004 207.17 182.474 208.32 182.474C209.89 182.474 211.08 181.624 211.08 179.904V179.474Z" fill="white"/>
<path d="M226.1 177.764V184.064H223.83V178.234C223.83 176.254 222.82 175.294 221.28 175.294C219.53 175.294 218.58 176.524 218.58 178.404V184.074H216.33V173.534H218.37L218.53 174.954C219.13 173.944 220.26 173.324 221.87 173.324C224.53 173.314 226.1 175.064 226.1 177.764Z" fill="white"/>
<path d="M228.66 168.764H230.91V178.194L235.52 173.504H238.32L233.81 178.054L238.36 184.074H235.52L232.21 179.644L230.97 180.894V184.064H228.66V168.764V168.764Z" fill="white"/>
</svg>