<?xml version="1.0" encoding="utf-8"?>
<!-- Generator: Adobe Illustrator 25.2.0, SVG Export Plug-In . SVG Version: 6.00 Build 0)  -->
<svg version="1.1" id="Layer_1" xmlns="http://www.w3.org/2000/svg" xmlns:xlink="http://www.w3.org/1999/xlink" x="0px" y="0px"
	 viewBox="0 0 300 150" style="enable-background:new 0 0 300 150;" xml:space="preserve">
<style type="text/css">
	.st0{fill:#FFFFFF;}
</style>
<path class="st0" d="M9,100.5l8.3-7.1l7.2-6.5l6.7,2.9l9-8l6.1-3.3l4.2-5.7l5.1-4.5l11.3,11.2l17.8,9.3h12.6l8,11.6H9V100.5z
	 M50.5,37.2h8.3c3.2,0,5.7,3,5.8,6.5c0.1,3.6-2.6,7-6.2,7.1h-8L50.5,37.2z M6.7,60.2C6.7,32.6,29,10,56.5,10s49.8,22.6,49.8,50.3
	c0,9.9-2.8,19-7.7,26.8h-9.9L72.8,59.4c7.5-3.6,10.1-7.8,10.1-17.1c-0.3-11.2-9.6-16.7-20.9-16.7H33.5v59.6l-2.9,2.6l-6.5-2.9
	l-7,6.2C10.6,82.5,6.7,71.8,6.7,60.2"/>
<path class="st0" d="M6.7,60.2C6.7,32.6,29,10,56.5,10s49.8,22.6,49.8,50.3c0,9.9-2.8,19-7.7,26.8h-9.9L72.8,59.4
	c7.5-3.6,10.1-7.8,10.1-17.1c-0.3-11.2-9.6-16.7-20.9-16.7H33.5v59.6l-2.9,2.6l-6.5-2.9l-7,6.2C10.6,82.5,6.7,71.8,6.7,60.2"/>
<path class="st0" d="M50.5,37.2v13.5h8c3.6,0,6.4-3.3,6.2-7.1c-0.1-3.3-2.6-6.4-5.8-6.4H50.5z"/>
<path class="st0" d="M9,100.5l8.3-7.1l7.1-6.5l6.7,3l9.1-8l5.9-3.3l4.2-5.7l5.1-4.5l11.4,11.2l17.8,9.3h12.8l8,11.6H9z"/>
<g>
	<path class="st0" d="M108.7,90.4c0,1.7-1.4,3.3-3,3.3c-1.7,0-3.2-1.6-3.2-3.3s1.3-3.3,3.2-3.3C107.4,87,108.7,88.5,108.7,90.4
		 M109.3,90.4c0-2-1.6-3.8-3.6-3.8c-2.2,0-3.8,1.7-3.8,3.8c0,2,1.6,3.8,3.8,3.8C107.7,94.1,109.3,92.4,109.3,90.4 M105.1,88.5h0.4
		c0.4,0,0.7,0.1,0.7,0.9c0,0.6-0.1,1-0.7,1h-0.4V88.5z M103.8,88.5c0.3,0,0.6,0,0.6,0.3v2.9c0,0.4,0,0.4-0.6,0.6v0.1h1.7v-0.1
		c-0.6,0-0.6,0-0.6-0.6v-1.2h0.6c0.7,1,1,1.7,1.3,1.7h0.7v-0.1l-0.9-0.9l-0.6-0.9c0.4-0.1,0.9-0.6,0.9-1.2c0-0.7-0.6-1-1.3-1h-1.9
		C103.8,88.2,103.8,88.5,103.8,88.5z M132.5,96.6c-2.5,0-4.5-0.9-4.5-1.9l-0.1-9.3c4.1-0.7,8.1,0.7,8.4,5.8
		C136.4,95.4,134.2,96.5,132.5,96.6 M127.7,74.3c4.1-0.7,6.2,0.6,6.5,4.5c0.1,2.6-0.7,4.8-2.2,4.8h-4.2L127.7,74.3z M134.6,83.7
		c4.9-2,7.1-4.5,6.1-8.1c-0.7-2.5-3.9-4.2-9.4-3.8c-5.1,0.4-9,0.7-13,0.4V74c1.6,0,2.2,0.6,2.2,1.7c0.3,7.7,0.3,14.1,0.1,19.4
		c-0.1,0.9-1,1.6-2.3,1.6v1.7c3.5-0.1,7.1,0,10.7,0.1c8.7,0.6,14.5-2.2,14.8-7.8C143.8,87,140.4,84.1,134.6,83.7 M150.6,92.7v-2.3
		l4.9-1.7v3.8C155.5,94.3,150.4,94.9,150.6,92.7 M162.2,93.9l0.3-11.9c0-2.6-2.6-3.8-6.4-2.9l-10.7,2.8c-0.3,3.5,0.6,5.2,2.6,5.2
		c2.6,0,3.2-1.7,3.2-4.6c2.8-0.7,4.2-0.1,4.3,1.3l-0.1,3l-10.7,3.8c-0.7,1.4-0.9,3-0.6,4.9c0.4,2.2,2.2,3.2,5.4,3.2
		c2.2-1.6,4.2-2.9,6.1-3.8c0.1,1.7,0.6,3,1.2,3.6c2.6-1.2,5.2-1.7,7.5-1.7l-0.1-1.6C162.8,95.3,162.2,94.9,162.2,93.9 M211,97.2v1.6
		c-2.8-0.3-5.8-0.4-8.5-0.1l-5.1-8.5c-0.1-0.3-0.4-0.4-0.6-0.6v6.1c0,1,0.6,1.4,1.7,1.6v1.7c-2.9-0.4-7.4-0.3-10.1,0V97
		c1-0.1,1.9-0.7,1.9-1.6c0.1-8.5,0.1-15.5-0.1-21.2c0-0.9-0.4-1.3-2.2-1.4v-1.4c3.3,0,6.5-0.4,8.8-1.2c0.3-0.1,0.4,0,0.4,0.3
		c-0.1,2.8-0.4,7.5-0.4,14.2v3.5c1.4-1.2,3-2.5,4.5-4.3c0.4-0.6,0.7-1.4,0.3-1.7c-0.3-0.3-1-0.3-1.7-0.4v-1.7
		c4.8,0.4,8.3-0.1,10.3-0.3l0.1,1.3c-0.3,0-0.6,0.1-0.9,0.3l-7.5,5.2l7.7,9.7C209.7,96.7,210.3,97,211,97.2 M188,96.6v1.6
		c-3.3-0.1-6.7-0.1-9,0l0.1-12.6c0-2.3-3-2.5-5.2-1.2v10.4c0,1,1,1.7,2.2,1.7v1.4c-3.2-0.1-8.1-0.4-11-0.1c0-0.6,0-0.7,0.1-1.4
		c0.7,0,1.7-0.6,1.9-1.9c0.1-3.9,0-7.8,0-12.2c-0.1-1.3-1.2-1.6-2.3-1.4v-1.6c3.6,0.1,7-0.6,9.1-0.7v3.9c1.7-0.7,3.3-3.8,7.5-3.8
		c2.8,0,4.5,1.7,4.5,4.9V95C185.8,96.2,186.8,96.6,188,96.6 M293.5,66.5v1.6c-3.3-0.1-6.7-0.1-9,0l0.1-12.6c0-2.3-3-2.5-5.2-1.2
		v10.6c0,1,1,1.7,2.2,1.7v1.4c-3.2-0.1-8.1-0.4-11-0.1c0-0.6,0-0.7,0.1-1.4c0.7,0,1.7-0.6,1.9-1.9c0.1-3.9,0-7.8,0-12.2
		c-0.1-1.3-1.2-1.6-2.3-1.4v-1.6c3.6,0.1,7-0.6,9.1-0.7v3.9c1.7-0.7,3.3-3.8,7.5-3.8c2.8,0,4.5,1.7,4.5,4.9V65
		C291.3,66,292.3,66.6,293.5,66.5 M263.3,48.2c-1-1.3-2.3-2.8-3.8-4.2c1.6-1.4,3-2.8,4.3-3.8c1.3,1.6,2.6,3,3.8,4.3
		C266.6,45.2,265.2,46.5,263.3,48.2 M269.4,66.6v1.4c-3.2-0.1-8.1-0.1-11,0v-1.6c0.7,0,1.9-0.3,2-1.6c0.1-3.9,0-7.8,0-12.2
		c-0.1-1.3-1.2-1.7-2.3-1.7v-1.6c3.6,0.1,6.8-0.3,9.1-0.7c-0.1,4.5-0.1,9.9,0,16.2C267.2,65.9,268.2,66.5,269.4,66.6 M243.9,62.6
		v-2.3l4.9-1.7v3.8C249,64.1,243.9,64.7,243.9,62.6 M255.6,63.7l0.3-11.9c0-2.6-2.6-3.8-6.4-2.9l-10.7,2.8c-0.3,3.5,0.6,5.2,2.6,5.2
		c2.6,0,3.2-1.7,3.2-4.6c2.8-0.7,4.2-0.1,4.3,1.3l-0.1,3l-10.7,3.8c-0.1,0.1-0.1,0.4-0.3,0.6v0.1c0,0.1-0.1,0.3-0.1,0.4v0.3
		c0,0.1-0.1,0.4-0.1,0.6v0.9c0,0-0.1,0-0.1,0.1c-0.1,0-0.3,0.1-0.3,0.1s-0.1,0-0.1,0.1c-0.1,0-0.1,0.1-0.3,0.1c0,0-0.1,0-0.1,0.1
		c-0.1,0-0.1,0-0.3,0.1h-0.4h-0.1h-0.1h-0.1h-0.1h-0.1h-0.1h-0.1h-0.1h-0.1c0,0-0.1,0-0.1-0.1l-0.1-0.1l-0.1-0.1v-0.1l-0.1-0.1
		c0,0-0.1-0.1-0.1-0.3c-0.1-0.4-0.3-0.9-0.3-1.4c-0.1-3-0.1-6.4-0.1-10c1.4,0,3,0.1,4.5,0.3l1-2.8c-2.2,0.1-4.1,0.3-5.2,0.1l0.4-5.5
		c-2.6,1.2-5.5,1.9-7.7,2c0.1,0.7,0.3,1.9,0.3,3.3h-2.3V52h2.3c0,5.4-0.1,12.9-0.1,12.9c0,2.5,1.6,3.5,4.3,3.5h1.9
		c0.1,0,0.1,0,0.3-0.1c0,0,0.1,0,0.1-0.1c0.1,0,0.1,0,0.3-0.1c0.1,0,0.1,0,0.3-0.1c0.1,0,0.1,0,0.3-0.1c0.1,0,0.1,0,0.3-0.1
		c0.1,0,0.1,0,0.3-0.1c0.1,0,0.1,0,0.3-0.1c0.1,0,0.1-0.1,0.3-0.1s0.1-0.1,0.3-0.1s0.1-0.1,0.3-0.1c0.1,0,0.1-0.1,0.3-0.1
		c0.1,0,0.1-0.1,0.3-0.1s0.1-0.1,0.3-0.1s0.1-0.1,0.3-0.1s0.1-0.1,0.3-0.1c0.1,0,0.1-0.1,0.3-0.1s0.1-0.1,0.3-0.1s0.1-0.1,0.3-0.1
		l0.1-0.1c0.1,0,0.1-0.1,0.3-0.1c0,0,0.1,0,0.1-0.1l0.1-0.1v0.6c0,0,0,0.1,0.1,0.1c0,0,0,0.1,0.1,0.1c0,0,0,0.1,0.1,0.1
		c0,0,0,0.1,0.1,0.1l0.1,0.1c0,0,0,0.1,0.1,0.1l0.1,0.1l0.1,0.1l0.1,0.1l0.1,0.1l0.1,0.1c0,0,0.1,0,0.1,0.1c0,0,0.1,0,0.1,0.1
		c0,0,0.1,0,0.1,0.1c0,0,0.1,0,0.1,0.1h3c2.2-1.6,4.2-2.9,6.1-3.8c0.1,1.7,0.6,3,1.2,3.6c2.6-1.2,5.2-1.7,7.5-1.7l-0.1-1.6
		C256.2,65.2,255.6,64.7,255.6,63.7 M223.6,66.6v1.6c-3.3-0.1-6.7-0.1-9,0l0.1-12.6c0-2.3-3-2.5-5.2-1.2V65c0,1,1,1.7,2.2,1.7v1.4
		c-3.2-0.1-8.1-0.4-11-0.1c0-0.6,0-0.7,0.1-1.4c0.7,0,1.7-0.6,1.9-1.9c0.1-3.9,0-7.8,0-12.2c-0.1-1.3-1.2-1.6-2.3-1.4v-1.6
		c3.6,0.1,7-0.6,9.1-0.7v3.9c1.7-0.6,3.3-3.8,7.5-3.8c2.8,0,4.5,1.7,4.5,4.9v11.3C221.6,66.3,222.6,66.8,223.6,66.6 M190.7,68.2
		v-3.3c-1.7,0.6-3.3,3.5-7.5,3.5c-2.8,0-4.3-2-4.3-5.2V51.8c0-1-0.9-1.4-2-1.3v-1.3c3.5,0,6.4-0.1,8.8-0.3l-0.1,12.8
		c0,2.3,3.5,2.8,5.2,1.2V52.1c0-1-0.7-1.7-1.9-1.7v-1.4c3.2,0.1,6.2,0.1,9.1,0c-0.3,5.1-0.4,10.3-0.3,15.8c0.1,1.3,0.7,1.9,1.9,1.9
		v1.4C195.8,67.9,192.9,68.1,190.7,68.2 M169.6,57.9c0.7,4.3-0.3,8.3-2.2,8.5c-2,0.3-4.2-2.9-4.9-7.4c-0.7-4.3,0.1-8.3,2.2-8.5
		C166.5,50.2,168.7,53.6,169.6,57.9 M154.9,58.6c0,5.5,4.8,9.9,10.9,9.9c5.9,0,10.9-4.5,10.9-9.9c0-5.5-4.8-9.9-10.9-9.9
		C159.7,48.8,154.9,53.1,154.9,58.6 M126.5,68.1c-3.6-0.1-6.7,0.7-9.7,0.9v-1.6c1.4,0,2.3-1.6,2.5-2.9c0.7-5.4,1.3-11.4,1.6-18.8
		c0-1.2-1-2-2.3-2v-1.7c4.9,0.1,8.3,0.1,10.3-0.1c0.3,1.7,1,3.9,2.2,6.2c0,0,1.6,3.3,3.5,7.1c0.1,0.3,0.3,0.4,0.4,0.7
		c0.1,0.3,0.3,0.7,0.4,1c0.4,1,1,2,1.4,2.9c2.9-6.5,5.4-12.5,7.5-18c3.6,0.1,7.2,0.1,10,0v1.7c-1.4,0.1-2.5,1-2.5,2.6v18.5
		c0,0.9,0.7,1.6,2.2,1.6l0.1,1.9c-3.9-0.1-8-0.1-12,0v-1.7c1.6,0,2.3-0.4,2.5-1.4l0.1-16.7c-3.3,6.7-6.2,13.3-8.8,19.7h-3.6
		c-3.2-7.5-6.2-14.1-9-19.6c-0.3,7-0.3,12.5,0.3,16.2c0.1,1.2,1.2,1.7,3,1.7L126.5,68.1L126.5,68.1z M184.5,12v-1.4
		c3.3,0,6.5-0.4,8.8-1.2c0.3-0.1,0.4,0,0.4,0.3c-0.1,2.8-0.4,7.5-0.4,14.2v3.5c1.4-1.2,3-2.5,4.5-4.3c0.4-0.6,0.7-1.4,0.3-1.7
		c-0.3-0.3-1-0.3-1.7-0.4v-1.4h9.4v-0.3c2.8,0.1,5.8,0.1,8.7-0.3c1,4.2,2.6,9,4.5,14.3c1.2-3.9,1.9-7.5,2.5-10.6
		c0.1-1.3-0.6-1.9-2.2-1.9l-0.3-1.7c3.2,0.1,6.2,0.1,8.5,0c-1.9,3.5-4.2,8.5-6.8,15.1c-1.7,4.3-3,8.8-4.5,13.8c-2-0.1-4.1-0.1-6.4,0
		c2.9-2.9,5.4-6.2,7-9.7h-3c-2.5-6.8-4.5-12.3-6.2-16.1c0-0.1,0-0.1-0.1-0.3v-0.1v-0.1v-0.1l-0.1-0.1l-0.1-0.1h-0.1h-0.1h-0.1h-0.1
		h-0.1h-0.1h-0.1h-0.1c-0.1,0-0.1,0.1-0.3,0.1l-7.5,5.2l7.7,9.7c0.4,0.4,1,0.7,1.7,0.9v1.6c-2.8-0.3-5.8-0.4-8.5-0.1l-5.1-8.5
		c-0.1-0.3-0.4-0.4-0.6-0.6v6.1c0,1,0.6,1.4,1.7,1.6v1.7c-2.9-0.4-7.4-0.3-10.1,0v-1.9c1-0.1,1.9-0.7,1.9-1.6
		c0.1-8.5,0.1-15.5-0.1-21.2C186.8,12.4,186.2,12,184.5,12 M167.4,30.7c-0.7-3.2,1.4-6.8,4.9-9.6c3.3-2.8,8.3-2.8,11.9-1l-2.8,4.5
		c-2.9-2.8-5.2-3.5-7-2.2c-2.2,1.7-2.2,4.2-0.1,7.4c1.9,3,5.8,3.9,8.8,1.7l0.7,1.6l-7.1,4.9C171.7,37.8,168.6,35.2,167.4,30.7
		 M155.2,20.4c2-0.3,4.2,2.9,4.9,7.4c0.7,4.3-0.1,8.3-2.2,8.5c-2,0.3-4.2-2.9-4.9-7.4C152.2,24.6,153.2,20.8,155.2,20.4 M156.4,38.2
		c5.9,0,10.9-4.3,10.9-9.9s-4.8-9.9-10.9-9.9c-5.9,0-10.9,4.3-10.9,9.9S150.4,38.2,156.4,38.2 M128.1,14.2c0,0,3.5-0.9,5.4,0.1
		c0,0,2.9,1.4,2.9,4.8c0.1,3.3-1,5.1-3.6,5.4l-4.6,0.1V14.2z M130.6,38.1c0,0-0.1-1,0-2c-2.3-0.1-2.3-1.6-2.3-1.6v-7.7
		c0,0,1.6-0.3,2,0.1c1.4,1.7,6.1,11,6.5,11c1.7-0.1,10,0,10,0s-0.1-1.2,0-1.9c-1,0-2-0.7-2.5-1c-0.4-0.4-5.5-7.1-7.2-10.3
		c0.9-0.4,6.8-2.8,6.8-7.5c0-4.5-4.5-5.5-6.2-5.7c-0.4,0-1.7-0.1-2.8-0.1c-2.6,0-7,0.4-9.6,0.4c-2.9,0-7.1-0.1-7.1-0.1v1.6
		c2.2,0.1,2.6,1.3,2.6,1.3v19.7c0,1.6-3,1.9-3,1.9s0.1,1,0,1.7C119.9,37.8,128.4,37.8,130.6,38.1"/>
</g>
<path class="st0" d="M117.1,100.5h174.5v0.9H117.1V100.5z"/>
<g>
	<path class="st0" d="M64.7,126.3h4.8c2.9,0,4.3,1.7,4.3,4.1c0,2.2-1.4,3.9-4.3,3.9h-3.8v4.8h-1V126.3z M69.6,133.1
		c1.9,0,3-1.2,3-2.9s-1-2.9-3-2.9h-3.9v5.8H69.6z M79.4,129.6c2.8,0,4.5,1.9,4.5,4.8c0,2.8-1.7,4.6-4.5,4.6c-2.8,0-4.5-1.9-4.5-4.6
		C74.9,131.7,76.7,129.6,79.4,129.6z M79.4,138.2c2,0,3.5-1.4,3.5-3.8c0-2.3-1.4-3.8-3.5-3.8c-2,0-3.5,1.4-3.5,3.8
		C76,136.7,77.4,138.2,79.4,138.2z M88.1,137.8l2.6-7.8h1l2.6,7.8l2.2-7.8h1l-2.6,9h-1.2l-2.6-7.7l-2.6,7.7h-1.2l-2.8-9h1.2
		L88.1,137.8z M107.4,134.7h-7.5c0,2.3,1.4,3.5,3.3,3.5c1.3,0,2.5-0.7,3-2h1c-0.6,1.7-2,2.9-4.1,2.9c-2.6,0-4.3-1.9-4.3-4.6
		s1.7-4.6,4.3-4.6s4.3,1.7,4.3,4.5v0.4H107.4z M99.9,133.8h6.5c-0.1-2.2-1.4-3.2-3.2-3.2C101.5,130.7,100,131.7,99.9,133.8z
		 M114.1,129.9v1h-1.2c-1.6,0-2.5,1.2-2.5,2.9v5.1h-1v-9h0.9l0.1,1.4c0.4-0.9,1.4-1.4,2.5-1.4H114.1z M123.6,134.7h-7.5
		c0,2.3,1.4,3.5,3.3,3.5c1.3,0,2.5-0.7,3-2h1c-0.6,1.7-2,2.9-4.1,2.9c-2.6,0-4.3-1.9-4.3-4.6s1.7-4.6,4.3-4.6s4.3,1.7,4.3,4.5v0.4
		H123.6z M116,133.8h6.5c-0.1-2.2-1.4-3.2-3.2-3.2C117.5,130.7,116.2,131.7,116,133.8z M133.9,125.7v13.2h-0.9l-0.1-1.6
		c-0.7,1.2-2,1.9-3.5,1.9c-2.3,0-4.3-1.6-4.3-4.6c0-3,2-4.8,4.3-4.8c1.4,0,2.8,0.6,3.5,1.7v-5.8H133.9z M132.9,134.4
		c0-2.3-1.4-3.9-3.3-3.8c-2,0-3.3,1.4-3.3,3.8c0,2.3,1.4,3.8,3.3,3.8S132.9,136.9,132.9,134.4z M148.6,134.4c0,3-2,4.6-4.3,4.6
		c-1.4,0-2.8-0.6-3.5-1.7l-0.1,1.6h-0.9v-13.2h1v5.8c0.7-1.2,2-1.9,3.5-1.9C146.4,129.6,148.6,131.4,148.6,134.4z M147.4,134.4
		c0-2.3-1.3-3.8-3.3-3.8c-1.9,0-3.3,1.4-3.3,3.9c0,2.3,1.4,3.8,3.3,3.8C145.9,138.2,147.4,136.7,147.4,134.4z M153.5,138.5l2.9-8.5
		h1.2l-3.8,10.6c-0.6,1.7-1.4,2.2-2.8,2.2h-1.6v-1h1.6c1.2,0,1.7-0.6,1.7-1.7c0-0.3,0-0.6-0.1-0.9l-3.5-9h1.2L153.5,138.5
		L153.5,138.5z"/>
	<g>
		<path class="st0" d="M224.6,137v-13.6c0-0.1,0.1-0.3,0.3-0.3h17.7c0.1,0,0.3,0.3,0.1,0.3l-4.2,4.2h-7.7v13.6
			c0,0.1-0.1,0.3-0.3,0.3h-5.7c-0.1,0-0.3-0.1-0.3-0.3v-2.8l-3,3h-11.9c-0.1,0-0.3-0.1-0.3-0.3v-16.5l-3,3h-4.6v13.6
			c0,0.1-0.1,0.3-0.3,0.3h-5.7c-0.1,0-0.3-0.1-0.3-0.3v-13.6h-7.4v13.6c0,0.1-0.1,0.3-0.3,0.3h-5.7c-0.1,0-0.3-0.1-0.3-0.3v-9.9
			l-3.2,3.2h-6.1v6.7c0,0.1-0.1,0.3-0.3,0.3h-5.7c-0.1,0-0.3-0.1-0.3-0.3v-18c0-0.1,0.1-0.3,0.3-0.3h5.7c0.1,0,0.3,0.1,0.3,0.3v6.7
			h9.1v-6.7c0-0.1,0.1-0.3,0.3-0.3h5.7c0.1,0,0.3,0.1,0.3,0.3v2.8l3-3h24.1c0.1,0,0.3,0.1,0.3,0.3V137H224.6z"/>
		<path class="st0" d="M240.7,134.4l-4.2-4.2c-0.1-0.1-0.1-0.1-0.3,0l-4.2,4.2c-0.1,0.1,0,0.3,0.1,0.3h8.4
			C240.7,134.7,240.9,134.4,240.7,134.4L240.7,134.4z"/>
	</g>
</g>
</svg>
