<svg xmlns="http://www.w3.org/2000/svg" xmlns:xlink="http://www.w3.org/1999/xlink" version="1.1" id="Layer_1" x="0px" y="0px" style="enable-background:new 0 0 792 612;" xml:space="preserve" viewBox="234.54 251 330.25 139.49">
<style type="text/css">
	.st0{fill:#FFFFFF;stroke:#FFFFFF;}
	.st1{fill-rule:evenodd;clip-rule:evenodd;fill:#FFFFFF;stroke:#FFFFFF;}
	.st2{fill:none;}
	.st3{fill:#FFFFFF;}
	.st4{font-family:'GiovanniStd-Bold';}
	.st5{font-size:23px;}
</style>
<g>
	<polygon class="st0" points="327.11,360.28 293.56,360.36 256.22,345.11 282.8,325.79 310.39,345.83 299.85,313.4 327.11,293.6    327.11,360.28  "/>
	<g>
		<path class="st0" d="M239.55,293.36c-0.92-1.19-2.07-3.37-1.28-5.15c0.98-1.74,2.03,1.36-0.23-14.5    c-0.25-1.27,0.56-1.65,2.51-1.82c1.1-1.1,2.17-3.52,4.5-0.67c0.8,0.72,1.83-0.33,2.38-1.98l0.03-17.18l79.64-0.05v41.36l-33.77,0    l-10.54-32.43l-10.54,32.43H239.55L239.55,293.36z"/>
		<path class="st0" d="M327.61,293.86l-34.63,0l-10.17-31.31l-10.17,31.31h-33.32l-0.15-0.2c-0.57-0.74-2.36-3.35-1.34-5.66    c0.25-0.44,0.48-0.64,0.66-0.79c0.56-0.48,0.8-1.35-0.92-13.44c-0.11-0.59-0.03-1.07,0.25-1.44c0.45-0.6,1.33-0.81,2.52-0.93    c0.13-0.15,0.27-0.31,0.4-0.47c0.61-0.73,1.31-1.55,2.32-1.56c0.77,0,1.56,0.5,2.39,1.52c0.08,0.06,0.17,0.06,0.24,0.04    c0.34-0.09,0.87-0.68,1.25-1.78l0.03-17.6l80.64-0.05V293.86z M293.7,292.86l32.9,0V252.5l-78.64,0.05l-0.06,16.84    c-0.46,1.37-1.2,2.31-1.97,2.51c-0.43,0.11-0.87,0-1.22-0.32c-0.68-0.82-1.22-1.21-1.67-1.21c0,0,0,0,0,0    c-0.55,0-1.06,0.61-1.55,1.2c-0.2,0.24-0.39,0.47-0.59,0.67l-0.13,0.13l-0.18,0.02c-0.73,0.06-1.72,0.19-2,0.55    c-0.04,0.05-0.16,0.21-0.06,0.68c1.89,13.25,1.54,13.55,0.59,14.36c-0.15,0.13-0.28,0.24-0.42,0.48    c-0.58,1.32,0.16,3.11,1.09,4.41h32.1l10.9-33.55L293.7,292.86z"/>
	</g>
	<path class="st0" d="M255.54,344.83l-20.5-8.37l1.49-3.6c2.93-0.8,4.2-2.16,4-4.32c-0.21-2.16-3.22-1.79-3.68-3.01   c-0.04-1.31,1.74-2.33,0.05-4.2c-0.97-1.08,1.58-4.28,2.85-5.64c1.27-1.36-0.25-4.58,0.69-6.53c1.11-3.3,1.4-0.72,3.4-3.98   c1.77-2.88,0.77-3.9-0.46-4.54c-0.76-0.64-0.95-2.99-1.75-4.77l24.12,17.53L255.54,344.83L255.54,344.83z"/>
	<path class="st1" d="M346.62,332.04c0-1.13,0.35-1.79,2.35-1.79c3.05,0,4.88,1.87,4.88,5.06c0,4.36-2.53,5.84-5.54,5.84   c-1.26,0-1.7-0.17-1.7-1.66V332.04L346.62,332.04z M342.35,354.23c0,1.18-0.31,1.31-1.74,1.79c-0.92,0.3-1.13,0.3-1.13,0.7   c0,0.31,0.22,0.48,0.96,0.48c1.09,0,2.79-0.17,5.36-0.17c2.92,0,4.58,0.17,6.5,0.17c4.49,0,7.59-4.01,7.59-8.11   c0-4.1-3.05-6.93-7.11-7.41v-0.09c3.27-1.09,5.45-2.7,5.45-6.23c0-4.32-3.31-6.32-9.16-6.32c-2.7,0-4.97,0.09-8.55,0.52   c-0.61,0.09-1.05,0.31-1.05,0.74c0,0.35,0.22,0.48,0.52,0.48h1.35c0.74,0,1,0.35,1,0.91V354.23L342.35,354.23z M346.62,343.59   c0-0.96,0.35-1.22,2.35-1.22c4.32,0,6.19,2.92,6.19,6.54c0,5.32-2.75,7.06-5.06,7.06c-2.53,0-3.49-1.13-3.49-3.23V343.59   L346.62,343.59z"/>
	<path class="st1" d="M374.79,339.58c0-2.35-0.92-2.96-4.32-2.96c-5.23,0-8.72,4.71-8.72,6.41c0,0.87,0.52,1.44,1.57,1.44   c1.61,0,2.49-1.18,2.7-3.1c0.26-2.31,1.7-3.71,3.36-3.71c1.18,0,1.83,0.79,1.83,1.92v3.75c0,2.75-9.16,5.8-9.16,10.59   c0,2.57,1.39,3.79,3.66,3.79c3.4,0,4.71-3.4,5.23-3.4c0.52,0,0.83,3.23,3.62,3.23c1.88,0,3.79-2.05,3.79-3.49   c0-0.35-0.13-0.52-0.39-0.52c-0.7,0-0.83,1.39-1.74,1.39c-0.65,0-1.44-0.52-1.44-2.27V339.58L374.79,339.58z M371.22,349.43   c0,3.92-1.13,5.49-3.18,5.49c-1.22,0-1.96-1.05-1.96-2.4c0.13-3.05,4.14-6.5,4.71-6.5c0.31,0,0.44,0.09,0.44,0.61V349.43   L371.22,349.43z"/>
	<path class="st0" d="M390.61,354.58c0,0.96-0.22,1.18-1.53,1.57c-0.61,0.17-0.74,0.26-0.74,0.61c0,0.3,0.26,0.44,0.78,0.44   c1.05,0,2.14-0.17,3.18-0.17c2.22,0,3.23,0.17,3.75,0.17c0.35,0,0.57-0.17,0.57-0.35c0-0.35-0.13-0.52-1-0.7   c-1.05-0.17-1.44-0.7-1.44-1.57v-12.47c0-4.01-2.09-5.49-4.8-5.49c-2.53,0-3.71,1.7-5.14,3.44h-0.09v-3.01   c0-0.52-0.09-0.7-0.35-0.7c-0.57,0-0.31,0.48-2.79,1.83c-1.79,0.96-2.66,0.87-2.66,1.48c0,0.48,0.7,0.31,1.31,0.48   c0.7,0.22,0.92,0.35,0.92,1.66v12.21c0,1.48-0.35,1.79-1.53,2.05c-0.57,0.13-0.92,0.31-0.92,0.65c0,0.39,0.22,0.48,0.7,0.48   c0.7,0,2.05-0.17,3.44-0.17c1.79,0,2.96,0.17,3.79,0.17c0.39,0,0.52-0.17,0.52-0.44c0-0.22-0.13-0.35-1-0.61   c-0.92-0.26-1.44-0.61-1.44-1.96v-12.12c0.74-2.14,2.09-3.27,3.75-3.27c1.57,0,2.7,1,2.7,3.53V354.58L390.61,354.58z"/>
	<path class="st0" d="M406.16,346.34c4.23,7.37,5.01,8.5,5.01,8.89c0,0.57-0.09,0.7-0.92,0.92c-0.52,0.13-0.7,0.26-0.7,0.52   c0,0.31,0.17,0.52,0.65,0.52c1.09,0,2.01-0.17,2.92-0.17c1.22,0,2.44,0.17,3.66,0.17c0.52,0,0.79-0.17,0.79-0.52   c0-0.26-0.22-0.39-0.79-0.52c-1.61-0.35-1.35-1.22-8.11-12.21c4.62-4.62,4.8-5.19,6.8-5.75c1.22-0.35,1.39-0.22,1.39-0.7   c0-0.22-0.04-0.35-0.52-0.35c-0.35,0-2.31,0.17-3.62,0.17c-1.18,0-2.35-0.17-3.71-0.17c-0.48,0-0.74,0.26-0.74,0.48   c0,0.39,0.48,0.52,1.04,0.57c1.18,0.09,1.66,0.31,1.66,0.83c0,0.83-0.48,1.05-5.32,5.89c-1.22,1.22-1.57,1.57-1.66,1.57   c-0.09,0-0.17-0.04-0.17-0.44v-19.27c0-0.48-0.09-0.61-0.35-0.61c-0.17,0-0.61,0.35-1.18,0.65c-0.7,0.35-1.74,0.83-3.31,1.18   c-0.39,0.09-0.96,0.17-0.96,0.52c0,0.44,0.48,0.57,0.96,0.61c0.52,0.09,1.26,0.04,1.26,2.35v22.93c0,1.09-0.26,1.48-1.74,1.74   c-0.44,0.09-0.61,0.22-0.61,0.57c0,0.35,0.13,0.48,0.52,0.48c1.22,0,2.44-0.17,3.66-0.17c1.31,0,2.62,0.17,3.92,0.17   c0.22,0,0.44-0.26,0.44-0.52c0-0.35-0.35-0.35-0.83-0.52c-1.4-0.48-1.79-0.79-1.79-1.96v-5.76L406.16,346.34L406.16,346.34z"/>
	<path class="st1" d="M433.53,340.62c2.31-1.48,5.62-2.88,5.62-6.15c0-3.66-3.18-5.45-6.54-5.45c-3.79,0-6.76,2.31-6.76,5.49   c0,2.09,1,3.44,3.44,7.06c-2.44,1.79-6.58,2.92-6.58,7.76c0,4.49,3.01,7.94,7.63,7.94c3.53,0,5.36-1.92,7.11-4.54l1.26,1.74   c0.26,0.35,0.44,0.65,0.44,0.83c0,0.35-0.13,0.61-0.52,0.65c-1.05,0.13-1.53,0.26-1.53,0.7c0,0.31,0.17,0.52,0.57,0.52   c0.61,0,1.61-0.17,4.58-0.17c1.92,0,3.14,0.17,4.01,0.17c0.52,0,0.74-0.17,0.74-0.61c0-0.39-0.35-0.57-0.79-0.61   c-0.83-0.09-1.61-0.44-2.27-1.26l-4.45-5.84c2.79-5.1,3.23-6.5,4.71-6.93c1.09-0.31,1.66-0.26,1.66-0.74   c0-0.31-0.13-0.48-0.48-0.48c-0.7,0-2.01,0.17-3.18,0.17c-1.48,0-2.22-0.17-3.14-0.17c-0.52,0-0.74,0.17-0.74,0.52   c0,0.65,1,0.22,2.27,0.7c0.35,0.13,0.57,0.48,0.57,0.78c0,0.52-0.39,1.57-1.05,2.75l-1.35,2.49L433.53,340.62L433.53,340.62z    M436.72,351.61c-0.7,1.22-2.22,3.14-4.4,3.14c-3.05,0-5.58-3.05-5.58-6.45c0-2.57,1-4.36,3.32-5.67L436.72,351.61L436.72,351.61z    M435.67,334.39c0,2.35-0.74,3.97-2.92,5.19c-2.96-4.49-3.4-5.19-3.4-6.5c0-1.7,1.13-3.01,2.96-3.01   C434.41,330.07,435.67,331.9,435.67,334.39L435.67,334.39z"/>
	<path class="st0" d="M453.98,329.72c-1.7,0-1.05-1.74-1.88-1.74c-0.57,0-0.57,0.31-0.83,1.92c-0.87,5.41-1.05,6.32-1.05,6.76   c0,0.26,0.13,0.44,0.39,0.44c0.39,0,0.39-0.48,1.66-2.83c1.44-2.53,2.4-3.31,4.05-3.31c0.87,0,1.18,0.17,1.18,0.96v21.54   c0,2-0.22,2.31-2.22,2.53c-1.09,0.13-1.35,0.22-1.35,0.65c0,0.39,0.26,0.57,0.65,0.57c0.61,0,2.05-0.17,5.58-0.17   c2.79,0,3.66,0.17,4.4,0.17c0.52,0,0.74-0.17,0.74-0.57c0-0.48-0.13-0.57-1.79-0.65c-1.48-0.09-1.74-0.87-1.74-2.18v-22.1   c0-0.52,0.17-0.74,1.09-0.74c1.66,0,2.62,0.39,3.4,2.79c1,3.05,0.78,3.4,1.39,3.4c0.3,0,0.39-0.26,0.44-0.7   c0.48-6.28,0.61-7.06,0.61-7.76c0-0.44-0.26-0.7-0.57-0.7c-0.96,0-0.52,1.74-2.53,1.74H453.98L453.98,329.72z"/>
	<path class="st0" d="M474.24,344.98c0-3.05,1.13-5.67,2.62-5.67c0.74,0,0.57,0.78,0.83,1.66c0.22,0.79,0.61,1.31,1.66,1.31   c1.35,0,2.14-1.48,2.14-2.88c0-1.48-1.13-2.79-2.7-2.79c-2.96,0-4.8,4.45-4.97,4.45c-0.04,0-0.09-0.04-0.09-0.17v-3.4   c0-0.7-0.09-1.05-0.3-1.05c-0.39,0-0.39,0.57-2.18,1.57c-2.57,1.44-3.36,1.18-3.36,1.83c0,0.35,0.44,0.44,1,0.52   c0.7,0.09,1.53,0.22,1.53,1.22v12.43c0,1.44-0.13,1.88-1.48,2.14c-1.09,0.22-1.31,0.35-1.31,0.7c0,0.26,0.26,0.35,0.57,0.35   c0.79,0,2.18-0.17,4.45-0.17c2.57,0,3.97,0.17,4.71,0.17c0.35,0,0.48-0.22,0.48-0.39c0-0.35-0.13-0.44-1.74-0.65   c-1.35-0.17-1.83-0.87-1.83-2.44V344.98L474.24,344.98z"/>
	<path class="st0" d="M497.89,337.92c0-0.57-0.13-0.78-0.7-0.78h-4.84c-0.43,0-0.65,0.22-0.65,0.57c0,0.44,0.48,0.52,0.96,0.57   c0.74,0.04,1.66,0.13,1.66,1.44v12.08c0,2.01-1.48,3.58-3.45,3.58c-1.96,0-3.01-1.13-3.01-3.66v-13.82c0-0.57-0.13-0.79-0.7-0.79   h-4.84c-0.44,0-0.65,0.22-0.65,0.57c0,0.44,0.48,0.52,0.96,0.57c0.74,0.04,1.66,0.13,1.66,1.44v12.25c0,3.92,1.83,5.62,4.75,5.62   c2.88,0,4.97-2.96,5.41-2.96c0.17,0,0.35,0.13,0.35,0.52v1.74c0,0.44,0,0.87,0.35,0.87c0.22,0,0.44-0.09,0.65-0.22   c0.83-0.57,2.27-1,3.1-1.26c1-0.31,1.35-0.22,1.35-0.65c0-0.26-0.52-0.35-1.09-0.44c-0.74-0.17-1.27-0.35-1.27-1.26V337.92   L497.89,337.92z"/>
	<path class="st0" d="M502.24,356.23c0,0.79,2.7,1.48,4.53,1.48c4.53,0,7.67-2.83,7.67-6.5c0-6.58-9.24-6.06-9.24-10.64   c0-1.7,1.13-2.92,2.96-2.92c3.92,0,3.27,4.32,4.49,4.32c0.65,0,0.78-0.26,0.78-1.66c0-2.62-0.04-2.88-0.57-3.1   c-0.7-0.31-2.49-0.61-4.01-0.61c-3.01,0-6.71,2-6.71,5.84c0,5.54,9.24,5.32,9.24,10.42c0,2.14-1.22,3.79-3.23,3.79   c-2.09,0-3.27-1.44-4.05-3.75c-0.57-1.61-0.83-2.01-1.22-2.01c-0.44,0-0.65,0.26-0.65,0.83V356.23L502.24,356.23z"/>
	<path class="st0" d="M521.27,332.38c0-0.39-0.22-0.65-0.44-0.65c-0.78,0-0.65,1.87-2.88,4.27c-1.57,1.7-2.35,1.88-2.35,2.4   c0,0.26,0.04,0.39,0.44,0.39h1.18c0.35,0,0.48,0.17,0.48,0.7v12.99c0,2.88,0.74,5.23,3.31,5.23c2.83,0,4.19-3.49,4.19-4.14   c0-0.39-0.13-0.57-0.39-0.57c-0.61,0-1,2.09-2.22,2.09c-0.87,0-1.31-0.74-1.31-2.66v-13.38c0-0.09,0.04-0.26,0.22-0.26h2.57   c0.44,0,0.52-0.17,0.52-0.74c0-0.57-0.09-0.74-0.52-0.74h-2.79V332.38L521.27,332.38z"/>
	<path class="st1" d="M363.7,292.25c1.13,0,1.13,0.7,2.88,7.06c1.74,6.28,2.18,7.41,2.18,8.2c0,0.7-0.35,1.74-1.48,2.01   c-2.96,0.7-3.84,0.61-3.84,1.39c0,0.61,0.18,1.05,1.13,1.05c0.96,0,4.1-0.35,8.81-0.35c3.23,0,6.02,0.35,7.41,0.35   c1.57,0,1.83-0.35,1.83-0.96c0-1.05-1.05-0.79-3.05-1.48c-1.74-0.61-2.27-3.84-6.63-17.96c-10.73-34.88-10.03-35.92-11.86-35.92   c-1.57,0-0.96,0.35-8.63,25.64c-7.06,23.28-7.93,27.38-9.94,28.25c-1.83,0.78-2.96,0.26-2.96,1.57c0,0.61,0.26,0.87,0.87,0.87   c0.87,0,2.35-0.35,6.54-0.35c2.09,0,5.49,0.35,6.28,0.35c1.31,0,1.57-0.61,1.57-1.13c0-1.13-2.44-0.79-4.1-1.31   c-1.92-0.61-2.62-1.48-2.62-2.62c0-0.61,0.44-1.74,2.18-9.07c1.22-5.06,1.22-5.58,2.53-5.58H363.7L363.7,292.25z M353.76,289.81   c-0.78,0-0.96-0.09-0.96-0.26c0-0.26,0.35-0.96,2.18-7.76c2.88-10.29,2.88-10.81,3.31-10.81c0.35,0,0.35,0.35,1.66,4.88   c3.31,11.51,3.84,13.08,3.84,13.69c0,0.26-0.17,0.26-0.78,0.26H353.76L353.76,289.81z"/>
	<path class="st0" d="M395.08,287.54c0-6.1,2.27-11.34,5.23-11.34c1.48,0,1.13,1.57,1.66,3.31c0.44,1.57,1.22,2.62,3.31,2.62   c2.7,0,4.27-2.96,4.27-5.76c0-2.96-2.27-5.58-5.41-5.58c-5.93,0-9.59,8.89-9.94,8.89c-0.09,0-0.17-0.09-0.17-0.35v-6.8   c0-1.4-0.17-2.09-0.61-2.09c-0.78,0-0.78,1.13-4.36,3.14c-5.14,2.88-6.71,2.35-6.71,3.66c0,0.7,0.87,0.87,2.01,1.05   c1.39,0.17,3.05,0.44,3.05,2.44v24.85c0,2.88-0.26,3.75-2.97,4.27c-2.18,0.44-2.62,0.7-2.62,1.39c0,0.52,0.52,0.7,1.13,0.7   c1.57,0,4.36-0.35,8.89-0.35c5.14,0,7.93,0.35,9.42,0.35c0.7,0,0.96-0.44,0.96-0.79c0-0.7-0.26-0.87-3.49-1.31   c-2.7-0.35-3.66-1.74-3.66-4.88V287.54L395.08,287.54z"/>
	<path class="st1" d="M422.68,272.02c0-0.96-0.26-1.22-0.79-1.22c-0.7,0-2.62,2.53-9.42,4.27c-1.05,0.26-1.66,0.35-1.66,1.31   c0,0.87,0.7,0.96,1.66,1.13c1.74,0.35,3.05,0.44,3.05,2.79v25.29c0,2.97-0.7,3.14-4.1,4.1c-0.96,0.26-1.83,0.61-1.83,1.31   c0,0.78,0.44,0.96,1.4,0.96c1.4,0,4.1-0.35,7.93-0.35c3.58,0,5.84,0.35,7.5,0.35c1.22,0,1.48-0.52,1.48-1.05   c0-0.44-0.52-0.87-2.01-1.05c-2.44-0.26-3.23-1.22-3.23-3.92V272.02L422.68,272.02z M415.26,261.04c0,2.62,1.57,4.88,4.01,4.88   c2.44,0,4.01-2.27,4.01-4.88c0-2.62-1.57-4.88-4.01-4.88C416.83,256.15,415.26,258.42,415.26,261.04L415.26,261.04z"/>
	<path class="st0" d="M436.45,272.2c-1.48,0-0.61-1.66-2.01-1.66c-0.61,0-0.7,0.7-1.92,5.32c-1.4,5.23-1.48,5.49-1.48,5.93   c0,0.61,0.35,0.87,0.79,0.87c0.52,0,0.7-0.17,1.74-2.09c2.44-4.71,5.06-6.28,11.86-6.28c2.09,0,3.14,0.26,3.14,0.87   c0,0.87-0.61,1.66-8.02,15.87c-8.89,17.09-10.03,19.1-10.03,19.71c0,0.7,0.26,0.87,0.87,0.87h22.84c1.22,0,1.92-0.26,1.92-1.39   v-10.03c0-0.52-0.35-0.78-0.78-0.78c-0.87,0-0.79,1.83-2.7,6.1c-1.31,2.96-3.4,4.01-6.71,4.01h-6.02c-1.05,0-1.4,0-1.4-0.44   c0-0.44,0.44-1.22,8.02-15.78c9.68-18.49,10.29-18.83,10.29-20.14c0-0.7-0.35-0.96-1.05-0.96H436.45L436.45,272.2z"/>
	<path class="st1" d="M473.63,310.91c-5.67,0-8.72-10.9-8.72-19.01c0-8.11,3.05-19.01,8.72-19.01c5.67,0,8.72,10.9,8.72,19.01   C482.35,300.01,479.3,310.91,473.63,310.91L473.63,310.91z M490.37,291.9c0-11.25-7.06-21.1-16.74-21.1   c-9.68,0-16.74,9.85-16.74,21.1c0,11.25,7.06,21.1,16.74,21.1C483.31,313,490.37,303.15,490.37,291.9L490.37,291.9z"/>
	<path class="st0" d="M516.17,306.73c0,1.92-0.44,2.35-3.05,3.14c-1.22,0.35-1.48,0.52-1.48,1.22c0,0.61,0.52,0.87,1.57,0.87   c2.09,0,4.27-0.35,6.37-0.35c4.45,0,6.45,0.35,7.5,0.35c0.7,0,1.13-0.35,1.13-0.7c0-0.7-0.26-1.05-2.01-1.39   c-2.09-0.35-2.88-1.4-2.88-3.14v-24.94c0-8.02-4.19-10.99-9.59-10.99c-5.06,0-7.41,3.4-10.29,6.89h-0.17v-6.02   c0-1.05-0.17-1.4-0.7-1.4c-1.13,0-0.61,0.96-5.58,3.66c-3.58,1.92-5.32,1.74-5.32,2.96c0,0.96,1.39,0.61,2.61,0.96   c1.39,0.44,1.83,0.7,1.83,3.31v24.42c0,2.97-0.7,3.57-3.05,4.1c-1.13,0.26-1.83,0.61-1.83,1.31c0,0.78,0.44,0.96,1.4,0.96   c1.39,0,4.1-0.35,6.89-0.35c3.57,0,5.93,0.35,7.59,0.35c0.79,0,1.05-0.35,1.05-0.87c0-0.44-0.26-0.7-2-1.22   c-1.83-0.52-2.88-1.22-2.88-3.92V281.7c1.48-4.27,4.18-6.54,7.5-6.54c3.14,0,5.41,2.01,5.41,7.06V306.73L516.17,306.73z"/>
	<path class="st1" d="M557.14,276.73c0-4.71-1.83-5.93-8.63-5.93c-10.46,0-17.44,9.42-17.44,12.82c0,1.74,1.05,2.88,3.14,2.88   c3.23,0,4.97-2.35,5.41-6.19c0.52-4.62,3.4-7.41,6.71-7.41c2.35,0,3.66,1.57,3.66,3.84v7.5c0,5.49-18.31,11.6-18.31,21.19   c0,5.14,2.79,7.59,7.32,7.59c6.8,0,9.42-6.8,10.46-6.8s1.66,6.45,7.24,6.45c3.75,0,7.59-4.1,7.59-6.98c0-0.7-0.26-1.05-0.79-1.05   c-1.4,0-1.66,2.79-3.49,2.79c-1.31,0-2.88-1.05-2.88-4.53V276.73L557.14,276.73z M549.99,296.44c0,7.85-2.27,10.99-6.37,10.99   c-2.44,0-3.92-2.09-3.92-4.8c0.26-6.1,8.28-12.99,9.42-12.99c0.61,0,0.87,0.17,0.87,1.22V296.44L549.99,296.44z"/>
	<polygon class="st0" points="340.23,320.17 562.4,320.17 562.4,321.65 340.23,321.65 340.23,320.17  "/>
</g>
<rect x="304.59" y="368.67" class="st2" width="292.29" height="41.21"/>
<text transform="matrix(0.9 0 0 1 338.0007 385.2295)" class="st3 st4 st5">a division of HTLF Bank</text>
</svg>