<?xml version="1.0" encoding="utf-8"?>
<!-- Generator: Adobe Illustrator 26.3.1, SVG Export Plug-In . SVG Version: 6.00 Build 0)  -->
<svg version="1.1" id="Layer_1" xmlns="http://www.w3.org/2000/svg" xmlns:xlink="http://www.w3.org/1999/xlink" x="0px" y="0px"
	 viewBox="0 0 112.8 48" style="enable-background:new 0 0 112.8 48;" xml:space="preserve">
<style type="text/css">
	.st0{fill:#202945;}
	.st1{fill:none;}
	.st2{enable-background:new    ;}
</style>
<g>
	<g>
		<g>
			<path class="st0" d="M81.8,22.1V4.2c0-0.2,0.2-0.4,0.4-0.4h23.9c0.3,0,0.4,0.3,0.2,0.5l-5.7,5.6c-0.1,0.1-0.1,0.1-0.2,0.1H90.2
				v17.9c0,0.2-0.2,0.4-0.4,0.4h-7.6c-0.2,0-0.4-0.2-0.4-0.4v-3.7l-4.2,4.1H61.5c-0.2,0-0.4-0.2-0.4-0.4v-22l-4.1,4
				c0,0.1-0.1,0.1-0.2,0.1h-6.2v17.9c0,0.2-0.2,0.4-0.4,0.4h-7.6c-0.2,0-0.4-0.2-0.4-0.4V9.9h-10v17.9c0,0.2-0.2,0.4-0.4,0.4h-7.6
				c-0.2,0-0.4-0.2-0.4-0.4v-13L19.8,19c0,0-0.1,0.1-0.2,0.1h-7.9v8.8c0,0.2-0.2,0.4-0.4,0.4H3.7c-0.2,0-0.4-0.2-0.4-0.4V4.2
				c0-0.2,0.2-0.4,0.4-0.4h7.6c0.2,0,0.4,0.2,0.4,0.4V13H24V4.2c0-0.2,0.2-0.4,0.4-0.4H32c0.2,0,0.4,0.2,0.4,0.4v3.7l4.1-4
				c0,0,0.1-0.1,0.2-0.1l32.4,0c0.2,0,0.4,0.2,0.4,0.4v17.9H81.8z"/>
		</g>
	</g>
	<path class="st0" d="M103.5,18.6l-5.7-5.6c-0.1-0.1-0.3-0.1-0.4,0l-5.7,5.6c-0.2,0.2-0.1,0.5,0.2,0.5h11.4
		C103.5,19.1,103.7,18.8,103.5,18.6z"/>
</g>
<rect x="23.2" y="35.5" class="st1" width="208.9" height="39.9"/>
<g class="st2">
	<path class="st0" d="M36.4,42c0,1.8-1.4,2.9-3.5,2.9h-4.7V34.6h4.4c2.3,0,3.5,1.1,3.5,2.8c0,0.8-0.3,1.8-1.3,2.2
		C35.8,39.9,36.4,40.9,36.4,42z M32.4,36.3h-2.2v2.6h2.2c1,0,1.5-0.6,1.5-1.3C33.9,36.9,33.5,36.3,32.4,36.3z M34.2,41.8
		c0-0.8-0.6-1.3-1.5-1.3h-2.5v2.6h2.4C33.6,43.1,34.2,42.7,34.2,41.8z"/>
	<path class="st0" d="M50.1,42.7h-3.9l-0.8,2.2h-2.1l3.9-10.3h2l3.9,10.3h-2.2L50.1,42.7z M49.6,41.2l-1.4-3.8l-1.4,3.8H49.6z"/>
	<path class="st0" d="M60.9,34.6h2.1l4.3,7v-7h2v10.3h-2L62.9,38v6.8h-2V34.6z"/>
	<path class="st0" d="M77.8,34.6h2v4.9l4.4-4.9h2.4l-4,4.4l4,5.9H84l-2.9-4.3l-1.3,1.4v3h-2V34.6z"/>
</g>
<rect x="107.5" y="3.6" class="st1" width="31.2" height="20.4"/>
</svg>
