<svg xmlns="http://www.w3.org/2000/svg" xmlns:xlink="http://www.w3.org/1999/xlink" version="1.1" id="Layer_1" x="0px" y="0px" style="enable-background:new 0 0 309.6 127.71;" xml:space="preserve" viewBox="3.67 0.8 304.58 116.52">
<style type="text/css">
	.st0{fill:#FFFFFF;}
</style>
<g>
	<path class="st0" d="M89.49,58.47c-0.5,0-1.38,0.03-2.37,0.06c-1.34,0.04-2.86,0.09-4.01,0.09c-1.14,0-1.37-0.47-1.37-0.87   c0-0.35,0.2-0.77,1.17-0.77c0.59,0,1.16-0.06,1.75-0.19c0.73-0.15,1.03-0.71,1.19-2.22c0.25-2.11,0.25-6.04,0.25-11.01v-8.92   c0-7.72,0-9.11-0.1-10.72c-0.11-1.94-0.76-2.35-1.44-2.51c-0.47-0.13-1.07-0.19-1.74-0.19c-0.78,0-1.17-0.29-1.17-0.87   c0-0.77,1.06-0.77,1.58-0.77c1.03,0,2.4,0.04,3.72,0.08c1.13,0.04,2.18,0.07,2.86,0.07c0.56,0,1.47-0.03,2.48-0.06   c1.24-0.04,2.64-0.09,3.71-0.09c0.39,0,1.42,0,1.42,0.77c0,0.58-0.39,0.87-1.17,0.87c-0.49,0-0.87,0.05-1.46,0.15   c-1.09,0.2-1.48,0.82-1.57,2.55c-0.1,1.61-0.1,3-0.1,10.72v8.92c0,4.97,0,8.9,0.2,11.06c0.14,1.3,0.45,1.99,1.72,2.16   c0.7,0.1,1.79,0.2,2.54,0.2c1.06,0,1.17,0.54,1.17,0.77c0,0.2-0.1,0.87-1.32,0.87c-2.04,0-4-0.06-5.58-0.1   C90.83,58.49,90.02,58.47,89.49,58.47z M297.48,34.87l-1.42-1.06c-4.42-3.35-5.23-4.99-5.23-7.01c0-2.95,2.23-4.86,5.67-4.86   c3.04,0,4.45,1.34,5.24,2.35c1.03,1.27,1.24,2.78,1.24,3.12c0,1.05,0.47,1.27,0.87,1.27c0.92,0,0.92-1.18,0.92-1.88   c0-2.79,0.1-4.32,0.16-5.24c0.02-0.38,0.04-0.65,0.04-0.84c0-0.74-0.72-0.9-0.98-0.96c-1.51-0.41-3.65-0.87-6.83-0.87   c-7.1,0-12.07,4.09-12.07,9.94c0,4.43,2.28,8.11,7.64,12.29l2.33,1.82c4.02,3.15,4.83,5.33,4.83,7.82c0,2.63-2.25,5.42-6.43,5.42   c-2.04,0-5.64-0.63-6.9-4.86c-0.26-0.88-0.44-1.9-0.44-2.48c0-0.81-0.29-1.22-0.87-1.22c-0.86,0-0.94,1.2-0.97,1.66l-0.01,0.15   c-0.06,0.96-0.24,3.86-0.24,6.51c0,1.25,0.22,1.63,1.18,2.05c2.14,0.94,4.4,1.35,7.54,1.35c3.31,0,6.01-0.7,8.25-2.14   c4.29-2.8,4.93-6.91,4.93-9.12C305.94,43.08,303.65,39.5,297.48,34.87z M279.63,56.99c-0.75,0-1.84-0.1-2.54-0.2   c-1.27-0.17-1.57-0.86-1.72-2.16c-0.2-2.16-0.2-6.09-0.2-11.06v-8.92c0-7.72,0-9.11,0.1-10.72c0.1-1.73,0.48-2.35,1.57-2.55   c0.59-0.1,0.97-0.15,1.46-0.15c0.78,0,1.17-0.29,1.17-0.87c0-0.77-1.04-0.77-1.43-0.77c-1.07,0-2.47,0.05-3.71,0.09   c-1,0.03-1.91,0.06-2.48,0.06c-0.68,0-1.74-0.03-2.87-0.07c-1.32-0.04-2.69-0.08-3.72-0.08c-0.51,0-1.58,0-1.58,0.77   c0,0.58,0.39,0.87,1.17,0.87c0.68,0,1.27,0.07,1.74,0.19c0.68,0.16,1.33,0.57,1.44,2.51c0.1,1.61,0.1,3,0.1,10.72v8.92   c0,4.97,0,8.9-0.25,11.01c-0.16,1.51-0.46,2.07-1.19,2.22c-0.6,0.13-1.15,0.19-1.75,0.19c-0.97,0-1.17,0.42-1.17,0.77   c0,0.4,0.24,0.87,1.37,0.87c1.16,0,2.67-0.05,4.01-0.09c1-0.03,1.87-0.06,2.37-0.06c0.53,0,1.34,0.02,2.32,0.05   c1.58,0.04,3.54,0.1,5.58,0.1c1.23,0,1.32-0.66,1.32-0.87C280.8,57.52,280.69,56.99,279.63,56.99z M103.78,88.31   c0,3.93-3.61,5.72-6.97,5.72c-0.16,0-0.45-0.01-0.8-0.03c-0.3-0.02-0.65-0.03-0.99-0.04c-0.79-0.05-1.54-0.08-1.9-0.08   c-0.27,0-0.84,0-1.44,0.03c-0.31,0-0.63,0.01-0.94,0.03c-0.29,0.01-0.58,0.02-0.83,0.02c-0.57,0-0.68-0.23-0.68-0.43   c0-0.25,0.2-0.38,0.58-0.38c0.39,0,0.69-0.06,0.88-0.1c0.37-0.07,0.5-0.48,0.6-1.25c0.13-1.06,0.13-3.07,0.13-5.4v-4.48   c0-3.88,0-4.58-0.05-5.38c-0.05-0.86-0.26-1.14-0.95-1.29c-0.17-0.04-0.56-0.07-0.96-0.07c-0.15,0-0.61,0-0.61-0.4   c0-0.4,0.5-0.4,0.74-0.4c0.84,0,1.79,0.03,2.48,0.05c0.43,0.01,0.78,0.02,0.98,0.02c0.68,0,1.29-0.02,1.83-0.04   c0.46-0.02,0.88-0.03,1.28-0.03c5.19,0,5.6,3.06,5.6,3.99c0,2.13-1.21,3.4-2.42,4.39C101.53,83.59,103.78,85.46,103.78,88.31z    M94.82,82.35c0,0.08,0.01,0.1,0.01,0.1c0.24,0.06,0.62,0.08,1.18,0.08c0.89,0,1.35-0.12,1.72-0.44c0.65-0.52,0.98-1.41,0.98-2.57   c0-1.46-0.82-3.77-3-3.77c-0.35,0-0.57,0-0.81,0.05c-0.06,0.02-0.09,0.03-0.09,0.26V82.35z M100.3,89.45   c0-0.98-0.23-3.41-2.39-4.92c-0.52-0.37-1.08-0.53-2.02-0.58c-0.44-0.02-0.69-0.03-1.06-0.03l0,6.03c0,1.72,0.09,2,0.78,2.28   c0.66,0.27,1.23,0.29,1.79,0.29C97.88,92.53,100.3,92.38,100.3,89.45z M298.34,74.19c-0.09,0-0.21,0.03-0.44,0.07l-0.29,0.06   c-0.37,0.05-0.92,0.12-1.71,0.12h-10.08c-0.8,0-1.77-0.05-2.53-0.13c-0.36-0.03-0.58-0.13-0.76-0.2c-0.12-0.05-0.23-0.1-0.35-0.1   c-0.33,0-0.42,0.39-0.48,0.62c-0.04,0.16-0.54,2.53-0.54,2.97c0,0.16,0,0.58,0.4,0.58c0.34,0,0.42-0.33,0.45-0.44   c0.03-0.13,0.13-0.42,0.41-0.83c0.32-0.47,0.82-0.61,2.33-0.66l3.61-0.1V86.4c0,2.33,0,4.34-0.13,5.4   c-0.09,0.83-0.25,1.18-0.6,1.25c-0.19,0.04-0.49,0.1-0.88,0.1c-0.39,0-0.58,0.13-0.58,0.38c0,0.2,0.12,0.43,0.68,0.43   c0.58,0,1.34-0.02,2.01-0.05c0.5-0.02,0.94-0.03,1.19-0.03c0.28,0,0.7,0.01,1.2,0.03c0.79,0.02,1.77,0.05,2.79,0.05   c0.61,0,0.66-0.33,0.66-0.43c0-0.11-0.06-0.38-0.58-0.38c-0.37,0-0.92-0.05-1.27-0.1c-0.61-0.08-0.76-0.47-0.84-1.22   c-0.13-1.08-0.13-3.1-0.13-5.43V76.14l3.03,0.07c1.74,0.04,2.77,0.5,2.83,1.27l0.03,0.28c0.02,0.28,0.04,0.67,0.45,0.67   c0.35,0,0.39-0.4,0.4-0.58c0-0.35,0.02-1,0.04-1.61c0.02-0.56,0.04-1.09,0.04-1.34C298.72,74.58,298.72,74.19,298.34,74.19z    M129.3,21.22c0.65,0,1.15,0.05,1.52,0.14c1.39,0.29,1.79,0.84,1.89,2.56c0.1,1.61,0.1,3,0.1,10.72v8.92c0,4.64,0,8.64-0.25,10.74   c-0.21,1.53-0.45,2.34-1.19,2.48c-0.59,0.13-1.16,0.19-1.75,0.19c-0.97,0-1.17,0.42-1.17,0.77c0,0.4,0.24,0.87,1.37,0.87   c0.49,0,1.06-0.02,1.64-0.05c0.62-0.03,1.25-0.05,1.87-0.05c1.21-0.05,2.33-0.05,2.87-0.05c1.96,0,3.74,0.04,6.17,0.15   c0.56,0.01,1.14,0.03,1.75,0.04c1.9,0.05,4.06,0.11,6.82,0.11c2.63,0,3.16-0.24,3.54-1.63c0.42-1.51,0.77-5.33,0.77-5.92   c0-0.46,0-1.22-0.77-1.22c-0.8,0-0.88,0.79-0.92,1.08c-0.09,0.89-0.68,2.24-1.22,2.83c-1.13,1.22-2.89,1.3-5.66,1.3   c-3.98,0-5.14-0.36-5.9-1.03c-0.94-0.8-0.94-4.5-0.94-10.62v-8.92c0-7.72,0-9.11,0.1-10.72c0.1-1.73,0.48-2.35,1.57-2.55   c0.61-0.1,1.4-0.15,1.92-0.15c0.35,0,1.27,0,1.27-0.82c0-0.82-1-0.82-1.42-0.82c-1.11,0-2.76,0.05-4.22,0.09   c-1.13,0.03-2.14,0.06-2.68,0.06c-0.59,0-1.51-0.03-2.56-0.06c-1.41-0.04-2.94-0.09-4.3-0.09c-0.48,0-1.48,0-1.48,0.82   C128.08,21.22,129,21.22,129.3,21.22z M219.98,39.11c0-9.74,6.66-20.22,21.29-20.22c12.85,0,20.83,7.4,20.83,19.31   c0,12.45-8.77,21.14-21.34,21.14C226.48,59.33,219.98,48.85,219.98,39.11z M227.69,37.54c0,10.92,6.25,18.54,15.2,18.54   c3.43,0,11.4-1.56,11.4-16.01c0-10.62-5.96-18.03-14.49-18.03C235.28,22.04,227.69,24.05,227.69,37.54z M101.37,21.22   c0.65,0,1.23,0.05,1.6,0.14c1.39,0.29,1.79,0.84,1.89,2.56c0.1,1.61,0.1,3,0.1,10.72v8.92c0,4.64,0,8.64-0.25,10.74   c-0.21,1.53-0.45,2.34-1.19,2.48c-0.59,0.13-1.16,0.19-1.75,0.19c-0.97,0-1.17,0.42-1.17,0.77c0,0.4,0.24,0.87,1.37,0.87   c0.49,0,1.06-0.02,1.64-0.05c0.62-0.03,1.25-0.05,1.87-0.05c1.21-0.05,2.33-0.05,2.87-0.05c1.96,0,3.74,0.04,6.17,0.15   c0.56,0.01,1.14,0.03,1.75,0.04c1.9,0.05,4.06,0.11,6.82,0.11c2.63,0,3.16-0.24,3.54-1.63c0.42-1.51,0.77-5.33,0.77-5.92   c0-0.46,0-1.22-0.77-1.22c-0.8,0-0.88,0.79-0.92,1.08c-0.09,0.89-0.68,2.24-1.22,2.83c-1.13,1.22-2.89,1.3-5.66,1.3   c-3.98,0-5.14-0.36-5.9-1.03c-0.94-0.8-0.94-4.5-0.94-10.62v-8.92c0-7.72,0-9.11,0.1-10.72c0.1-1.73,0.48-2.35,1.57-2.55   c0.61-0.1,1.4-0.15,1.92-0.15c0.35,0,1.27,0,1.27-0.82c0-0.82-1-0.82-1.43-0.82c-1.11,0-2.76,0.05-4.22,0.09   c-1.13,0.03-2.14,0.06-2.67,0.06c-0.59,0-1.51-0.03-2.57-0.06c-1.41-0.04-3.02-0.09-4.38-0.09c-0.48,0-1.48,0-1.48,0.82   C100.15,21.22,101.07,21.22,101.37,21.22z M248.35,93.52c0,0.43-0.48,0.43-0.66,0.43h-2.42c-1.41,0-2.1-0.12-2.81-0.5   c-1.09-0.58-2.05-1.73-3.55-3.79c-0.43-0.59-0.89-1.24-1.3-1.83c-0.55-0.78-1.03-1.46-1.21-1.67c-0.07-0.09-0.15-0.12-0.33-0.12   l-2.22-0.05l-0.02,0.38c0,2.34,0,4.37,0.13,5.43c0.08,0.76,0.23,1.17,0.84,1.25c0.37,0.05,0.92,0.1,1.22,0.1   c0.35,0,0.48,0.2,0.48,0.38c0,0.2-0.12,0.43-0.68,0.43c-0.98,0-2.15-0.03-2.92-0.06c-0.39-0.01-0.69-0.02-0.82-0.02   c-0.2,0-0.58,0.01-1.03,0.03c-0.65,0.02-1.47,0.05-2.08,0.05c-0.57,0-0.68-0.23-0.68-0.43c0-0.25,0.2-0.38,0.58-0.38   c0.39,0,0.69-0.06,0.88-0.1c0.37-0.07,0.5-0.48,0.6-1.25c0.13-1.06,0.13-3.07,0.13-5.4v-4.48c0-3.88,0-4.58-0.05-5.38   c-0.05-0.86-0.26-1.14-0.96-1.29c-0.17-0.04-0.56-0.07-0.96-0.07c-0.15,0-0.61,0-0.61-0.4c0-0.4,0.5-0.4,0.74-0.4   c0.83,0,1.74,0.03,2.47,0.05c0.45,0.01,0.81,0.03,1.02,0.03c0.44,0,1.16-0.02,1.87-0.04c0.68-0.02,1.34-0.04,1.72-0.04   c1.55,0,3.33,0.13,4.78,1.13c0.62,0.42,1.81,1.73,1.81,3.63c0,2.1-0.99,3.82-3.29,5.73l0.78,0.99c1.86,2.35,3.33,4.2,4.62,5.56   c1.35,1.4,2.35,1.6,2.73,1.67c0.3,0.06,0.52,0.08,0.71,0.08C248.23,93.14,248.35,93.34,248.35,93.52z M238.97,80.39   c0-3.54-2.34-4.48-3.72-4.48c-0.42,0-1.02,0.01-1.3,0.09c-0.08,0.02-0.1,0.03-0.1,0.19v7.74c0,0.24,0.04,0.26,0.12,0.3   c0.45,0.15,1.15,0.24,1.86,0.24c0.99,0,1.28-0.09,1.7-0.4C238.07,83.68,238.97,82.68,238.97,80.39z M213.34,59.23   c1.02,0,1.02-1.35,1.02-1.93l0.56-31.97c0.05-3.01,0.54-3.66,1.6-3.96c0.57-0.14,0.93-0.14,1.43-0.14c1.11,0,1.27-0.51,1.27-0.82   c0-0.82-0.99-0.82-1.53-0.82c-1.69,0-3.11,0.07-4.05,0.12c-0.43,0.02-0.74,0.04-0.92,0.04c-0.41,0-1.03-0.02-1.78-0.05   c-1.22-0.05-2.74-0.1-4.35-0.1c-0.63,0-1.68,0-1.68,0.82c0,0.54,0.39,0.82,1.17,0.82c0.65,0,1.86,0,2.55,0.28   c0.98,0.41,1.45,1.14,1.5,4.24l0.49,22.12c-0.62-0.63-1.81-1.88-3.24-3.38c-2.47-2.59-5.55-5.81-7.53-7.8   c-7.75-7.7-15.62-16.18-15.7-16.26c-0.17-0.18-0.33-0.35-0.47-0.51c-0.62-0.68-1.06-1.17-1.67-1.17c-1.02,0-1.02,1.51-1.02,2.08   l-0.46,30c-0.05,4.52-0.3,5.63-1.31,5.94c-0.73,0.21-1.68,0.24-2.18,0.24c-0.97,0-1.17,0.42-1.17,0.77c0,0.87,0.96,0.87,1.48,0.87   c1.87,0,3.6-0.08,4.63-0.12c0.42-0.02,0.71-0.03,0.84-0.03c0.33,0,0.8,0.02,1.4,0.04c1.16,0.05,2.74,0.11,4.88,0.11   c0.42,0,1.53,0,1.53-0.87c0-0.77-0.92-0.77-1.22-0.77c-0.73,0-1.68-0.04-2.52-0.33c-0.66-0.23-1.42-1.04-1.53-5.29l-0.54-20.49   c0.17,0.19,0.38,0.42,0.61,0.67c2.13,2.34,6.56,7.21,10.96,11.57c2.14,2.12,4.48,4.48,6.72,6.73c3.26,3.27,6.33,6.37,8.22,8.17   C211.98,58.63,212.65,59.23,213.34,59.23z M225.41,74.19c-0.09,0-0.21,0.03-0.44,0.07l-0.29,0.06c-0.37,0.05-0.92,0.12-1.71,0.12   h-10.08c-0.8,0-1.77-0.05-2.53-0.13c-0.36-0.03-0.58-0.13-0.76-0.2c-0.12-0.05-0.23-0.1-0.35-0.1c-0.33,0-0.42,0.39-0.48,0.62   c-0.04,0.16-0.54,2.53-0.54,2.97c0,0.16,0,0.58,0.4,0.58c0.34,0,0.42-0.33,0.45-0.44c0.03-0.13,0.13-0.42,0.41-0.83   c0.32-0.47,0.82-0.61,2.33-0.66l3.61-0.1V86.4c0,2.33,0,4.34-0.13,5.4c-0.09,0.83-0.25,1.18-0.6,1.25c-0.19,0.04-0.49,0.1-0.88,0.1   c-0.39,0-0.58,0.13-0.58,0.38c0,0.2,0.12,0.43,0.68,0.43c0.58,0,1.34-0.02,2.01-0.05c0.5-0.02,0.94-0.03,1.19-0.03   c0.28,0,0.7,0.01,1.2,0.03c0.79,0.02,1.77,0.05,2.79,0.05c0.61,0,0.66-0.33,0.66-0.43c0-0.14-0.08-0.38-0.58-0.38   c-0.37,0-0.92-0.05-1.27-0.1c-0.61-0.08-0.76-0.47-0.84-1.22c-0.13-1.08-0.13-3.1-0.13-5.43V76.14l3.03,0.07   c1.74,0.04,2.77,0.5,2.83,1.27l0.03,0.28c0.02,0.28,0.04,0.67,0.45,0.67c0.35,0,0.39-0.4,0.4-0.58c0-0.35,0.02-1,0.04-1.61   c0.02-0.56,0.04-1.09,0.04-1.34C225.78,74.58,225.78,74.19,225.41,74.19z M201,93.55c0,0.4-0.61,0.4-0.94,0.4h-1.96   c-2.9,0-3.89-0.31-6-1.91c-0.88,0.8-2.63,2.26-6.04,2.26c-5.72,0-7.25-3.65-7.25-5.8c0-2.9,2.41-5.22,4.06-6.09   c-0.97-1.35-1.18-2.36-1.21-3.55c-0.01-1.09,0.46-2.21,1.31-3.07c0.81-0.82,2.34-1.8,5.05-1.8c1.33,0,2.5,0.28,3.15,0.55   c0.54,0.19,0.54,0.51,0.54,0.82c0,0.85-0.2,2.89-0.28,3.29c-0.04,0.29-0.13,0.57-0.48,0.57c-0.35,0-0.35-0.35-0.35-0.66   c0-0.45-0.09-1.31-0.7-2.02c-0.41-0.49-1.21-1.08-2.69-1.08c-0.88,0-2.55,0.57-2.55,2.73c0,2.02,1.65,3.82,3.4,5.73   c0.26,0.28,0.52,0.56,0.78,0.85c0.82,0.94,3.63,3.49,4.32,4.1c0.46-0.72,1.08-2.2,1.08-3.65c0-0.31-0.07-0.74-0.42-1.04   c-0.33-0.31-0.9-0.34-1.13-0.34c-0.29,0-0.48-0.15-0.48-0.38c0-0.13,0.06-0.43,0.58-0.43c0.93,0,1.96,0.06,3.07,0.18   c0.89,0.09,1.02,0.47,1.02,0.68c0,1.87-0.95,4.21-2.42,6.01c1.66,1.35,2.77,2.01,3.38,2.37c0.81,0.48,2.17,0.87,2.63,0.87   C200.63,93.14,201,93.14,201,93.55z M190.84,91c-1.49-1.3-3.8-3.56-4.44-4.26c-0.58-0.62-2.06-2.29-2.63-3.05   c-0.73,0.59-1.54,1.69-1.54,3.62c0,2.92,1.98,5.04,4.71,5.04C188.67,92.36,190.2,91.51,190.84,91z M145.83,74.77   c0,0.15-0.08,0.4-0.63,0.4c-0.25,0-0.44,0-0.72,0.07c-0.54,0.15-0.78,0.48-0.81,2l-0.28,16.06c0,0.29,0,0.96-0.51,0.96   c-0.35,0-0.68-0.3-0.99-0.61c-0.95-0.9-2.49-2.45-4.12-4.09c-1.13-1.13-2.31-2.32-3.39-3.39c-2.21-2.19-4.43-4.63-5.5-5.81   c-0.12-0.14-0.23-0.25-0.32-0.35l0.27,10.31c0.05,2.14,0.44,2.55,0.77,2.66c0.42,0.15,0.9,0.17,1.27,0.17c0.15,0,0.61,0,0.61,0.38   c0,0.43-0.53,0.43-0.76,0.43c-1.08,0-1.87-0.03-2.45-0.05c-0.3-0.01-0.54-0.02-0.7-0.02c-0.07,0-0.21,0.01-0.42,0.02   c-0.52,0.02-1.39,0.06-2.33,0.06c-0.11,0-0.27,0-0.41-0.04c-0.22,0.03-0.51,0.04-0.88,0.04c-0.9,0-2.78,0-4.81-0.05l-0.11-0.01   c-0.46-0.02-0.82-0.04-0.82-0.37c0-0.35,0.35-0.39,0.52-0.4c0.01,0,0.06-0.04,0.09-0.1c0.03-0.07,0.03-0.15-0.01-0.24l-2.04-5.4   c-0.02-0.06-0.04-0.06-0.09-0.06h-5.67c-0.03,0-0.04,0.02-0.06,0.08l-1.38,3.64c-0.25,0.64-0.37,1.22-0.37,1.49   c0,0.32,0.1,0.61,0.84,0.61h0.38c0.19,0,0.56,0,0.56,0.38c0,0.43-0.46,0.43-0.61,0.43c-0.41,0-0.9-0.02-1.38-0.04   c-0.47-0.02-0.93-0.04-1.32-0.04c-0.09,0-0.28,0.01-0.55,0.02c-0.61,0.02-1.54,0.06-2.45,0.06c-0.2,0-0.66,0-0.66-0.43   c0-0.17,0.08-0.38,0.48-0.38c0.23,0,0.58-0.03,0.77-0.05c1.02-0.13,1.49-0.84,2.02-2.18l6.39-15.98c0.3-0.72,0.49-1.13,0.88-1.13   c0.37,0,0.56,0.38,0.8,0.92c0.27,0.62,1.21,2.98,2.3,5.71c1.38,3.46,3.1,7.77,4.01,9.94c1.02,2.41,1.76,2.59,2.12,2.67   c0.4,0.08,0.78,0.1,1.03,0.1c0.04,0,0.1,0,0.17,0.01c0.05,0,0.09-0.01,0.14-0.01c0.25,0,0.73-0.02,1.1-0.12   c0.51-0.16,0.64-0.72,0.66-2.99l0.23-15.07c0-0.28,0-1.04,0.51-1.04c0.3,0,0.52,0.25,0.83,0.59c0.07,0.08,0.15,0.17,0.24,0.26   c0.04,0.04,4.02,4.33,7.88,8.16c0.99,0.99,2.54,2.61,3.78,3.91c0.73,0.76,1.34,1.4,1.64,1.71l-0.25-11.12   c-0.03-1.56-0.26-1.93-0.76-2.13c-0.35-0.14-0.96-0.14-1.28-0.14c-0.39,0-0.58-0.14-0.58-0.4c0-0.4,0.52-0.4,0.84-0.4   c0.81,0,1.57,0.03,2.19,0.05c0.38,0.01,0.69,0.03,0.89,0.03c0.09,0,0.25-0.01,0.46-0.02c0.47-0.02,1.18-0.06,2.03-0.06   C145.34,74.36,145.83,74.36,145.83,74.77z M115.69,85.69l-2.24-6.14l-2.29,6.14H115.69z M265.81,74.36c-0.64,0-1.53,0.03-2.17,0.05   c-0.35,0.01-0.62,0.02-0.73,0.02l-0.07,0c-1.42-0.06-2.34-0.07-2.86-0.07c-0.21,0-0.71,0-0.71,0.4c0,0.4,0.46,0.4,0.61,0.4   c0.29,0,0.7,0.03,0.88,0.07c0.7,0.15,0.9,0.43,0.96,1.29c0.05,0.81,0.05,1.51,0.05,5.38v3.18c0,2.7-0.11,4.87-1.43,6.19   c-1.19,1.19-2.77,1.32-3.39,1.32c-0.91,0-1.99-0.12-3.07-1c-1-0.81-1.92-2.12-1.92-6.12v-3.56c0-3.88,0-4.58,0.05-5.38   c0.05-0.87,0.24-1.19,0.79-1.29c0.3-0.05,0.44-0.07,0.71-0.07c0.39,0,0.58-0.14,0.58-0.4c0-0.4-0.5-0.4-0.74-0.4   c-0.51,0-1.23,0.02-1.86,0.04c-0.52,0.02-0.99,0.03-1.27,0.03c-0.33,0-0.81-0.01-1.36-0.03c-0.74-0.02-1.59-0.05-2.36-0.05   c-0.24,0-0.74,0-0.74,0.4c0,0.4,0.46,0.4,0.61,0.4c0.39,0,0.78,0.03,0.96,0.07c0.7,0.15,0.9,0.43,0.96,1.29   c0.05,0.81,0.05,1.51,0.05,5.38v3.71c0,3.26,0.74,5.45,2.32,6.87c1.99,1.8,4.64,1.8,5.77,1.8c1.5,0,3.47-0.21,5.41-1.87   c2.18-1.87,2.48-4.85,2.48-7.79v-2.72c0-3.88,0-4.58,0.05-5.38c0.05-0.87,0.24-1.19,0.8-1.29c0.3-0.05,0.44-0.07,0.71-0.07   c0.17,0,0.63,0,0.63-0.4C266.52,74.36,266.03,74.36,265.81,74.36z M274.85,82.03l-0.71-0.53c-2.22-1.69-2.63-2.51-2.63-3.52   c0-1.49,1.12-2.45,2.85-2.45c1.53,0,2.24,0.67,2.64,1.18c0.52,0.64,0.62,1.4,0.62,1.57c0,0.52,0.23,0.63,0.43,0.63   c0.46,0,0.46-0.59,0.46-0.94c0-1.4,0.05-2.17,0.08-2.63c0.01-0.19,0.02-0.32,0.02-0.42c0-0.37-0.36-0.45-0.49-0.47   c-0.76-0.2-1.83-0.44-3.43-0.44c-3.56,0-6.05,2.05-6.05,4.99c0,2.22,1.15,4.07,3.83,6.17l1.17,0.92c2.02,1.58,2.43,2.68,2.43,3.93   c0,1.32-1.13,2.73-3.23,2.73c-1.02,0-2.84-0.32-3.47-2.44c-0.13-0.44-0.22-0.96-0.22-1.25c0-0.4-0.14-0.61-0.43-0.61   c-0.43,0-0.47,0.6-0.48,0.83l-0.01,0.08c-0.03,0.53-0.12,1.94-0.12,3.26c0,0.62,0.11,0.82,0.59,1.03c1.07,0.47,2.21,0.68,3.79,0.68   c1.66,0,3.01-0.35,4.14-1.07c2.15-1.4,2.47-3.47,2.47-4.58C279.09,86.16,277.94,84.36,274.85,82.03z M168.28,93.14   c-0.27,0-0.75-0.06-1.51-0.37c-1.26-0.49-2.34-1.52-3.38-2.52l-0.2-0.19c-0.96-0.91-5.67-5.98-6.78-7.37   c1.03-1.07,4.6-4.62,5.39-5.38c0.96-0.94,1.81-1.53,2.69-1.87c0.46-0.17,1.08-0.27,1.41-0.27c0.14,0,0.56,0,0.56-0.4   c0-0.18-0.11-0.4-0.61-0.4c-0.4,0-0.95,0.02-1.49,0.04c-0.54,0.02-1.09,0.04-1.48,0.04c-0.36,0-0.93-0.02-1.46-0.04   c-0.47-0.02-0.91-0.03-1.16-0.03c-0.16,0-0.58,0-0.58,0.4c0,0.32,0.29,0.39,0.47,0.43c0.1,0.02,0.22,0.07,0.22,0.34   c0,0.35-0.52,0.96-1.13,1.67l-0.11,0.12c-0.44,0.52-1.95,2.08-3.28,3.46c-0.77,0.8-1.46,1.51-1.86,1.94v-0.81   c0-3.88,0-4.58,0.05-5.38c0.05-0.87,0.24-1.19,0.8-1.29c0.3-0.05,0.44-0.07,0.68-0.07c0.48,0,0.53-0.28,0.53-0.4   c0-0.4-0.5-0.4-0.71-0.4c-0.47,0-1.17,0.02-1.79,0.04c-0.53,0.02-1.01,0.03-1.29,0.03c-0.24,0-0.65-0.01-1.13-0.03   c-0.72-0.02-1.62-0.05-2.43-0.05c-0.24,0-0.74,0-0.74,0.4c0,0.4,0.46,0.4,0.61,0.4c0.39,0,0.78,0.03,0.96,0.07   c0.7,0.15,0.91,0.43,0.96,1.29c0.05,0.81,0.05,1.51,0.05,5.38v4.48c0,2.33,0,4.34-0.13,5.4c-0.11,0.77-0.23,1.18-0.6,1.25   c-0.19,0.04-0.49,0.1-0.88,0.1c-0.39,0-0.58,0.13-0.58,0.38c0,0.2,0.12,0.43,0.68,0.43c0.58,0,1.34-0.02,2.02-0.05   c0.5-0.02,0.94-0.03,1.19-0.03c0.25,0,0.66,0.01,1.15,0.03c0.74,0.02,1.66,0.05,2.51,0.05c0.59,0,0.66-0.3,0.66-0.43   c0-0.17-0.13-0.38-0.51-0.38c-0.32,0-0.88-0.05-1.22-0.1c-0.3-0.05-0.7-0.22-0.77-1.21c-0.08-1.09-0.08-3.1-0.08-5.43v-1.95   l0.09,0.12c0.53,0.73,5.55,6.62,6.69,7.64c1.13,1,1.83,1.57,3.26,1.7c0.54,0.05,1.01,0.05,1.77,0.05H168c0.29,0,0.79,0,0.79-0.43   C168.79,93.43,168.75,93.14,168.28,93.14z M172.65,56.99c-0.75,0-1.84-0.1-2.54-0.2c-1.27-0.17-1.57-0.86-1.72-2.16   c-0.2-2.16-0.2-6.09-0.2-11.06v-8.92c0-7.72,0-9.11,0.1-10.72c0.1-1.73,0.48-2.35,1.57-2.55c0.59-0.1,0.97-0.15,1.46-0.15   c0.78,0,1.17-0.29,1.17-0.87c0-0.77-1.04-0.77-1.43-0.77c-1.07,0-2.47,0.05-3.71,0.09c-1,0.03-1.91,0.06-2.48,0.06   c-0.68,0-1.74-0.03-2.87-0.07c-1.32-0.04-2.69-0.08-3.72-0.08c-0.51,0-1.58,0-1.58,0.77c0,0.58,0.39,0.87,1.17,0.87   c0.68,0,1.27,0.07,1.74,0.19c0.68,0.16,1.33,0.57,1.44,2.51c0.1,1.61,0.1,3,0.1,10.72v8.92c0,4.97,0,8.9-0.25,11.01   c-0.16,1.51-0.46,2.07-1.19,2.22c-0.6,0.13-1.15,0.19-1.75,0.19c-0.97,0-1.17,0.42-1.17,0.77c0,0.4,0.24,0.87,1.37,0.87   c1.16,0,2.67-0.05,4.01-0.09c1-0.03,1.87-0.06,2.37-0.06c0.53,0,1.34,0.02,2.32,0.05c1.58,0.04,3.54,0.1,5.58,0.1   c1.23,0,1.32-0.66,1.32-0.87C173.82,57.52,173.71,56.99,172.65,56.99z M63.6,63.84v-4.05c0,0-0.01,0-0.01,0.01   c-0.12,0.07-5.08,2.57-11.86,4.28c-11.14,2.82-23.45,2.57-26.58,10.03l-1.47,4.36l-3.52,5.72l1.82,4.74l10.22,8.36l2.2,5.81   l-0.96,5.03l4.1,4.11l4.04-5.84l7.11,3.93l1.73-2.67l0.57-5.53l4.77-0.63l1.83-13.43L61.56,83l2.95-6.85l-2.09-6.69L63.6,63.84z    M31.36,30.16c14.97-3.54,30.45-7.19,32.15-18.86l-5.8-6.07V0.8h-41.1l8.11,10.19l-4.16,9.36l-10.41,3.02l1.37,6.76l-3.53,7.89   C13.95,34.28,22.48,32.26,31.36,30.16z"/>
	<path class="st0" d="M305.94,66.57c0,0.3-0.24,0.54-0.54,0.54H82.17c-0.3,0-0.54-0.24-0.54-0.54s0.24-0.54,0.54-0.54H305.4   C305.7,66.03,305.94,66.27,305.94,66.57z M67.32,22.07l-0.36-10.35C63.46,36.37,14.14,30.1,4.84,45.78   c-3.32,5.6,1.09,11.51,4.68,15.32C14.15,40.44,67.93,53.82,67.32,22.07z M70.12,28.91c0,0-1.8,7.56-8.68,12.37   c-7.66,5.36-20.79,8.09-27.2,9.37C27.79,51.93-1.05,57.11,21.86,73c5.89-17.44,50.59-2.91,48.79-34.16L70.12,28.91z"/>
</g>
<g>
	<polygon class="st0" points="307.14,74.44 305.86,78.29 305.84,78.29 304.6,74.44 303.49,74.44 303.49,79.89 304.18,79.89    304.18,75.21 304.2,75.21 305.65,79.89 306.05,79.89 307.53,75.21 307.56,75.21 307.56,79.89 308.25,79.89 308.25,74.44  "/>
	<polygon class="st0" points="299.21,75.21 300.59,75.21 300.59,79.89 301.36,79.89 301.36,75.21 302.73,75.21 302.73,74.44    299.21,74.44  "/>
</g>
<g>
	<path class="st0" d="M105.53,115.65v1.48h-1.12c-0.76,0-1.45-0.29-1.59-1.17c-0.52,0.81-1.66,1.36-3.11,1.36   c-2.04,0-3.35-1.07-3.35-2.84c0-1.57,0.99-2.73,3.53-2.73h2.69v-0.47c0-1.36-0.81-1.99-2.02-1.99c-1.23,0-2.03,0.61-2.08,1.57   h-1.83c0.05-2.01,1.7-3.16,3.98-3.16c2.17,0,3.94,1.09,3.94,3.6v3.74c0,0.51,0.2,0.62,0.62,0.62H105.53z M102.58,113.1h-2.42   c-1.34,0-1.75,0.6-1.75,1.28c0,0.94,0.74,1.36,1.75,1.36c1.37,0,2.42-0.74,2.42-2.26V113.1z"/>
	<path class="st0" d="M119.89,103.7v13.43h-1.81l-0.16-1.41c-0.56,0.94-1.77,1.59-3.2,1.59c-2.55,0-4.39-1.77-4.39-4.79   c0-3.11,1.93-4.85,4.39-4.85c1.45,0,2.62,0.61,3.18,1.56v-5.53H119.89z M117.86,112.52c0-1.9-1.19-3.09-2.75-3.07   c-1.63,0-2.75,1.19-2.75,3.07c0,1.92,1.14,3.04,2.75,3.04C116.67,115.56,117.86,114.44,117.86,112.52z"/>
	<path class="st0" d="M122.13,104.08h2.19v2.06h-2.19V104.08z M122.24,107.88h1.97v9.26h-1.97V107.88z"/>
	<path class="st0" d="M130.41,115.04l2.73-7.18h2.13l-3.8,9.28h-2.21l-3.71-9.28h2.08L130.41,115.04z"/>
	<path class="st0" d="M136.51,104.08h2.19v2.06h-2.19V104.08z M136.62,107.88h1.97v9.26h-1.97V107.88z"/>
	<path class="st0" d="M142.35,114.33c0.02,0.96,0.9,1.52,2.12,1.52c1.21,0,1.93-0.45,1.93-1.27c0-0.71-0.36-1.08-1.41-1.25   l-1.86-0.33c-1.81-0.31-2.51-1.25-2.51-2.57c0-1.66,1.65-2.75,3.74-2.75c2.26,0,3.9,1.09,3.92,2.93h-1.95   c-0.02-0.94-0.83-1.46-1.97-1.46c-1.08,0-1.77,0.45-1.77,1.21c0,0.67,0.47,0.98,1.5,1.16l1.83,0.32c1.72,0.31,2.51,1.16,2.51,2.55   c0,1.92-1.77,2.91-3.92,2.91c-2.44,0-4.09-1.18-4.12-2.98H142.35z"/>
	<path class="st0" d="M150.19,104.08h2.19v2.06h-2.19V104.08z M150.3,107.88h1.97v9.26h-1.97V107.88z"/>
	<path class="st0" d="M159.07,107.68c2.82,0,4.77,1.97,4.77,4.83s-1.95,4.81-4.77,4.81c-2.8,0-4.76-1.95-4.76-4.81   S156.27,107.68,159.07,107.68z M159.07,115.62c1.66,0,2.75-1.23,2.75-3.13c0-1.92-1.08-3.13-2.75-3.13c-1.65,0-2.73,1.21-2.73,3.13   C156.34,114.39,157.43,115.62,159.07,115.62z"/>
	<path class="st0" d="M174.44,111.6v5.53h-1.99v-5.12c0-1.74-0.89-2.59-2.24-2.59c-1.54,0-2.37,1.08-2.37,2.73v4.97h-1.97v-9.26   h1.79l0.14,1.25c0.52-0.89,1.52-1.43,2.93-1.43C173.07,107.7,174.44,109.23,174.44,111.6z"/>
	<path class="st0" d="M184.57,107.68c2.82,0,4.77,1.97,4.77,4.83s-1.95,4.81-4.77,4.81c-2.8,0-4.75-1.95-4.75-4.81   S181.76,107.68,184.57,107.68z M184.57,115.62c1.66,0,2.75-1.23,2.75-3.13c0-1.92-1.09-3.13-2.75-3.13c-1.65,0-2.73,1.21-2.73,3.13   C181.84,114.39,182.92,115.62,184.57,115.62z"/>
	<path class="st0" d="M192,107.88v-1.5c0-1.75,0.83-2.69,2.84-2.69h1.36v1.66h-1.01c-0.99,0-1.19,0.49-1.19,1.17v1.36h2.21v1.74   h-2.21v7.52H192v-7.52h-1.52v-1.74H192z"/>
	<path class="st0" d="M203.41,111.53v5.6h-2.04v-12.87h2.04v5.39h6.31v-5.39h2.04v12.87h-2.04v-5.6H203.41z"/>
	<path class="st0" d="M219.7,117.14h-2.02v-11.07h-4.21v-1.81h10.45v1.81h-4.21V117.14z"/>
	<path class="st0" d="M233.84,115.26v1.88h-8.23v-12.87h2.04v10.99H233.84z"/>
	<path class="st0" d="M237.73,106.07v3.85h5.62v1.77h-5.62v5.44h-2.04v-12.87h8.52v1.81H237.73z"/>
	<path class="st0" d="M259.54,113.57c0,2.19-1.63,3.56-4.29,3.56h-5.79v-12.87h5.37c2.75,0,4.25,1.32,4.25,3.38   c0,1.09-0.43,2.28-1.75,2.82C258.74,110.9,259.54,112.09,259.54,113.57z M254.73,106.03h-3.22v3.74h3.38   c1.36,0,2.13-0.74,2.13-1.88C257.02,106.79,256.26,106.03,254.73,106.03z M257.4,113.43c0-1.25-0.85-1.99-2.26-1.99h-3.64v3.92   h3.53C256.57,115.36,257.4,114.64,257.4,113.43z"/>
	<path class="st0" d="M270.11,115.65v1.48h-1.12c-0.76,0-1.45-0.29-1.59-1.17c-0.53,0.81-1.66,1.36-3.11,1.36   c-2.04,0-3.35-1.07-3.35-2.84c0-1.57,0.99-2.73,3.53-2.73h2.69v-0.47c0-1.36-0.81-1.99-2.02-1.99c-1.23,0-2.03,0.61-2.08,1.57   h-1.83c0.05-2.01,1.7-3.16,3.98-3.16c2.17,0,3.94,1.09,3.94,3.6v3.74c0,0.51,0.2,0.62,0.61,0.62H270.11z M267.17,113.1h-2.42   c-1.34,0-1.75,0.6-1.75,1.28c0,0.94,0.74,1.36,1.75,1.36c1.37,0,2.42-0.74,2.42-2.26V113.1z"/>
	<path class="st0" d="M280.35,111.6v5.53h-1.99v-5.12c0-1.74-0.89-2.59-2.24-2.59c-1.54,0-2.37,1.08-2.37,2.73v4.97h-1.97v-9.26   h1.79l0.14,1.25c0.52-0.89,1.52-1.43,2.93-1.43C278.97,107.7,280.35,109.23,280.35,111.6z"/>
	<path class="st0" d="M282.59,103.7h1.97v8.28l4.05-4.12h2.46l-3.96,4l4,5.28h-2.5l-2.91-3.89l-1.08,1.1v2.78h-2.03V103.7z"/>
</g>
</svg>