<svg width="260" height="200" viewBox="0 0 260 200" fill="none" xmlns="http://www.w3.org/2000/svg">
<path d="M152.33 45.164C150.7 45.054 149.05 44.984 147.38 44.954C145.77 44.934 144.17 44.954 142.59 45.014C144.48 46.044 146.26 47.134 147.93 48.274C148.44 48.254 148.95 48.224 149.46 48.214C151.89 48.144 154.27 48.184 156.6 48.304C168.4 48.904 178.88 51.794 186.38 56.174C178.64 50.284 166.41 46.134 152.33 45.164Z" fill="#18203A"/>
<path d="M149.61 38.254C164.3 37.844 177.55 40.964 186.53 46.214C177.88 39.634 163.66 35.224 147.52 34.994C142.08 34.914 136.84 35.324 131.95 36.134C129.28 36.574 126.72 37.144 124.28 37.814C127.11 38.564 129.83 39.434 132.44 40.404C134.97 39.814 137.62 39.334 140.34 38.984C143.34 38.594 146.43 38.344 149.61 38.254Z" fill="#18203A"/>
<path d="M149.54 42.994C164.23 42.584 177.48 45.704 186.46 50.954C177.81 44.374 163.59 39.964 147.45 39.734C145.72 39.704 144.01 39.734 142.33 39.804C139.18 39.934 136.12 40.234 133.17 40.674C135.61 41.604 137.94 42.634 140.15 43.734C142.95 43.364 145.85 43.124 148.82 43.014C149.06 43.014 149.3 43.004 149.54 42.994Z" fill="#18203A"/>
<path d="M149.68 33.034C164.37 32.624 177.62 35.744 186.6 40.994C177.95 34.414 163.73 30.004 147.59 29.774C137.64 29.634 128.38 31.094 120.67 33.724C118.75 34.374 116.93 35.104 115.22 35.894C117.15 36.204 119.1 36.574 121.07 37.024C122.04 37.244 123.01 37.484 123.96 37.734C126 36.984 128.15 36.304 130.4 35.714C136.28 34.174 142.8 33.224 149.68 33.034Z" fill="#18203A"/>
<path d="M112.45 49.834C117.17 50.904 121.65 52.314 125.79 53.974C127.73 53.174 129.78 52.464 131.92 51.864C126.81 49.804 121.16 48.144 115.13 47.034C99.25 44.124 84.44 45.684 74.68 50.454C84.51 47.064 98.11 46.574 112.45 49.834Z" fill="#18203A"/>
<path d="M75.59 45.484C85.42 42.084 99.03 41.604 113.36 44.854C120.44 46.464 126.96 48.824 132.64 51.674C137.28 50.434 142.34 49.684 147.66 49.484C139.99 43.874 129.24 39.344 116.95 37.084C101.07 34.174 86.26 35.724 76.5 40.494C86.33 37.094 99.94 36.604 114.27 39.864C123.63 41.994 132.03 45.424 138.78 49.594C132.27 46.254 124.52 43.614 116.03 42.054C100.16 39.154 85.35 40.714 75.59 45.484Z" fill="#18203A"/>
<path d="M119.66 57.064C121.17 56.144 122.79 55.304 124.49 54.544C121.22 53.534 117.78 52.684 114.21 52.034C98.33 49.124 83.52 50.674 73.76 55.444C83.59 52.044 97.2 51.554 111.53 54.814C114.33 55.454 117.05 56.204 119.66 57.064Z" fill="#18203A"/>
<path d="M101.78 34.334C101.05 32.924 100.63 31.344 100.59 29.654C100.45 23.694 105.18 18.734 111.14 18.584C117.1 18.444 122.06 23.174 122.2 29.134C122.22 30.134 122.11 31.104 121.88 32.024C122.79 31.734 123.71 31.464 124.66 31.204C124.76 30.504 124.8 29.794 124.78 29.064C124.6 21.684 118.46 15.824 111.08 16.004C103.7 16.184 97.84 22.324 98.01 29.704C98.05 31.344 98.39 32.904 98.96 34.354C99.89 34.344 100.83 34.334 101.78 34.334Z" fill="#18203A"/>
<path d="M125.06 32.434C125.06 32.434 120.52 33.804 117.56 34.724Z" fill="#18203A"/>
<path d="M152.33 45.164C150.7 45.054 149.05 44.984 147.38 44.954C145.77 44.934 144.17 44.954 142.59 45.014C144.48 46.044 146.26 47.134 147.93 48.274C148.44 48.254 148.95 48.224 149.46 48.214C151.89 48.144 154.27 48.184 156.6 48.304C168.4 48.904 178.88 51.794 186.38 56.174C178.64 50.284 166.41 46.134 152.33 45.164Z" fill="#18203A"/>
<path d="M149.61 38.254C164.3 37.844 177.55 40.964 186.53 46.214C177.88 39.634 163.66 35.224 147.52 34.994C142.08 34.914 136.84 35.324 131.95 36.134C129.28 36.574 126.72 37.144 124.28 37.814C127.11 38.564 129.83 39.434 132.44 40.404C134.97 39.814 137.62 39.334 140.34 38.984C143.34 38.594 146.43 38.344 149.61 38.254Z" fill="#18203A"/>
<path d="M149.54 42.994C164.23 42.584 177.48 45.704 186.46 50.954C177.81 44.374 163.59 39.964 147.45 39.734C145.72 39.704 144.01 39.734 142.33 39.804C139.18 39.934 136.12 40.234 133.17 40.674C135.61 41.604 137.94 42.634 140.15 43.734C142.95 43.364 145.85 43.124 148.82 43.014C149.06 43.014 149.3 43.004 149.54 42.994Z" fill="#18203A"/>
<path d="M149.68 33.034C164.37 32.624 177.62 35.744 186.6 40.994C177.95 34.414 163.73 30.004 147.59 29.774C137.64 29.634 128.38 31.094 120.67 33.724C118.75 34.374 116.93 35.104 115.22 35.894C117.15 36.204 119.1 36.574 121.07 37.024C122.04 37.244 123.01 37.484 123.96 37.734C126 36.984 128.15 36.304 130.4 35.714C136.28 34.174 142.8 33.224 149.68 33.034Z" fill="#18203A"/>
<path d="M112.45 49.834C117.17 50.904 121.65 52.314 125.79 53.974C127.73 53.174 129.78 52.464 131.92 51.864C126.81 49.804 121.16 48.144 115.13 47.034C99.25 44.124 84.44 45.684 74.68 50.454C84.51 47.064 98.11 46.574 112.45 49.834Z" fill="#18203A"/>
<path d="M75.59 45.484C85.42 42.084 99.03 41.604 113.36 44.854C120.44 46.464 126.96 48.824 132.64 51.674C137.28 50.434 142.34 49.684 147.66 49.484C139.99 43.874 129.24 39.344 116.95 37.084C101.07 34.174 86.26 35.724 76.5 40.494C86.33 37.094 99.94 36.604 114.27 39.864C123.63 41.994 132.03 45.424 138.78 49.594C132.27 46.254 124.52 43.614 116.03 42.054C100.16 39.154 85.35 40.714 75.59 45.484Z" fill="#18203A"/>
<path d="M119.66 57.064C121.17 56.144 122.79 55.304 124.49 54.544C121.22 53.534 117.78 52.684 114.21 52.034C98.33 49.124 83.52 50.674 73.76 55.444C83.59 52.044 97.2 51.554 111.53 54.814C114.33 55.454 117.05 56.204 119.66 57.064Z" fill="#18203A"/>
<path d="M101.78 34.334C101.05 32.924 100.63 31.344 100.59 29.654C100.45 23.694 105.18 18.734 111.14 18.584C117.1 18.444 122.06 23.174 122.2 29.134C122.22 30.134 122.11 31.104 121.88 32.024C122.79 31.734 123.71 31.464 124.66 31.204C124.76 30.504 124.8 29.794 124.78 29.064C124.6 21.684 118.46 15.824 111.08 16.004C103.7 16.184 97.84 22.324 98.01 29.704C98.05 31.344 98.39 32.904 98.96 34.354C99.89 34.344 100.83 34.334 101.78 34.334Z" fill="#18203A"/>
<path d="M125.06 32.434C125.06 32.434 120.52 33.804 117.56 34.724Z" fill="#18203A"/>
<path d="M152.33 45.164C150.7 45.054 149.05 44.984 147.38 44.954C145.77 44.934 144.17 44.954 142.59 45.014C144.48 46.044 146.26 47.134 147.93 48.274C148.44 48.254 148.95 48.224 149.46 48.214C151.89 48.144 154.27 48.184 156.6 48.304C168.4 48.904 178.88 51.794 186.38 56.174C178.64 50.284 166.41 46.134 152.33 45.164Z" fill="#18203A"/>
<path d="M149.61 38.254C164.3 37.844 177.55 40.964 186.53 46.214C177.88 39.634 163.66 35.224 147.52 34.994C142.08 34.914 136.84 35.324 131.95 36.134C129.28 36.574 126.72 37.144 124.28 37.814C127.11 38.564 129.83 39.434 132.44 40.404C134.97 39.814 137.62 39.334 140.34 38.984C143.34 38.594 146.43 38.344 149.61 38.254Z" fill="#18203A"/>
<path d="M149.54 42.994C164.23 42.584 177.48 45.704 186.46 50.954C177.81 44.374 163.59 39.964 147.45 39.734C145.72 39.704 144.01 39.734 142.33 39.804C139.18 39.934 136.12 40.234 133.17 40.674C135.61 41.604 137.94 42.634 140.15 43.734C142.95 43.364 145.85 43.124 148.82 43.014C149.06 43.014 149.3 43.004 149.54 42.994Z" fill="#18203A"/>
<path d="M149.68 33.034C164.37 32.624 177.62 35.744 186.6 40.994C177.95 34.414 163.73 30.004 147.59 29.774C137.64 29.634 128.38 31.094 120.67 33.724C118.75 34.374 116.93 35.104 115.22 35.894C117.15 36.204 119.1 36.574 121.07 37.024C122.04 37.244 123.01 37.484 123.96 37.734C126 36.984 128.15 36.304 130.4 35.714C136.28 34.174 142.8 33.224 149.68 33.034Z" fill="#18203A"/>
<path d="M112.45 49.834C117.17 50.904 121.65 52.314 125.79 53.974C127.73 53.174 129.78 52.464 131.92 51.864C126.81 49.804 121.16 48.144 115.13 47.034C99.25 44.124 84.44 45.684 74.68 50.454C84.51 47.064 98.11 46.574 112.45 49.834Z" fill="#18203A"/>
<path d="M75.59 45.484C85.42 42.084 99.03 41.604 113.36 44.854C120.44 46.464 126.96 48.824 132.64 51.674C137.28 50.434 142.34 49.684 147.66 49.484C139.99 43.874 129.24 39.344 116.95 37.084C101.07 34.174 86.26 35.724 76.5 40.494C86.33 37.094 99.94 36.604 114.27 39.864C123.63 41.994 132.03 45.424 138.78 49.594C132.27 46.254 124.52 43.614 116.03 42.054C100.16 39.154 85.35 40.714 75.59 45.484Z" fill="#18203A"/>
<path d="M119.66 57.064C121.17 56.144 122.79 55.304 124.49 54.544C121.22 53.534 117.78 52.684 114.21 52.034C98.33 49.124 83.52 50.674 73.76 55.444C83.59 52.044 97.2 51.554 111.53 54.814C114.33 55.454 117.05 56.204 119.66 57.064Z" fill="#18203A"/>
<path d="M101.78 34.334C101.05 32.924 100.63 31.344 100.59 29.654C100.45 23.694 105.18 18.734 111.14 18.584C117.1 18.444 122.06 23.174 122.2 29.134C122.22 30.134 122.11 31.104 121.88 32.024C122.79 31.734 123.71 31.464 124.66 31.204C124.76 30.504 124.8 29.794 124.78 29.064C124.6 21.684 118.46 15.824 111.08 16.004C103.7 16.184 97.84 22.324 98.01 29.704C98.05 31.344 98.39 32.904 98.96 34.354C99.89 34.344 100.83 34.334 101.78 34.334Z" fill="#18203A"/>
<path d="M125.06 32.434C125.06 32.434 120.52 33.804 117.56 34.724Z" fill="#18203A"/>
<path d="M244.26 150.114H16.11V147.024H244.26V150.114Z" fill="#D2D2D2"/>
<path d="M244.26 112.704H16.11V109.624H244.26V112.704Z" fill="#D2D2D2"/>
<path d="M244.26 64.394H16.11V61.304H244.26V64.394Z" fill="#D2D2D2"/>
<path d="M32.16 102.224C31.64 102.294 31.17 102.334 30.75 102.334C29.81 102.334 29.06 102.174 28.51 101.844C27.83 101.424 27.49 100.724 27.49 99.754V88.774C28.3 88.774 29.25 88.804 30.35 88.874C31.45 88.944 32.15 88.974 32.44 88.974C37.03 88.974 40.49 88.234 42.82 86.744C45.41 85.094 46.7 82.484 46.7 78.934C46.7 75.894 45.71 73.534 43.74 71.844C41.76 70.164 39.13 69.324 35.83 69.324H17.04V71.514C17.4 71.514 17.89 71.514 18.5 71.514C20.12 71.514 21.15 71.634 21.57 71.884C21.99 72.124 22.2 72.794 22.2 73.894V99.654C22.2 100.654 21.98 101.324 21.54 101.644C21.1 101.964 20.44 102.134 19.56 102.134C19.33 102.134 18.93 102.134 18.34 102.134C17.75 102.134 17.32 102.134 17.02 102.134V104.434H32.97V102.134C32.95 102.114 32.68 102.154 32.16 102.224ZM28.21 71.914C28.69 71.634 29.52 71.504 30.69 71.504C31.04 71.504 31.6 71.504 32.34 71.504C35.61 71.504 37.9 72.064 39.21 73.174C40.52 74.294 41.18 76.174 41.18 78.824C41.18 81.414 40.55 83.314 39.28 84.544C37.76 86.034 35.1 86.774 31.31 86.774L27.47 86.584V73.874C27.48 72.844 27.72 72.194 28.21 71.914Z" fill="#18203A"/>
<path d="M61.37 102.224C60.85 102.294 60.38 102.334 59.96 102.334C59.02 102.334 58.27 102.174 57.72 101.844C57.03 101.424 56.69 100.724 56.69 99.754V87.394H58.09C61.35 87.394 63.59 88.064 64.8 89.394C66.01 90.724 66.87 93.744 67.39 98.454C67.71 100.984 68.29 102.764 69.13 103.784C69.97 104.804 71.29 105.314 73.1 105.314C75.42 105.314 77.04 104.444 77.94 102.704C78.59 101.444 78.91 99.414 78.91 96.614H77.11C77.11 99.984 76.43 101.664 75.05 101.664C74.08 101.664 72.95 98.764 71.65 92.954C71.16 91.004 70.38 89.574 69.3 88.644C68.21 87.724 66.69 87.064 64.72 86.674C69.05 85.994 72.05 84.844 73.7 83.234C74.93 82.004 75.54 80.244 75.54 77.944C75.54 75.164 74.5 72.984 72.43 71.394C70.62 70.004 68.37 69.304 65.68 69.304H46.24V71.604C46.6 71.604 47.09 71.604 47.7 71.604C49.32 71.604 50.35 71.724 50.77 71.964C51.19 72.204 51.4 72.874 51.4 73.964V99.634C51.4 100.634 51.18 101.294 50.74 101.614C50.3 101.934 49.64 102.094 48.76 102.094C48.53 102.094 48.13 102.094 47.54 102.094C46.95 102.094 46.51 102.094 46.22 102.094V104.394H62.17V102.094C62.16 102.114 61.89 102.154 61.37 102.224ZM57.47 71.754C57.99 71.514 58.93 71.384 60.29 71.384C60.58 71.384 61.03 71.384 61.65 71.384C64.89 71.384 67.18 72.034 68.5 73.334C69.54 74.374 70.06 75.984 70.06 78.164C70.06 81.964 68.38 84.164 65 84.744C63.71 84.974 60.93 85.084 56.69 85.084V73.624C56.69 72.624 56.95 72.004 57.47 71.754Z" fill="#18203A"/>
<path d="M110.91 91.214L110.28 104.414H80.69V102.224C80.98 102.224 81.42 102.224 82.01 102.224C82.59 102.224 83 102.224 83.23 102.224C84.11 102.224 84.76 102.064 85.2 101.744C85.64 101.424 85.86 100.754 85.86 99.754V73.994C85.86 72.894 85.65 72.224 85.23 71.984C84.81 71.744 83.78 71.624 82.16 71.624C81.54 71.624 81.06 71.624 80.7 71.624V69.324H109.13L109.81 81.794H107.72C107.04 77.284 105.89 74.424 104.25 73.214C102.62 72.004 99.28 71.404 94.24 71.404C93.11 71.404 92.31 71.594 91.84 71.964C91.37 72.334 91.14 72.994 91.14 73.944V85.114C93.99 85.114 95.97 84.724 97.07 83.954C98.43 82.984 99.11 81.164 99.11 78.484H101.19V93.764H99.11C99.11 91.374 98.64 89.734 97.7 88.834C96.57 87.734 94.38 87.194 91.14 87.194V99.774C91.14 101.494 91.71 102.444 92.84 102.644C93.03 102.674 93.31 102.674 93.67 102.644C98.65 102.644 102.04 102.094 103.85 101.004C106.27 99.524 108.03 96.274 109.13 91.244H110.91V91.214Z" fill="#18203A"/>
<path d="M135.7 104.414H133.8L122.28 72.454V96.064C122.28 98.364 122.55 99.904 123.11 100.684C123.89 101.784 125.54 102.334 128.07 102.334V104.414H113.92V102.334C116.06 102.334 117.54 101.964 118.35 101.214C119.32 100.304 119.81 98.584 119.81 96.044V73.884C119.81 72.814 119.57 72.144 119.1 71.884C118.63 71.624 117.53 71.494 115.81 71.494C115.19 71.494 114.69 71.494 114.3 71.494V69.304H126.46L135.9 96.154L144.96 69.304H156.88V71.494C156.55 71.494 156.1 71.494 155.51 71.494C154.92 71.494 154.52 71.494 154.29 71.494C153.44 71.494 152.8 71.664 152.36 72.004C151.92 72.344 151.7 72.994 151.7 73.964V99.724C151.7 100.854 151.97 101.534 152.53 101.764C153.08 101.994 154.53 102.104 156.87 102.104V104.404H141.1V102.104C141.52 102.104 142.07 102.104 142.74 102.104C143.42 102.104 143.88 102.104 144.14 102.104C145.01 102.104 145.64 101.944 146.02 101.624C146.41 101.304 146.6 100.644 146.6 99.644V72.484L135.7 104.414Z" fill="#18203A"/>
<path d="M175.67 102.224V104.414H159.83V102.224C160.06 102.224 160.44 102.224 160.99 102.224C161.54 102.224 161.96 102.224 162.25 102.224C163.15 102.224 163.83 102.074 164.29 101.784C164.87 101.394 165.16 100.714 165.16 99.744V73.984C165.16 72.884 164.93 72.214 164.48 71.974C164.03 71.734 162.98 71.614 161.33 71.614C160.68 71.614 160.18 71.614 159.83 71.614V69.314H175.67V71.614C175.12 71.614 174.67 71.614 174.33 71.614C173.99 71.614 173.72 71.614 173.53 71.614C172.3 71.614 171.49 71.744 171.12 72.004C170.75 72.264 170.56 72.934 170.56 74.004V99.844C170.56 100.984 170.85 101.664 171.43 101.894C172.02 102.114 173.43 102.224 175.67 102.224Z" fill="#18203A"/>
<path d="M209.01 91.214L208.38 104.414H178.78V102.224C179.07 102.224 179.51 102.224 180.1 102.224C180.69 102.224 181.09 102.224 181.32 102.224C182.2 102.224 182.86 102.064 183.3 101.744C183.74 101.424 183.96 100.754 183.96 99.754V73.994C183.96 72.894 183.75 72.224 183.33 71.984C182.91 71.744 181.88 71.624 180.26 71.624C179.64 71.624 179.15 71.624 178.79 71.624V69.324H207.22L207.9 81.794H205.82C205.14 77.284 203.98 74.424 202.35 73.214C200.72 72.004 197.38 71.404 192.34 71.404C191.21 71.404 190.41 71.594 189.94 71.964C189.47 72.334 189.24 72.994 189.24 73.944V85.114C192.1 85.114 194.07 84.724 195.17 83.954C196.53 82.984 197.21 81.164 197.21 78.484H199.29V93.764H197.21C197.21 91.374 196.74 89.734 195.8 88.834C194.67 87.734 192.48 87.194 189.24 87.194V99.774C189.24 101.494 189.8 102.444 190.94 102.644C191.13 102.674 191.41 102.674 191.76 102.644C196.74 102.644 200.13 102.094 201.94 101.004C204.37 99.524 206.12 96.274 207.22 91.244H209.01V91.214Z" fill="#18203A"/>
<path d="M225.77 102.224C225.25 102.294 224.78 102.334 224.36 102.334C223.41 102.334 222.67 102.174 222.12 101.844C221.44 101.424 221.1 100.724 221.1 99.754V87.394H222.5C225.76 87.394 228 88.064 229.21 89.394C230.42 90.724 231.28 93.744 231.8 98.454C232.12 100.984 232.7 102.764 233.54 103.784C234.38 104.804 235.7 105.314 237.51 105.314C239.84 105.314 241.45 104.444 242.36 102.704C243 101.444 243.33 99.414 243.33 96.614H241.53C241.53 99.984 240.84 101.664 239.47 101.664C238.5 101.664 237.37 98.764 236.07 92.954C235.59 91.004 234.8 89.574 233.72 88.644C232.64 87.724 231.11 87.064 229.13 86.674C233.46 85.994 236.46 84.844 238.1 83.234C239.33 82.004 239.94 80.244 239.94 77.944C239.94 75.164 238.9 72.984 236.83 71.394C235.02 70.004 232.77 69.304 230.08 69.304H210.62V71.604C210.98 71.604 211.46 71.604 212.08 71.604C213.7 71.604 214.73 71.724 215.15 71.964C215.58 72.204 215.79 72.874 215.79 73.964V99.634C215.79 100.634 215.57 101.294 215.13 101.614C214.69 101.934 214.04 102.094 213.16 102.094C212.93 102.094 212.53 102.094 211.94 102.094C211.35 102.094 210.91 102.094 210.62 102.094V104.394H226.57V102.094C226.56 102.114 226.29 102.154 225.77 102.224ZM221.87 71.754C222.39 71.514 223.33 71.384 224.69 71.384C224.98 71.384 225.43 71.384 226.05 71.384C229.29 71.384 231.57 72.034 232.91 73.334C233.94 74.374 234.46 75.984 234.46 78.164C234.46 81.964 232.78 84.164 229.41 84.744C228.11 84.974 225.34 85.084 221.1 85.084V73.624C221.1 72.624 221.35 72.004 221.87 71.754Z" fill="#18203A"/>
<path d="M163.43 129.874C165.96 129.874 167.74 130.354 168.75 131.304C169.56 132.054 169.96 133.234 169.96 134.854C169.96 136.764 169.37 138.054 168.19 138.714C167.28 139.234 165.7 139.494 163.46 139.494C162.3 139.494 161.54 139.404 161.19 139.234C160.84 139.054 160.66 138.634 160.66 137.974V129.874H163.43V129.874ZM171.07 139.564C172.83 138.484 173.72 136.874 173.72 134.734C173.71 134.584 173.71 134.434 173.72 134.264C173.72 133.204 173.43 132.314 172.85 131.584C171.85 130.364 170.02 129.534 167.37 129.094C169.01 128.694 170.27 128.104 171.14 127.314C172.09 126.444 172.57 125.334 172.57 124.004C172.57 122.254 172.09 120.914 171.14 119.984C170.04 118.904 168.27 118.364 165.84 118.364H154.04V119.774C154.27 119.774 154.58 119.774 154.98 119.774C156.02 119.774 156.68 119.854 156.95 120.004C157.22 120.164 157.35 120.594 157.35 121.304V137.904C157.35 138.554 157.21 138.974 156.93 139.184C156.65 139.394 156.23 139.494 155.66 139.494C155.51 139.494 155.26 139.494 154.88 139.494C154.5 139.494 154.22 139.494 154.03 139.494V140.904H165.46C167.72 140.904 169.59 140.464 171.07 139.564ZM161.25 119.964C161.5 119.834 162 119.774 162.75 119.774C162.91 119.774 163.17 119.774 163.5 119.774C165.89 119.774 167.49 120.294 168.3 121.334C168.76 121.914 168.98 122.854 168.98 124.144C168.98 125.854 168.48 127.044 167.48 127.734C166.62 128.314 165.21 128.604 163.24 128.604L160.65 128.574V121.174C160.66 120.574 160.86 120.174 161.25 119.964Z" fill="#18203A"/>
<path d="M174.63 138.844C174.17 139.204 173.44 139.394 172.42 139.394V140.904H180.44V139.394C179.3 139.394 178.5 139.284 178.04 139.054C177.57 138.824 177.34 138.444 177.34 137.904C177.34 137.554 177.44 137.064 177.65 136.434C177.86 135.814 178.15 135.074 178.52 134.224C178.69 133.854 178.78 133.654 178.8 133.634H187.22L188.63 137.514C188.77 137.884 188.83 138.204 188.83 138.474C188.83 138.894 188.71 139.154 188.46 139.284C188.21 139.414 187.85 139.474 187.37 139.474C187.1 139.454 186.83 139.444 186.56 139.424C186.29 139.404 186.04 139.404 185.81 139.404V140.914H195.13V139.404H194.82C193.97 139.404 193.37 139.264 193.01 138.994C192.76 138.804 192.55 138.434 192.39 137.864L184.42 118.054H183.2L175.91 136.774C175.52 137.784 175.09 138.474 174.63 138.844ZM186.59 132.034H179.38L182.88 122.934L186.59 132.034Z" fill="#18203A"/>
<path d="M201.9 139.574V140.904H193.25V139.564C194.58 139.444 195.47 139.084 195.92 138.504C196.38 137.924 196.6 136.934 196.6 135.544V120.874C196.25 120.434 195.9 120.154 195.56 120.034C195.22 119.914 194.45 119.844 193.25 119.844V118.364L199.33 118.384L211.67 135.404V123.734C211.67 122.154 211.42 121.084 210.91 120.524C210.4 119.974 209.44 119.694 208.03 119.694V118.354H216.72V119.694C215.46 119.694 214.57 119.974 214.08 120.534C213.58 121.094 213.33 122.154 213.33 123.714V141.464H212.06L198.15 122.494V135.524C198.15 137.274 198.47 138.394 199.12 138.894C199.69 139.354 200.61 139.574 201.9 139.574Z" fill="#18203A"/>
<path d="M227.5 139.494V140.904H217.62V139.494C217.74 139.494 217.98 139.494 218.32 139.494C218.66 139.494 218.93 139.494 219.12 139.494C219.66 139.494 220.07 139.404 220.34 139.214C220.69 138.964 220.87 138.524 220.87 137.904V121.304C220.87 120.594 220.71 120.164 220.39 120.004C220.07 119.844 219.15 119.774 217.63 119.774V118.364H227.51V119.774C227.32 119.774 227.05 119.774 226.7 119.774C226.35 119.774 226.08 119.774 225.92 119.774C225.36 119.774 224.93 119.884 224.64 120.104C224.35 120.324 224.2 120.744 224.2 121.364V130.754L232.74 121.934C233.16 121.314 233.36 120.854 233.36 120.574C233.36 120.034 232.4 119.764 230.47 119.764V118.354H239.84V119.764C238.9 119.764 238.16 119.854 237.62 120.054C236.7 120.374 235.8 120.994 234.9 121.914L230.09 126.874L237.72 138.024C238.01 138.624 238.4 139.024 238.89 139.204C239.38 139.384 240.12 139.474 241.11 139.474V140.884H230.79V139.474C231.21 139.474 231.5 139.474 231.69 139.474C232.54 139.474 233.16 139.434 233.55 139.364C233.94 139.284 234.14 139.104 234.14 138.824C234.14 138.644 234.02 138.374 233.78 138.004L227.76 129.324L224.19 132.904V137.914C224.19 138.844 224.54 139.354 225.23 139.444C225.38 139.484 226.14 139.494 227.5 139.494Z" fill="#18203A"/>
<path d="M38.57 122.544L31.31 141.584H30.15L22.2 121.264C21.99 120.624 21.77 120.244 21.54 120.114C21.19 119.894 20.42 119.784 19.26 119.784V118.374H28.87V119.784C28.83 119.784 28.67 119.784 28.39 119.784C28.11 119.784 27.86 119.784 27.65 119.784C27.11 119.784 26.68 119.864 26.37 120.024C26.06 120.184 25.9 120.504 25.9 120.984C25.9 121.254 25.95 121.544 26.05 121.834L31.63 135.994L36.52 123.364C36.85 122.624 37.01 122.014 37.01 121.544C37.01 120.374 35.94 119.784 33.81 119.784V118.374H42.02V119.784C41.12 119.784 40.42 119.974 39.93 120.344C39.42 120.724 38.97 121.454 38.57 122.544Z" fill="#18203A"/>
<path d="M38.74 138.934C38.28 139.304 37.54 139.484 36.52 139.484V141.004H44.57V139.484C43.43 139.484 42.62 139.374 42.16 139.144C41.69 138.914 41.46 138.524 41.46 137.984C41.46 137.624 41.56 137.134 41.77 136.514C41.98 135.884 42.27 135.144 42.65 134.294C42.82 133.914 42.91 133.724 42.93 133.694H51.38L52.79 137.594C52.93 137.974 52.99 138.294 52.99 138.564C52.99 138.984 52.86 139.254 52.61 139.374C52.36 139.494 51.99 139.564 51.51 139.564C51.24 139.544 50.97 139.534 50.7 139.514C50.43 139.494 50.18 139.484 49.95 139.484V141.004H59.3V139.484H58.99C58.13 139.484 57.53 139.344 57.17 139.074C56.92 138.884 56.71 138.504 56.54 137.944L48.53 118.054H47.31L39.99 136.854C39.63 137.864 39.2 138.564 38.74 138.934ZM50.74 132.094H43.5L47.02 122.954L50.74 132.094Z" fill="#18203A"/>
<path d="M79.09 132.334L78.59 140.994H60.25V139.584C60.44 139.584 60.72 139.584 61.1 139.584C61.48 139.584 61.74 139.584 61.88 139.584C62.45 139.584 62.87 139.484 63.15 139.264C63.43 139.054 63.57 138.624 63.57 137.974V121.304C63.57 120.594 63.43 120.154 63.16 120.004C62.89 119.844 62.23 119.774 61.18 119.774C60.78 119.774 60.47 119.774 60.24 119.774V118.364H70.31V119.774C70.12 119.774 69.85 119.774 69.48 119.774C69.11 119.774 68.85 119.774 68.68 119.774C68.11 119.774 67.69 119.874 67.41 120.084C67.13 120.294 66.99 120.724 66.99 121.364V137.984C66.99 138.734 67.18 139.194 67.55 139.344C67.93 139.504 68.9 139.584 70.46 139.584C72.96 139.584 74.64 139.214 75.49 138.484C76.55 137.564 77.34 135.514 77.87 132.324H79.09V132.334Z" fill="#18203A"/>
<path d="M99.57 132.334L99.07 140.994H80.74V139.584C80.93 139.584 81.21 139.584 81.59 139.584C81.97 139.584 82.23 139.584 82.38 139.584C82.95 139.584 83.37 139.484 83.65 139.264C83.93 139.054 84.08 138.624 84.08 137.974V121.304C84.08 120.594 83.94 120.154 83.67 120.004C83.4 119.844 82.74 119.774 81.69 119.774C81.29 119.774 80.98 119.774 80.75 119.774V118.364H90.82V119.774C90.63 119.774 90.36 119.774 89.99 119.774C89.62 119.774 89.36 119.774 89.19 119.774C88.62 119.774 88.2 119.874 87.92 120.084C87.64 120.294 87.5 120.724 87.5 121.364V137.984C87.5 138.734 87.69 139.194 88.06 139.344C88.43 139.504 89.4 139.584 90.97 139.584C93.47 139.584 95.15 139.214 96 138.484C97.06 137.564 97.85 135.514 98.38 132.324H99.57V132.334Z" fill="#18203A"/>
<path d="M120.72 132.494L120.31 141.004H101.23V139.594C101.42 139.594 101.7 139.594 102.08 139.594C102.46 139.594 102.72 139.594 102.87 139.594C103.44 139.594 103.86 139.494 104.14 139.284C104.42 139.074 104.56 138.644 104.56 138.004V121.394C104.56 120.684 104.42 120.254 104.15 120.094C103.88 119.934 103.22 119.854 102.17 119.854C101.77 119.854 101.46 119.854 101.23 119.854V118.374H119.56L120 126.414H118.66C118.22 123.504 117.48 121.664 116.43 120.884C115.38 120.104 113.23 119.714 109.97 119.714C109.24 119.714 108.73 119.834 108.42 120.074C108.12 120.314 107.97 120.744 107.97 121.344V128.544C109.81 128.544 111.09 128.294 111.8 127.794C112.68 127.174 113.12 125.994 113.12 124.274H114.46V134.124H113.12C113.12 132.584 112.82 131.534 112.21 130.944C111.48 130.234 110.07 129.884 107.98 129.884V137.994C107.98 139.104 108.35 139.724 109.07 139.844C109.2 139.864 109.37 139.864 109.6 139.844C112.81 139.844 115 139.494 116.17 138.784C117.73 137.824 118.87 135.734 119.57 132.494H120.72V132.494Z" fill="#18203A"/>
<path d="M140.5 121.644L134.71 131.464V138.044C134.71 138.764 134.81 139.194 135 139.354C135.2 139.514 135.79 139.594 136.76 139.594H138.29V141.004H127.68V139.594C127.95 139.594 128.31 139.594 128.77 139.594C129.23 139.594 129.53 139.594 129.67 139.594C130.23 139.594 130.64 139.494 130.88 139.284C131.13 139.074 131.26 138.644 131.26 138.004V131.664L124.97 121.654C124.47 120.864 124.05 120.364 123.72 120.164C123.39 119.964 122.76 119.864 121.84 119.864V118.384H131.44V119.864C130.5 119.864 129.95 119.874 129.79 119.894C129 119.994 128.61 120.274 128.61 120.714C128.61 120.984 128.74 121.324 129 121.724L133.93 129.574L138.1 122.424C138.4 121.904 138.55 121.484 138.55 121.144C138.55 120.294 137.51 119.864 135.43 119.864V118.384H143.69V119.864C142.75 119.864 142.12 119.954 141.8 120.114C141.48 120.274 141.04 120.784 140.5 121.644Z" fill="#18203A"/>
<path d="M30.01 182.374V184.064H28.73C27.87 184.064 27.08 183.734 26.92 182.724C26.32 183.654 25.03 184.264 23.38 184.264C21.05 184.264 19.57 183.054 19.57 181.034C19.57 179.244 20.7 177.924 23.59 177.924H26.66V177.384C26.66 175.844 25.73 175.114 24.35 175.114C22.95 175.114 22.04 175.814 21.98 176.904H19.9C19.96 174.624 21.83 173.304 24.43 173.304C26.9 173.304 28.92 174.534 28.92 177.404V181.674C28.92 182.254 29.15 182.374 29.62 182.374H30.01V182.374ZM26.65 179.474H23.89C22.37 179.474 21.89 180.154 21.89 180.934C21.89 182.004 22.74 182.474 23.89 182.474C25.46 182.474 26.65 181.624 26.65 179.904V179.474Z" fill="#231F20"/>
<path d="M46.36 168.764V184.064H44.3L44.11 182.454C43.47 183.524 42.09 184.264 40.47 184.264C37.57 184.264 35.46 182.254 35.46 178.814C35.46 175.274 37.66 173.294 40.47 173.294C42.12 173.294 43.45 173.994 44.09 175.064V168.764H46.36ZM44.06 178.814C44.06 176.644 42.7 175.294 40.93 175.314C39.08 175.314 37.8 176.674 37.8 178.814C37.8 180.994 39.1 182.274 40.93 182.274C42.7 182.274 44.06 180.994 44.06 178.814Z" fill="#231F20"/>
<path d="M48.93 169.194H51.42V171.544H48.93V169.194ZM49.05 173.524H51.3V184.064H49.05V173.524Z" fill="#231F20"/>
<path d="M58.36 181.674L61.47 173.494H63.9L59.57 184.054H57.06L52.84 173.494H55.21L58.36 181.674Z" fill="#231F20"/>
<path d="M65.31 169.194H67.8V171.544H65.31V169.194ZM65.43 173.524H67.68V184.064H65.43V173.524Z" fill="#231F20"/>
<path d="M71.96 180.874C71.98 181.964 72.99 182.604 74.37 182.604C75.75 182.604 76.57 182.084 76.57 181.164C76.57 180.364 76.16 179.934 74.96 179.744L72.84 179.374C70.78 179.024 69.98 177.954 69.98 176.454C69.98 174.554 71.85 173.324 74.24 173.324C76.81 173.324 78.69 174.554 78.71 176.654H76.49C76.47 175.584 75.54 174.994 74.24 174.994C73 174.994 72.22 175.504 72.22 176.364C72.22 177.124 72.75 177.474 73.93 177.684L76.01 178.054C77.97 178.404 78.87 179.374 78.87 180.954C78.87 183.144 76.85 184.264 74.4 184.264C71.62 184.264 69.75 182.934 69.71 180.874H71.96V180.874Z" fill="#231F20"/>
<path d="M80.9 169.194H83.39V171.544H80.9V169.194ZM81.03 173.524H83.28V184.064H81.03V173.524Z" fill="#231F20"/>
<path d="M91.02 173.294C94.23 173.294 96.46 175.544 96.46 178.794C96.46 182.044 94.24 184.264 91.02 184.264C87.83 184.264 85.6 182.044 85.6 178.794C85.6 175.544 87.82 173.294 91.02 173.294ZM91.02 182.334C92.91 182.334 94.15 180.934 94.15 178.774C94.15 176.584 92.91 175.214 91.02 175.214C89.15 175.214 87.91 176.584 87.91 178.774C87.91 180.934 89.14 182.334 91.02 182.334Z" fill="#231F20"/>
<path d="M108.53 177.764V184.064H106.26V178.234C106.26 176.254 105.25 175.294 103.71 175.294C101.96 175.294 101.01 176.524 101.01 178.404V184.074H98.76V173.534H100.8L100.96 174.954C101.56 173.944 102.69 173.324 104.3 173.324C106.96 173.314 108.53 175.064 108.53 177.764Z" fill="#231F20"/>
<path d="M120.07 173.294C123.28 173.294 125.51 175.544 125.51 178.794C125.51 182.044 123.29 184.264 120.07 184.264C116.88 184.264 114.65 182.044 114.65 178.794C114.65 175.544 116.88 173.294 120.07 173.294ZM120.07 182.334C121.96 182.334 123.2 180.934 123.2 178.774C123.2 176.584 121.96 175.214 120.07 175.214C118.2 175.214 116.96 176.584 116.96 178.774C116.96 180.934 118.19 182.334 120.07 182.334Z" fill="#231F20"/>
<path d="M128.54 173.524V171.814C128.54 169.814 129.49 168.744 131.77 168.744H133.31V170.644H132.16C131.03 170.644 130.8 171.204 130.8 171.974V173.524H133.31V175.494H130.8V184.064H128.53V175.494H126.8V173.524H128.54V173.524Z" fill="#231F20"/>
<path d="M141.54 177.684V184.074H139.21V169.414H141.54V175.554H148.73V169.414H151.06V184.074H148.73V177.684H141.54Z" fill="#231F20"/>
<path d="M160.1 184.064H157.79V171.464H152.99V169.404H164.89V171.464H160.09V184.064H160.1Z" fill="#231F20"/>
<path d="M176.21 181.914V184.064H166.84V169.404H169.17V181.924H176.21V181.914Z" fill="#231F20"/>
<path d="M180.64 171.464V175.854H187.05V177.874H180.64V184.074H178.31V169.414H188.01V171.474H180.64V171.464Z" fill="#231F20"/>
<path d="M205.49 180.004C205.49 182.494 203.64 184.064 200.61 184.064H194.02V169.404H200.14C203.27 169.404 204.98 170.904 204.98 173.254C204.98 174.484 204.49 175.854 202.98 176.464C204.58 176.954 205.49 178.314 205.49 180.004ZM200.01 171.424H196.34V175.684H200.19C201.73 175.684 202.62 174.834 202.62 173.544C202.62 172.284 201.76 171.424 200.01 171.424ZM203.06 179.834C203.06 178.414 202.09 177.574 200.49 177.574H196.35V182.044H200.37C202.11 182.044 203.06 181.224 203.06 179.834Z" fill="#231F20"/>
<path d="M217.54 182.374V184.064H216.26C215.4 184.064 214.61 183.734 214.45 182.724C213.85 183.654 212.56 184.264 210.91 184.264C208.58 184.264 207.1 183.054 207.1 181.034C207.1 179.244 208.23 177.924 211.12 177.924H214.19V177.384C214.19 175.844 213.26 175.114 211.88 175.114C210.48 175.114 209.57 175.814 209.51 176.904H207.43C207.49 174.624 209.36 173.304 211.96 173.304C214.43 173.304 216.45 174.534 216.45 177.404V181.674C216.45 182.254 216.68 182.374 217.15 182.374H217.54V182.374ZM214.18 179.474H211.42C209.9 179.474 209.42 180.154 209.42 180.934C209.42 182.004 210.27 182.474 211.42 182.474C212.99 182.474 214.18 181.624 214.18 179.904V179.474Z" fill="#231F20"/>
<path d="M229.2 177.764V184.064H226.93V178.234C226.93 176.254 225.92 175.294 224.38 175.294C222.63 175.294 221.68 176.524 221.68 178.404V184.074H219.43V173.534H221.47L221.63 174.954C222.23 173.944 223.36 173.324 224.97 173.324C227.64 173.314 229.2 175.064 229.2 177.764Z" fill="#231F20"/>
<path d="M231.76 168.764H234.01V178.194L238.62 173.504H241.42L236.91 178.054L241.46 184.074H238.62L235.31 179.644L234.07 180.894V184.064H231.76V168.764V168.764Z" fill="#231F20"/>
</svg>