<?xml version="1.0" encoding="utf-8"?>
<!-- Generator: Adobe Illustrator 26.4.1, SVG Export Plug-In . SVG Version: 6.00 Build 0)  -->
<svg version="1.1" id="Layer_1" xmlns="http://www.w3.org/2000/svg" xmlns:xlink="http://www.w3.org/1999/xlink" x="0px" y="0px"
	 viewBox="0 0 531.17 148.39" style="enable-background:new 0 0 531.17 148.39;" xml:space="preserve">
<style type="text/css">
	.st0{fill:#06357A;stroke:#06357A;stroke-width:0.75;}
	.st1{fill:#1C2674;}
	.st2{fill:#283C8D;stroke:#06357A;}
	.st3{fill:#FDB913;}
	.st4{fill:#959CC3;}
	.st5{fill:none;}
	.st6{fill:#06357A;}
	.st7{font-family:'NeurialGrotesk-Medium';}
	.st8{font-size:30px;}
</style>
<g>
	<g>
		<path class="st0" d="M261.18,85.05c0-3.9,0-4.6-0.05-5.4c-0.05-0.85-0.25-1.25-1.07-1.42c-0.2-0.05-0.62-0.08-0.85-0.08
			c-0.1,0-0.2-0.05-0.2-0.15c0-0.15,0.12-0.2,0.4-0.2c1.12,0,2.7,0.08,2.82,0.08c0.6,0,1.57-0.08,2.72-0.08c4.1,0,5,2.5,5,3.75
			c0,2.05-1.17,3.27-2.35,4.5c1.85,0.58,4.32,2.35,4.32,5.27c0,2.67-2.1,5.45-6.37,5.45c-0.28,0-1.08-0.05-1.8-0.08
			c-0.72-0.05-1.42-0.08-1.52-0.08c-0.05,0-0.48,0-1,0.03c-0.5,0-1.08,0.05-1.45,0.05c-0.27,0-0.4-0.05-0.4-0.2
			c0-0.08,0.05-0.15,0.2-0.15c0.22,0,0.52-0.05,0.75-0.1c0.5-0.1,0.62-0.65,0.72-1.38c0.12-1.05,0.12-3.02,0.12-5.42V85.05z
			 M263.17,85.6c0,0.17,0.05,0.22,0.17,0.28c0.15,0.02,0.6,0.1,1.53,0.1c1.4,0,1.75-0.05,2.27-0.65c0.52-0.6,0.9-1.5,0.9-2.52
			c0-2.08-0.92-4.3-3.37-4.3c-0.28,0-0.8,0.02-1.2,0.12c-0.22,0.05-0.3,0.12-0.3,0.27V85.6z M263.17,88.25c0,1.92,0,5.02,0.03,5.4
			c0.08,1.22,0.08,1.58,0.85,1.95c0.67,0.32,1.75,0.38,2.2,0.38c1.35,0,3.52-0.73,3.52-3.55c0-1.5-0.5-3.67-2.42-5
			c-0.85-0.57-1.47-0.65-2.07-0.72c-0.33-0.05-1.57-0.05-1.95-0.05c-0.1,0-0.15,0.05-0.15,0.17V88.25z"/>
		<path class="st0" d="M286.92,78.43c0.3-0.83,0.4-0.97,0.55-0.97c0.15,0,0.25,0.12,0.55,0.9c0.38,0.95,4.3,11.27,5.82,15.07
			c0.9,2.22,1.62,2.62,2.15,2.77c0.38,0.12,0.75,0.15,1,0.15c0.15,0,0.25,0.03,0.25,0.15c0,0.15-0.22,0.2-0.5,0.2
			c-0.38,0-2.2,0-3.92-0.05c-0.47-0.03-0.75-0.03-0.75-0.18c0-0.1,0.07-0.15,0.17-0.17c0.15-0.05,0.3-0.27,0.15-0.67l-2.32-6.15
			c-0.05-0.1-0.1-0.15-0.22-0.15h-5.37c-0.12,0-0.2,0.07-0.25,0.2l-1.5,4.42c-0.22,0.62-0.35,1.23-0.35,1.67
			c0,0.5,0.53,0.72,0.95,0.72h0.25c0.17,0,0.25,0.05,0.25,0.15c0,0.15-0.15,0.2-0.38,0.2c-0.6,0-1.67-0.08-1.95-0.08
			c-0.27,0-1.65,0.08-2.82,0.08c-0.32,0-0.47-0.05-0.47-0.2c0-0.1,0.1-0.15,0.22-0.15c0.17,0,0.53-0.02,0.73-0.05
			c1.15-0.15,1.65-1.1,2.1-2.35L286.92,78.43z M289.52,88.43c0.12,0,0.12-0.08,0.1-0.17l-2.37-6.75c-0.12-0.38-0.25-0.38-0.38,0
			l-2.2,6.75c-0.05,0.12,0,0.17,0.08,0.17H289.52z"/>
		<path class="st0" d="M306.48,93.3c0.05,2.05,0.3,2.7,0.97,2.9c0.47,0.12,1.02,0.15,1.25,0.15c0.12,0,0.2,0.05,0.2,0.15
			c0,0.15-0.15,0.2-0.45,0.2c-1.42,0-2.42-0.08-2.65-0.08c-0.23,0-1.28,0.08-2.4,0.08c-0.25,0-0.4-0.03-0.4-0.2
			c0-0.1,0.08-0.15,0.2-0.15c0.2,0,0.65-0.02,1.02-0.15c0.62-0.17,0.75-0.9,0.75-3.17L305,78.7c0-0.97,0.07-1.25,0.27-1.25
			s0.62,0.55,0.88,0.8c0.38,0.42,4.1,4.45,7.95,8.57c2.47,2.65,5.2,5.7,6,6.52l-0.27-12.7c-0.03-1.62-0.2-2.17-0.97-2.38
			c-0.45-0.1-1.03-0.12-1.22-0.12c-0.18,0-0.2-0.08-0.2-0.17c0-0.15,0.2-0.17,0.5-0.17c1.12,0,2.32,0.08,2.6,0.08
			c0.28,0,1.1-0.08,2.12-0.08c0.27,0,0.45,0.02,0.45,0.17c0,0.1-0.1,0.17-0.28,0.17c-0.12,0-0.3,0-0.6,0.08
			c-0.83,0.17-0.92,0.72-0.92,2.22l-0.05,14.65c0,1.65-0.05,1.77-0.23,1.77c-0.2,0-0.5-0.28-1.82-1.6
			c-0.28-0.25-3.87-3.92-6.52-6.77c-2.9-3.12-5.72-6.27-6.52-7.17L306.48,93.3z"/>
		<path class="st0" d="M334.45,85.05c0-3.9,0-4.6-0.05-5.4c-0.05-0.85-0.25-1.25-1.08-1.42c-0.2-0.05-0.62-0.08-0.85-0.08
			c-0.1,0-0.2-0.05-0.2-0.15c0-0.15,0.12-0.2,0.4-0.2c1.12,0,2.6,0.08,2.75,0.08c0.22,0,1.67-0.08,2.42-0.08
			c0.28,0,0.4,0.05,0.4,0.2c0,0.1-0.1,0.15-0.2,0.15c-0.17,0-0.33,0.03-0.62,0.08c-0.67,0.12-0.87,0.55-0.92,1.42
			c-0.05,0.8-0.05,1.5-0.05,5.4v1.5h0.1c0.42-0.48,4.95-5.07,5.85-6.05c0.7-0.72,1.35-1.38,1.35-1.8c0-0.3-0.12-0.45-0.33-0.52
			c-0.12-0.05-0.23-0.1-0.23-0.2c0-0.12,0.12-0.17,0.3-0.17c0.5,0,1.27,0.08,1.87,0.08c0.12,0,1.77-0.08,2.4-0.08
			c0.28,0,0.38,0.05,0.38,0.17s-0.05,0.17-0.25,0.17c-0.38,0-0.9,0.12-1.4,0.35c-1.02,0.45-1.58,1.07-2.7,2.15
			c-0.62,0.6-4.97,4.85-5.5,5.47c0.65,0.72,5.85,6.1,6.87,7.05c2.1,1.95,2.52,2.35,3.72,2.85c0.65,0.27,1.38,0.32,1.55,0.32
			s0.32,0.05,0.32,0.15c0,0.12-0.12,0.2-0.55,0.2h-1.27c-0.7,0-1.17,0-1.72-0.05c-1.32-0.12-1.95-0.67-3.02-1.53
			c-1.12-0.92-6.42-6.65-7.62-8.12h-0.12v2.45c0,2.4,0,4.37,0.12,5.42c0.08,0.73,0.22,1.28,0.97,1.38c0.35,0.05,0.75,0.1,0.97,0.1
			c0.15,0,0.2,0.08,0.2,0.15c0,0.12-0.12,0.2-0.4,0.2c-1.22,0-2.67-0.08-2.88-0.08c-0.2,0-1.65,0.08-2.4,0.08
			c-0.27,0-0.4-0.05-0.4-0.2c0-0.08,0.05-0.15,0.2-0.15c0.22,0,0.52-0.05,0.75-0.1c0.5-0.1,0.62-0.65,0.73-1.38
			c0.12-1.05,0.12-3.02,0.12-5.42V85.05z"/>
		<path class="st0" d="M368.08,91.53c0-2.92,1.87-4.87,3.82-6.02c-0.92-1.3-1.23-2.32-1.23-3.45c0-1.97,2.03-4.6,5.37-4.6
			c1.27,0,2.35,0.25,3.02,0.62c0.3,0.18,0.33,0.33,0.33,0.62c0,0.75-0.1,2.5-0.18,2.88c-0.07,0.37-0.15,0.42-0.25,0.42
			c-0.12,0-0.15-0.1-0.15-0.48c0-0.65-0.15-1.47-0.77-2.12c-0.55-0.58-1.4-1.1-2.5-1.1c-1.5,0-3.17,0.92-3.17,3.27
			c0,1.95,1.35,3.57,3.95,6.4c0.85,0.92,3.92,3.8,4.72,4.47c0.7-0.95,1.27-2.62,1.27-4.15c0-0.38-0.1-0.85-0.47-1.22
			c-0.33-0.33-0.85-0.4-1.22-0.4c-0.15,0-0.3-0.05-0.3-0.17s0.2-0.18,0.4-0.18c0.6,0,1.6,0.03,3,0.18c0.38,0.05,0.45,0.25,0.45,0.5
			c0,2.02-1.38,4.55-2.47,5.9c1.65,1.4,2.75,2.07,3.45,2.47c0.8,0.48,2.07,0.97,2.97,0.97c0.22,0,0.35,0.03,0.35,0.18
			c0,0.1-0.2,0.17-0.42,0.17h-2.45c-1.85,0-2.45-0.17-5.2-2.35c-0.57,0.58-2.55,2.7-6.25,2.7C369.78,97.05,368.08,93.7,368.08,91.53
			z M379.75,93.88c-1.4-1.15-3.87-3.52-4.52-4.22c-0.65-0.7-2.25-2.47-2.95-3.5c-1.3,0.85-2.25,2.2-2.25,4.2c0,3.12,2.2,5.37,5,5.37
			C377.35,95.72,378.9,94.75,379.75,93.88z"/>
		<path class="st0" d="M414.05,89.45c0,2.4,0,4.37,0.12,5.42c0.08,0.73,0.22,1.28,0.97,1.38c0.35,0.05,0.9,0.1,1.12,0.1
			c0.15,0,0.2,0.08,0.2,0.15c0,0.12-0.12,0.2-0.4,0.2c-1.37,0-2.95-0.08-3.07-0.08s-1.7,0.08-2.45,0.08c-0.28,0-0.4-0.05-0.4-0.2
			c0-0.08,0.05-0.15,0.2-0.15c0.23,0,0.53-0.05,0.75-0.1c0.5-0.1,0.62-0.65,0.72-1.38c0.12-1.05,0.12-3.02,0.12-5.42V78.88
			l-3.7,0.05c-1.55,0.02-2.15,0.2-2.55,0.8c-0.28,0.42-0.35,0.6-0.42,0.77c-0.08,0.2-0.15,0.25-0.25,0.25
			c-0.08,0-0.12-0.08-0.12-0.22c0-0.25,0.5-2.4,0.55-2.6c0.05-0.15,0.15-0.47,0.25-0.47c0.17,0,0.42,0.25,1.1,0.3
			c0.72,0.07,1.67,0.12,1.97,0.12h9.37c0.8,0,1.37-0.05,1.77-0.12c0.38-0.05,0.6-0.12,0.7-0.12c0.12,0,0.12,0.15,0.12,0.3
			c0,0.75-0.07,2.47-0.07,2.75c0,0.23-0.08,0.33-0.18,0.33c-0.12,0-0.17-0.08-0.2-0.42l-0.03-0.28c-0.08-0.75-0.67-1.32-3.07-1.37
			l-3.15-0.05V89.45z"/>
		<path class="st0" d="M430.95,85.05c0-3.9,0-4.6-0.05-5.4c-0.05-0.85-0.25-1.25-1.08-1.42c-0.2-0.05-0.62-0.08-0.85-0.08
			c-0.1,0-0.2-0.05-0.2-0.15c0-0.15,0.12-0.2,0.4-0.2c1.12,0,2.7,0.08,2.82,0.08c0.27,0,2.17-0.08,2.95-0.08
			c1.57,0,3.25,0.15,4.57,1.1c0.62,0.45,1.72,1.67,1.72,3.4c0,1.85-0.77,3.7-3.02,5.77c2.05,2.62,3.75,4.85,5.2,6.4
			c1.35,1.42,2.42,1.7,3.05,1.8c0.48,0.07,0.83,0.07,0.98,0.07c0.12,0,0.22,0.08,0.22,0.15c0,0.15-0.15,0.2-0.6,0.2h-1.77
			c-1.4,0-2.03-0.12-2.67-0.47c-1.08-0.58-1.95-1.8-3.37-3.67c-1.05-1.37-2.22-3.05-2.72-3.7c-0.1-0.1-0.17-0.15-0.33-0.15
			l-3.07-0.05c-0.12,0-0.17,0.07-0.17,0.2v0.6c0,2.4,0,4.37,0.12,5.42c0.08,0.73,0.22,1.28,0.97,1.38c0.35,0.05,0.9,0.1,1.12,0.1
			c0.15,0,0.2,0.08,0.2,0.15c0,0.12-0.12,0.2-0.4,0.2c-1.37,0-2.95-0.08-3.07-0.08c-0.02,0-1.6,0.08-2.35,0.08
			c-0.27,0-0.4-0.05-0.4-0.2c0-0.08,0.05-0.15,0.2-0.15c0.22,0,0.52-0.05,0.75-0.1c0.5-0.1,0.62-0.65,0.73-1.38
			c0.12-1.05,0.12-3.02,0.12-5.42V85.05z M432.95,87.23c0,0.12,0.05,0.22,0.17,0.3c0.38,0.22,1.53,0.4,2.62,0.4
			c0.6,0,1.3-0.07,1.87-0.47c0.88-0.6,1.52-1.95,1.52-3.85c0-3.12-1.65-5-4.32-5c-0.75,0-1.42,0.08-1.67,0.15
			c-0.12,0.05-0.2,0.15-0.2,0.3V87.23z"/>
		<path class="st0" d="M453.32,85.05c0-3.9,0-4.6-0.05-5.4c-0.05-0.85-0.25-1.25-1.07-1.42c-0.2-0.05-0.62-0.08-0.85-0.08
			c-0.1,0-0.2-0.05-0.2-0.15c0-0.15,0.12-0.2,0.4-0.2c1.12,0,2.65,0.08,2.87,0.08c0.23,0,1.72-0.08,2.47-0.08
			c0.28,0,0.4,0.05,0.4,0.2c0,0.1-0.1,0.15-0.2,0.15c-0.17,0-0.33,0.03-0.62,0.08c-0.67,0.1-0.88,0.55-0.92,1.42
			c-0.05,0.8-0.05,1.5-0.05,5.4v3.5c0,3.6,0.8,5.15,1.87,6.17c1.23,1.15,2.35,1.38,3.77,1.38c1.52,0,3.02-0.73,3.92-1.8
			c1.15-1.42,1.45-3.55,1.45-6.12v-3.12c0-3.9,0-4.6-0.05-5.4c-0.05-0.85-0.25-1.25-1.08-1.42c-0.2-0.05-0.62-0.08-0.85-0.08
			c-0.1,0-0.2-0.05-0.2-0.15c0-0.15,0.12-0.2,0.4-0.2c1.12,0,2.5,0.08,2.65,0.08c0.17,0,1.35-0.08,2.1-0.08c0.28,0,0.4,0.05,0.4,0.2
			c0,0.1-0.1,0.15-0.2,0.15c-0.17,0-0.33,0.03-0.62,0.08c-0.67,0.15-0.87,0.55-0.92,1.42c-0.05,0.8-0.05,1.5-0.05,5.4v2.67
			c0,2.7-0.3,5.7-2.3,7.47c-1.8,1.6-3.67,1.85-5.15,1.85c-0.85,0-3.37-0.1-5.15-1.77c-1.22-1.17-2.17-2.92-2.17-6.57V85.05z"/>
		<path class="st0" d="M478.9,96.37c-0.35-0.17-0.38-0.27-0.38-0.95c0-1.25,0.1-2.25,0.12-2.65c0.02-0.28,0.08-0.4,0.2-0.4
			c0.15,0,0.18,0.08,0.18,0.28c0,0.22,0,0.57,0.07,0.92c0.38,1.85,2.03,2.55,3.7,2.55c2.4,0,3.57-1.72,3.57-3.32
			c0-1.72-0.72-2.72-2.87-4.5l-1.12-0.92c-2.65-2.17-3.25-3.72-3.25-5.42c0-2.67,2-4.5,5.17-4.5c0.97,0,1.7,0.1,2.32,0.25
			c0.47,0.1,0.67,0.12,0.88,0.12s0.25,0.05,0.25,0.18s-0.1,0.95-0.1,2.65c0,0.4-0.05,0.57-0.18,0.57c-0.15,0-0.17-0.12-0.2-0.32
			c-0.03-0.3-0.18-0.98-0.33-1.25c-0.15-0.28-0.83-1.33-3.12-1.33c-1.72,0-3.07,1.08-3.07,2.9c0,1.42,0.65,2.32,3.05,4.2l0.7,0.55
			c2.95,2.32,3.65,3.87,3.65,5.87c0,1.02-0.4,2.92-2.12,4.15c-1.08,0.75-2.42,1.05-3.77,1.05C481.07,97.05,479.92,96.87,478.9,96.37
			z"/>
		<path class="st0" d="M505.05,89.45c0,2.4,0,4.37,0.12,5.42c0.08,0.73,0.22,1.28,0.97,1.38c0.35,0.05,0.9,0.1,1.12,0.1
			c0.15,0,0.2,0.08,0.2,0.15c0,0.12-0.12,0.2-0.4,0.2c-1.37,0-2.95-0.08-3.07-0.08s-1.7,0.08-2.45,0.08c-0.28,0-0.4-0.05-0.4-0.2
			c0-0.08,0.05-0.15,0.2-0.15c0.23,0,0.53-0.05,0.75-0.1c0.5-0.1,0.62-0.65,0.72-1.38c0.12-1.05,0.12-3.02,0.12-5.42V78.88
			l-3.7,0.05c-1.55,0.02-2.15,0.2-2.55,0.8c-0.28,0.42-0.35,0.6-0.42,0.77c-0.08,0.2-0.15,0.25-0.25,0.25
			c-0.08,0-0.12-0.08-0.12-0.22c0-0.25,0.5-2.4,0.55-2.6c0.05-0.15,0.15-0.47,0.25-0.47c0.17,0,0.42,0.25,1.1,0.3
			c0.72,0.07,1.67,0.12,1.97,0.12h9.37c0.8,0,1.37-0.05,1.77-0.12c0.38-0.05,0.6-0.12,0.7-0.12c0.12,0,0.12,0.15,0.12,0.3
			c0,0.75-0.07,2.47-0.07,2.75c0,0.23-0.08,0.33-0.18,0.33c-0.12,0-0.17-0.08-0.2-0.42l-0.03-0.28c-0.08-0.75-0.67-1.32-3.07-1.37
			l-3.15-0.05V89.45z"/>
	</g>
	<g>
		<path class="st1" d="M23.36,13.91c0.23-1.28,0.68-1.96,1.28-1.96s1.06,0.38,2.04,2.34l20.6,42.56L67.8,13.76
			c0.6-1.21,0.98-1.81,1.66-1.81c0.68,0,1.13,0.75,1.36,2.34l6.87,46.63c0.68,4.75,1.43,6.94,3.7,7.62c2.19,0.68,3.7,0.75,4.68,0.75
			c0.68,0,1.21,0.08,1.21,0.53c0,0.6-0.91,0.83-1.96,0.83c-1.89,0-12.3-0.23-15.32-0.45c-1.74-0.15-2.19-0.38-2.19-0.83
			c0-0.38,0.3-0.6,0.83-0.83c0.45-0.15,0.68-1.13,0.38-3.24l-4.53-33.2h-0.3L47.73,66.35c-1.74,3.55-2.11,4.23-2.79,4.23
			s-1.43-1.51-2.64-3.77c-1.81-3.47-7.77-15.02-8.68-17.13c-0.68-1.58-5.21-11.09-7.85-16.75h-0.3l-3.92,30.03
			c-0.15,1.36-0.23,2.34-0.23,3.55c0,1.43,0.98,2.11,2.26,2.42c1.36,0.3,2.41,0.38,3.17,0.38c0.6,0,1.13,0.15,1.13,0.53
			c0,0.68-0.68,0.83-1.81,0.83c-3.17,0-6.56-0.23-7.92-0.23c-1.43,0-5.06,0.23-7.47,0.23c-0.75,0-1.36-0.15-1.36-0.83
			c0-0.38,0.45-0.53,1.21-0.53c0.6,0,1.13,0,2.26-0.23c2.11-0.45,2.72-3.4,3.09-5.96L23.36,13.91z"/>
		<path class="st1" d="M96.33,35.49c0-11.47,0-13.58-0.15-16c-0.15-2.57-0.91-3.85-2.57-4.23c-0.83-0.23-1.81-0.3-2.72-0.3
			c-0.75,0-1.21-0.15-1.21-0.75c0-0.45,0.6-0.6,1.81-0.6c2.87,0,7.62,0.23,9.81,0.23c1.89,0,6.34-0.23,9.21-0.23
			c0.98,0,1.58,0.15,1.58,0.6c0,0.6-0.45,0.75-1.21,0.75c-0.75,0-1.36,0.08-2.26,0.23c-2.04,0.38-2.64,1.66-2.79,4.3
			c-0.15,2.41-0.15,4.53-0.15,16v13.28c0,7.32,0,13.28,0.3,16.52c0.23,2.04,0.75,3.4,3.02,3.7c1.06,0.15,2.72,0.3,3.85,0.3
			c0.83,0,1.21,0.23,1.21,0.6c0,0.53-0.6,0.75-1.43,0.75c-4.98,0-9.73-0.23-11.77-0.23c-1.74,0-6.49,0.23-9.51,0.23
			c-0.98,0-1.51-0.23-1.51-0.75c0-0.38,0.3-0.6,1.21-0.6c1.13,0,2.04-0.15,2.72-0.3c1.51-0.3,1.96-1.58,2.19-3.77
			c0.38-3.17,0.38-9.13,0.38-16.45V35.49z"/>
		<path class="st1" d="M131.64,60.39c0.15,5.88,1.13,7.85,2.64,8.38c1.28,0.45,2.72,0.53,3.92,0.53c0.83,0,1.28,0.15,1.28,0.6
			c0,0.6-0.68,0.75-1.74,0.75c-4.9,0-7.92-0.23-9.36-0.23c-0.68,0-4.23,0.23-8.15,0.23c-0.98,0-1.66-0.08-1.66-0.75
			c0-0.45,0.45-0.6,1.21-0.6c0.98,0,2.34-0.08,3.4-0.38c1.96-0.6,2.26-2.79,2.34-9.36l0.68-44.67c0-1.51,0.23-2.57,0.98-2.57
			c0.83,0,1.51,0.98,2.79,2.34c0.91,0.98,12.37,13.28,23.39,24.22c5.13,5.13,15.32,16,16.6,17.2h0.38l-0.75-33.88
			c-0.08-4.6-0.75-6.04-2.57-6.79c-1.13-0.45-2.94-0.45-4-0.45c-0.91,0-1.21-0.23-1.21-0.68c0-0.6,0.83-0.68,1.96-0.68
			c3.92,0,7.55,0.23,9.13,0.23c0.83,0,3.7-0.23,7.4-0.23c0.98,0,1.74,0.08,1.74,0.68c0,0.45-0.45,0.68-1.36,0.68
			c-0.75,0-1.36,0-2.26,0.23c-2.11,0.6-2.72,2.19-2.79,6.41l-0.83,47.61c0,1.66-0.3,2.34-0.98,2.34c-0.83,0-1.74-0.83-2.57-1.66
			c-4.75-4.53-14.41-14.41-22.26-22.18c-8.22-8.15-16.6-17.58-17.96-19.01h-0.23L131.64,60.39z"/>
		<path class="st1" d="M200.16,60.39c0.15,5.88,1.13,7.85,2.64,8.38c1.28,0.45,2.72,0.53,3.92,0.53c0.83,0,1.28,0.15,1.28,0.6
			c0,0.6-0.68,0.75-1.74,0.75c-4.9,0-7.92-0.23-9.36-0.23c-0.68,0-4.23,0.23-8.15,0.23c-0.98,0-1.66-0.08-1.66-0.75
			c0-0.45,0.45-0.6,1.21-0.6c0.98,0,2.34-0.08,3.4-0.38c1.96-0.6,2.26-2.79,2.34-9.36l0.68-44.67c0-1.51,0.23-2.57,0.98-2.57
			c0.83,0,1.51,0.98,2.79,2.34c0.91,0.98,12.37,13.28,23.39,24.22c5.13,5.13,15.32,16,16.6,17.2h0.38l-0.75-33.88
			c-0.08-4.6-0.75-6.04-2.57-6.79c-1.13-0.45-2.94-0.45-4-0.45c-0.91,0-1.21-0.23-1.21-0.68c0-0.6,0.83-0.68,1.96-0.68
			c3.92,0,7.55,0.23,9.13,0.23c0.83,0,3.7-0.23,7.4-0.23c0.98,0,1.74,0.08,1.74,0.68c0,0.45-0.45,0.68-1.36,0.68
			c-0.75,0-1.36,0-2.26,0.23c-2.11,0.6-2.72,2.19-2.79,6.41l-0.83,47.61c0,1.66-0.3,2.34-0.98,2.34c-0.83,0-1.74-0.83-2.57-1.66
			c-4.75-4.53-14.41-14.41-22.26-22.18c-8.22-8.15-16.6-17.58-17.96-19.01h-0.23L200.16,60.39z"/>
		<path class="st1" d="M264.45,35.49c0-11.47,0-13.58-0.15-16c-0.15-2.57-0.75-3.77-3.24-4.3c-0.6-0.15-1.89-0.23-2.94-0.23
			c-0.83,0-1.28-0.15-1.28-0.68c0-0.53,0.53-0.68,1.66-0.68c2.04,0,4.23,0.08,6.11,0.08c1.96,0.08,3.7,0.15,4.75,0.15
			c2.41,0,17.43,0,18.86-0.08c1.43-0.15,2.64-0.3,3.24-0.45c0.38-0.08,0.83-0.3,1.21-0.3c0.38,0,0.45,0.3,0.45,0.68
			c0,0.53-0.38,1.43-0.6,4.91c-0.08,0.75-0.23,4.07-0.38,4.98c-0.08,0.38-0.23,0.83-0.75,0.83s-0.68-0.38-0.68-1.06
			c0-0.53-0.08-1.81-0.45-2.72c-0.53-1.36-1.28-2.26-5.06-2.72c-1.28-0.15-9.21-0.3-10.71-0.3c-0.38,0-0.53,0.23-0.53,0.75v19.09
			c0,0.53,0.08,0.83,0.53,0.83c1.66,0,10.34,0,12.07-0.15c1.81-0.15,2.94-0.38,3.62-1.13c0.53-0.6,0.83-0.98,1.21-0.98
			c0.3,0,0.53,0.15,0.53,0.6s-0.3,1.66-0.6,5.51c-0.08,1.51-0.3,4.53-0.3,5.06c0,0.6,0,1.43-0.68,1.43c-0.53,0-0.68-0.3-0.68-0.68
			c-0.08-0.75-0.08-1.74-0.3-2.72c-0.38-1.51-1.43-2.64-4.23-2.94c-1.43-0.15-8.9-0.23-10.71-0.23c-0.38,0-0.45,0.3-0.45,0.75v5.96
			c0,2.57-0.08,9.51,0,11.7c0.15,5.21,1.36,6.34,9.05,6.34c1.96,0,5.13,0,7.09-0.91s2.87-2.49,3.4-5.58
			c0.15-0.83,0.3-1.13,0.83-1.13c0.6,0,0.6,0.6,0.6,1.36c0,1.74-0.6,6.87-0.98,8.38c-0.53,1.96-1.21,1.96-4.07,1.96
			c-5.66,0-9.81-0.15-13.05-0.23c-3.25-0.15-5.58-0.23-7.85-0.23c-0.83,0-2.49,0-4.3,0.08c-1.74,0-3.7,0.15-5.21,0.15
			c-0.98,0-1.51-0.23-1.51-0.75c0-0.38,0.3-0.6,1.21-0.6c1.13,0,2.04-0.15,2.72-0.3c1.51-0.3,1.89-1.96,2.19-4.15
			c0.38-3.17,0.38-9.13,0.38-16.07V35.49z"/>
		<path class="st1" d="M305.04,69.75c-1.21-0.53-1.43-0.91-1.43-2.57c0-4.15,0.3-8.68,0.38-9.88c0.08-1.13,0.3-1.96,0.91-1.96
			c0.68,0,0.75,0.68,0.75,1.28c0,0.98,0.3,2.57,0.68,3.85c1.66,5.58,6.11,7.62,10.79,7.62c6.79,0,10.11-4.6,10.11-8.6
			c0-3.7-1.13-7.17-7.39-12.07l-3.47-2.72c-8.3-6.49-11.17-11.77-11.17-17.88c0-8.3,6.94-14.26,17.43-14.26
			c4.9,0,8.07,0.75,10.04,1.28c0.68,0.15,1.06,0.38,1.06,0.91c0,0.98-0.3,3.17-0.3,9.05c0,1.66-0.23,2.26-0.83,2.26
			c-0.53,0-0.75-0.45-0.75-1.36c0-0.68-0.38-3.02-1.96-4.98c-1.13-1.43-3.32-3.7-8.22-3.7c-5.58,0-8.98,3.24-8.98,7.77
			c0,3.47,1.74,6.11,8,10.87l2.11,1.58c9.13,6.87,12.38,12.07,12.38,19.24c0,4.38-1.66,9.58-7.09,13.13c-3.77,2.41-8,3.09-12,3.09
			C311.68,71.71,308.29,71.18,305.04,69.75z"/>
		<path class="st1" d="M341.94,42.13c0-12.9,8.53-29.58,31.16-29.58c18.79,0,30.48,10.94,30.48,28.22
			c0,17.28-12.07,30.94-31.24,30.94C350.69,71.71,341.94,55.49,341.94,42.13z M393.02,43.57c0-16.9-9.73-27.39-22.11-27.39
			c-8.68,0-18.56,4.83-18.56,23.62c0,15.69,8.68,28.14,23.17,28.14C380.8,67.94,393.02,65.37,393.02,43.57z"/>
		<path class="st1" d="M427.21,17.84l-11.24,0.3c-4.38,0.15-6.19,0.53-7.32,2.19c-0.75,1.13-1.13,2.04-1.28,2.64
			c-0.15,0.6-0.38,0.91-0.83,0.91c-0.53,0-0.68-0.38-0.68-1.21c0-1.21,1.43-8.07,1.58-8.68c0.23-0.98,0.45-1.43,0.91-1.43
			c0.6,0,1.36,0.75,3.25,0.91c2.19,0.23,5.06,0.38,7.54,0.38h29.88c2.41,0,4.07-0.23,5.21-0.38c1.13-0.23,1.74-0.38,2.04-0.38
			c0.53,0,0.6,0.45,0.6,1.58c0,1.58-0.23,6.79-0.23,8.75c-0.08,0.75-0.23,1.21-0.68,1.21c-0.6,0-0.75-0.38-0.83-1.51l-0.08-0.83
			c-0.15-1.96-2.19-4.08-8.9-4.23l-9.51-0.23v30.94c0,6.94,0,12.9,0.38,16.15c0.23,2.11,0.68,3.77,2.94,4.07
			c1.06,0.15,2.72,0.3,3.85,0.3c0.83,0,1.21,0.23,1.21,0.6c0,0.53-0.6,0.75-1.43,0.75c-4.98,0-9.73-0.23-11.85-0.23
			c-1.74,0-6.49,0.23-9.51,0.23c-0.98,0-1.51-0.23-1.51-0.75c0-0.38,0.3-0.6,1.21-0.6c1.13,0,2.04-0.15,2.72-0.3
			c1.51-0.3,1.96-1.96,2.19-4.15c0.38-3.17,0.38-9.13,0.38-16.07V17.84z"/>
		<path class="st1" d="M470.82,50.96c-0.38,0-0.53,0.15-0.68,0.6l-4.08,10.79c-0.75,1.89-1.13,3.7-1.13,4.6
			c0,1.36,0.68,2.34,3.02,2.34h1.13c0.91,0,1.13,0.15,1.13,0.6c0,0.6-0.45,0.75-1.28,0.75c-2.42,0-5.66-0.23-8-0.23
			c-0.83,0-4.98,0.23-8.9,0.23c-0.98,0-1.43-0.15-1.43-0.75c0-0.45,0.3-0.6,0.91-0.6c0.68,0,1.74-0.08,2.34-0.15
			c3.47-0.45,4.91-3.02,6.41-6.79l18.94-47.39c0.91-2.19,1.36-3.02,2.11-3.02c0.68,0,1.13,0.68,1.89,2.41
			c1.81,4.15,13.88,34.94,18.71,46.4c2.87,6.79,5.05,7.85,6.64,8.22c1.13,0.23,2.26,0.3,3.17,0.3c0.6,0,0.98,0.08,0.98,0.6
			c0,0.6-0.68,0.75-3.47,0.75c-2.72,0-8.22,0-14.26-0.15c-1.36-0.08-2.26-0.08-2.26-0.6c0-0.45,0.3-0.6,1.06-0.68
			c0.53-0.15,1.06-0.83,0.68-1.74l-6.04-16c-0.15-0.38-0.38-0.53-0.75-0.53H470.82z M486.21,47.19c0.38,0,0.45-0.23,0.38-0.45
			L479.8,28.1c-0.08-0.3-0.15-0.68-0.38-0.68c-0.23,0-0.38,0.38-0.45,0.68l-6.94,18.56c-0.08,0.3,0,0.53,0.3,0.53H486.21z"/>
	</g>
	<g>
		<path class="st2" d="M127.28,92.71c-17.16-1.93-36.72-2.19-62.61-1.17c0,0,49.16-8.83,74.8-7.33c14.25,0.83,30.78,4.39,48.33,7.17
			c19.26,3.05,37.49,4.55,54.21,3.5c0,0-21.01,10-63.87,5.33C157.27,97.94,143.49,94.54,127.28,92.71"/>
		<path class="st3" d="M130.63,78.46c0,0,10.4-1.06,20.44,0.86c7.78,1.48,16.63,3.65,23.3,4.68c16.59,2.57,39.29,5.38,50.62-1.45
			c0,0-23.12,1.42-42.87-2.6C167.76,77.03,145.59,73.75,130.63,78.46"/>
		<path class="st4" d="M44.32,96.37c0,0,24.02-2.65,47.35,0.18c10.21,1.24,23.49,4.32,37.67,6.83c17.08,3.03,35.61,3.22,47.99,2.13
			c0,0-20.32,6.87-41.66,6.87c-21.33,0-36.03-6.04-42.51-7.58C80.04,101.68,63.01,98.28,44.32,96.37"/>
	</g>
</g>
<rect x="137.55" y="114.27" class="st5" width="458.45" height="32.73"/>
<text transform="matrix(0.9 0 0 1 220.6629 136.5596)" class="st6 st7 st8">a division of HTLF Bank</text>
</svg>
