<svg id="Layer_1" data-name="Layer 1" xmlns="http://www.w3.org/2000/svg" width="2.998in" height="0.995in" viewBox="0 0 215.826 71.66">
  <g>
    <g>
      <path d="M164.4,38.541V6.968a.663.663,0,0,1,.663-.662h41.106a.473.473,0,0,1,.335.808l-9.795,9.8a.473.473,0,0,1-.335.139H178.716V48.613a.663.663,0,0,1-.663.663H165.059a.663.663,0,0,1-.663-.663V42.121l-7.152,7.155H129.487a.662.662,0,0,1-.662-.663V9.9l-7.014,7.016a.473.473,0,0,1-.335.139H110.925V48.613a.663.663,0,0,1-.663.663H97.268a.663.663,0,0,1-.663-.663V17.051H79.486V48.613a.663.663,0,0,1-.663.663H65.829a.663.663,0,0,1-.663-.663V25.733l-7.285,7.291a.473.473,0,0,1-.335.139H43.9v15.45a.663.663,0,0,1-.663.663H30.249a.663.663,0,0,1-.663-.663V6.988a.663.663,0,0,1,.663-.663h12.99a.663.663,0,0,1,.663.663v15.44H65.166V6.988a.663.663,0,0,1,.663-.663H78.823a.663.663,0,0,1,.663.663V13.53L86.5,6.473a.473.473,0,0,1,.335-.139l55.651-.009a.662.662,0,0,1,.662.663V38.541Z" transform="translate(-3.381 -6.306)" fill="#fff"/>
      <path d="M201.568,32.38l-9.813-9.817a.462.462,0,0,0-.653,0l-9.814,9.817a.462.462,0,0,0,.327.788h19.627A.461.461,0,0,0,201.568,32.38Z" transform="translate(-3.381 -6.306)" fill="#fff"/>
    </g>
    <g>
      <path d="M212.15,9.945h-.572V6.821h-1.189V6.31h2.95v.511H212.15Z" transform="translate(-3.381 -6.306)" fill="#fff"/>
      <path d="M216.97,6.31h.679V9.945h-.571V8.286a8.465,8.465,0,0,1,.05-1.021l-1.1,2.68h-.541L214.4,7.2a9.858,9.858,0,0,1,.035,1.082V9.945h-.566V6.31h.7l1.2,3Z" transform="translate(-3.381 -6.306)" fill="#fff"/>
    </g>
  </g>
  <g>
    <path d="M3.381,63.832H9.352c2.9,0,4.815,1.723,4.815,4.463a4.125,4.125,0,0,1-3.053,4.288l2.76,5.188H11.388L8.8,72.876H5.573v4.895H3.381Zm5.755,7.126a2.4,2.4,0,0,0,2.721-2.6c0-1.665-.959-2.565-2.721-2.565H5.573v5.169Z" transform="translate(-3.381 -6.306)" fill="#fff"/>
    <path d="M25.133,73.346H17.458A2.7,2.7,0,0,0,20.3,76.2a2.568,2.568,0,0,0,2.565-1.644h2.173a4.652,4.652,0,0,1-4.777,3.406c-2.995,0-4.972-2.075-4.972-5.227,0-3.133,1.977-5.208,4.952-5.208a4.687,4.687,0,0,1,4.895,5.012Zm-7.655-1.488h5.481a2.59,2.59,0,0,0-2.721-2.623A2.656,2.656,0,0,0,17.478,71.858Z" transform="translate(-3.381 -6.306)" fill="#fff"/>
    <path d="M27.327,75.049v-5.4H25.643v-1.9H26.5c.627,0,.823-.313.823-.939V65.065H29.46v2.682h2.33v1.9H29.46v4.993c0,.8.235,1.232,1.175,1.232H31.77v1.9H30.028A2.451,2.451,0,0,1,27.327,75.049Z" transform="translate(-3.381 -6.306)" fill="#fff"/>
    <path d="M33.083,63.636h2.369v2.231H33.083Zm.118,4.111h2.133V77.771H33.2Z" transform="translate(-3.381 -6.306)" fill="#fff"/>
    <path d="M43.224,67.747v1.919H41.8c-1.664,0-2.31,1.057-2.31,2.76v5.345H37.332V67.747H39.29l.254,1.292a2.609,2.609,0,0,1,2.369-1.292Z" transform="translate(-3.381 -6.306)" fill="#fff"/>
    <path d="M53.542,73.346H45.868A2.694,2.694,0,0,0,48.707,76.2a2.567,2.567,0,0,0,2.564-1.644h2.173a4.651,4.651,0,0,1-4.777,3.406c-3,0-4.972-2.075-4.972-5.227,0-3.133,1.977-5.208,4.953-5.208a4.686,4.686,0,0,1,4.894,5.012Zm-7.654-1.488h5.481a2.59,2.59,0,0,0-2.721-2.623A2.655,2.655,0,0,0,45.888,71.858Z" transform="translate(-3.381 -6.306)" fill="#fff"/>
    <path d="M70.145,71.525v6.246H67.972V71.917c0-1.7-.8-2.428-2.075-2.428-1.213,0-2.153.764-2.212,2.487v5.8H61.59V72.054c0-1.742-.783-2.565-2.055-2.565a2.155,2.155,0,0,0-2.252,2.467v5.815H55.149V67.747h1.938l.255,1.136a3.007,3.007,0,0,1,2.7-1.331,3.341,3.341,0,0,1,3.21,1.82,3.32,3.32,0,0,1,3.133-1.82A3.615,3.615,0,0,1,70.145,71.525Z" transform="translate(-3.381 -6.306)" fill="#fff"/>
    <path d="M81.542,73.346H73.868A2.694,2.694,0,0,0,76.707,76.2a2.567,2.567,0,0,0,2.564-1.644h2.173a4.652,4.652,0,0,1-4.777,3.406c-3,0-4.972-2.075-4.972-5.227,0-3.133,1.977-5.208,4.952-5.208a4.687,4.687,0,0,1,4.895,5.012Zm-7.655-1.488h5.482a2.592,2.592,0,0,0-2.722-2.623A2.656,2.656,0,0,0,73.887,71.858Z" transform="translate(-3.381 -6.306)" fill="#fff"/>
    <path d="M92.428,71.78v5.991H90.274V72.23c0-1.879-.959-2.8-2.427-2.8-1.664,0-2.565,1.174-2.565,2.956v5.384H83.148V67.747h1.938l.157,1.351a3.453,3.453,0,0,1,3.172-1.546C90.94,67.552,92.428,69.216,92.428,71.78Z" transform="translate(-3.381 -6.306)" fill="#fff"/>
    <path d="M94.857,75.049v-5.4H93.174v-1.9h.861c.627,0,.822-.313.822-.939V65.065h2.135v2.682h2.329v1.9H96.992v4.993c0,.8.234,1.232,1.173,1.232H99.3v1.9H97.559A2.452,2.452,0,0,1,94.857,75.049Z" transform="translate(-3.381 -6.306)" fill="#fff"/>
    <path d="M104.02,63.832h5.658c2.937,0,4.856,1.938,4.856,4.522,0,2.6-1.939,4.522-4.856,4.522h-3.406v4.895H104.02Zm5.482,7.126a2.587,2.587,0,1,0,0-5.169h-3.23v5.169Z" transform="translate(-3.381 -6.306)" fill="#fff"/>
    <path d="M118.059,77.771h-2.134V63.225h2.134Z" transform="translate(-3.381 -6.306)" fill="#fff"/>
    <path d="M129.473,76.165v1.606h-1.214a1.528,1.528,0,0,1-1.722-1.273,3.914,3.914,0,0,1-3.368,1.468c-2.212,0-3.622-1.154-3.622-3.073,0-1.7,1.076-2.956,3.818-2.956h2.917v-.509a1.969,1.969,0,0,0-2.193-2.154c-1.331,0-2.192.665-2.252,1.7h-1.976c.058-2.173,1.84-3.426,4.306-3.426,2.35,0,4.268,1.174,4.268,3.895V75.5c0,.548.216.665.666.665Zm-3.191-2.76h-2.623c-1.45,0-1.9.646-1.9,1.39,0,1.018.8,1.468,1.9,1.468a2.351,2.351,0,0,0,2.623-2.447Z" transform="translate(-3.381 -6.306)" fill="#fff"/>
    <path d="M139.967,71.78v5.991h-2.153V72.23c0-1.879-.959-2.8-2.428-2.8-1.664,0-2.564,1.174-2.564,2.956v5.384h-2.134V67.747h1.938l.157,1.351a3.451,3.451,0,0,1,3.172-1.546C138.48,67.552,139.967,69.216,139.967,71.78Z" transform="translate(-3.381 -6.306)" fill="#fff"/>
    <path d="M149.8,77.966c-3.407,0-5.5-1.664-5.5-4.15h2.272c0,1.331,1.1,2.251,3.25,2.251,1.683,0,3-.8,3-2.153,0-1.214-.744-1.742-2.212-2.017l-2.252-.43c-2.467-.45-3.759-1.8-3.759-3.818,0-2.349,2-4.013,5.129-4.013,2.82,0,5.169,1.292,5.169,4.111h-2.212c0-1.508-1.194-2.27-3.015-2.27-1.606,0-2.78.743-2.78,2.015,0,1.136.7,1.7,2.251,2l2.251.411c2.546.47,3.74,1.861,3.74,3.975C155.122,76.459,152.792,77.966,149.8,77.966Z" transform="translate(-3.381 -6.306)" fill="#fff"/>
    <path d="M166.106,73.346h-7.674A2.694,2.694,0,0,0,161.27,76.2a2.565,2.565,0,0,0,2.564-1.644h2.174a4.652,4.652,0,0,1-4.777,3.406c-3,0-4.973-2.075-4.973-5.227,0-3.133,1.978-5.208,4.953-5.208a4.687,4.687,0,0,1,4.895,5.012Zm-7.654-1.488h5.481a2.591,2.591,0,0,0-2.722-2.623A2.655,2.655,0,0,0,158.452,71.858Z" transform="translate(-3.381 -6.306)" fill="#fff"/>
    <path d="M173.625,67.747v1.919H172.2c-1.664,0-2.311,1.057-2.311,2.76v5.345h-2.153V67.747h1.958l.254,1.292a2.609,2.609,0,0,1,2.369-1.292Z" transform="translate(-3.381 -6.306)" fill="#fff"/>
    <path d="M179.049,75.5l2.956-7.772h2.311l-4.111,10.043h-2.389L173.8,67.728h2.252Z" transform="translate(-3.381 -6.306)" fill="#fff"/>
    <path d="M185.061,63.636h2.368v2.231h-2.368Zm.117,4.111h2.134V77.771h-2.134Z" transform="translate(-3.381 -6.306)" fill="#fff"/>
    <path d="M193.929,69.392c-1.664,0-2.8,1.213-2.8,3.347,0,2.251,1.175,3.348,2.742,3.348a2.6,2.6,0,0,0,2.584-2.036h2.271a4.7,4.7,0,0,1-4.816,3.915c-2.976,0-4.973-2.075-4.973-5.227,0-3.133,2-5.208,4.992-5.208a4.63,4.63,0,0,1,4.8,3.819h-2.311A2.513,2.513,0,0,0,193.929,69.392Z" transform="translate(-3.381 -6.306)" fill="#fff"/>
    <path d="M209.514,73.346H201.84a2.694,2.694,0,0,0,2.838,2.858,2.568,2.568,0,0,0,2.565-1.644h2.173a4.652,4.652,0,0,1-4.777,3.406c-3,0-4.973-2.075-4.973-5.227,0-3.133,1.978-5.208,4.954-5.208a4.686,4.686,0,0,1,4.894,5.012Zm-7.654-1.488h5.481a2.591,2.591,0,0,0-2.721-2.623A2.655,2.655,0,0,0,201.86,71.858Z" transform="translate(-3.381 -6.306)" fill="#fff"/>
    <path d="M212.629,74.736c.02,1.037.979,1.645,2.29,1.645s2.095-.49,2.095-1.371c0-.763-.391-1.174-1.527-1.351l-2.016-.352c-1.958-.332-2.722-1.351-2.722-2.78,0-1.8,1.782-2.975,4.053-2.975,2.447,0,4.229,1.174,4.248,3.171h-2.114c-.02-1.018-.9-1.586-2.134-1.586-1.175,0-1.919.49-1.919,1.311,0,.725.509,1.058,1.625,1.253l1.978.353c1.859.333,2.721,1.253,2.721,2.76,0,2.076-1.918,3.152-4.249,3.152-2.642,0-4.423-1.273-4.462-3.23Z" transform="translate(-3.381 -6.306)" fill="#fff"/>
  </g>
</svg>
