<?xml version="1.0" encoding="utf-8"?>
<!-- Generator: Adobe Illustrator 27.2.0, SVG Export Plug-In . SVG Version: 6.00 Build 0)  -->
<svg version="1.1" id="Layer_1" xmlns="http://www.w3.org/2000/svg" xmlns:xlink="http://www.w3.org/1999/xlink" x="0px" y="0px"
	 viewBox="0 0 267.5 88.3" style="enable-background:new 0 0 267.5 88.3;" xml:space="preserve">
<style type="text/css">
	.st0{fill:#FFFFFF;}
</style>
<g>
	<path class="st0" d="M111.2,87.6v0.7h-0.6c-0.5,0-1-0.2-1.1-1c-0.4,0.7-1.4,1.2-2.6,1.2c-1.6,0-2.6-0.8-2.6-2.1c0-1.1,0.6-2,2.8-2
		h2.4v-0.4c0-1.5-0.8-2.1-2-2.1s-1.9,0.6-2,1.5h-0.8c0.1-1.4,1.3-2.2,2.9-2.2c1.9,0,2.8,1.1,2.8,2.7V87c0,0.5,0.1,0.6,0.6,0.6
		L111.2,87.6L111.2,87.6z M109.6,85.3v-0.4h-2.4c-1.4,0-1.9,0.6-1.9,1.4c0,0.9,0.7,1.4,1.8,1.4C108.3,87.7,109.6,87,109.6,85.3
		L109.6,85.3z"/>
	<path class="st0" d="M122.8,77.9v10.4h-0.7L122,87c-0.6,0.9-1.6,1.4-2.7,1.4c-1.8,0-3.4-1.3-3.4-3.6s1.6-3.7,3.4-3.7
		c1.2,0,2.2,0.5,2.7,1.4v-4.5H122.8L122.8,77.9z M121.9,84.8c0-1.8-1.2-3-2.6-3c-1.6,0-2.6,1.2-2.6,3s1.1,2.9,2.6,2.9
		S121.9,86.6,121.9,84.8z"/>
	<path class="st0" d="M125.1,78.3h1.2v1.1h-1.2C125.1,79.4,125.1,78.3,125.1,78.3z M125.3,81.2h0.8v7.1h-0.8V81.2z"/>
	<path class="st0" d="M131.3,87.2l2.6-6.1h0.9l-3.1,7.1h-0.8l-3.1-7.1h0.9L131.3,87.2L131.3,87.2z"/>
	<path class="st0" d="M136.2,78.3h1.2v1.1h-1.2C136.2,79.4,136.2,78.3,136.2,78.3z M136.4,81.2h0.8v7.1h-0.8V81.2z"/>
	<path class="st0" d="M140.2,86.2c0,0.9,0.8,1.5,2.1,1.5s2-0.5,2-1.4c0-0.7-0.4-1.1-1.2-1.2l-1.5-0.2c-1.3-0.2-2-0.8-2-1.9
		c0-1.2,1.1-2,2.6-2c1.6,0,2.8,0.8,2.8,2.2h-0.8c0-1-0.8-1.5-2-1.5s-1.9,0.5-1.9,1.3c0,0.7,0.4,1,1.4,1.2l1.5,0.2
		c1.3,0.2,1.9,0.8,1.9,1.9c0,1.4-1.2,2.1-2.8,2.1c-1.9,0-2.9-0.9-2.9-2.2L140.2,86.2L140.2,86.2z"/>
	<path class="st0" d="M147.1,78.3h1.2v1.1h-1.2C147.1,79.4,147.1,78.3,147.1,78.3z M147.3,81.2h0.8v7.1h-0.8V81.2z"/>
	<path class="st0" d="M153.8,81c2.1,0,3.5,1.5,3.5,3.7s-1.4,3.7-3.5,3.7s-3.5-1.5-3.5-3.7S151.6,81,153.8,81z M153.8,87.7
		c1.6,0,2.7-1.2,2.7-3s-1.1-3-2.7-3s-2.7,1.2-2.7,3S152.1,87.7,153.8,87.7z"/>
	<path class="st0" d="M165.5,84v4.2h-0.8v-4.1c0-1.6-0.9-2.4-2.1-2.4c-1.5,0-2.3,1.1-2.3,2.6v3.9h-0.8v-7.1h0.7l0.1,1.2
		c0.4-0.9,1.3-1.3,2.4-1.3C164.4,81,165.5,82.2,165.5,84L165.5,84z"/>
	<path class="st0" d="M174.2,81c2.1,0,3.5,1.5,3.5,3.7s-1.4,3.7-3.5,3.7s-3.5-1.5-3.5-3.7S172.1,81,174.2,81z M174.2,87.7
		c1.6,0,2.7-1.2,2.7-3s-1.1-3-2.7-3s-2.7,1.2-2.7,3S172.6,87.7,174.2,87.7z"/>
	<path class="st0" d="M180.2,81.2v-1.6c0-1.3,0.6-1.7,1.7-1.7h0.9v0.8h-0.9c-0.7,0-0.9,0.4-0.9,0.9v1.6h1.8v0.7H181v6.4h-0.8v-6.4
		h-1.3v-0.7H180.2L180.2,81.2z"/>
	<path class="st0" d="M188.6,83.7v4.6h-0.9v-9.9h0.9v4.5h5.9v-4.5h0.9v9.9h-0.9v-4.6H188.6z"/>
	<path class="st0" d="M201.5,88.3h-0.9v-9.1h-3.5v-0.8h7.9v0.8h-3.5V88.3z"/>
	<path class="st0" d="M212.8,87.4v0.8h-6.1v-9.9h0.9v9.1L212.8,87.4L212.8,87.4z"/>
	<path class="st0" d="M215.4,79.2V83h5v0.8h-5v4.4h-0.9v-9.9h6.4v0.8L215.4,79.2L215.4,79.2z"/>
	<path class="st0" d="M233.4,85.6c0,1.6-1.2,2.7-3.1,2.7h-4.4v-9.9h4c2,0,3.1,1,3.1,2.5c0,0.9-0.4,1.7-1.4,2.2
		C232.7,83.5,233.4,84.4,233.4,85.6L233.4,85.6z M229.9,79.2h-3.1v3.6h3.4c1.2,0,2-0.6,2-1.8S231.4,79.2,229.9,79.2z M232.5,85.5
		c0-1.2-0.8-2-2.2-2h-3.5v3.9h3.4C231.7,87.5,232.5,86.7,232.5,85.5L232.5,85.5z"/>
	<path class="st0" d="M241.9,87.6v0.7h-0.6c-0.5,0-1-0.2-1.1-1c-0.4,0.7-1.4,1.2-2.6,1.2c-1.6,0-2.6-0.8-2.6-2.1c0-1.1,0.6-2,2.8-2
		h2.4v-0.4c0-1.5-0.9-2.1-2-2.1s-1.9,0.6-2,1.5h-0.8c0.1-1.4,1.3-2.2,2.9-2.2c1.9,0,2.8,1.1,2.8,2.7V87c0,0.5,0.1,0.6,0.6,0.6
		L241.9,87.6L241.9,87.6z M240.3,85.3v-0.4h-2.4c-1.4,0-1.9,0.6-1.9,1.4c0,0.9,0.7,1.4,1.8,1.4C239,87.7,240.3,87,240.3,85.3
		L240.3,85.3z"/>
	<path class="st0" d="M249.8,84v4.2h-0.8v-4.1c0-1.6-0.9-2.4-2.1-2.4c-1.5,0-2.3,1.1-2.3,2.6v3.9h-0.8v-7.1h0.7l0.1,1.2
		c0.4-0.9,1.3-1.3,2.4-1.3C248.7,81,249.8,82.2,249.8,84z"/>
	<path class="st0" d="M252.2,77.9h0.8v7l3.7-3.8h1l-3.1,3.1l3.1,3.9h-1l-2.7-3.4l-1.1,1.2v2.2h-0.8L252.2,77.9L252.2,77.9z"/>
</g>
<g>
	<path class="st0" d="M117.8,13.6c2.2,0.3,4,1,5.3,2.2c1.3,1.1,2,2.6,2,4.5c0,1.5-0.2,2.7-0.7,3.7c-0.5,1-1.2,1.8-2,2.4
		c-0.9,0.6-1.9,1.1-3,1.3s-2.4,0.4-3.8,0.4c-2.2,0-4.4,0-6.6-0.1c-2.2-0.1-4.5-0.1-7.1-0.1v-1.2c2.6,0,3.8-0.8,3.8-2.3V5.2
		c0-1.9-1.3-2.8-4-2.8V1.1h11.7c1.4,0,2.8,0.1,4,0.3c1.2,0.2,2.3,0.6,3.2,1.1s1.6,1.2,2.1,2c0.5,0.8,0.8,1.8,0.8,2.9
		c0,0.9-0.1,1.7-0.4,2.3c-0.3,0.6-0.7,1.2-1.2,1.7s-1.1,0.9-1.8,1.2c-0.7,0.3-1.4,0.6-2.2,0.9L117.8,13.6L117.8,13.6z M112.4,2.7
		c-1.9,0-2.8,0.5-2.8,1.5V12c0,0.8,0.4,1.1,1.2,1.1c1.9,0,3.4-0.1,4.5-0.3c1.1-0.2,2-0.5,2.6-0.9c0.6-0.4,1-1,1.2-1.6
		c0.2-0.7,0.3-1.5,0.3-2.4c0-3.5-1.8-5.2-5.3-5.2L112.4,2.7L112.4,2.7z M114.3,26.6c0.9,0,1.8-0.1,2.6-0.3c0.8-0.2,1.5-0.5,2.1-1
		c0.6-0.5,1-1.1,1.4-1.8c0.3-0.7,0.5-1.7,0.5-2.7c0-1.3-0.2-2.3-0.6-3.1s-1-1.4-1.7-1.8c-0.7-0.4-1.6-0.7-2.7-0.9
		c-1.1-0.2-2.2-0.2-3.5-0.2h-1.5c-0.8,0-1.2,0.5-1.2,1.5V25c0,1.1,1,1.6,2.9,1.6L114.3,26.6L114.3,26.6z"/>
	<path class="st0" d="M142.8,26.2c-0.4,1.4-1.5,2.2-3.2,2.2c-1.5,0-2.5-0.9-2.9-2.6c-1.9,1.8-4,2.6-6.2,2.6c-1.4,0-2.5-0.3-3.2-0.9
		c-0.7-0.6-1-1.6-1-2.9c0-3.3,3.4-5.6,10.1-6.8v-1.6c0-2.7-1-4-3.1-4c-0.9,0-1.7,0.2-2.3,0.5s-1,0.9-1,1.7c0.2,0.1,0.3,0.3,0.4,0.5
		s0.1,0.5,0.1,0.7c0,1-0.6,1.5-1.9,1.5c-0.5,0-0.9-0.2-1.2-0.4c-0.3-0.3-0.5-0.8-0.5-1.4s0.2-1.2,0.6-1.8c0.4-0.6,0.9-1.1,1.5-1.5
		s1.3-0.8,2.1-1c0.8-0.3,1.6-0.4,2.4-0.4c2.2,0,3.8,0.4,4.8,1.3c0.9,0.8,1.4,2.2,1.4,4.2v8.8c0,1,0.5,1.5,1.4,1.5
		c0.4,0,0.9-0.2,1.3-0.4L142.8,26.2L142.8,26.2z M136.5,19.2c-0.8,0.1-1.7,0.2-2.5,0.4s-1.5,0.5-2.2,0.8s-1.1,0.8-1.5,1.4
		s-0.6,1.3-0.6,2.1c0,1.8,0.9,2.6,2.6,2.6c0.8,0,1.4-0.1,1.9-0.3c0.5-0.2,0.9-0.5,1.2-0.9c0.3-0.4,0.6-0.8,0.7-1.3
		c0.2-0.5,0.3-0.9,0.4-1.4L136.5,19.2L136.5,19.2z"/>
	<path class="st0" d="M154.9,28v-1.2c1.8,0,2.6-0.6,2.6-1.7v-6.7c0-3.7-1.3-5.5-4-5.5s-4.1,1.7-4.1,5V25c0,1.1,1,1.7,2.9,1.7V28
		h-8.6v-1.2c1.5,0,2.3-0.6,2.3-1.9V14.5c0-1-0.7-1.4-2.2-1.4h-0.6v-1l5.8-1.4c0.1,0.1,0.2,0.4,0.2,0.8v2.4c0.2-0.4,0.5-0.8,0.8-1.2
		c0.3-0.4,0.8-0.7,1.3-1c0.5-0.3,1.1-0.5,1.8-0.7c0.7-0.2,1.4-0.3,2.3-0.3c0.5,0,1,0.1,1.7,0.3c0.6,0.2,1.2,0.5,1.8,1
		c0.6,0.4,1,1,1.4,1.7s0.6,1.5,0.6,2.5v9c0,1.1,0.9,1.6,2.6,1.6V28L154.9,28L154.9,28z"/>
	<path class="st0" d="M174.9,28v-1.2c0.9,0,1.4-0.2,1.4-0.7l-4.5-6.5c-0.3,0.2-0.6,0.4-1,0.6c-0.4,0.2-0.8,0.4-1.4,0.6v4
		c0,1.2,1,1.9,3,1.9V28h-9v-1.2c1.8,0,2.6-0.7,2.6-2V4.3c0-1.3-0.9-2-2.8-2V1.1l6.2-1.1v19c0.5-0.3,1.1-0.7,1.8-1.2
		c0.7-0.5,1.3-1.1,1.9-1.6c0.6-0.6,1.1-1.1,1.5-1.6c0.4-0.5,0.6-0.9,0.6-1.3c0-0.5-0.8-0.8-2.3-0.8v-1h8.8v1c-0.4,0-0.9,0.1-1.5,0.3
		s-1.4,0.5-2.4,0.9c-0.8,0.9-1.6,1.6-2.2,2.1s-1.3,1-1.8,1.3l5.6,7.6c0.9,1.3,1.9,2,2.9,2h0.9V28H174.9L174.9,28z"/>
	<path class="st0" d="M199.5,28.7c-1.3,0-2.4-0.2-3.5-0.7c-1.1-0.5-2-1.1-2.7-1.9c-0.7-0.8-1.3-1.7-1.7-2.8s-0.6-2.2-0.6-3.4
		c0-1.4,0.2-2.7,0.7-3.8s1.1-2.1,1.9-2.9c0.8-0.8,1.7-1.4,2.8-1.9c1.1-0.4,2.2-0.7,3.4-0.7s2.3,0.2,3.4,0.7c1,0.5,1.9,1.1,2.7,1.9
		s1.3,1.7,1.7,2.8c0.4,1.1,0.6,2.2,0.6,3.4c0,1.4-0.2,2.7-0.7,3.9s-1.1,2.1-1.9,2.9c-0.8,0.8-1.7,1.4-2.7,1.8S200.6,28.7,199.5,28.7
		 M199.7,27.3c1.1,0,1.9-0.2,2.5-0.7c0.6-0.5,1.1-1,1.4-1.7c0.3-0.7,0.5-1.3,0.6-2c0.1-0.7,0.1-1.3,0.1-1.7c0-0.9-0.1-1.9-0.2-2.9
		s-0.3-2.1-0.7-3c-0.3-0.9-0.8-1.7-1.5-2.3c-0.6-0.6-1.5-0.9-2.5-0.9s-1.9,0.2-2.6,0.7c-0.6,0.5-1.1,1-1.4,1.7
		c-0.3,0.7-0.5,1.3-0.6,2c-0.1,0.7-0.1,1.3-0.1,1.7c0,0.9,0.1,1.9,0.2,2.9s0.3,2.1,0.7,3c0.3,0.9,0.8,1.7,1.5,2.3
		S198.6,27.3,199.7,27.3"/>
	<path class="st0" d="M209.1,28v-1.2c1.8,0,2.6-0.7,2.6-2V13.6c0-0.3-0.2-0.5-0.5-0.5H208v-1.7h3.1c0.4,0,0.6-0.4,0.6-1.1
		c0-1.5,0.1-2.9,0.4-4.2c0.2-1.3,0.6-2.4,1.2-3.3c0.6-0.9,1.3-1.6,2.2-2.1c0.9-0.5,2.1-0.8,3.4-0.8c2.2,0,3.2,0.9,3.2,2.7
		c0,0.5-0.2,0.9-0.5,1.3c-0.4,0.3-0.8,0.5-1.3,0.5c-1,0-1.5-0.4-1.5-1.2c0-0.4,0.1-0.8,0.3-1c-0.3-0.4-0.8-0.7-1.3-0.7
		c-0.6,0-1.1,0.3-1.5,0.8c-0.4,0.5-0.7,1.1-0.9,1.8c-0.2,0.7-0.4,1.4-0.4,2.2s-0.1,1.4-0.1,1.9v2c0,0.7,0.2,1.1,0.6,1.1l3.7-0.2
		l-0.2,1.7h-3.6c-0.4,0-0.6,0.2-0.6,0.5v11.3c0,1.3,1.2,2,3.6,2v1.2L209.1,28L209.1,28z"/>
	<path class="st0" d="M117.8,50c2.2,0.3,4,1,5.3,2.2c1.3,1.1,2,2.6,2,4.5c0,1.5-0.2,2.7-0.7,3.7c-0.5,1-1.2,1.8-2,2.4
		c-0.9,0.6-1.9,1.1-3,1.3c-1.2,0.3-2.4,0.4-3.8,0.4c-2.2,0-4.4,0-6.6-0.1c-2.2-0.1-4.5-0.1-7.1-0.1v-1.2c2.6,0,3.8-0.8,3.8-2.3V41.6
		c0-1.9-1.3-2.8-4-2.8v-1.3h11.7c1.4,0,2.8,0.1,4,0.3c1.2,0.2,2.3,0.6,3.2,1.1s1.6,1.2,2.1,1.9c0.5,0.8,0.8,1.8,0.8,2.9
		c0,0.9-0.1,1.7-0.4,2.3c-0.3,0.6-0.7,1.2-1.2,1.7s-1.1,0.9-1.8,1.2c-0.7,0.3-1.4,0.6-2.2,0.9L117.8,50L117.8,50z M112.4,39.1
		c-1.9,0-2.8,0.5-2.8,1.5v7.8c0,0.8,0.4,1.1,1.2,1.1c1.9,0,3.4-0.1,4.5-0.3s2-0.5,2.6-0.9c0.6-0.4,1-1,1.2-1.6
		c0.2-0.7,0.3-1.5,0.3-2.4c0-3.5-1.8-5.2-5.3-5.2L112.4,39.1L112.4,39.1z M114.3,63c0.9,0,1.8-0.1,2.6-0.3c0.8-0.2,1.5-0.5,2.1-1
		c0.6-0.5,1-1.1,1.4-1.8c0.3-0.7,0.5-1.7,0.5-2.7c0-1.3-0.2-2.3-0.6-3.1s-1-1.4-1.7-1.8c-0.7-0.4-1.6-0.7-2.7-0.9s-2.2-0.2-3.5-0.2
		h-1.5c-0.8,0-1.2,0.5-1.2,1.5v8.8c0,1.1,1,1.6,2.9,1.6L114.3,63L114.3,63z"/>
	<path class="st0" d="M126.3,64.4v-1.2c1.8,0,2.8-0.6,2.8-1.9V40.7c0-1.3-1-2-3.1-2v-1.1l6.5-1.2v25c0,1.1,1,1.7,3.1,1.7v1.2
		L126.3,64.4L126.3,64.4z"/>
	<path class="st0" d="M149.8,64.5c-0.1-0.2-0.1-0.6-0.1-1.1v-1.5c-0.3,0.5-0.6,0.9-0.9,1.2c-0.3,0.4-0.7,0.7-1.2,0.9
		c-0.4,0.2-1,0.4-1.6,0.6s-1.3,0.2-2.1,0.2c-1,0-1.9-0.1-2.6-0.3s-1.3-0.5-1.8-1c-0.5-0.5-0.8-1.1-1-1.9c-0.2-0.8-0.3-1.8-0.3-3
		v-8.2c0-0.9-0.9-1.4-2.6-1.4l-0.2-1.1l6.2-0.5v10.3c0,0.7,0,1.3,0.1,1.9c0,0.6,0.2,1.1,0.4,1.6c0.2,0.4,0.5,0.8,1,1.1
		c0.5,0.3,1.1,0.4,2,0.4c2.2,0,3.7-1.4,4.5-4.1v-8.2c0-0.9-1-1.4-2.9-1.4l-0.2-1.1l6.5-0.5v13.6c0,0.9,0.9,1.4,2.8,1.5l0.3,1.1
		L149.8,64.5L149.8,64.5z"/>
	<path class="st0" d="M171.6,60.3c-0.7,1.5-1.6,2.7-2.8,3.5c-1.2,0.8-2.6,1.3-4.2,1.3c-1.4,0-2.5-0.2-3.6-0.7
		c-1-0.5-1.9-1.1-2.6-1.9c-0.7-0.8-1.2-1.7-1.6-2.8c-0.4-1.1-0.5-2.2-0.5-3.4s0.2-2.4,0.6-3.5s0.9-2.1,1.6-3s1.5-1.6,2.5-2.1
		c1-0.5,2.1-0.8,3.2-0.8c0.7,0,1.5,0.1,2.3,0.3c0.8,0.2,1.6,0.5,2.2,1s1.3,1.2,1.8,2.2s0.9,2.2,1,3.8c0,0.3,0,0.6-0.1,0.9h-10.8
		c-0.5,0-0.8,0.2-0.8,0.6c0,1,0.1,1.9,0.4,2.8c0.3,0.9,0.6,1.6,1.1,2.3c0.5,0.7,1.1,1.2,1.8,1.5c0.7,0.4,1.5,0.6,2.4,0.6
		c1.1,0,2.1-0.3,2.9-1c0.8-0.7,1.6-1.4,2.2-2.3L171.6,60.3L171.6,60.3z M166.1,54c1.1,0,1.7-0.6,1.7-1.7c-0.1-1-0.4-1.9-1-2.7
		s-1.5-1.2-2.7-1.2c-0.6,0-1.2,0.1-1.7,0.4c-0.5,0.3-0.9,0.7-1.3,1.1c-0.4,0.5-0.6,1-0.8,1.6s-0.3,1.2-0.3,1.9
		c0,0.3,0.3,0.5,0.9,0.5L166.1,54L166.1,54z"/>
	<path class="st0" d="M188.3,64.7L179,41.3c-0.8-1.7-2-2.6-3.5-2.6v-1.3h10.9v1.3h-1.9c-0.9,0-1.4,0.3-1.4,0.8c0,0.2,0,0.5,0.1,0.8
		c0.1,0.3,0.1,0.6,0.2,1l6.8,18.2l6.4-17.4c0.1-0.5,0.1-1,0.1-1.4c0-1.3-1.2-2-3.7-2v-1.3h9.7v1.3h-1.3c-0.9,0-1.7,0.7-2.1,2.2
		L189.7,65L188.3,64.7L188.3,64.7z"/>
	<path class="st0" d="M214.4,62.7c-0.4,1.4-1.5,2.1-3.2,2.1c-1.5,0-2.5-0.9-2.9-2.6c-1.9,1.8-4,2.6-6.2,2.6c-1.4,0-2.5-0.3-3.2-0.9
		c-0.7-0.6-1-1.6-1-2.9c0-3.3,3.4-5.6,10.1-6.8v-1.6c0-2.7-1-4-3.1-4c-0.9,0-1.7,0.2-2.3,0.4c-0.6,0.3-1,0.9-1,1.7
		c0.2,0.1,0.3,0.3,0.4,0.5c0.1,0.2,0.1,0.5,0.1,0.7c0,1-0.6,1.5-1.9,1.5c-0.5,0-0.9-0.2-1.2-0.4c-0.3-0.3-0.5-0.8-0.5-1.4
		s0.2-1.2,0.6-1.8c0.4-0.6,0.9-1.1,1.5-1.5c0.6-0.4,1.3-0.8,2.1-1c0.8-0.3,1.6-0.4,2.4-0.4c2.2,0,3.8,0.4,4.8,1.3
		c0.9,0.8,1.4,2.2,1.4,4.2v8.8c0,1,0.5,1.5,1.4,1.5c0.4,0,0.9-0.2,1.3-0.4L214.4,62.7L214.4,62.7z M208.1,55.6
		c-0.8,0.1-1.7,0.2-2.5,0.4s-1.5,0.5-2.2,0.8c-0.6,0.4-1.1,0.8-1.5,1.4s-0.6,1.3-0.6,2.1c0,1.8,0.9,2.6,2.6,2.6
		c0.8,0,1.4-0.1,1.9-0.3c0.5-0.2,0.9-0.5,1.2-0.9c0.3-0.4,0.6-0.8,0.7-1.3s0.3-0.9,0.4-1.4L208.1,55.6L208.1,55.6z"/>
	<path class="st0" d="M214.6,64.4v-1.2c1.8,0,2.8-0.6,2.8-1.9V40.7c0-1.3-1-2-3.1-2v-1.1l6.5-1.2v25c0,1.1,1,1.7,3.1,1.7v1.2
		L214.6,64.4L214.6,64.4z"/>
	<path class="st0" d="M224.5,64.4v-1.2c1.8,0,2.8-0.6,2.8-1.9V40.7c0-1.3-1-2-3.1-2v-1.1l6.5-1.2v25c0,1.1,1,1.7,3.1,1.7v1.2
		L224.5,64.4L224.5,64.4z"/>
	<path class="st0" d="M249.2,60.3c-0.7,1.5-1.6,2.7-2.8,3.5c-1.2,0.8-2.6,1.3-4.2,1.3c-1.4,0-2.5-0.2-3.6-0.7
		c-1-0.5-1.9-1.1-2.6-1.9c-0.7-0.8-1.2-1.7-1.6-2.8c-0.4-1.1-0.5-2.2-0.5-3.4s0.2-2.4,0.6-3.5s0.9-2.1,1.6-3s1.5-1.6,2.5-2.1
		c1-0.5,2.1-0.8,3.2-0.8c0.7,0,1.5,0.1,2.3,0.3c0.8,0.2,1.6,0.5,2.2,1s1.3,1.2,1.8,2.2c0.5,1,0.9,2.2,1,3.8c0,0.3,0,0.6-0.1,0.9
		h-10.8c-0.5,0-0.8,0.2-0.8,0.6c0,1,0.1,1.9,0.4,2.8c0.3,0.9,0.6,1.6,1.1,2.3c0.5,0.7,1.1,1.2,1.8,1.5c0.7,0.4,1.5,0.6,2.4,0.6
		c1.1,0,2.1-0.3,2.9-1c0.8-0.7,1.6-1.4,2.2-2.3L249.2,60.3L249.2,60.3z M243.7,54c1.1,0,1.7-0.6,1.7-1.7c-0.1-1-0.4-1.9-1-2.7
		c-0.6-0.8-1.5-1.2-2.7-1.2c-0.6,0-1.2,0.1-1.7,0.4c-0.5,0.3-0.9,0.7-1.3,1.1c-0.4,0.5-0.6,1-0.8,1.6s-0.3,1.2-0.3,1.9
		c0,0.3,0.3,0.5,0.9,0.5L243.7,54L243.7,54z"/>
	<path class="st0" d="M251.5,50.7c-0.4-1.1-1.1-1.6-2.3-1.6v-1.2h8.4v1.2h-0.8c-1,0-1.5,0.3-1.5,0.9c0,0.1,0,0.2,0.1,0.3
		c0,0.1,0,0.3,0.1,0.5s0.1,0.4,0.1,0.6l4.2,9l3.2-8.3c0.1-0.5,0.2-0.9,0.2-1.2c0.1-0.3,0.1-0.4,0.1-0.6c0-0.8-0.9-1.2-2.6-1.2v-1.2
		h6.9v1.2c-1.1,0-1.9,0.5-2.3,1.4l-4.9,12.3c-0.1,0.3-0.3,0.7-0.6,1.2c-0.2,0.5-0.5,1.1-0.9,1.8c-0.3,0.7-0.7,1.3-1.1,2
		c-0.4,0.7-0.9,1.3-1.4,1.8c-0.5,0.6-1.1,1-1.7,1.4c-0.6,0.4-1.2,0.5-1.9,0.5c-1.4,0-2.1-0.7-2.1-2c0-1.3,0.5-2,1.5-2
		c0.5,0,0.8,0.1,1,0.3c0.2,0.2,0.3,0.5,0.4,0.8c0.1,0.3,0.1,0.5,0.2,0.8c0.1,0.2,0.3,0.3,0.6,0.3c0.2,0,0.5-0.2,0.8-0.5
		c0.3-0.3,0.6-0.8,1-1.3c0.3-0.5,0.7-1.1,1-1.7c0.3-0.6,0.5-1.2,0.6-1.8L251.5,50.7L251.5,50.7z"/>
</g>
<path class="st0" d="M74.6,35.2c0.4-1.6,0.6-3.2,0.6-4.8c0-11.4-9.2-20.7-20.7-20.7c-9.4,0-17.3,6.3-19.8,14.9
	c4.9,1.2,10.4,3.1,16.9,6.2C59.9,34.8,67.7,35.9,74.6,35.2"/>
<path class="st0" d="M11,27c-2.1,0.3-6.3,1.7-6.3,1.7s2.2-0.3,3.4-0.3c10-0.7,19.7,2.3,28.5,7.1c5.1,2.7,9.7,6.3,14.7,9.1
	c12.6,7.2,27.4,8.2,38.5,1c7.8-5.5,6.9-16.2,6.5-16.7c0,0-0.9,0.9-1.4,1.3c-9.2,7.7-27.4,12.3-43.9,4.4C31.6,25.2,19.8,25.7,11,27"
	/>
<path class="st0" d="M0,36.4c2,0.1,4.3-0.9,12.5,0.5c8.1,1.4,15.7,5,22.7,9.5C47,54,60,58.4,73.9,56.4c2.7-0.4,5.6-0.8,8.2-2.4
	c-1.8,0.1-5.6,1.1-16.2-0.1c-9.2-1.2-17.3-6.7-24.9-11.6c-6-3.8-11.7-8.1-18.9-9.4C14.5,31.5,7.3,32.4,0,36.4"/>
</svg>
