<?xml version="1.0" encoding="utf-8"?>
<!-- Generator: Adobe Illustrator 25.2.0, SVG Export Plug-In . SVG Version: 6.00 Build 0)  -->
<svg version="1.1" id="Layer_1" xmlns="http://www.w3.org/2000/svg" xmlns:xlink="http://www.w3.org/1999/xlink" x="0px" y="0px"
	 viewBox="0 0 300 232.8" style="enable-background:new 0 0 300 232.8;" xml:space="preserve">
<style type="text/css">
	.st0{fill:#FFFFFF;}
</style>
<g>
	<path class="st0" d="M37,205.1h6.2c3.6,0,5.5,2.2,5.5,5s-1.9,5-5.5,5h-4.7v6H37V205.1z M43.5,213.9c2.4,0,3.8-1.6,3.8-3.6
		c0-2.1-1.4-3.8-3.8-3.8h-5v7.4L43.5,213.9z M55.9,209.6c3.4,0,5.7,2.4,5.7,6c0,3.4-2.2,6-5.7,6c-3.4,0-5.7-2.4-5.7-6
		C50.2,212,52.5,209.6,55.9,209.6z M55.9,220.4c2.6,0,4.3-1.9,4.3-4.8c0-2.9-1.7-4.8-4.3-4.8c-2.6,0-4.3,1.9-4.3,4.8
		S53.3,220.4,55.9,220.4z M67.1,219.7l3.4-10H72l3.4,10l2.8-10h1.4l-3.4,11.6h-1.6l-3.4-9.8l-3.3,9.8h-1.6l-3.4-11.6h1.4L67.1,219.7
		z M91.6,215.9H82c0,2.9,1.9,4.5,4.3,4.5c1.7,0,3.3-0.9,4-2.6h1.4c-0.7,2.2-2.6,3.8-5.3,3.8c-3.4,0-5.7-2.4-5.7-6c0-3.6,2.2-6,5.5-6
		c3.3,0,5.5,2.2,5.5,5.7V215.9z M82,214.7h8.3c-0.2-2.8-1.9-4.1-4.1-4.1C84.1,210.6,82.3,212,82,214.7z M100.1,209.7v1.2h-1.4
		c-2.1,0-3.1,1.4-3.1,3.8v6.6h-1.4v-11.6h1l0.2,1.9c0.5-1,1.7-1.9,3.1-1.9H100.1z M112.3,215.9h-9.7c0,2.9,1.9,4.5,4.3,4.5
		c1.7,0,3.3-0.9,4-2.6h1.4c-0.7,2.2-2.6,3.8-5.3,3.8c-3.4,0-5.7-2.4-5.7-6c0-3.6,2.2-6,5.5-6c3.3,0,5.5,2.2,5.5,5.7V215.9z
		 M102.7,214.7h8.3c-0.2-2.8-1.9-4.1-4.1-4.1C104.8,210.6,102.9,212,102.7,214.7z M125.6,204.4v16.9h-1l-0.2-2.1
		c-0.9,1.6-2.6,2.4-4.5,2.4c-2.9,0-5.5-2.1-5.5-5.9c0-4,2.6-6,5.5-6c1.9,0,3.4,0.9,4.5,2.2v-7.4h1.2V204.4z M124.2,215.6
		c0-2.9-1.9-5-4.3-4.8c-2.6,0-4.3,1.9-4.3,4.8c0,3.1,1.7,4.8,4.3,4.8C122.3,220.4,124.2,218.5,124.2,215.6z M144.1,215.6
		c0,4-2.6,6-5.5,6c-1.7,0-3.4-0.7-4.5-2.2l-0.2,1.9h-1v-16.9h1.4v7.4c0.9-1.6,2.6-2.4,4.5-2.4C141.5,209.6,144.1,211.6,144.1,215.6z
		 M142.7,215.6c0-2.9-1.7-4.8-4.3-4.8c-2.4,0-4.3,1.9-4.3,5s1.9,4.8,4.3,4.8C141,220.4,142.7,218.5,142.7,215.6z M150.5,220.8
		l3.8-11h1.4l-4.8,13.5c-0.9,2.2-1.9,2.8-3.6,2.8h-2.1v-1.2h2.1c1.4,0,2.2-0.7,2.2-2.2c0-0.3,0-0.7-0.2-1l-4.5-11.6h1.6L150.5,220.8
		z"/>
	<g>
		<path class="st0" d="M241.5,218.9v-17.4c0-0.2,0.2-0.3,0.3-0.3h22.6c0.2,0,0.3,0.3,0.2,0.5l-5.3,5.3h-9.8v17.4
			c0,0.2-0.2,0.3-0.3,0.3h-7.1c-0.2,0-0.3-0.2-0.3-0.3v-3.6l-4,4h-15.2c-0.2,0-0.3-0.2-0.3-0.3v-21.2l-3.8,3.8h-6v17.4
			c0,0.2-0.2,0.3-0.3,0.3H205c-0.2,0-0.3-0.2-0.3-0.3V207h-9.5v17.4c0,0.2-0.2,0.3-0.3,0.3h-7.1c-0.2,0-0.3-0.2-0.3-0.3v-12.6l-4,4
			h-7.6v8.5c0,0.2-0.2,0.3-0.3,0.3h-7.1c-0.2,0-0.3-0.2-0.3-0.3v-22.8c0-0.2,0.2-0.3,0.3-0.3h7.1c0.2,0,0.3,0.2,0.3,0.3v8.5h11.7
			v-8.5c0-0.2,0.2-0.3,0.3-0.3h7.1c0.2,0,0.3,0.2,0.3,0.3v3.6l3.8-3.8h30.7c0.2,0,0.3,0.2,0.3,0.3v17.4h11.4V218.9z"/>
		<path class="st0" d="M261.9,215.4l-5.3-5.3c-0.2-0.2-0.3-0.2-0.3,0l-5.3,5.3c-0.2,0.2,0,0.5,0.2,0.5h10.9
			C261.9,215.9,262.1,215.6,261.9,215.4z"/>
	</g>
</g>
<path class="st0" d="M193.5,132.5c21.7-29.1-131.3,11.1-188,27V177h265.8c13.8,0,24.9-10.6,24.9-23.8v-7.9
	C240.6,154.2,172.3,160.6,193.5,132.5"/>
<g>
	<path class="st0" d="M125.7,64.2h-4.2v29.1c2.6,1.1,5.8,1.6,8.5,1.6c9.5,0,13.8-5.8,13.8-14.3C143.7,72.7,138.4,64.2,125.7,64.2z"
		/>
	<path class="st0" d="M55.3,33c-2.6,0-5.8,0.5-8.5,1.1v58.8c3.7,1.1,6.9,1.6,10.6,1.6c16.9,0,26.5-11.6,26.5-31.2
		C83.9,42.5,72.7,33,55.3,33z"/>
	<path class="st0" d="M140,46.8c0-8.5-5.8-13.2-13.8-13.2c-1.6,0-3.7,0-5.3,0.5v26.5h3.7C132.6,60.5,140,58.4,140,46.8z"/>
	<path class="st0" d="M30.4,6C16.6,6,5.5,16.6,5.5,29.8v105.4c62.5-11.1,222.4-38.1,200.2-9.5c-16.4,21.7,41.3,10.1,90-2.6V6H30.4z
		 M51,99.2H25.6V96l2.6,0.5C33,95.5,33,94.4,33,83.8V45.2c0-11.6,0-11.6-4.8-12.7l-2.6-0.5v-2.6H59c14.8,0,40.8,1.6,40.8,34.4
		C99.7,71.1,97.1,99.2,51,99.2z M126.8,99.2H99.2h0V96h2.6c4.8-1.1,4.8-0.5,4.8-12.7V44.6c0-11.6,0-11.1-4.8-12.2l-3.2-0.5v-2.6
		h31.8c5.3,0,22.8,0,22.8,14.8c0,11.1-8.5,14.8-14.3,16.9c6.9,0.5,18,4.8,18,18C156.9,94.9,142.6,99.2,126.8,99.2z M204.1,85.4
		c-5.8,4.8-13.2,6.4-19.1,6.4h0h0l0,0c-11.6,0-21.7-5.8-21.7-15.9c0-10.6,12.2-15.9,12.2-15.9s-3.7-3.2-3.7-9.5
		c0-10.1,13.2-12.7,19.1-12.7c5.3,0,11.6,1.6,11.6,1.6c0,4.8-0.5,9-1.6,13.8l-2.6-0.5c-0.5-6.4-1.1-10.6-9.5-10.6
		c-6.9-1.1-11.6,6.4-2.1,16.9c5.8,6.4,13.2,12.7,20.1,17.5c2.6-3.2,4.2-6.9,3.7-8.5c-0.5-4.2-7.9-4.2-7.9-4.2v-2.1
		c5.3-0.5,10.6-0.5,15.9,0.5c-1.6,7.4-4.2,12.7-7.9,16.9c3.2,2.1,5.8,4.2,7.9,5.3c5.3,3.7,11.6,3.2,11.6,3.2v2.1H220
		C217.8,89.6,210.4,89.6,204.1,85.4z M271.8,47.3C269.2,35.6,268.1,33,256,33h-4.2v50.3c0,10.6,0,11.1,6.9,12.2l2.6,0.5v3.2h-32.8
		v-2.6l2.6-0.5c6.9-1.1,6.9-1.6,6.9-12.2h-0.5V33h-4.2c-12.2,0-13.2,2.6-15.9,14.3h-3.7c0-1.6,1.1-15.9,1.6-18H274
		c0.5,2.1,1.6,16.4,1.6,18H271.8z"/>
	<path class="st0" d="M178.1,63.2c-4.2,3.2-4.8,6.9-4.8,9.5c0,2.6,1.6,13.8,14.8,13.8c4.2,0,8.5-1.6,11.6-3.7
		C189.2,74.8,178.1,63.2,178.1,63.2z"/>
	<polygon class="st0" points="185,91.8 185,91.8 185,91.8 	"/>
</g>
</svg>
