<svg xmlns="http://www.w3.org/2000/svg" xmlns:xlink="http://www.w3.org/1999/xlink" version="1.1" id="Layer_1" x="0px" y="0px" style="enable-background:new 0 0 309.6 113.04;" xml:space="preserve" viewBox="23.03 4.25 259.47 97.83">
<style type="text/css">
	.st0{fill:#071631;}
	.st1{clip-path:url(#SVGID_00000090260077630118860250000007558039083027746954_);fill:#001231;}
	.st2{clip-path:url(#SVGID_00000090260077630118860250000007558039083027746954_);fill:#867650;}
	.st3{fill:#001231;}
</style>
<g>
	<path class="st0" d="M106.84,100.58v1.33h-1.01c-0.68,0-1.3-0.26-1.43-1.06c-0.47,0.73-1.49,1.22-2.8,1.22   c-1.83,0-3.01-0.96-3.01-2.55c0-1.41,0.89-2.45,3.17-2.45h2.42v-0.42c0-1.22-0.73-1.79-1.82-1.79c-1.1,0-1.82,0.56-1.87,1.41h-1.64   c0.05-1.8,1.53-2.84,3.57-2.84c1.95,0,3.54,0.97,3.54,3.23v3.37c0,0.46,0.18,0.55,0.55,0.55H106.84z M104.19,98.29h-2.18   c-1.2,0-1.58,0.53-1.58,1.15c0,0.85,0.67,1.22,1.58,1.22c1.24,0,2.18-0.67,2.18-2.03V98.29z"/>
	<path class="st0" d="M119.75,89.85v12.07h-1.62l-0.15-1.27c-0.5,0.85-1.59,1.43-2.87,1.43c-2.29,0-3.95-1.59-3.95-4.3   c0-2.79,1.74-4.35,3.95-4.35c1.3,0,2.35,0.55,2.86,1.4v-4.97H119.75z M117.93,97.77c0-1.71-1.07-2.78-2.47-2.76   c-1.46,0-2.47,1.07-2.47,2.76c0,1.72,1.02,2.73,2.47,2.73C116.86,100.5,117.93,99.49,117.93,97.77z"/>
	<path class="st0" d="M121.77,90.18h1.97v1.85h-1.97V90.18z M121.87,93.6h1.77v8.32h-1.77V93.6z"/>
	<path class="st0" d="M129.21,100.03l2.45-6.45h1.92l-3.41,8.33h-1.98l-3.33-8.33h1.87L129.21,100.03z"/>
	<path class="st0" d="M134.69,90.18h1.97v1.85h-1.97V90.18z M134.79,93.6h1.77v8.32h-1.77V93.6z"/>
	<path class="st0" d="M139.94,99.4c0.02,0.86,0.81,1.37,1.9,1.37s1.74-0.41,1.74-1.14c0-0.63-0.33-0.97-1.27-1.12l-1.67-0.29   c-1.62-0.28-2.26-1.12-2.26-2.31c0-1.5,1.48-2.47,3.36-2.47c2.03,0,3.51,0.97,3.53,2.63h-1.75c-0.02-0.84-0.75-1.31-1.77-1.31   c-0.97,0-1.59,0.4-1.59,1.08c0,0.6,0.42,0.88,1.35,1.04l1.64,0.29c1.54,0.28,2.26,1.04,2.26,2.29c0,1.72-1.59,2.61-3.53,2.61   c-2.19,0-3.67-1.05-3.7-2.68H139.94z"/>
	<path class="st0" d="M147,90.18h1.97v1.85H147V90.18z M147.09,93.6h1.77v8.32h-1.77V93.6z"/>
	<path class="st0" d="M154.98,93.42c2.53,0,4.29,1.77,4.29,4.34c0,2.57-1.75,4.32-4.29,4.32c-2.52,0-4.27-1.75-4.27-4.32   C150.7,95.19,152.46,93.42,154.98,93.42z M154.98,100.55c1.49,0,2.47-1.11,2.47-2.81c0-1.72-0.97-2.81-2.47-2.81   c-1.48,0-2.45,1.08-2.45,2.81C152.52,99.44,153.5,100.55,154.98,100.55z"/>
	<path class="st0" d="M168.79,96.94v4.97H167v-4.6c0-1.56-0.8-2.32-2.01-2.32c-1.38,0-2.13,0.97-2.13,2.45v4.47h-1.77V93.6h1.61   l0.13,1.12c0.47-0.8,1.37-1.29,2.63-1.29C167.56,93.43,168.79,94.81,168.79,96.94z"/>
	<path class="st0" d="M177.9,93.42c2.53,0,4.29,1.77,4.29,4.34c0,2.57-1.75,4.32-4.29,4.32c-2.52,0-4.27-1.75-4.27-4.32   C173.62,95.19,175.38,93.42,177.9,93.42z M177.9,100.55c1.49,0,2.47-1.11,2.47-2.81c0-1.72-0.97-2.81-2.47-2.81   c-1.48,0-2.45,1.08-2.45,2.81C175.44,99.44,176.42,100.55,177.9,100.55z"/>
	<path class="st0" d="M184.58,93.6v-1.35c0-1.58,0.75-2.42,2.55-2.42h1.22v1.5h-0.91c-0.89,0-1.07,0.44-1.07,1.05v1.22h1.98v1.56   h-1.98v6.76h-1.79v-6.76h-1.37V93.6H184.58z"/>
	<path class="st0" d="M194.83,96.88v5.04H193V90.35h1.84v4.84h5.67v-4.84h1.84v11.57h-1.84v-5.04H194.83z"/>
	<path class="st0" d="M209.48,101.92h-1.82v-9.94h-3.79v-1.62h9.39v1.62h-3.79V101.92z"/>
	<path class="st0" d="M222.19,100.22v1.69h-7.39V90.35h1.84v9.87H222.19z"/>
	<path class="st0" d="M225.69,91.97v3.46h5.05v1.59h-5.05v4.89h-1.84V90.35h7.65v1.62H225.69z"/>
	<path class="st0" d="M245.29,98.71c0,1.96-1.46,3.2-3.85,3.2h-5.2V90.35h4.83c2.47,0,3.82,1.19,3.82,3.04   c0,0.97-0.39,2.05-1.58,2.53C244.57,96.31,245.29,97.38,245.29,98.71z M240.96,91.94h-2.89v3.36h3.04c1.22,0,1.92-0.67,1.92-1.69   C243.03,92.62,242.35,91.94,240.96,91.94z M243.37,98.58c0-1.12-0.76-1.78-2.03-1.78h-3.27v3.52h3.17   C242.62,100.32,243.37,99.67,243.37,98.58z"/>
	<path class="st0" d="M254.8,100.58v1.33h-1.01c-0.68,0-1.3-0.26-1.43-1.06c-0.47,0.73-1.49,1.22-2.8,1.22   c-1.84,0-3.01-0.96-3.01-2.55c0-1.41,0.89-2.45,3.17-2.45h2.42v-0.42c0-1.22-0.73-1.79-1.82-1.79c-1.11,0-1.82,0.56-1.87,1.41   h-1.64c0.05-1.8,1.53-2.84,3.57-2.84c1.95,0,3.54,0.97,3.54,3.23v3.37c0,0.46,0.18,0.55,0.55,0.55H254.8z M252.15,98.29h-2.18   c-1.2,0-1.58,0.53-1.58,1.15c0,0.85,0.67,1.22,1.58,1.22c1.24,0,2.18-0.67,2.18-2.03V98.29z"/>
	<path class="st0" d="M264,96.94v4.97h-1.79v-4.6c0-1.56-0.8-2.32-2.01-2.32c-1.38,0-2.13,0.97-2.13,2.45v4.47h-1.77V93.6h1.61   l0.13,1.12c0.47-0.8,1.37-1.29,2.63-1.29C262.76,93.43,264,94.81,264,96.94z"/>
	<path class="st0" d="M266.02,89.85h1.77v7.44l3.64-3.7h2.21l-3.56,3.59l3.59,4.75h-2.24l-2.62-3.49l-0.97,0.99v2.5h-1.82V89.85z"/>
</g>
<g>
	<g>
		<defs>
			<rect id="SVGID_1_" x="23.03" y="4.25" width="259.47" height="95.67"/>
		</defs>
		<clipPath id="SVGID_00000142148259131812883340000014652653131395088557_">
			<use xlink:href="#SVGID_1_" style="overflow:visible;"/>
		</clipPath>
		<path style="clip-path:url(#SVGID_00000142148259131812883340000014652653131395088557_);fill:#001231;" d="M46.81,29.46    c12.85-3.04,26.14-6.17,27.6-16.19l-4.98-5.21V4.25H34.15l6.96,8.74l-3.57,8.03l-8.94,2.6l1.17,5.8l-3.03,6.77    C31.87,32.99,39.19,31.26,46.81,29.46L46.81,29.46z M74.48,58.37v-3.48c0,0-0.01,0-0.01,0c-0.1,0.06-4.36,2.2-10.18,3.68    c-9.56,2.42-20.13,2.21-22.82,8.61l-1.27,3.75l-3.03,4.91l1.56,4.07l8.77,7.17l1.89,4.99l-0.82,4.31l3.52,3.53l3.47-5.01l6.1,3.37    l1.48-2.29l0.49-4.75l4.09-0.54l1.57-11.53l3.41-4.35l2.53-5.88l-1.79-5.74L74.48,58.37L74.48,58.37z M168.09,52.49    c-0.64,0-1.58-0.09-2.18-0.17c-1.09-0.15-1.35-0.74-1.47-1.85c-0.17-1.86-0.17-5.23-0.17-9.5v-7.66c0-6.63,0-7.82,0.09-9.2    c0.09-1.49,0.42-2.02,1.35-2.19c0.5-0.08,0.84-0.13,1.25-0.13c0.67,0,1.01-0.25,1.01-0.74c0-0.66-0.89-0.66-1.22-0.66    c-0.92,0-2.12,0.04-3.18,0.08c-0.86,0.03-1.64,0.05-2.12,0.05c-0.59,0-1.49-0.03-2.46-0.06c-1.13-0.04-2.31-0.07-3.19-0.07    c-0.44,0-1.35,0-1.35,0.66c0,0.49,0.34,0.74,1.01,0.74c0.58,0,1.09,0.06,1.5,0.17c0.58,0.13,1.14,0.49,1.24,2.15    c0.09,1.38,0.09,2.58,0.09,9.2v7.66c0,4.27,0,7.64-0.22,9.45c-0.13,1.3-0.39,1.78-1.02,1.9c-0.51,0.11-0.99,0.17-1.5,0.17    c-0.83,0-1.01,0.36-1.01,0.66c0,0.34,0.21,0.75,1.18,0.75c0.99,0,2.3-0.04,3.45-0.08c0.85-0.03,1.61-0.05,2.04-0.05    c0.46,0,1.15,0.02,1.99,0.04c1.35,0.04,3.04,0.09,4.79,0.09c1.05,0,1.14-0.57,1.14-0.75C169.1,52.95,169,52.49,168.09,52.49    L168.09,52.49z M164.34,83.52c-0.23,0-0.64-0.05-1.3-0.32c-1.08-0.42-2.01-1.31-2.9-2.16l-0.17-0.16    c-0.82-0.78-4.87-5.13-5.82-6.32c0.88-0.92,3.95-3.96,4.62-4.62c0.82-0.81,1.56-1.32,2.31-1.61c0.39-0.14,0.92-0.23,1.21-0.23    c0.12,0,0.48,0,0.48-0.35c0-0.16-0.09-0.35-0.52-0.35c-0.34,0-0.81,0.02-1.28,0.03c-0.47,0.02-0.94,0.03-1.27,0.03    c-0.31,0-0.8-0.02-1.25-0.04c-0.4-0.02-0.78-0.03-1-0.03c-0.14,0-0.5,0-0.5,0.35c0,0.28,0.25,0.33,0.4,0.37    c0.09,0.02,0.19,0.06,0.19,0.29c0,0.3-0.45,0.82-0.97,1.43l-0.09,0.11c-0.38,0.44-1.67,1.79-2.82,2.97    c-0.66,0.69-1.25,1.3-1.59,1.66v-0.69c0-3.33,0-3.93,0.04-4.62c0.04-0.75,0.21-1.02,0.68-1.11c0.26-0.04,0.38-0.06,0.58-0.06    c0.41,0,0.46-0.24,0.46-0.35c0-0.35-0.43-0.35-0.61-0.35c-0.41,0-1.01,0.02-1.54,0.04c-0.45,0.02-0.87,0.03-1.1,0.03    c-0.21,0-0.56-0.01-0.97-0.02c-0.62-0.02-1.39-0.04-2.09-0.04c-0.21,0-0.63,0-0.63,0.35c0,0.35,0.39,0.35,0.52,0.35    c0.34,0,0.67,0.03,0.82,0.06c0.6,0.13,0.78,0.37,0.82,1.11c0.04,0.69,0.04,1.29,0.04,4.62v3.84c0,2,0,3.73-0.11,4.63    c-0.09,0.66-0.2,1.01-0.52,1.07c-0.16,0.04-0.42,0.08-0.75,0.08c-0.33,0-0.5,0.11-0.5,0.33c0,0.17,0.1,0.37,0.59,0.37    c0.5,0,1.15-0.02,1.73-0.04c0.43-0.01,0.81-0.03,1.02-0.03c0.22,0,0.57,0.01,0.99,0.02c0.63,0.02,1.42,0.04,2.16,0.04    c0.51,0,0.57-0.26,0.57-0.37c0-0.15-0.11-0.33-0.43-0.33c-0.28,0-0.75-0.04-1.05-0.09c-0.25-0.04-0.6-0.19-0.66-1.04    c-0.06-0.93-0.06-2.66-0.06-4.66v-1.68l0.08,0.1c0.45,0.63,4.76,5.69,5.75,6.56c0.97,0.86,1.57,1.34,2.79,1.46    c0.47,0.04,0.86,0.04,1.52,0.04h1.9c0.25,0,0.68,0,0.68-0.37C164.77,83.77,164.74,83.52,164.34,83.52L164.34,83.52z M255.81,73.98    l-0.61-0.46c-1.91-1.45-2.26-2.15-2.26-3.03c0-1.28,0.96-2.1,2.45-2.1c1.31,0,1.92,0.58,2.26,1.02c0.44,0.55,0.53,1.2,0.53,1.35    c0,0.45,0.2,0.54,0.37,0.54c0.39,0,0.39-0.5,0.39-0.81c0-1.2,0.04-1.86,0.07-2.26c0.01-0.16,0.02-0.28,0.02-0.36    c0-0.32-0.31-0.38-0.42-0.41c-0.65-0.18-1.57-0.38-2.94-0.38c-3.06,0-5.2,1.76-5.2,4.28c0,1.91,0.98,3.49,3.29,5.3l1.01,0.79    c1.73,1.36,2.08,2.3,2.08,3.38c0,1.13-0.97,2.34-2.78,2.34c-0.88,0-2.44-0.27-2.98-2.1c-0.11-0.38-0.19-0.82-0.19-1.07    c0-0.35-0.12-0.52-0.37-0.52c-0.36,0-0.4,0.52-0.41,0.71l-0.01,0.07c-0.03,0.46-0.11,1.66-0.11,2.8c0,0.54,0.09,0.7,0.51,0.88    c0.92,0.41,1.89,0.58,3.25,0.58c1.42,0,2.59-0.3,3.56-0.92c1.85-1.21,2.12-2.98,2.12-3.93C259.46,77.52,258.47,75.98,255.81,73.98    L255.81,73.98z M248.06,67.4c-0.55,0-1.31,0.03-1.87,0.05c-0.3,0.01-0.53,0.02-0.62,0.02l-0.06,0c-1.22-0.05-2.01-0.06-2.45-0.06    c-0.18,0-0.61,0-0.61,0.35c0,0.35,0.39,0.35,0.52,0.35c0.25,0,0.6,0.02,0.76,0.06c0.6,0.13,0.78,0.37,0.82,1.11    c0.04,0.69,0.04,1.29,0.04,4.62v2.73c0,2.32-0.09,4.18-1.22,5.31c-1.02,1.02-2.37,1.14-2.91,1.14c-0.78,0-1.71-0.1-2.63-0.86    c-0.86-0.7-1.65-1.82-1.65-5.26v-3.06c0-3.33,0-3.93,0.04-4.62c0.04-0.75,0.21-1.02,0.68-1.1c0.26-0.04,0.38-0.06,0.61-0.06    c0.33,0,0.5-0.12,0.5-0.35c0-0.35-0.43-0.35-0.63-0.35c-0.44,0-1.05,0.02-1.6,0.04c-0.45,0.01-0.85,0.03-1.09,0.03    c-0.28,0-0.69-0.01-1.16-0.03c-0.64-0.02-1.36-0.04-2.02-0.04c-0.2,0-0.63,0-0.63,0.35c0,0.35,0.39,0.35,0.52,0.35    c0.34,0,0.67,0.03,0.82,0.06c0.6,0.13,0.78,0.37,0.82,1.11c0.04,0.69,0.04,1.29,0.04,4.62v3.19c0,2.8,0.63,4.67,1.99,5.9    c1.71,1.55,3.98,1.55,4.95,1.55c1.29,0,2.98-0.18,4.64-1.61c1.87-1.6,2.13-4.16,2.13-6.69v-2.34c0-3.33,0-3.93,0.04-4.62    c0.04-0.75,0.21-1.02,0.68-1.11c0.26-0.04,0.38-0.06,0.61-0.06c0.15,0,0.54,0,0.54-0.35C248.67,67.4,248.24,67.4,248.06,67.4    L248.06,67.4z M119.19,77.12l-1.92-5.27l-1.97,5.27H119.19L119.19,77.12z M145.07,67.75c0,0.13-0.07,0.35-0.54,0.35    c-0.22,0-0.38,0-0.62,0.06c-0.46,0.13-0.67,0.41-0.69,1.71l-0.24,13.78c0,0.24,0,0.82-0.43,0.82c-0.3,0-0.58-0.26-0.85-0.52    c-0.81-0.77-2.14-2.1-3.54-3.51c-0.97-0.97-1.98-1.99-2.91-2.91c-1.9-1.88-3.81-3.98-4.72-4.99c-0.11-0.12-0.2-0.22-0.27-0.3    l0.23,8.85c0.05,1.84,0.38,2.19,0.66,2.29c0.36,0.13,0.77,0.14,1.09,0.14c0.13,0,0.52,0,0.52,0.33c0,0.37-0.46,0.37-0.65,0.37    c-0.93,0-1.61-0.03-2.11-0.05c-0.26-0.01-0.46-0.02-0.6-0.02c-0.06,0-0.18,0.01-0.36,0.01c-0.45,0.02-1.19,0.05-2,0.05    c-0.1,0-0.23,0-0.35-0.03c-0.19,0.03-0.44,0.03-0.76,0.03c-0.77,0-2.38,0-4.13-0.04l-0.1-0.01c-0.39-0.02-0.7-0.04-0.7-0.32    c0-0.3,0.3-0.33,0.44-0.35c0,0,0.05-0.03,0.08-0.09c0.03-0.06,0.03-0.13-0.01-0.2l-1.75-4.64c-0.02-0.05-0.03-0.05-0.08-0.05    h-4.87c-0.02,0-0.03,0.01-0.05,0.07l-1.18,3.13c-0.22,0.55-0.32,1.05-0.32,1.28c0,0.27,0.09,0.53,0.72,0.53h0.33    c0.17,0,0.48,0,0.48,0.33c0,0.37-0.39,0.37-0.52,0.37c-0.35,0-0.77-0.02-1.18-0.03c-0.4-0.02-0.8-0.03-1.13-0.03    c-0.07,0-0.24,0.01-0.47,0.02c-0.53,0.02-1.32,0.05-2.1,0.05c-0.17,0-0.57,0-0.57-0.37c0-0.15,0.07-0.33,0.41-0.33    c0.2,0,0.5-0.02,0.66-0.04c0.88-0.11,1.28-0.72,1.74-1.87l5.48-13.72c0.26-0.62,0.42-0.97,0.75-0.97c0.32,0,0.48,0.33,0.68,0.79    c0.23,0.53,1.04,2.56,1.97,4.9c1.18,2.97,2.66,6.67,3.44,8.53c0.87,2.07,1.51,2.22,1.82,2.29c0.34,0.07,0.67,0.08,0.88,0.08    c0.03,0,0.09,0,0.14,0.01c0.04,0,0.07-0.01,0.12-0.01c0.22,0,0.63-0.01,0.94-0.1c0.44-0.14,0.55-0.61,0.57-2.57l0.2-12.93    c0-0.24,0-0.89,0.43-0.89c0.26,0,0.45,0.21,0.72,0.5c0.06,0.07,0.13,0.14,0.2,0.22c0.03,0.04,3.45,3.71,6.77,7.01    c0.85,0.85,2.18,2.24,3.24,3.36c0.62,0.66,1.15,1.2,1.41,1.47l-0.21-9.55c-0.02-1.34-0.23-1.65-0.65-1.83    c-0.3-0.12-0.82-0.12-1.1-0.12c-0.33,0-0.5-0.12-0.5-0.35c0-0.35,0.45-0.35,0.72-0.35c0.7,0,1.35,0.02,1.88,0.04    c0.32,0.01,0.59,0.02,0.77,0.02c0.08,0,0.21-0.01,0.39-0.02c0.41-0.02,1.02-0.05,1.75-0.05C144.64,67.4,145.07,67.4,145.07,67.75    L145.07,67.75z M183.7,81.68c-1.27-1.11-3.26-3.06-3.81-3.65c-0.5-0.53-1.77-1.96-2.26-2.62c-0.63,0.51-1.32,1.45-1.32,3.1    c0,2.51,1.7,4.33,4.04,4.33C181.84,82.84,183.16,82.12,183.7,81.68L183.7,81.68z M192.42,83.87c0,0.35-0.52,0.35-0.81,0.35h-1.68    c-2.49,0-3.34-0.26-5.15-1.64c-0.76,0.68-2.26,1.94-5.19,1.94c-4.91,0-6.22-3.13-6.22-4.98c0-2.49,2.07-4.48,3.49-5.23    c-0.83-1.16-1.02-2.03-1.04-3.04c-0.01-0.94,0.4-1.9,1.13-2.63c0.7-0.7,2.01-1.54,4.33-1.54c1.14,0,2.14,0.24,2.7,0.47    c0.47,0.16,0.47,0.44,0.47,0.71c0,0.73-0.17,2.48-0.24,2.83c-0.03,0.25-0.11,0.49-0.41,0.49c-0.3,0-0.3-0.3-0.3-0.57    c0-0.38-0.08-1.12-0.6-1.74c-0.35-0.42-1.04-0.93-2.31-0.93c-0.76,0-2.19,0.49-2.19,2.34c0,1.74,1.42,3.28,2.92,4.91    c0.22,0.24,0.44,0.48,0.67,0.73c0.7,0.8,3.12,2.99,3.7,3.52c0.39-0.62,0.93-1.89,0.93-3.14c0-0.26-0.06-0.63-0.36-0.89    c-0.28-0.26-0.77-0.29-0.97-0.29c-0.25,0-0.41-0.13-0.41-0.33c0-0.11,0.05-0.37,0.5-0.37c0.8,0,1.68,0.05,2.64,0.15    c0.76,0.08,0.88,0.4,0.88,0.59c0,1.61-0.81,3.62-2.08,5.16c1.43,1.16,2.38,1.72,2.9,2.03c0.69,0.41,1.86,0.74,2.26,0.74    C192.1,83.52,192.42,83.52,192.42,83.87L192.42,83.87z M213.37,67.25c-0.08,0-0.18,0.02-0.38,0.06l-0.25,0.05    c-0.32,0.04-0.79,0.11-1.47,0.11h-8.65c-0.69,0-1.52-0.04-2.17-0.11c-0.31-0.03-0.5-0.11-0.65-0.18c-0.11-0.05-0.2-0.09-0.3-0.09    c-0.29,0-0.36,0.33-0.41,0.53c-0.03,0.14-0.46,2.17-0.46,2.55c0,0.14,0,0.5,0.35,0.5c0.29,0,0.36-0.28,0.39-0.38    c0.03-0.11,0.11-0.36,0.35-0.72c0.27-0.4,0.7-0.52,2-0.57l3.1-0.08v8.8c0,2,0,3.73-0.11,4.64c-0.07,0.71-0.22,1.01-0.52,1.07    c-0.16,0.04-0.42,0.08-0.75,0.08c-0.33,0-0.5,0.11-0.5,0.33c0,0.17,0.1,0.37,0.59,0.37c0.5,0,1.15-0.02,1.73-0.04    c0.43-0.01,0.81-0.03,1.02-0.03c0.24,0,0.6,0.01,1.03,0.02c0.68,0.02,1.52,0.04,2.4,0.04c0.53,0,0.57-0.28,0.57-0.37    c0-0.12-0.07-0.33-0.5-0.33c-0.32,0-0.79-0.04-1.09-0.09c-0.52-0.07-0.65-0.41-0.72-1.05c-0.11-0.93-0.11-2.66-0.11-4.66v-8.8    l2.6,0.06c1.49,0.03,2.38,0.43,2.43,1.09l0.02,0.24c0.02,0.24,0.04,0.58,0.39,0.58c0.3,0,0.33-0.34,0.35-0.5    c0-0.3,0.02-0.86,0.04-1.38c0.02-0.48,0.03-0.93,0.03-1.15C213.7,67.58,213.7,67.25,213.37,67.25L213.37,67.25z M203.02,54.41    c0.88,0,0.88-1.16,0.88-1.65l0.48-27.45c0.05-2.59,0.46-3.14,1.38-3.4c0.48-0.12,0.8-0.12,1.23-0.12c0.95,0,1.09-0.44,1.09-0.7    c0-0.7-0.85-0.7-1.31-0.7c-1.45,0-2.67,0.06-3.48,0.1c-0.37,0.02-0.64,0.03-0.79,0.03c-0.35,0-0.88-0.02-1.53-0.04    c-1.05-0.04-2.35-0.09-3.74-0.09c-0.54,0-1.44,0-1.44,0.7c0,0.47,0.34,0.7,1.01,0.7c0.56,0,1.59,0,2.19,0.24    c0.84,0.35,1.24,0.98,1.29,3.64l0.42,18.98c-0.53-0.54-1.56-1.62-2.78-2.9c-2.12-2.22-4.76-4.99-6.46-6.69    c-6.66-6.61-13.41-13.88-13.48-13.96c-0.15-0.16-0.28-0.3-0.4-0.44c-0.53-0.58-0.91-1.01-1.43-1.01c-0.87,0-0.87,1.3-0.87,1.78    l-0.39,25.75c-0.04,3.88-0.26,4.83-1.12,5.1c-0.63,0.18-1.44,0.21-1.87,0.21c-0.83,0-1.01,0.36-1.01,0.66    c0,0.75,0.82,0.75,1.27,0.75c1.6,0,3.09-0.07,3.97-0.1c0.36-0.02,0.61-0.03,0.72-0.03c0.29,0,0.69,0.02,1.2,0.04    c0.99,0.04,2.35,0.09,4.19,0.09c0.36,0,1.31,0,1.31-0.75c0-0.66-0.79-0.66-1.05-0.66c-0.63,0-1.44-0.03-2.16-0.29    c-0.56-0.2-1.22-0.89-1.32-4.54l-0.46-17.59c0.15,0.16,0.33,0.36,0.53,0.58c1.83,2.01,5.63,6.19,9.41,9.93    c1.84,1.82,3.85,3.84,5.77,5.78c2.79,2.81,5.43,5.46,7.06,7.01C201.85,53.89,202.42,54.41,203.02,54.41L203.02,54.41z     M225.02,72.57c0-3.04-2.01-3.85-3.19-3.85c-0.36,0-0.87,0.01-1.11,0.08c-0.07,0.02-0.09,0.03-0.09,0.16v6.64    c0,0.21,0.03,0.22,0.11,0.25c0.38,0.13,0.99,0.21,1.6,0.21c0.85,0,1.1-0.08,1.46-0.34C224.25,75.39,225.02,74.54,225.02,72.57    L225.02,72.57z M233.07,83.85c0,0.37-0.41,0.37-0.57,0.37h-2.07c-1.21,0-1.8-0.1-2.41-0.43c-0.93-0.5-1.76-1.49-3.04-3.25    c-0.37-0.51-0.76-1.07-1.12-1.57c-0.47-0.67-0.88-1.25-1.04-1.44c-0.06-0.08-0.13-0.1-0.28-0.1l-1.9-0.04l-0.02,0.33    c0,2.01,0,3.75,0.11,4.66c0.07,0.66,0.2,1,0.72,1.07c0.31,0.04,0.79,0.09,1.05,0.09c0.31,0,0.41,0.17,0.41,0.33    c0,0.17-0.1,0.37-0.59,0.37c-0.84,0-1.84-0.03-2.51-0.05c-0.34-0.01-0.59-0.02-0.7-0.02c-0.17,0-0.5,0.01-0.88,0.02    c-0.56,0.02-1.26,0.04-1.78,0.04c-0.49,0-0.59-0.2-0.59-0.37c0-0.22,0.17-0.33,0.5-0.33c0.34,0,0.59-0.05,0.75-0.08    c0.32-0.06,0.43-0.41,0.52-1.07c0.11-0.91,0.11-2.63,0.11-4.63v-3.84c0-3.33,0-3.93-0.04-4.62c-0.04-0.74-0.22-0.98-0.82-1.11    c-0.15-0.04-0.48-0.06-0.82-0.06c-0.13,0-0.52,0-0.52-0.35c0-0.35,0.43-0.35,0.63-0.35c0.71,0,1.49,0.02,2.12,0.04    c0.38,0.01,0.7,0.02,0.87,0.02c0.38,0,1-0.02,1.6-0.03c0.58-0.02,1.15-0.03,1.48-0.03c1.33,0,2.86,0.11,4.1,0.97    c0.54,0.36,1.55,1.48,1.55,3.12c0,1.8-0.85,3.28-2.82,4.92l0.67,0.85c1.6,2.01,2.86,3.6,3.97,4.77c1.16,1.2,2.02,1.37,2.34,1.44    c0.26,0.05,0.44,0.07,0.61,0.07C232.96,83.52,233.07,83.69,233.07,83.85L233.07,83.85z M106.9,21.79c0.56,0,1.05,0.04,1.37,0.12    c1.19,0.25,1.54,0.72,1.63,2.2c0.09,1.38,0.09,2.58,0.09,9.2v7.66c0,3.98,0,7.42-0.21,9.22c-0.18,1.32-0.39,2.01-1.02,2.13    c-0.5,0.11-1,0.17-1.5,0.17c-0.83,0-1.01,0.36-1.01,0.66c0,0.34,0.2,0.75,1.18,0.75c0.42,0,0.91-0.02,1.41-0.04    c0.53-0.02,1.08-0.05,1.6-0.05c1.04-0.04,2-0.04,2.47-0.04c1.68,0,3.21,0.04,5.3,0.13c0.48,0.01,0.98,0.02,1.5,0.04    c1.64,0.04,3.49,0.09,5.86,0.09c2.26,0,2.71-0.21,3.04-1.4c0.36-1.3,0.66-4.58,0.66-5.08c0-0.39,0-1.05-0.66-1.05    c-0.68,0-0.76,0.67-0.79,0.93c-0.08,0.76-0.58,1.92-1.05,2.43c-0.97,1.04-2.48,1.12-4.86,1.12c-3.41,0-4.41-0.31-5.06-0.88    c-0.81-0.69-0.81-3.86-0.81-9.12v-7.66c0-6.63,0-7.82,0.09-9.2c0.08-1.49,0.41-2.02,1.35-2.19c0.52-0.09,1.2-0.13,1.65-0.13    c0.3,0,1.09,0,1.09-0.7c0-0.7-0.86-0.7-1.22-0.7c-0.95,0-2.37,0.04-3.62,0.08c-0.97,0.03-1.84,0.05-2.3,0.05    c-0.5,0-1.3-0.02-2.2-0.05c-1.21-0.04-2.59-0.08-3.76-0.08c-0.41,0-1.27,0-1.27,0.7C105.85,21.79,106.64,21.79,106.9,21.79    L106.9,21.79z M215.34,35.79c0,9.37,5.36,15.92,13.04,15.92c2.94,0,9.78-1.34,9.78-13.74c0-9.11-5.11-15.48-12.44-15.48    C221.85,22.48,215.34,24.21,215.34,35.79L215.34,35.79z M208.72,37.14c0-8.36,5.72-17.36,18.27-17.36    c11.03,0,17.88,6.35,17.88,16.58c0,10.68-7.53,18.14-18.32,18.14C214.3,54.5,208.72,45.5,208.72,37.14L208.72,37.14z     M130.88,21.79c0.56,0,0.99,0.04,1.31,0.12c1.19,0.25,1.54,0.72,1.63,2.2c0.09,1.38,0.09,2.58,0.09,9.2v7.66    c0,3.98,0,7.42-0.21,9.22c-0.18,1.32-0.39,2.01-1.02,2.13c-0.5,0.11-0.99,0.17-1.5,0.17c-0.83,0-1.01,0.36-1.01,0.66    c0,0.34,0.2,0.75,1.18,0.75c0.42,0,0.91-0.02,1.41-0.04c0.53-0.02,1.08-0.05,1.6-0.05c1.04-0.04,2-0.04,2.47-0.04    c1.68,0,3.21,0.04,5.3,0.13c0.48,0.01,0.98,0.02,1.5,0.04c1.64,0.04,3.49,0.09,5.86,0.09c2.26,0,2.71-0.21,3.04-1.4    c0.36-1.29,0.66-4.58,0.66-5.08c0-0.39,0-1.05-0.66-1.05c-0.68,0-0.76,0.67-0.79,0.93c-0.08,0.76-0.58,1.92-1.05,2.43    c-0.97,1.04-2.48,1.12-4.86,1.12c-3.41,0-4.41-0.31-5.06-0.88c-0.81-0.69-0.81-3.86-0.81-9.12v-7.66c0-6.63,0-7.82,0.09-9.2    c0.08-1.49,0.41-2.02,1.35-2.19c0.52-0.09,1.2-0.13,1.65-0.13c0.3,0,1.09,0,1.09-0.7c0-0.7-0.86-0.7-1.22-0.7    c-0.95,0-2.37,0.04-3.62,0.08c-0.97,0.03-1.84,0.05-2.3,0.05c-0.5,0-1.3-0.02-2.2-0.05c-1.21-0.04-2.53-0.08-3.69-0.08    c-0.41,0-1.27,0-1.27,0.7C129.83,21.79,130.62,21.79,130.88,21.79L130.88,21.79z M275.98,67.25c-0.08,0-0.18,0.02-0.38,0.06    l-0.25,0.05c-0.32,0.04-0.79,0.11-1.47,0.11h-8.65c-0.69,0-1.52-0.04-2.17-0.11c-0.31-0.03-0.5-0.11-0.65-0.18    c-0.11-0.05-0.2-0.09-0.3-0.09c-0.29,0-0.36,0.33-0.41,0.53c-0.04,0.14-0.46,2.17-0.46,2.55c0,0.14,0,0.5,0.35,0.5    c0.29,0,0.36-0.28,0.39-0.38c0.03-0.11,0.11-0.36,0.35-0.72c0.27-0.4,0.7-0.52,2-0.57l3.1-0.08v8.8c0,2,0,3.73-0.11,4.64    c-0.07,0.71-0.22,1.01-0.52,1.07c-0.16,0.04-0.42,0.08-0.75,0.08c-0.33,0-0.5,0.11-0.5,0.33c0,0.17,0.1,0.37,0.59,0.37    c0.5,0,1.15-0.02,1.73-0.04c0.43-0.01,0.81-0.03,1.02-0.03c0.24,0,0.6,0.01,1.03,0.02c0.68,0.02,1.52,0.04,2.4,0.04    c0.53,0,0.57-0.28,0.57-0.37c0-0.1-0.05-0.33-0.5-0.33c-0.32,0-0.79-0.04-1.09-0.09c-0.52-0.07-0.65-0.41-0.72-1.05    c-0.11-0.93-0.11-2.66-0.11-4.66v-8.8l2.6,0.06c1.49,0.03,2.38,0.43,2.43,1.09l0.02,0.24c0.02,0.24,0.04,0.58,0.39,0.58    c0.3,0,0.33-0.34,0.35-0.5c0-0.3,0.02-0.86,0.04-1.38c0.02-0.48,0.03-0.93,0.03-1.15C276.31,67.58,276.31,67.25,275.98,67.25    L275.98,67.25z M105.98,80.35c0-0.84-0.2-2.93-2.05-4.22c-0.44-0.32-0.93-0.46-1.73-0.5c-0.38-0.02-0.59-0.02-0.91-0.02l0,5.18    c0,1.48,0.08,1.72,0.67,1.96c0.57,0.23,1.05,0.25,1.54,0.25C103.9,83,105.98,82.87,105.98,80.35L105.98,80.35z M101.28,74.26    c0,0.07,0.01,0.09,0.01,0.09c0.21,0.05,0.53,0.07,1.02,0.07c0.76,0,1.16-0.1,1.47-0.38c0.55-0.45,0.84-1.21,0.84-2.2    c0-1.25-0.7-3.24-2.58-3.24c-0.3,0-0.49,0-0.69,0.04c-0.05,0.01-0.07,0.02-0.07,0.22V74.26L101.28,74.26z M108.97,79.37    c0,3.38-3.1,4.91-5.98,4.91c-0.14,0-0.39-0.01-0.68-0.03c-0.26-0.01-0.56-0.03-0.85-0.04c-0.68-0.05-1.32-0.07-1.63-0.07    c-0.23,0-0.72,0-1.24,0.02c-0.26,0-0.54,0.01-0.81,0.02c-0.25,0.01-0.5,0.02-0.71,0.02c-0.49,0-0.59-0.2-0.59-0.37    c0-0.22,0.17-0.33,0.5-0.33c0.33,0,0.59-0.05,0.75-0.08c0.32-0.06,0.43-0.41,0.52-1.07c0.11-0.91,0.11-2.63,0.11-4.63v-3.84    c0-3.33,0-3.93-0.04-4.62c-0.04-0.74-0.22-0.98-0.82-1.11c-0.15-0.04-0.48-0.06-0.82-0.06c-0.13,0-0.52,0-0.52-0.35    c0-0.35,0.43-0.35,0.63-0.35c0.72,0,1.54,0.03,2.13,0.04c0.37,0.01,0.67,0.02,0.84,0.02c0.58,0,1.11-0.02,1.57-0.04    c0.39-0.02,0.76-0.03,1.1-0.03c4.46,0,4.8,2.62,4.8,3.43c0,1.83-1.04,2.92-2.08,3.77C107.04,75.32,108.97,76.92,108.97,79.37    L108.97,79.37z M259.92,52.49c-0.64,0-1.58-0.09-2.18-0.17c-1.09-0.15-1.35-0.74-1.47-1.85c-0.17-1.86-0.17-5.23-0.17-9.5v-7.66    c0-6.63,0-7.82,0.09-9.2c0.08-1.49,0.41-2.02,1.35-2.19c0.5-0.08,0.84-0.13,1.25-0.13c0.67,0,1.01-0.25,1.01-0.74    c0-0.66-0.89-0.66-1.22-0.66c-0.92,0-2.12,0.04-3.18,0.08c-0.86,0.03-1.64,0.05-2.13,0.05c-0.59,0-1.49-0.03-2.46-0.06    c-1.13-0.04-2.31-0.07-3.19-0.07c-0.44,0-1.35,0-1.35,0.66c0,0.49,0.34,0.74,1.01,0.74c0.58,0,1.09,0.06,1.5,0.17    c0.59,0.13,1.14,0.49,1.24,2.15c0.09,1.38,0.09,2.58,0.09,9.2v7.66c0,4.27,0,7.64-0.22,9.45c-0.13,1.3-0.39,1.78-1.02,1.9    c-0.51,0.11-0.99,0.17-1.5,0.17c-0.83,0-1.01,0.36-1.01,0.66c0,0.34,0.2,0.75,1.18,0.75c0.99,0,2.3-0.04,3.45-0.08    c0.85-0.03,1.61-0.05,2.04-0.05c0.46,0,1.15,0.02,1.99,0.04c1.35,0.04,3.04,0.09,4.79,0.09c1.05,0,1.14-0.57,1.14-0.75    C260.92,52.95,260.83,52.49,259.92,52.49L259.92,52.49z M275.24,33.5l-1.22-0.91c-3.79-2.88-4.49-4.29-4.49-6.02    c0-2.53,1.91-4.17,4.87-4.17c2.61,0,3.82,1.15,4.5,2.02c0.88,1.09,1.06,2.39,1.06,2.68c0,0.9,0.4,1.09,0.74,1.09    c0.79,0,0.79-1.01,0.79-1.61c0-2.4,0.08-3.71,0.14-4.5c0.02-0.33,0.04-0.55,0.04-0.72c0-0.64-0.62-0.77-0.84-0.82    c-1.3-0.35-3.13-0.75-5.86-0.75c-6.1,0-10.36,3.51-10.36,8.53c0,3.8,1.96,6.96,6.56,10.55l2,1.57c3.45,2.7,4.14,4.57,4.14,6.72    c0,2.25-1.93,4.65-5.52,4.65c-1.75,0-4.84-0.54-5.92-4.17c-0.22-0.76-0.38-1.63-0.38-2.13c0-0.7-0.25-1.05-0.75-1.05    c-0.74,0-0.8,1.03-0.83,1.42l-0.01,0.13c-0.05,0.82-0.21,3.31-0.21,5.58c0,1.07,0.19,1.4,1.01,1.76c1.84,0.81,3.77,1.16,6.48,1.16    c2.84,0,5.16-0.6,7.09-1.83c3.68-2.4,4.23-5.94,4.23-7.83C282.5,40.55,280.53,37.47,275.24,33.5L275.24,33.5z M96.7,53.76    c-0.43,0-1.18,0.02-2.04,0.05c-1.15,0.04-2.45,0.08-3.45,0.08c-0.97,0-1.18-0.4-1.18-0.75c0-0.3,0.17-0.66,1.01-0.66    c0.5,0,0.99-0.05,1.5-0.17c0.63-0.13,0.89-0.61,1.02-1.9c0.22-1.81,0.22-5.18,0.22-9.45v-7.66c0-6.63,0-7.82-0.09-9.2    c-0.1-1.67-0.65-2.02-1.24-2.15c-0.4-0.11-0.92-0.17-1.5-0.17c-0.67,0-1.01-0.25-1.01-0.74c0-0.66,0.91-0.66,1.35-0.66    c0.89,0,2.06,0.04,3.2,0.07c0.97,0.03,1.87,0.06,2.46,0.06c0.48,0,1.26-0.03,2.13-0.05c1.06-0.04,2.26-0.08,3.18-0.08    c0.33,0,1.22,0,1.22,0.66c0,0.49-0.34,0.74-1.01,0.74c-0.42,0-0.75,0.04-1.25,0.13c-0.94,0.17-1.27,0.71-1.35,2.19    c-0.09,1.38-0.09,2.58-0.09,9.2v7.66c0,4.27,0,7.64,0.17,9.5c0.12,1.11,0.39,1.71,1.47,1.85c0.6,0.09,1.54,0.17,2.18,0.17    c0.91,0,1.01,0.46,1.01,0.66c0,0.18-0.08,0.75-1.14,0.75c-1.76,0-3.44-0.05-4.79-0.09C97.85,53.78,97.16,53.76,96.7,53.76    L96.7,53.76z"/>
		<path style="clip-path:url(#SVGID_00000142148259131812883340000014652653131395088557_);fill:#867650;" d="M80.08,28.39    c0,0-1.54,6.49-7.45,10.62c-6.58,4.6-17.85,6.94-23.35,8.04c-5.53,1.1-30.29,5.55-10.63,19.19c5.06-14.97,43.42-2.5,41.88-29.32    L80.08,28.39L80.08,28.39z M77.67,22.52l-0.31-8.88c-3,21.15-45.33,15.77-53.32,29.23c-2.85,4.8,0.94,9.88,4.02,13.15    C32.03,38.28,78.2,49.77,77.67,22.52L77.67,22.52z M282.5,60.71c0,0.26-0.21,0.46-0.46,0.46H90.42c-0.26,0-0.46-0.21-0.46-0.46    c0-0.26,0.21-0.46,0.46-0.46h191.62C282.29,60.24,282.5,60.45,282.5,60.71L282.5,60.71z"/>
	</g>
	<polygon class="st3" points="281.9,67.46 281.2,69.55 281.19,69.55 280.52,67.46 279.91,67.46 279.91,70.43 280.28,70.43    280.28,67.89 280.3,67.89 281.08,70.43 281.3,70.43 282.11,67.89 282.13,67.89 282.13,70.43 282.5,70.43 282.5,67.46 281.9,67.46     "/>
	<polygon class="st3" points="277.58,67.89 278.34,67.89 278.34,70.43 278.75,70.43 278.75,67.89 279.5,67.89 279.5,67.46    277.58,67.46 277.58,67.89  "/>
</g>
</svg>