<?xml version="1.0" encoding="utf-8"?>
<!-- Generator: Adobe Illustrator 26.5.0, SVG Export Plug-In . SVG Version: 6.00 Build 0)  -->
<svg version="1.1" id="Layer_1" xmlns="http://www.w3.org/2000/svg" xmlns:xlink="http://www.w3.org/1999/xlink" x="0px" y="0px"
	 viewBox="0 0 292.7 129.91" style="enable-background:new 0 0 292.7 129.91;" xml:space="preserve">
<style type="text/css">
	.st0{fill:none;}
	.st1{fill:#F7BC60;}
	.st2{fill:#FFFFFF;}
	.st3{fill:#7C0230;}
	.st4{fill:#A88B69;}
	.st5{fill:#8E0C3A;}
	.st6{font-family:'NeurialGrotesk-Regular';}
	.st7{font-size:17px;}
</style>
<pattern  x="-163.17" y="452.74" width="69" height="69" patternUnits="userSpaceOnUse" id="Polka_Dot_Pattern" viewBox="2.12 -70.9 69 69" style="overflow:visible;">
	<g>
		<rect x="2.12" y="-70.9" class="st0" width="69" height="69"/>
		<rect x="2.12" y="-70.9" class="st1" width="69" height="69"/>
		<g>
			<path class="st2" d="M61.77-71.65c0.02,0.07,0.01,0.13-0.03,0.19c-0.05,0.1-0.11,0.06-0.17,0.13c-0.05,0.06-0.1,0.28-0.08,0.36
				c-0.17,0.06-0.01,0.23-0.02,0.35c0,0.05-0.04,0.11-0.04,0.16c-0.01,0.12,0.02,0.27,0.07,0.37c0.1,0.2,0.27,0.41,0.44,0.54
				c0.19,0.15,0.36,0.57,0.61,0.63c0.18,0.04,0.38-0.1,0.54-0.14c0.18-0.04,0.4,0.01,0.57-0.05c0.22-0.08,0.13-0.34,0.29-0.45
				c0.1-0.07,0.29-0.01,0.41-0.05c0.2-0.07,0.34-0.26,0.38-0.46c0.02-0.08,0.01-0.14,0.04-0.22c0.04-0.1,0.11-0.16,0.09-0.29
				c-0.01-0.06-0.05-0.12-0.06-0.19c-0.02-0.11,0-0.22,0-0.34c0-0.2,0.02-0.38-0.08-0.55c-0.38-0.69-1.24-0.93-1.97-0.79
				c-0.18,0.03-0.29,0.13-0.44,0.21c-0.17,0.09-0.14,0.17-0.32,0.22c-0.08,0.03-0.22,0.12-0.21,0.22c0,0.12,0,0.05,0.01,0.17
				c-0.02,0.01-0.02,0-0.03-0.03"/>
			<path class="st2" d="M54.11-71.65c0.02,0.07,0.01,0.13-0.03,0.19c-0.05,0.1-0.11,0.06-0.17,0.13c-0.05,0.06-0.1,0.28-0.08,0.36
				c-0.17,0.06-0.01,0.23-0.02,0.35c0,0.05-0.04,0.11-0.04,0.16c-0.01,0.12,0.02,0.27,0.07,0.37c0.1,0.2,0.27,0.41,0.44,0.54
				c0.19,0.15,0.36,0.57,0.61,0.63c0.18,0.04,0.38-0.1,0.54-0.14c0.18-0.04,0.4,0.01,0.57-0.05c0.22-0.08,0.13-0.34,0.29-0.45
				c0.1-0.07,0.29-0.01,0.41-0.05c0.2-0.07,0.34-0.26,0.38-0.46c0.02-0.08,0.01-0.14,0.04-0.22c0.04-0.1,0.11-0.16,0.09-0.29
				c-0.01-0.06-0.05-0.12-0.06-0.19c-0.02-0.11,0-0.22,0-0.34c0-0.2,0.02-0.38-0.08-0.55c-0.38-0.69-1.24-0.93-1.97-0.79
				c-0.18,0.03-0.29,0.13-0.44,0.21c-0.17,0.09-0.14,0.17-0.32,0.22c-0.08,0.03-0.22,0.12-0.21,0.22c0,0.12,0,0.05,0.01,0.17
				c-0.02,0.01-0.02,0-0.03-0.03"/>
			<path class="st2" d="M46.44-71.65c0.02,0.07,0.01,0.13-0.03,0.19c-0.05,0.1-0.11,0.06-0.17,0.13c-0.05,0.06-0.1,0.28-0.08,0.36
				c-0.17,0.06-0.01,0.23-0.02,0.35c0,0.05-0.04,0.11-0.04,0.16c-0.01,0.12,0.02,0.27,0.07,0.37c0.1,0.2,0.27,0.41,0.44,0.54
				c0.19,0.15,0.36,0.57,0.61,0.63c0.18,0.04,0.38-0.1,0.54-0.14c0.18-0.04,0.4,0.01,0.57-0.05c0.22-0.08,0.13-0.34,0.29-0.45
				c0.1-0.07,0.29-0.01,0.41-0.05c0.2-0.07,0.34-0.26,0.38-0.46c0.02-0.08,0.01-0.14,0.04-0.22c0.04-0.1,0.11-0.16,0.09-0.29
				c-0.01-0.06-0.05-0.12-0.06-0.19c-0.02-0.11,0-0.22,0-0.34c0-0.2,0.02-0.38-0.08-0.55c-0.38-0.69-1.24-0.93-1.97-0.79
				c-0.18,0.03-0.29,0.13-0.44,0.21c-0.17,0.09-0.14,0.17-0.32,0.22c-0.08,0.03-0.22,0.12-0.21,0.22c0,0.12,0,0.05,0.01,0.17
				c-0.02,0.01-0.02,0-0.03-0.03"/>
			<path class="st2" d="M38.77-71.65c0.02,0.07,0.01,0.13-0.03,0.19c-0.05,0.1-0.11,0.06-0.17,0.13c-0.05,0.06-0.1,0.28-0.08,0.36
				c-0.17,0.06-0.01,0.23-0.02,0.35c0,0.05-0.04,0.11-0.04,0.16c-0.01,0.12,0.02,0.27,0.07,0.37c0.1,0.2,0.27,0.41,0.44,0.54
				c0.19,0.15,0.36,0.57,0.61,0.63c0.18,0.04,0.38-0.1,0.54-0.14c0.18-0.04,0.4,0.01,0.57-0.05c0.22-0.08,0.13-0.34,0.29-0.45
				c0.1-0.07,0.29-0.01,0.41-0.05c0.2-0.07,0.34-0.26,0.38-0.46c0.02-0.08,0.01-0.14,0.04-0.22c0.04-0.1,0.11-0.16,0.09-0.29
				c-0.01-0.06-0.05-0.12-0.06-0.19c-0.02-0.11,0-0.22,0-0.34c0-0.2,0.02-0.38-0.08-0.55c-0.38-0.69-1.24-0.93-1.97-0.79
				c-0.18,0.03-0.29,0.13-0.44,0.21c-0.17,0.09-0.14,0.17-0.32,0.22c-0.08,0.03-0.22,0.12-0.21,0.22c0,0.12,0,0.05,0.01,0.17
				c-0.02,0.01-0.02,0-0.03-0.03"/>
			<path class="st2" d="M31.11-71.65c0.02,0.07,0.01,0.13-0.03,0.19c-0.05,0.1-0.11,0.06-0.16,0.13c-0.05,0.06-0.1,0.28-0.08,0.36
				c-0.17,0.06-0.01,0.23-0.02,0.35c0,0.05-0.04,0.11-0.04,0.16c-0.01,0.12,0.02,0.27,0.07,0.37c0.1,0.2,0.27,0.41,0.43,0.54
				c0.19,0.15,0.36,0.57,0.61,0.63c0.18,0.04,0.38-0.1,0.54-0.14c0.18-0.04,0.4,0.01,0.57-0.05c0.22-0.08,0.13-0.34,0.29-0.45
				c0.1-0.07,0.29-0.01,0.41-0.05c0.2-0.07,0.34-0.26,0.38-0.46c0.02-0.08,0.01-0.14,0.04-0.22c0.04-0.1,0.11-0.16,0.09-0.29
				c-0.01-0.06-0.05-0.12-0.06-0.19c-0.02-0.11,0-0.22,0-0.34c0-0.2,0.02-0.38-0.08-0.55c-0.38-0.69-1.24-0.93-1.97-0.79
				c-0.18,0.03-0.29,0.13-0.44,0.21c-0.17,0.09-0.14,0.17-0.32,0.22c-0.08,0.03-0.22,0.12-0.21,0.22c0,0.12,0,0.05,0.01,0.17
				c-0.02,0.01-0.02,0-0.03-0.03"/>
			<path class="st2" d="M23.44-71.65c0.02,0.07,0.01,0.13-0.03,0.19c-0.05,0.1-0.11,0.06-0.17,0.13c-0.05,0.06-0.1,0.28-0.08,0.36
				c-0.17,0.06-0.01,0.23-0.02,0.35c0,0.05-0.04,0.11-0.04,0.16c-0.01,0.12,0.02,0.27,0.07,0.37c0.1,0.2,0.27,0.41,0.43,0.54
				c0.19,0.15,0.36,0.57,0.61,0.63c0.18,0.04,0.38-0.1,0.54-0.14c0.18-0.04,0.4,0.01,0.57-0.05c0.22-0.08,0.13-0.34,0.29-0.45
				c0.1-0.07,0.29-0.01,0.41-0.05c0.2-0.07,0.34-0.26,0.38-0.46c0.02-0.08,0.01-0.14,0.04-0.22c0.04-0.1,0.11-0.16,0.09-0.29
				c-0.01-0.06-0.05-0.12-0.06-0.19c-0.02-0.11,0-0.22,0-0.34c0-0.2,0.02-0.38-0.08-0.55c-0.38-0.69-1.24-0.93-1.97-0.79
				c-0.18,0.03-0.29,0.13-0.44,0.21c-0.17,0.09-0.14,0.17-0.32,0.22c-0.08,0.03-0.22,0.12-0.21,0.22c0,0.12,0,0.05,0.01,0.17
				c-0.02,0.01-0.02,0-0.03-0.03"/>
			<path class="st2" d="M15.77-71.65c0.02,0.07,0.01,0.13-0.03,0.19c-0.05,0.1-0.11,0.06-0.17,0.13c-0.05,0.06-0.1,0.28-0.08,0.36
				c-0.17,0.06-0.01,0.23-0.02,0.35c0,0.05-0.04,0.11-0.04,0.16c-0.01,0.12,0.02,0.27,0.07,0.37c0.1,0.2,0.27,0.41,0.44,0.54
				c0.19,0.15,0.36,0.57,0.61,0.63c0.18,0.04,0.38-0.1,0.54-0.14c0.18-0.04,0.4,0.01,0.57-0.05c0.22-0.08,0.13-0.34,0.29-0.45
				c0.1-0.07,0.29-0.01,0.41-0.05c0.2-0.07,0.34-0.26,0.38-0.46c0.02-0.08,0.01-0.14,0.04-0.22c0.04-0.1,0.11-0.16,0.09-0.29
				c-0.01-0.06-0.05-0.12-0.06-0.19c-0.02-0.11,0-0.22,0-0.34c0-0.2,0.02-0.38-0.08-0.55c-0.38-0.69-1.24-0.93-1.97-0.79
				c-0.18,0.03-0.29,0.13-0.44,0.21c-0.17,0.09-0.14,0.17-0.32,0.22c-0.08,0.03-0.22,0.12-0.21,0.22c0,0.12,0,0.05,0.01,0.17
				c-0.02,0.01-0.02,0-0.03-0.03"/>
			<path class="st2" d="M8.11-71.65c0.02,0.07,0.01,0.13-0.03,0.19c-0.05,0.1-0.11,0.06-0.17,0.13c-0.05,0.06-0.1,0.28-0.08,0.36
				c-0.17,0.06-0.01,0.23-0.02,0.35c0,0.05-0.04,0.11-0.04,0.16c-0.01,0.12,0.02,0.27,0.07,0.37c0.1,0.2,0.27,0.41,0.44,0.54
				c0.19,0.15,0.36,0.57,0.61,0.63c0.18,0.04,0.38-0.1,0.54-0.14c0.18-0.04,0.4,0.01,0.57-0.05c0.22-0.08,0.13-0.34,0.29-0.45
				c0.1-0.07,0.29-0.01,0.41-0.05c0.2-0.07,0.34-0.26,0.38-0.46c0.02-0.08,0.01-0.14,0.04-0.22c0.04-0.1,0.11-0.16,0.09-0.29
				c-0.01-0.06-0.05-0.12-0.06-0.19c-0.02-0.11,0-0.22,0-0.34c0-0.2,0.02-0.38-0.08-0.55c-0.38-0.69-1.24-0.93-1.97-0.79
				c-0.18,0.03-0.29,0.13-0.44,0.21c-0.17,0.09-0.14,0.17-0.32,0.22c-0.08,0.03-0.22,0.12-0.21,0.22c0,0.12,0,0.05,0.01,0.17
				c-0.02,0.01-0.02,0-0.03-0.03"/>
			<path class="st2" d="M0.44-71.65c0.02,0.07,0.01,0.13-0.03,0.19c-0.05,0.1-0.11,0.06-0.17,0.13c-0.05,0.06-0.1,0.28-0.08,0.36
				C0-70.92,0.16-70.75,0.15-70.62c0,0.05-0.04,0.11-0.04,0.16c-0.01,0.12,0.02,0.27,0.07,0.37c0.1,0.2,0.27,0.41,0.44,0.54
				c0.19,0.15,0.36,0.57,0.61,0.63c0.18,0.04,0.38-0.1,0.54-0.14c0.18-0.04,0.4,0.01,0.57-0.05c0.22-0.08,0.13-0.34,0.29-0.45
				c0.1-0.07,0.29-0.01,0.41-0.05c0.2-0.07,0.34-0.26,0.38-0.46c0.02-0.08,0.01-0.14,0.04-0.22c0.04-0.1,0.11-0.16,0.09-0.29
				c-0.01-0.06-0.05-0.12-0.06-0.19c-0.02-0.11,0-0.22,0-0.34c0-0.2,0.02-0.38-0.08-0.55c-0.38-0.69-1.24-0.93-1.97-0.79
				c-0.18,0.03-0.29,0.13-0.44,0.21c-0.17,0.09-0.14,0.17-0.32,0.22c-0.08,0.03-0.22,0.12-0.21,0.22c0,0.12,0,0.05,0.01,0.17
				c-0.02,0.01-0.02,0-0.03-0.03"/>
		</g>
		<g>
			<path class="st2" d="M69.44-71.65c0.02,0.07,0.01,0.13-0.03,0.19c-0.05,0.1-0.11,0.06-0.17,0.13c-0.05,0.06-0.1,0.28-0.08,0.36
				c-0.17,0.06-0.01,0.23-0.02,0.35c0,0.05-0.04,0.11-0.04,0.16c-0.01,0.12,0.02,0.27,0.07,0.37c0.1,0.2,0.27,0.41,0.43,0.54
				c0.19,0.15,0.36,0.57,0.61,0.63c0.18,0.04,0.38-0.1,0.54-0.14c0.18-0.04,0.4,0.01,0.57-0.05c0.22-0.08,0.13-0.34,0.29-0.45
				c0.1-0.07,0.29-0.01,0.41-0.05c0.2-0.07,0.34-0.26,0.38-0.46c0.02-0.08,0.01-0.14,0.04-0.22c0.04-0.1,0.11-0.16,0.09-0.29
				c-0.01-0.06-0.05-0.12-0.06-0.19c-0.02-0.11,0-0.22,0-0.34c0-0.2,0.02-0.38-0.08-0.55c-0.38-0.69-1.24-0.93-1.97-0.79
				c-0.18,0.03-0.29,0.13-0.44,0.21c-0.17,0.09-0.14,0.17-0.32,0.22c-0.08,0.03-0.22,0.12-0.21,0.22c0,0.12,0,0.05,0.01,0.17
				c-0.02,0.01-0.02,0-0.03-0.03"/>
		</g>
		<path class="st2" d="M0.5-71.65c0.02,0.07,0.01,0.13-0.03,0.19c-0.05,0.1-0.11,0.06-0.17,0.13c-0.05,0.06-0.1,0.28-0.08,0.36
			c-0.17,0.06-0.01,0.23-0.02,0.35c0,0.05-0.04,0.11-0.04,0.16c-0.01,0.12,0.02,0.27,0.07,0.37c0.1,0.2,0.27,0.41,0.44,0.54
			c0.19,0.15,0.36,0.57,0.61,0.63c0.18,0.04,0.38-0.1,0.54-0.14c0.18-0.04,0.4,0.01,0.57-0.05c0.22-0.08,0.13-0.34,0.29-0.45
			c0.1-0.07,0.29-0.01,0.41-0.05c0.2-0.07,0.34-0.26,0.38-0.46c0.02-0.08,0.01-0.14,0.04-0.22c0.04-0.1,0.11-0.16,0.09-0.29
			c-0.01-0.06-0.05-0.12-0.06-0.19c-0.02-0.11,0-0.22,0-0.34c0-0.2,0.02-0.38-0.08-0.55c-0.38-0.69-1.24-0.93-1.97-0.79
			c-0.18,0.03-0.29,0.13-0.44,0.21c-0.17,0.09-0.14,0.17-0.32,0.22c-0.08,0.03-0.22,0.12-0.21,0.22c0,0.12,0,0.05,0.01,0.17
			c-0.02,0.01-0.02,0-0.03-0.03"/>
		<g>
			<g>
				<path class="st2" d="M69.44-64c0.02,0.07,0.01,0.13-0.03,0.19c-0.05,0.1-0.11,0.06-0.17,0.13c-0.05,0.06-0.1,0.28-0.08,0.36
					c-0.17,0.06-0.01,0.23-0.02,0.35c0,0.05-0.04,0.11-0.04,0.16c-0.01,0.12,0.02,0.27,0.07,0.37c0.1,0.2,0.27,0.41,0.43,0.54
					c0.19,0.15,0.36,0.57,0.61,0.63c0.18,0.04,0.38-0.1,0.54-0.14c0.18-0.04,0.4,0.01,0.57-0.05c0.22-0.08,0.13-0.34,0.29-0.45
					c0.1-0.07,0.29-0.01,0.41-0.05c0.2-0.07,0.34-0.26,0.38-0.46c0.02-0.08,0.01-0.14,0.04-0.22c0.04-0.1,0.11-0.16,0.09-0.29
					c-0.01-0.06-0.05-0.12-0.06-0.19c-0.02-0.11,0-0.22,0-0.34c0-0.2,0.02-0.38-0.08-0.55c-0.38-0.69-1.24-0.93-1.97-0.79
					c-0.18,0.03-0.29,0.13-0.44,0.21c-0.17,0.09-0.14,0.17-0.32,0.22c-0.08,0.03-0.22,0.12-0.21,0.22c0,0.12,0,0.05,0.01,0.17
					c-0.02,0.01-0.02,0-0.03-0.03"/>
				<path class="st2" d="M61.78-64c0.02,0.07,0.01,0.13-0.03,0.19c-0.05,0.1-0.11,0.06-0.17,0.13c-0.05,0.06-0.1,0.28-0.08,0.36
					c-0.17,0.06-0.01,0.23-0.02,0.35c0,0.05-0.04,0.11-0.04,0.16c-0.01,0.12,0.02,0.27,0.07,0.37c0.1,0.2,0.27,0.41,0.44,0.54
					c0.19,0.15,0.36,0.57,0.61,0.63c0.18,0.04,0.38-0.1,0.54-0.14c0.18-0.04,0.4,0.01,0.57-0.05c0.22-0.08,0.13-0.34,0.29-0.45
					c0.1-0.07,0.29-0.01,0.41-0.05c0.2-0.07,0.34-0.26,0.38-0.46c0.02-0.08,0.01-0.14,0.04-0.22c0.04-0.1,0.11-0.16,0.09-0.29
					c-0.01-0.06-0.05-0.12-0.06-0.19c-0.02-0.11,0-0.22,0-0.34c0-0.2,0.02-0.38-0.08-0.55c-0.38-0.69-1.24-0.93-1.97-0.79
					c-0.18,0.03-0.29,0.13-0.44,0.21c-0.17,0.09-0.14,0.17-0.32,0.22c-0.08,0.03-0.22,0.12-0.21,0.22c0,0.12,0,0.05,0.01,0.17
					c-0.02,0.01-0.02,0-0.03-0.03"/>
				<path class="st2" d="M54.12-64c0.02,0.07,0.01,0.13-0.03,0.19c-0.05,0.1-0.11,0.06-0.17,0.13c-0.05,0.06-0.1,0.28-0.08,0.36
					c-0.17,0.06-0.01,0.23-0.02,0.35c0,0.05-0.04,0.11-0.04,0.16c-0.01,0.12,0.02,0.27,0.07,0.37c0.1,0.2,0.27,0.41,0.44,0.54
					c0.19,0.15,0.36,0.57,0.61,0.63c0.18,0.04,0.38-0.1,0.54-0.14c0.18-0.04,0.4,0.01,0.57-0.05c0.22-0.08,0.13-0.34,0.29-0.45
					c0.1-0.07,0.29-0.01,0.41-0.05c0.2-0.07,0.34-0.26,0.38-0.46c0.02-0.08,0.01-0.14,0.04-0.22c0.04-0.1,0.11-0.16,0.09-0.29
					c-0.01-0.06-0.05-0.12-0.06-0.19c-0.02-0.11,0-0.22,0-0.34c0-0.2,0.02-0.38-0.08-0.55c-0.38-0.69-1.24-0.93-1.97-0.79
					c-0.18,0.03-0.29,0.13-0.44,0.21c-0.17,0.09-0.14,0.17-0.32,0.22c-0.08,0.03-0.22,0.12-0.21,0.22c0,0.12,0,0.05,0.01,0.17
					c-0.02,0.01-0.02,0-0.03-0.03"/>
				<path class="st2" d="M46.46-64c0.02,0.07,0.01,0.13-0.03,0.19c-0.05,0.1-0.11,0.06-0.16,0.13c-0.05,0.06-0.1,0.28-0.08,0.36
					c-0.17,0.06-0.01,0.23-0.02,0.35c0,0.05-0.04,0.11-0.05,0.16c-0.01,0.12,0.02,0.27,0.07,0.37c0.1,0.2,0.27,0.41,0.44,0.54
					c0.19,0.15,0.36,0.57,0.61,0.63c0.18,0.04,0.38-0.1,0.54-0.14c0.18-0.04,0.4,0.01,0.57-0.05c0.22-0.08,0.13-0.34,0.29-0.45
					c0.1-0.07,0.29-0.01,0.41-0.05c0.2-0.07,0.34-0.26,0.38-0.46c0.02-0.08,0.01-0.14,0.04-0.22c0.04-0.1,0.11-0.16,0.09-0.29
					c-0.01-0.06-0.05-0.12-0.06-0.19c-0.02-0.11,0-0.22,0-0.34c0-0.2,0.02-0.38-0.08-0.55c-0.38-0.69-1.24-0.93-1.97-0.79
					c-0.18,0.03-0.29,0.13-0.44,0.21c-0.17,0.09-0.14,0.17-0.32,0.22c-0.08,0.03-0.22,0.12-0.21,0.22c0,0.12,0,0.05,0.01,0.17
					c-0.02,0.01-0.02,0-0.03-0.03"/>
				<path class="st2" d="M38.8-64c0.02,0.07,0.01,0.13-0.03,0.19c-0.05,0.1-0.11,0.06-0.17,0.13c-0.05,0.06-0.1,0.28-0.08,0.36
					c-0.17,0.06-0.01,0.23-0.02,0.35c0,0.05-0.04,0.11-0.04,0.16c-0.01,0.12,0.02,0.27,0.07,0.37c0.1,0.2,0.27,0.41,0.44,0.54
					c0.19,0.15,0.36,0.57,0.61,0.63c0.18,0.04,0.38-0.1,0.54-0.14c0.18-0.04,0.4,0.01,0.57-0.05c0.22-0.08,0.13-0.34,0.29-0.45
					c0.1-0.07,0.29-0.01,0.41-0.05c0.2-0.07,0.34-0.26,0.38-0.46c0.02-0.08,0.01-0.14,0.04-0.22c0.04-0.1,0.11-0.16,0.09-0.29
					c-0.01-0.06-0.05-0.12-0.06-0.19c-0.02-0.11,0-0.22,0-0.34c0-0.2,0.02-0.38-0.08-0.55c-0.38-0.69-1.24-0.93-1.97-0.79
					c-0.18,0.03-0.29,0.13-0.44,0.21c-0.17,0.09-0.14,0.17-0.32,0.22c-0.08,0.03-0.22,0.12-0.21,0.22c0,0.12,0,0.05,0.01,0.17
					c-0.02,0.01-0.02,0-0.03-0.03"/>
				<path class="st2" d="M31.14-64c0.02,0.07,0.01,0.13-0.03,0.19c-0.05,0.1-0.11,0.06-0.16,0.13c-0.05,0.06-0.1,0.28-0.08,0.36
					c-0.17,0.06-0.01,0.23-0.02,0.35c0,0.05-0.04,0.11-0.05,0.16c-0.01,0.12,0.02,0.27,0.07,0.37c0.1,0.2,0.27,0.41,0.44,0.54
					c0.19,0.15,0.36,0.57,0.61,0.63c0.18,0.04,0.38-0.1,0.54-0.14c0.18-0.04,0.4,0.01,0.57-0.05c0.22-0.08,0.13-0.34,0.29-0.45
					c0.1-0.07,0.29-0.01,0.41-0.05c0.2-0.07,0.34-0.26,0.38-0.46c0.02-0.08,0.01-0.14,0.04-0.22c0.04-0.1,0.11-0.16,0.09-0.29
					c-0.01-0.06-0.05-0.12-0.06-0.19c-0.02-0.11,0-0.22,0-0.34c0-0.2,0.02-0.38-0.08-0.55c-0.38-0.69-1.24-0.93-1.97-0.79
					c-0.18,0.03-0.29,0.13-0.44,0.21c-0.17,0.09-0.14,0.17-0.32,0.22c-0.08,0.03-0.22,0.12-0.21,0.22c0,0.12,0,0.05,0.01,0.17
					c-0.02,0.01-0.02,0-0.03-0.03"/>
				<path class="st2" d="M23.48-64c0.02,0.07,0.01,0.13-0.03,0.19c-0.05,0.1-0.11,0.06-0.17,0.13c-0.05,0.06-0.1,0.28-0.08,0.36
					c-0.17,0.06-0.01,0.23-0.02,0.35c0,0.05-0.04,0.11-0.04,0.16c-0.01,0.12,0.02,0.27,0.07,0.37c0.1,0.2,0.27,0.41,0.44,0.54
					c0.19,0.15,0.36,0.57,0.61,0.63c0.18,0.04,0.38-0.1,0.54-0.14c0.18-0.04,0.4,0.01,0.57-0.05c0.22-0.08,0.13-0.34,0.29-0.45
					c0.1-0.07,0.29-0.01,0.41-0.05c0.2-0.07,0.34-0.26,0.38-0.46c0.02-0.08,0.01-0.14,0.04-0.22c0.04-0.1,0.11-0.16,0.09-0.29
					c-0.01-0.06-0.05-0.12-0.06-0.19c-0.02-0.11,0-0.22,0-0.34c0-0.2,0.02-0.38-0.08-0.55c-0.38-0.69-1.24-0.93-1.97-0.79
					c-0.18,0.03-0.29,0.13-0.44,0.21c-0.17,0.09-0.14,0.17-0.32,0.22c-0.08,0.03-0.22,0.12-0.21,0.22c0,0.12,0,0.05,0.01,0.17
					c-0.02,0.01-0.02,0-0.03-0.03"/>
				<path class="st2" d="M15.82-64c0.02,0.07,0.01,0.13-0.03,0.19c-0.05,0.1-0.11,0.06-0.16,0.13c-0.05,0.06-0.1,0.28-0.08,0.36
					c-0.17,0.06-0.01,0.23-0.02,0.35c0,0.05-0.04,0.11-0.05,0.16c-0.01,0.12,0.02,0.27,0.07,0.37c0.1,0.2,0.27,0.41,0.44,0.54
					c0.19,0.15,0.36,0.57,0.61,0.63c0.18,0.04,0.38-0.1,0.54-0.14c0.18-0.04,0.4,0.01,0.57-0.05c0.22-0.08,0.13-0.34,0.29-0.45
					c0.1-0.07,0.29-0.01,0.41-0.05c0.2-0.07,0.34-0.26,0.38-0.46c0.02-0.08,0.01-0.14,0.04-0.22c0.04-0.1,0.11-0.16,0.09-0.29
					c-0.01-0.06-0.05-0.12-0.06-0.19c-0.02-0.11,0-0.22,0-0.34c0-0.2,0.02-0.38-0.08-0.55c-0.38-0.69-1.24-0.93-1.97-0.79
					c-0.18,0.03-0.29,0.13-0.44,0.21c-0.17,0.09-0.14,0.17-0.32,0.22c-0.08,0.03-0.22,0.12-0.21,0.22c0,0.12,0,0.05,0.01,0.17
					c-0.02,0.01-0.02,0-0.03-0.03"/>
				<path class="st2" d="M8.16-64c0.02,0.07,0.01,0.13-0.03,0.19c-0.05,0.1-0.11,0.06-0.17,0.13c-0.05,0.06-0.1,0.28-0.08,0.36
					c-0.17,0.06-0.01,0.23-0.02,0.35c0,0.05-0.04,0.11-0.04,0.16c-0.01,0.12,0.02,0.27,0.07,0.37c0.1,0.2,0.27,0.41,0.44,0.54
					c0.19,0.15,0.36,0.57,0.61,0.63c0.18,0.04,0.38-0.1,0.54-0.14c0.18-0.04,0.4,0.01,0.57-0.05c0.22-0.08,0.13-0.34,0.29-0.45
					c0.1-0.07,0.29-0.01,0.41-0.05c0.2-0.07,0.34-0.26,0.38-0.46c0.02-0.08,0.01-0.14,0.04-0.22c0.04-0.1,0.11-0.16,0.09-0.29
					c-0.01-0.06-0.05-0.12-0.06-0.19c-0.02-0.11,0-0.22,0-0.34c0-0.2,0.02-0.38-0.08-0.55c-0.38-0.69-1.24-0.93-1.97-0.79
					c-0.18,0.03-0.29,0.13-0.44,0.21c-0.17,0.09-0.14,0.17-0.32,0.22c-0.08,0.03-0.22,0.12-0.21,0.22c0,0.12,0,0.05,0.01,0.17
					c-0.02,0.01-0.02,0-0.03-0.03"/>
				<path class="st2" d="M0.5-64c0.02,0.07,0.01,0.13-0.03,0.19c-0.05,0.1-0.11,0.06-0.17,0.13c-0.05,0.06-0.1,0.28-0.08,0.36
					c-0.17,0.06-0.01,0.23-0.02,0.35c0,0.05-0.04,0.11-0.04,0.16c-0.01,0.12,0.02,0.27,0.07,0.37c0.1,0.2,0.27,0.41,0.44,0.54
					c0.19,0.15,0.36,0.57,0.61,0.63c0.18,0.04,0.38-0.1,0.54-0.14c0.18-0.04,0.4,0.01,0.57-0.05c0.22-0.08,0.13-0.34,0.29-0.45
					c0.1-0.07,0.29-0.01,0.41-0.05c0.2-0.07,0.34-0.26,0.38-0.46c0.02-0.08,0.01-0.14,0.04-0.22c0.04-0.1,0.11-0.16,0.09-0.29
					C3.58-63,3.54-63.05,3.53-63.12c-0.02-0.11,0-0.22,0-0.34c0-0.2,0.02-0.38-0.08-0.55c-0.38-0.69-1.24-0.93-1.97-0.79
					c-0.18,0.03-0.29,0.13-0.44,0.21c-0.17,0.09-0.14,0.17-0.32,0.22c-0.08,0.03-0.22,0.12-0.21,0.22c0,0.12,0,0.05,0.01,0.17
					c-0.02,0.01-0.02,0-0.03-0.03"/>
			</g>
			<g>
				<path class="st2" d="M69.44-56.35c0.02,0.07,0.01,0.13-0.03,0.19c-0.05,0.1-0.11,0.06-0.17,0.13c-0.05,0.06-0.1,0.28-0.08,0.36
					c-0.17,0.06-0.01,0.23-0.02,0.35c0,0.05-0.04,0.11-0.04,0.16c-0.01,0.12,0.02,0.27,0.07,0.37c0.1,0.2,0.27,0.41,0.43,0.54
					c0.19,0.15,0.36,0.57,0.61,0.63c0.18,0.04,0.38-0.1,0.54-0.14c0.18-0.04,0.4,0.01,0.57-0.05c0.22-0.08,0.13-0.34,0.29-0.45
					c0.1-0.07,0.29-0.01,0.41-0.05c0.2-0.07,0.34-0.26,0.38-0.46c0.02-0.08,0.01-0.14,0.04-0.22c0.04-0.1,0.11-0.16,0.09-0.29
					c-0.01-0.06-0.05-0.12-0.06-0.19c-0.02-0.11,0-0.22,0-0.34c0-0.2,0.02-0.38-0.08-0.55c-0.38-0.69-1.24-0.93-1.97-0.79
					c-0.18,0.03-0.29,0.13-0.44,0.21c-0.17,0.09-0.14,0.17-0.32,0.22c-0.08,0.03-0.22,0.12-0.21,0.22c0,0.12,0,0.05,0.01,0.17
					c-0.02,0.01-0.02,0-0.03-0.03"/>
				<path class="st2" d="M61.78-56.35c0.02,0.07,0.01,0.13-0.03,0.19c-0.05,0.1-0.11,0.06-0.17,0.13c-0.05,0.06-0.1,0.28-0.08,0.36
					c-0.17,0.06-0.01,0.23-0.02,0.35c0,0.05-0.04,0.11-0.04,0.16c-0.01,0.12,0.02,0.27,0.07,0.37c0.1,0.2,0.27,0.41,0.44,0.54
					c0.19,0.15,0.36,0.57,0.61,0.63c0.18,0.04,0.38-0.1,0.54-0.14c0.18-0.04,0.4,0.01,0.57-0.05c0.22-0.08,0.13-0.34,0.29-0.45
					c0.1-0.07,0.29-0.01,0.41-0.05c0.2-0.07,0.34-0.26,0.38-0.46c0.02-0.08,0.01-0.14,0.04-0.22c0.04-0.1,0.11-0.16,0.09-0.29
					c-0.01-0.06-0.05-0.12-0.06-0.19c-0.02-0.11,0-0.22,0-0.34c0-0.2,0.02-0.38-0.08-0.55c-0.38-0.69-1.24-0.93-1.97-0.79
					c-0.18,0.03-0.29,0.13-0.44,0.21c-0.17,0.09-0.14,0.17-0.32,0.22c-0.08,0.03-0.22,0.12-0.21,0.22c0,0.12,0,0.05,0.01,0.17
					c-0.02,0.01-0.02,0-0.03-0.03"/>
				<path class="st2" d="M54.12-56.35c0.02,0.07,0.01,0.13-0.03,0.19c-0.05,0.1-0.11,0.06-0.17,0.13c-0.05,0.06-0.1,0.28-0.08,0.36
					c-0.17,0.06-0.01,0.23-0.02,0.35c0,0.05-0.04,0.11-0.04,0.16c-0.01,0.12,0.02,0.27,0.07,0.37c0.1,0.2,0.27,0.41,0.44,0.54
					c0.19,0.15,0.36,0.57,0.61,0.63c0.18,0.04,0.38-0.1,0.54-0.14c0.18-0.04,0.4,0.01,0.57-0.05c0.22-0.08,0.13-0.34,0.29-0.45
					c0.1-0.07,0.29-0.01,0.41-0.05c0.2-0.07,0.34-0.26,0.38-0.46c0.02-0.08,0.01-0.14,0.04-0.22c0.04-0.1,0.11-0.16,0.09-0.29
					c-0.01-0.06-0.05-0.12-0.06-0.19c-0.02-0.11,0-0.22,0-0.34c0-0.2,0.02-0.38-0.08-0.55c-0.38-0.69-1.24-0.93-1.97-0.79
					c-0.18,0.03-0.29,0.13-0.44,0.21c-0.17,0.09-0.14,0.17-0.32,0.22c-0.08,0.03-0.22,0.12-0.21,0.22c0,0.12,0,0.05,0.01,0.17
					c-0.02,0.01-0.02,0-0.03-0.03"/>
				<path class="st2" d="M46.46-56.35c0.02,0.07,0.01,0.13-0.03,0.19c-0.05,0.1-0.11,0.06-0.16,0.13c-0.05,0.06-0.1,0.28-0.08,0.36
					c-0.17,0.06-0.01,0.23-0.02,0.35c0,0.05-0.04,0.11-0.05,0.16c-0.01,0.12,0.02,0.27,0.07,0.37c0.1,0.2,0.27,0.41,0.44,0.54
					c0.19,0.15,0.36,0.57,0.61,0.63c0.18,0.04,0.38-0.1,0.54-0.14c0.18-0.04,0.4,0.01,0.57-0.05c0.22-0.08,0.13-0.34,0.29-0.45
					c0.1-0.07,0.29-0.01,0.41-0.05c0.2-0.07,0.34-0.26,0.38-0.46c0.02-0.08,0.01-0.14,0.04-0.22c0.04-0.1,0.11-0.16,0.09-0.29
					c-0.01-0.06-0.05-0.12-0.06-0.19c-0.02-0.11,0-0.22,0-0.34c0-0.2,0.02-0.38-0.08-0.55c-0.38-0.69-1.24-0.93-1.97-0.79
					c-0.18,0.03-0.29,0.13-0.44,0.21c-0.17,0.09-0.14,0.17-0.32,0.22c-0.08,0.03-0.22,0.12-0.21,0.22c0,0.12,0,0.05,0.01,0.17
					c-0.02,0.01-0.02,0-0.03-0.03"/>
				<path class="st2" d="M38.8-56.35c0.02,0.07,0.01,0.13-0.03,0.19c-0.05,0.1-0.11,0.06-0.17,0.13c-0.05,0.06-0.1,0.28-0.08,0.36
					c-0.17,0.06-0.01,0.23-0.02,0.35c0,0.05-0.04,0.11-0.04,0.16c-0.01,0.12,0.02,0.27,0.07,0.37c0.1,0.2,0.27,0.41,0.44,0.54
					c0.19,0.15,0.36,0.57,0.61,0.63c0.18,0.04,0.38-0.1,0.54-0.14c0.18-0.04,0.4,0.01,0.57-0.05c0.22-0.08,0.13-0.34,0.29-0.45
					c0.1-0.07,0.29-0.01,0.41-0.05c0.2-0.07,0.34-0.26,0.38-0.46c0.02-0.08,0.01-0.14,0.04-0.22c0.04-0.1,0.11-0.16,0.09-0.29
					c-0.01-0.06-0.05-0.12-0.06-0.19c-0.02-0.11,0-0.22,0-0.34c0-0.2,0.02-0.38-0.08-0.55c-0.38-0.69-1.24-0.93-1.97-0.79
					c-0.18,0.03-0.29,0.13-0.44,0.21c-0.17,0.09-0.14,0.17-0.32,0.22c-0.08,0.03-0.22,0.12-0.21,0.22c0,0.12,0,0.05,0.01,0.17
					c-0.02,0.01-0.02,0-0.03-0.03"/>
				<path class="st2" d="M31.14-56.35c0.02,0.07,0.01,0.13-0.03,0.19c-0.05,0.1-0.11,0.06-0.16,0.13c-0.05,0.06-0.1,0.28-0.08,0.36
					c-0.17,0.06-0.01,0.23-0.02,0.35c0,0.05-0.04,0.11-0.05,0.16c-0.01,0.12,0.02,0.27,0.07,0.37c0.1,0.2,0.27,0.41,0.44,0.54
					c0.19,0.15,0.36,0.57,0.61,0.63c0.18,0.04,0.38-0.1,0.54-0.14c0.18-0.04,0.4,0.01,0.57-0.05c0.22-0.08,0.13-0.34,0.29-0.45
					c0.1-0.07,0.29-0.01,0.41-0.05c0.2-0.07,0.34-0.26,0.38-0.46c0.02-0.08,0.01-0.14,0.04-0.22c0.04-0.1,0.11-0.16,0.09-0.29
					c-0.01-0.06-0.05-0.12-0.06-0.19c-0.02-0.11,0-0.22,0-0.34c0-0.2,0.02-0.38-0.08-0.55c-0.38-0.69-1.24-0.93-1.97-0.79
					c-0.18,0.03-0.29,0.13-0.44,0.21c-0.17,0.09-0.14,0.17-0.32,0.22c-0.08,0.03-0.22,0.12-0.21,0.22c0,0.12,0,0.05,0.01,0.17
					c-0.02,0.01-0.02,0-0.03-0.03"/>
				<path class="st2" d="M23.48-56.35c0.02,0.07,0.01,0.13-0.03,0.19c-0.05,0.1-0.11,0.06-0.17,0.13c-0.05,0.06-0.1,0.28-0.08,0.36
					c-0.17,0.06-0.01,0.23-0.02,0.35c0,0.05-0.04,0.11-0.04,0.16c-0.01,0.12,0.02,0.27,0.07,0.37c0.1,0.2,0.27,0.41,0.44,0.54
					c0.19,0.15,0.36,0.57,0.61,0.63c0.18,0.04,0.38-0.1,0.54-0.14c0.18-0.04,0.4,0.01,0.57-0.05c0.22-0.08,0.13-0.34,0.29-0.45
					c0.1-0.07,0.29-0.01,0.41-0.05c0.2-0.07,0.34-0.26,0.38-0.46c0.02-0.08,0.01-0.14,0.04-0.22c0.04-0.1,0.11-0.16,0.09-0.29
					c-0.01-0.06-0.05-0.12-0.06-0.19c-0.02-0.11,0-0.22,0-0.34c0-0.2,0.02-0.38-0.08-0.55c-0.38-0.69-1.24-0.93-1.97-0.79
					c-0.18,0.03-0.29,0.13-0.44,0.21c-0.17,0.09-0.14,0.17-0.32,0.22c-0.08,0.03-0.22,0.12-0.21,0.22c0,0.12,0,0.05,0.01,0.17
					c-0.02,0.01-0.02,0-0.03-0.03"/>
				<path class="st2" d="M15.82-56.35c0.02,0.07,0.01,0.13-0.03,0.19c-0.05,0.1-0.11,0.06-0.16,0.13c-0.05,0.06-0.1,0.28-0.08,0.36
					c-0.17,0.06-0.01,0.23-0.02,0.35c0,0.05-0.04,0.11-0.05,0.16c-0.01,0.12,0.02,0.27,0.07,0.37c0.1,0.2,0.27,0.41,0.44,0.54
					c0.19,0.15,0.36,0.57,0.61,0.63c0.18,0.04,0.38-0.1,0.54-0.14c0.18-0.04,0.4,0.01,0.57-0.05c0.22-0.08,0.13-0.34,0.29-0.45
					c0.1-0.07,0.29-0.01,0.41-0.05c0.2-0.07,0.34-0.26,0.38-0.46c0.02-0.08,0.01-0.14,0.04-0.22c0.04-0.1,0.11-0.16,0.09-0.29
					c-0.01-0.06-0.05-0.12-0.06-0.19c-0.02-0.11,0-0.22,0-0.34c0-0.2,0.02-0.38-0.08-0.55c-0.38-0.69-1.24-0.93-1.97-0.79
					c-0.18,0.03-0.29,0.13-0.44,0.21c-0.17,0.09-0.14,0.17-0.32,0.22c-0.08,0.03-0.22,0.12-0.21,0.22c0,0.12,0,0.05,0.01,0.17
					c-0.02,0.01-0.02,0-0.03-0.03"/>
				<path class="st2" d="M8.16-56.35c0.02,0.07,0.01,0.13-0.03,0.19c-0.05,0.1-0.11,0.06-0.17,0.13c-0.05,0.06-0.1,0.28-0.08,0.36
					c-0.17,0.06-0.01,0.23-0.02,0.35c0,0.05-0.04,0.11-0.04,0.16c-0.01,0.12,0.02,0.27,0.07,0.37c0.1,0.2,0.27,0.41,0.44,0.54
					c0.19,0.15,0.36,0.57,0.61,0.63c0.18,0.04,0.38-0.1,0.54-0.14c0.18-0.04,0.4,0.01,0.57-0.05c0.22-0.08,0.13-0.34,0.29-0.45
					c0.1-0.07,0.29-0.01,0.41-0.05c0.2-0.07,0.34-0.26,0.38-0.46c0.02-0.08,0.01-0.14,0.04-0.22c0.04-0.1,0.11-0.16,0.09-0.29
					c-0.01-0.06-0.05-0.12-0.06-0.19c-0.02-0.11,0-0.22,0-0.34c0-0.2,0.02-0.38-0.08-0.55c-0.38-0.69-1.24-0.93-1.97-0.79
					c-0.18,0.03-0.29,0.13-0.44,0.21c-0.17,0.09-0.14,0.17-0.32,0.22c-0.08,0.03-0.22,0.12-0.21,0.22c0,0.12,0,0.05,0.01,0.17
					c-0.02,0.01-0.02,0-0.03-0.03"/>
				<path class="st2" d="M0.5-56.35c0.02,0.07,0.01,0.13-0.03,0.19c-0.05,0.1-0.11,0.06-0.17,0.13c-0.05,0.06-0.1,0.28-0.08,0.36
					c-0.17,0.06-0.01,0.23-0.02,0.35c0,0.05-0.04,0.11-0.04,0.16c-0.01,0.12,0.02,0.27,0.07,0.37c0.1,0.2,0.27,0.41,0.44,0.54
					c0.19,0.15,0.36,0.57,0.61,0.63c0.18,0.04,0.38-0.1,0.54-0.14c0.18-0.04,0.4,0.01,0.57-0.05c0.22-0.08,0.13-0.34,0.29-0.45
					c0.1-0.07,0.29-0.01,0.41-0.05c0.2-0.07,0.34-0.26,0.38-0.46c0.02-0.08,0.01-0.14,0.04-0.22c0.04-0.1,0.11-0.16,0.09-0.29
					c-0.01-0.06-0.05-0.12-0.06-0.19c-0.02-0.11,0-0.22,0-0.34c0-0.2,0.02-0.38-0.08-0.55c-0.38-0.69-1.24-0.93-1.97-0.79
					c-0.18,0.03-0.29,0.13-0.44,0.21c-0.17,0.09-0.14,0.17-0.32,0.22c-0.08,0.03-0.22,0.12-0.21,0.22c0,0.12,0,0.05,0.01,0.17
					c-0.02,0.01-0.02,0-0.03-0.03"/>
			</g>
			<g>
				<path class="st2" d="M69.44-48.7c0.02,0.07,0.01,0.13-0.03,0.19c-0.05,0.1-0.11,0.06-0.17,0.13c-0.05,0.06-0.1,0.28-0.08,0.36
					c-0.17,0.06-0.01,0.23-0.02,0.35c0,0.05-0.04,0.11-0.04,0.16c-0.01,0.12,0.02,0.27,0.07,0.37c0.1,0.2,0.27,0.41,0.43,0.54
					c0.19,0.15,0.36,0.57,0.61,0.63c0.18,0.04,0.38-0.1,0.54-0.14c0.18-0.04,0.4,0.01,0.57-0.05c0.22-0.08,0.13-0.34,0.29-0.45
					c0.1-0.07,0.29-0.01,0.41-0.05c0.2-0.07,0.34-0.26,0.38-0.46c0.02-0.08,0.01-0.14,0.04-0.22c0.04-0.1,0.11-0.16,0.09-0.29
					c-0.01-0.06-0.05-0.12-0.06-0.19c-0.02-0.11,0-0.22,0-0.34c0-0.2,0.02-0.38-0.08-0.55c-0.38-0.69-1.24-0.93-1.97-0.79
					c-0.18,0.03-0.29,0.13-0.44,0.21c-0.17,0.09-0.14,0.17-0.32,0.22c-0.08,0.03-0.22,0.12-0.21,0.22c0,0.12,0,0.05,0.01,0.17
					c-0.02,0.01-0.02,0-0.03-0.03"/>
				<path class="st2" d="M61.78-48.7c0.02,0.07,0.01,0.13-0.03,0.19c-0.05,0.1-0.11,0.06-0.17,0.13c-0.05,0.06-0.1,0.28-0.08,0.36
					c-0.17,0.06-0.01,0.23-0.02,0.35c0,0.05-0.04,0.11-0.04,0.16c-0.01,0.12,0.02,0.27,0.07,0.37c0.1,0.2,0.27,0.41,0.44,0.54
					c0.19,0.15,0.36,0.57,0.61,0.63c0.18,0.04,0.38-0.1,0.54-0.14c0.18-0.04,0.4,0.01,0.57-0.05c0.22-0.08,0.13-0.34,0.29-0.45
					c0.1-0.07,0.29-0.01,0.41-0.05c0.2-0.07,0.34-0.26,0.38-0.46c0.02-0.08,0.01-0.14,0.04-0.22c0.04-0.1,0.11-0.16,0.09-0.29
					c-0.01-0.06-0.05-0.12-0.06-0.19c-0.02-0.11,0-0.22,0-0.34c0-0.2,0.02-0.38-0.08-0.55c-0.38-0.69-1.24-0.93-1.97-0.79
					c-0.18,0.03-0.29,0.13-0.44,0.21c-0.17,0.09-0.14,0.17-0.32,0.22c-0.08,0.03-0.22,0.12-0.21,0.22c0,0.12,0,0.05,0.01,0.17
					c-0.02,0.01-0.02,0-0.03-0.03"/>
				<path class="st2" d="M54.12-48.7c0.02,0.07,0.01,0.13-0.03,0.19c-0.05,0.1-0.11,0.06-0.17,0.13c-0.05,0.06-0.1,0.28-0.08,0.36
					c-0.17,0.06-0.01,0.23-0.02,0.35c0,0.05-0.04,0.11-0.04,0.16c-0.01,0.12,0.02,0.27,0.07,0.37c0.1,0.2,0.27,0.41,0.44,0.54
					c0.19,0.15,0.36,0.57,0.61,0.63c0.18,0.04,0.38-0.1,0.54-0.14c0.18-0.04,0.4,0.01,0.57-0.05c0.22-0.08,0.13-0.34,0.29-0.45
					c0.1-0.07,0.29-0.01,0.41-0.05c0.2-0.07,0.34-0.26,0.38-0.46c0.02-0.08,0.01-0.14,0.04-0.22c0.04-0.1,0.11-0.16,0.09-0.29
					c-0.01-0.06-0.05-0.12-0.06-0.19c-0.02-0.11,0-0.22,0-0.34c0-0.2,0.02-0.38-0.08-0.55c-0.38-0.69-1.24-0.93-1.97-0.79
					c-0.18,0.03-0.29,0.13-0.44,0.21c-0.17,0.09-0.14,0.17-0.32,0.22c-0.08,0.03-0.22,0.12-0.21,0.22c0,0.12,0,0.05,0.01,0.17
					c-0.02,0.01-0.02,0-0.03-0.03"/>
				<path class="st2" d="M46.46-48.7c0.02,0.07,0.01,0.13-0.03,0.19c-0.05,0.1-0.11,0.06-0.16,0.13c-0.05,0.06-0.1,0.28-0.08,0.36
					c-0.17,0.06-0.01,0.23-0.02,0.35c0,0.05-0.04,0.11-0.05,0.16c-0.01,0.12,0.02,0.27,0.07,0.37c0.1,0.2,0.27,0.41,0.44,0.54
					c0.19,0.15,0.36,0.57,0.61,0.63c0.18,0.04,0.38-0.1,0.54-0.14c0.18-0.04,0.4,0.01,0.57-0.05c0.22-0.08,0.13-0.34,0.29-0.45
					c0.1-0.07,0.29-0.01,0.41-0.05c0.2-0.07,0.34-0.26,0.38-0.46c0.02-0.08,0.01-0.14,0.04-0.22c0.04-0.1,0.11-0.16,0.09-0.29
					c-0.01-0.06-0.05-0.12-0.06-0.19c-0.02-0.11,0-0.22,0-0.34c0-0.2,0.02-0.38-0.08-0.55c-0.38-0.69-1.24-0.93-1.97-0.79
					c-0.18,0.03-0.29,0.13-0.44,0.21c-0.17,0.09-0.14,0.17-0.32,0.22c-0.08,0.03-0.22,0.12-0.21,0.22c0,0.12,0,0.05,0.01,0.17
					c-0.02,0.01-0.02,0-0.03-0.03"/>
				<path class="st2" d="M38.8-48.7c0.02,0.07,0.01,0.13-0.03,0.19c-0.05,0.1-0.11,0.06-0.17,0.13c-0.05,0.06-0.1,0.28-0.08,0.36
					c-0.17,0.06-0.01,0.23-0.02,0.35c0,0.05-0.04,0.11-0.04,0.16c-0.01,0.12,0.02,0.27,0.07,0.37c0.1,0.2,0.27,0.41,0.44,0.54
					c0.19,0.15,0.36,0.57,0.61,0.63c0.18,0.04,0.38-0.1,0.54-0.14c0.18-0.04,0.4,0.01,0.57-0.05c0.22-0.08,0.13-0.34,0.29-0.45
					c0.1-0.07,0.29-0.01,0.41-0.05c0.2-0.07,0.34-0.26,0.38-0.46c0.02-0.08,0.01-0.14,0.04-0.22c0.04-0.1,0.11-0.16,0.09-0.29
					c-0.01-0.06-0.05-0.12-0.06-0.19c-0.02-0.11,0-0.22,0-0.34c0-0.2,0.02-0.38-0.08-0.55c-0.38-0.69-1.24-0.93-1.97-0.79
					c-0.18,0.03-0.29,0.13-0.44,0.21c-0.17,0.09-0.14,0.17-0.32,0.22c-0.08,0.03-0.22,0.12-0.21,0.22c0,0.12,0,0.05,0.01,0.17
					c-0.02,0.01-0.02,0-0.03-0.03"/>
				<path class="st2" d="M31.14-48.7c0.02,0.07,0.01,0.13-0.03,0.19c-0.05,0.1-0.11,0.06-0.16,0.13c-0.05,0.06-0.1,0.28-0.08,0.36
					c-0.17,0.06-0.01,0.23-0.02,0.35c0,0.05-0.04,0.11-0.05,0.16c-0.01,0.12,0.02,0.27,0.07,0.37c0.1,0.2,0.27,0.41,0.44,0.54
					c0.19,0.15,0.36,0.57,0.61,0.63c0.18,0.04,0.38-0.1,0.54-0.14c0.18-0.04,0.4,0.01,0.57-0.05c0.22-0.08,0.13-0.34,0.29-0.45
					c0.1-0.07,0.29-0.01,0.41-0.05c0.2-0.07,0.34-0.26,0.38-0.46c0.02-0.08,0.01-0.14,0.04-0.22c0.04-0.1,0.11-0.16,0.09-0.29
					c-0.01-0.06-0.05-0.12-0.06-0.19c-0.02-0.11,0-0.22,0-0.34c0-0.2,0.02-0.38-0.08-0.55c-0.38-0.69-1.24-0.93-1.97-0.79
					c-0.18,0.03-0.29,0.13-0.44,0.21c-0.17,0.09-0.14,0.17-0.32,0.22c-0.08,0.03-0.22,0.12-0.21,0.22c0,0.12,0,0.05,0.01,0.17
					c-0.02,0.01-0.02,0-0.03-0.03"/>
				<path class="st2" d="M23.48-48.7c0.02,0.07,0.01,0.13-0.03,0.19c-0.05,0.1-0.11,0.06-0.17,0.13c-0.05,0.06-0.1,0.28-0.08,0.36
					c-0.17,0.06-0.01,0.23-0.02,0.35c0,0.05-0.04,0.11-0.04,0.16c-0.01,0.12,0.02,0.27,0.07,0.37c0.1,0.2,0.27,0.41,0.44,0.54
					c0.19,0.15,0.36,0.57,0.61,0.63c0.18,0.04,0.38-0.1,0.54-0.14c0.18-0.04,0.4,0.01,0.57-0.05c0.22-0.08,0.13-0.34,0.29-0.45
					c0.1-0.07,0.29-0.01,0.41-0.05c0.2-0.07,0.34-0.26,0.38-0.46c0.02-0.08,0.01-0.14,0.04-0.22c0.04-0.1,0.11-0.16,0.09-0.29
					c-0.01-0.06-0.05-0.12-0.06-0.19c-0.02-0.11,0-0.22,0-0.34c0-0.2,0.02-0.38-0.08-0.55c-0.38-0.69-1.24-0.93-1.97-0.79
					c-0.18,0.03-0.29,0.13-0.44,0.21c-0.17,0.09-0.14,0.17-0.32,0.22c-0.08,0.03-0.22,0.12-0.21,0.22c0,0.12,0,0.05,0.01,0.17
					c-0.02,0.01-0.02,0-0.03-0.03"/>
				<path class="st2" d="M15.82-48.7c0.02,0.07,0.01,0.13-0.03,0.19c-0.05,0.1-0.11,0.06-0.16,0.13c-0.05,0.06-0.1,0.28-0.08,0.36
					c-0.17,0.06-0.01,0.23-0.02,0.35c0,0.05-0.04,0.11-0.05,0.16c-0.01,0.12,0.02,0.27,0.07,0.37c0.1,0.2,0.27,0.41,0.44,0.54
					c0.19,0.15,0.36,0.57,0.61,0.63c0.18,0.04,0.38-0.1,0.54-0.14c0.18-0.04,0.4,0.01,0.57-0.05c0.22-0.08,0.13-0.34,0.29-0.45
					c0.1-0.07,0.29-0.01,0.41-0.05c0.2-0.07,0.34-0.26,0.38-0.46c0.02-0.08,0.01-0.14,0.04-0.22c0.04-0.1,0.11-0.16,0.09-0.29
					c-0.01-0.06-0.05-0.12-0.06-0.19c-0.02-0.11,0-0.22,0-0.34c0-0.2,0.02-0.38-0.08-0.55c-0.38-0.69-1.24-0.93-1.97-0.79
					c-0.18,0.03-0.29,0.13-0.44,0.21c-0.17,0.09-0.14,0.17-0.32,0.22c-0.08,0.03-0.22,0.12-0.21,0.22c0,0.12,0,0.05,0.01,0.17
					c-0.02,0.01-0.02,0-0.03-0.03"/>
				<path class="st2" d="M8.16-48.7c0.02,0.07,0.01,0.13-0.03,0.19c-0.05,0.1-0.11,0.06-0.17,0.13c-0.05,0.06-0.1,0.28-0.08,0.36
					c-0.17,0.06-0.01,0.23-0.02,0.35c0,0.05-0.04,0.11-0.04,0.16c-0.01,0.12,0.02,0.27,0.07,0.37c0.1,0.2,0.27,0.41,0.44,0.54
					c0.19,0.15,0.36,0.57,0.61,0.63c0.18,0.04,0.38-0.1,0.54-0.14c0.18-0.04,0.4,0.01,0.57-0.05c0.22-0.08,0.13-0.34,0.29-0.45
					c0.1-0.07,0.29-0.01,0.41-0.05c0.2-0.07,0.34-0.26,0.38-0.46c0.02-0.08,0.01-0.14,0.04-0.22c0.04-0.1,0.11-0.16,0.09-0.29
					c-0.01-0.06-0.05-0.12-0.06-0.19c-0.02-0.11,0-0.22,0-0.34c0-0.2,0.02-0.38-0.08-0.55c-0.38-0.69-1.24-0.93-1.97-0.79
					c-0.18,0.03-0.29,0.13-0.44,0.21c-0.17,0.09-0.14,0.17-0.32,0.22c-0.08,0.03-0.22,0.12-0.21,0.22c0,0.12,0,0.05,0.01,0.17
					c-0.02,0.01-0.02,0-0.03-0.03"/>
				<path class="st2" d="M0.5-48.7c0.02,0.07,0.01,0.13-0.03,0.19c-0.05,0.1-0.11,0.06-0.17,0.13c-0.05,0.06-0.1,0.28-0.08,0.36
					c-0.17,0.06-0.01,0.23-0.02,0.35c0,0.05-0.04,0.11-0.04,0.16c-0.01,0.12,0.02,0.27,0.07,0.37c0.1,0.2,0.27,0.41,0.44,0.54
					c0.19,0.15,0.36,0.57,0.61,0.63c0.18,0.04,0.38-0.1,0.54-0.14c0.18-0.04,0.4,0.01,0.57-0.05c0.22-0.08,0.13-0.34,0.29-0.45
					c0.1-0.07,0.29-0.01,0.41-0.05c0.2-0.07,0.34-0.26,0.38-0.46c0.02-0.08,0.01-0.14,0.04-0.22c0.04-0.1,0.11-0.16,0.09-0.29
					c-0.01-0.06-0.05-0.12-0.06-0.19c-0.02-0.11,0-0.22,0-0.34c0-0.2,0.02-0.38-0.08-0.55c-0.38-0.69-1.24-0.93-1.97-0.79
					c-0.18,0.03-0.29,0.13-0.44,0.21c-0.17,0.09-0.14,0.17-0.32,0.22c-0.08,0.03-0.22,0.12-0.21,0.22c0,0.12,0,0.05,0.01,0.17
					c-0.02,0.01-0.02,0-0.03-0.03"/>
			</g>
			<g>
				<path class="st2" d="M69.44-41.04c0.02,0.07,0.01,0.13-0.03,0.19c-0.05,0.1-0.11,0.06-0.17,0.13c-0.05,0.06-0.1,0.28-0.08,0.36
					c-0.17,0.06-0.01,0.23-0.02,0.35c0,0.05-0.04,0.11-0.04,0.16c-0.01,0.12,0.02,0.27,0.07,0.37c0.1,0.2,0.27,0.41,0.43,0.54
					c0.19,0.15,0.36,0.57,0.61,0.63c0.18,0.04,0.38-0.1,0.54-0.14c0.18-0.04,0.4,0.01,0.57-0.05c0.22-0.08,0.13-0.34,0.29-0.45
					c0.1-0.07,0.29-0.01,0.41-0.05c0.2-0.07,0.34-0.26,0.38-0.46c0.02-0.08,0.01-0.14,0.04-0.22c0.04-0.1,0.11-0.16,0.09-0.29
					c-0.01-0.06-0.05-0.12-0.06-0.19c-0.02-0.11,0-0.22,0-0.34c0-0.2,0.02-0.38-0.08-0.55c-0.38-0.69-1.24-0.93-1.97-0.79
					c-0.18,0.03-0.29,0.13-0.44,0.21c-0.17,0.09-0.14,0.17-0.32,0.22c-0.08,0.03-0.22,0.12-0.21,0.22c0,0.12,0,0.05,0.01,0.17
					c-0.02,0.01-0.02,0-0.03-0.03"/>
				<path class="st2" d="M61.78-41.04c0.02,0.07,0.01,0.13-0.03,0.19c-0.05,0.1-0.11,0.06-0.17,0.13c-0.05,0.06-0.1,0.28-0.08,0.36
					c-0.17,0.06-0.01,0.23-0.02,0.35c0,0.05-0.04,0.11-0.04,0.16c-0.01,0.12,0.02,0.27,0.07,0.37c0.1,0.2,0.27,0.41,0.44,0.54
					c0.19,0.15,0.36,0.57,0.61,0.63c0.18,0.04,0.38-0.1,0.54-0.14c0.18-0.04,0.4,0.01,0.57-0.05c0.22-0.08,0.13-0.34,0.29-0.45
					c0.1-0.07,0.29-0.01,0.41-0.05c0.2-0.07,0.34-0.26,0.38-0.46c0.02-0.08,0.01-0.14,0.04-0.22c0.04-0.1,0.11-0.16,0.09-0.29
					c-0.01-0.06-0.05-0.12-0.06-0.19c-0.02-0.11,0-0.22,0-0.34c0-0.2,0.02-0.38-0.08-0.55c-0.38-0.69-1.24-0.93-1.97-0.79
					c-0.18,0.03-0.29,0.13-0.44,0.21c-0.17,0.09-0.14,0.17-0.32,0.22c-0.08,0.03-0.22,0.12-0.21,0.22c0,0.12,0,0.05,0.01,0.17
					c-0.02,0.01-0.02,0-0.03-0.03"/>
				<path class="st2" d="M54.12-41.04c0.02,0.07,0.01,0.13-0.03,0.19c-0.05,0.1-0.11,0.06-0.17,0.13c-0.05,0.06-0.1,0.28-0.08,0.36
					c-0.17,0.06-0.01,0.23-0.02,0.35c0,0.05-0.04,0.11-0.04,0.16c-0.01,0.12,0.02,0.27,0.07,0.37c0.1,0.2,0.27,0.41,0.44,0.54
					c0.19,0.15,0.36,0.57,0.61,0.63c0.18,0.04,0.38-0.1,0.54-0.14c0.18-0.04,0.4,0.01,0.57-0.05c0.22-0.08,0.13-0.34,0.29-0.45
					c0.1-0.07,0.29-0.01,0.41-0.05c0.2-0.07,0.34-0.26,0.38-0.46c0.02-0.08,0.01-0.14,0.04-0.22c0.04-0.1,0.11-0.16,0.09-0.29
					c-0.01-0.06-0.05-0.12-0.06-0.19c-0.02-0.11,0-0.22,0-0.34c0-0.2,0.02-0.38-0.08-0.55c-0.38-0.69-1.24-0.93-1.97-0.79
					c-0.18,0.03-0.29,0.13-0.44,0.21c-0.17,0.09-0.14,0.17-0.32,0.22c-0.08,0.03-0.22,0.12-0.21,0.22c0,0.12,0,0.05,0.01,0.17
					c-0.02,0.01-0.02,0-0.03-0.03"/>
				<path class="st2" d="M46.46-41.04c0.02,0.07,0.01,0.13-0.03,0.19c-0.05,0.1-0.11,0.06-0.16,0.13c-0.05,0.06-0.1,0.28-0.08,0.36
					c-0.17,0.06-0.01,0.23-0.02,0.35c0,0.05-0.04,0.11-0.05,0.16c-0.01,0.12,0.02,0.27,0.07,0.37c0.1,0.2,0.27,0.41,0.44,0.54
					c0.19,0.15,0.36,0.57,0.61,0.63c0.18,0.04,0.38-0.1,0.54-0.14c0.18-0.04,0.4,0.01,0.57-0.05c0.22-0.08,0.13-0.34,0.29-0.45
					c0.1-0.07,0.29-0.01,0.41-0.05c0.2-0.07,0.34-0.26,0.38-0.46c0.02-0.08,0.01-0.14,0.04-0.22c0.04-0.1,0.11-0.16,0.09-0.29
					c-0.01-0.06-0.05-0.12-0.06-0.19c-0.02-0.11,0-0.22,0-0.34c0-0.2,0.02-0.38-0.08-0.55c-0.38-0.69-1.24-0.93-1.97-0.79
					c-0.18,0.03-0.29,0.13-0.44,0.21c-0.17,0.09-0.14,0.17-0.32,0.22c-0.08,0.03-0.22,0.12-0.21,0.22c0,0.12,0,0.05,0.01,0.17
					c-0.02,0.01-0.02,0-0.03-0.03"/>
				<path class="st2" d="M38.8-41.04c0.02,0.07,0.01,0.13-0.03,0.19c-0.05,0.1-0.11,0.06-0.17,0.13c-0.05,0.06-0.1,0.28-0.08,0.36
					c-0.17,0.06-0.01,0.23-0.02,0.35c0,0.05-0.04,0.11-0.04,0.16c-0.01,0.12,0.02,0.27,0.07,0.37c0.1,0.2,0.27,0.41,0.44,0.54
					c0.19,0.15,0.36,0.57,0.61,0.63c0.18,0.04,0.38-0.1,0.54-0.14c0.18-0.04,0.4,0.01,0.57-0.05c0.22-0.08,0.13-0.34,0.29-0.45
					c0.1-0.07,0.29-0.01,0.41-0.05c0.2-0.07,0.34-0.26,0.38-0.46c0.02-0.08,0.01-0.14,0.04-0.22c0.04-0.1,0.11-0.16,0.09-0.29
					c-0.01-0.06-0.05-0.12-0.06-0.19c-0.02-0.11,0-0.22,0-0.34c0-0.2,0.02-0.38-0.08-0.55c-0.38-0.69-1.24-0.93-1.97-0.79
					c-0.18,0.03-0.29,0.13-0.44,0.21c-0.17,0.09-0.14,0.17-0.32,0.22c-0.08,0.03-0.22,0.12-0.21,0.22c0,0.12,0,0.05,0.01,0.17
					c-0.02,0.01-0.02,0-0.03-0.03"/>
				<path class="st2" d="M31.14-41.04c0.02,0.07,0.01,0.13-0.03,0.19c-0.05,0.1-0.11,0.06-0.16,0.13c-0.05,0.06-0.1,0.28-0.08,0.36
					c-0.17,0.06-0.01,0.23-0.02,0.35c0,0.05-0.04,0.11-0.05,0.16c-0.01,0.12,0.02,0.27,0.07,0.37c0.1,0.2,0.27,0.41,0.44,0.54
					c0.19,0.15,0.36,0.57,0.61,0.63c0.18,0.04,0.38-0.1,0.54-0.14c0.18-0.04,0.4,0.01,0.57-0.05c0.22-0.08,0.13-0.34,0.29-0.45
					c0.1-0.07,0.29-0.01,0.41-0.05c0.2-0.07,0.34-0.26,0.38-0.46c0.02-0.08,0.01-0.14,0.04-0.22c0.04-0.1,0.11-0.16,0.09-0.29
					c-0.01-0.06-0.05-0.12-0.06-0.19c-0.02-0.11,0-0.22,0-0.34c0-0.2,0.02-0.38-0.08-0.55c-0.38-0.69-1.24-0.93-1.97-0.79
					c-0.18,0.03-0.29,0.13-0.44,0.21c-0.17,0.09-0.14,0.17-0.32,0.22c-0.08,0.03-0.22,0.12-0.21,0.22c0,0.12,0,0.05,0.01,0.17
					c-0.02,0.01-0.02,0-0.03-0.03"/>
				<path class="st2" d="M23.48-41.04c0.02,0.07,0.01,0.13-0.03,0.19c-0.05,0.1-0.11,0.06-0.17,0.13c-0.05,0.06-0.1,0.28-0.08,0.36
					c-0.17,0.06-0.01,0.23-0.02,0.35c0,0.05-0.04,0.11-0.04,0.16c-0.01,0.12,0.02,0.27,0.07,0.37c0.1,0.2,0.27,0.41,0.44,0.54
					c0.19,0.15,0.36,0.57,0.61,0.63c0.18,0.04,0.38-0.1,0.54-0.14c0.18-0.04,0.4,0.01,0.57-0.05c0.22-0.08,0.13-0.34,0.29-0.45
					c0.1-0.07,0.29-0.01,0.41-0.05c0.2-0.07,0.34-0.26,0.38-0.46c0.02-0.08,0.01-0.14,0.04-0.22c0.04-0.1,0.11-0.16,0.09-0.29
					c-0.01-0.06-0.05-0.12-0.06-0.19c-0.02-0.11,0-0.22,0-0.34c0-0.2,0.02-0.38-0.08-0.55c-0.38-0.69-1.24-0.93-1.97-0.79
					c-0.18,0.03-0.29,0.13-0.44,0.21c-0.17,0.09-0.14,0.17-0.32,0.22c-0.08,0.03-0.22,0.12-0.21,0.22c0,0.12,0,0.05,0.01,0.17
					c-0.02,0.01-0.02,0-0.03-0.03"/>
				<path class="st2" d="M15.82-41.04c0.02,0.07,0.01,0.13-0.03,0.19c-0.05,0.1-0.11,0.06-0.16,0.13c-0.05,0.06-0.1,0.28-0.08,0.36
					c-0.17,0.06-0.01,0.23-0.02,0.35c0,0.05-0.04,0.11-0.05,0.16c-0.01,0.12,0.02,0.27,0.07,0.37c0.1,0.2,0.27,0.41,0.44,0.54
					c0.19,0.15,0.36,0.57,0.61,0.63c0.18,0.04,0.38-0.1,0.54-0.14c0.18-0.04,0.4,0.01,0.57-0.05c0.22-0.08,0.13-0.34,0.29-0.45
					c0.1-0.07,0.29-0.01,0.41-0.05c0.2-0.07,0.34-0.26,0.38-0.46c0.02-0.08,0.01-0.14,0.04-0.22c0.04-0.1,0.11-0.16,0.09-0.29
					c-0.01-0.06-0.05-0.12-0.06-0.19c-0.02-0.11,0-0.22,0-0.34c0-0.2,0.02-0.38-0.08-0.55c-0.38-0.69-1.24-0.93-1.97-0.79
					c-0.18,0.03-0.29,0.13-0.44,0.21c-0.17,0.09-0.14,0.17-0.32,0.22c-0.08,0.03-0.22,0.12-0.21,0.22c0,0.12,0,0.05,0.01,0.17
					c-0.02,0.01-0.02,0-0.03-0.03"/>
				<path class="st2" d="M8.16-41.04c0.02,0.07,0.01,0.13-0.03,0.19c-0.05,0.1-0.11,0.06-0.17,0.13c-0.05,0.06-0.1,0.28-0.08,0.36
					c-0.17,0.06-0.01,0.23-0.02,0.35c0,0.05-0.04,0.11-0.04,0.16c-0.01,0.12,0.02,0.27,0.07,0.37c0.1,0.2,0.27,0.41,0.44,0.54
					c0.19,0.15,0.36,0.57,0.61,0.63c0.18,0.04,0.38-0.1,0.54-0.14c0.18-0.04,0.4,0.01,0.57-0.05c0.22-0.08,0.13-0.34,0.29-0.45
					c0.1-0.07,0.29-0.01,0.41-0.05c0.2-0.07,0.34-0.26,0.38-0.46c0.02-0.08,0.01-0.14,0.04-0.22c0.04-0.1,0.11-0.16,0.09-0.29
					c-0.01-0.06-0.05-0.12-0.06-0.19c-0.02-0.11,0-0.22,0-0.34c0-0.2,0.02-0.38-0.08-0.55c-0.38-0.69-1.24-0.93-1.97-0.79
					c-0.18,0.03-0.29,0.13-0.44,0.21c-0.17,0.09-0.14,0.17-0.32,0.22c-0.08,0.03-0.22,0.12-0.21,0.22c0,0.12,0,0.05,0.01,0.17
					c-0.02,0.01-0.02,0-0.03-0.03"/>
				<path class="st2" d="M0.5-41.04c0.02,0.07,0.01,0.13-0.03,0.19c-0.05,0.1-0.11,0.06-0.17,0.13c-0.05,0.06-0.1,0.28-0.08,0.36
					c-0.17,0.06-0.01,0.23-0.02,0.35c0,0.05-0.04,0.11-0.04,0.16c-0.01,0.12,0.02,0.27,0.07,0.37c0.1,0.2,0.27,0.41,0.44,0.54
					c0.19,0.15,0.36,0.57,0.61,0.63c0.18,0.04,0.38-0.1,0.54-0.14c0.18-0.04,0.4,0.01,0.57-0.05c0.22-0.08,0.13-0.34,0.29-0.45
					c0.1-0.07,0.29-0.01,0.41-0.05c0.2-0.07,0.34-0.26,0.38-0.46c0.02-0.08,0.01-0.14,0.04-0.22c0.04-0.1,0.11-0.16,0.09-0.29
					c-0.01-0.06-0.05-0.12-0.06-0.19c-0.02-0.11,0-0.22,0-0.34c0-0.2,0.02-0.38-0.08-0.55c-0.38-0.69-1.24-0.93-1.97-0.79
					c-0.18,0.03-0.29,0.13-0.44,0.21c-0.17,0.09-0.14,0.17-0.32,0.22c-0.08,0.03-0.22,0.12-0.21,0.22c0,0.12,0,0.05,0.01,0.17
					c-0.02,0.01-0.02,0-0.03-0.03"/>
			</g>
			<g>
				<path class="st2" d="M69.44-33.39c0.02,0.07,0.01,0.13-0.03,0.19c-0.05,0.1-0.11,0.06-0.17,0.13c-0.05,0.06-0.1,0.28-0.08,0.36
					c-0.17,0.06-0.01,0.23-0.02,0.35c0,0.05-0.04,0.11-0.04,0.16c-0.01,0.12,0.02,0.27,0.07,0.37c0.1,0.2,0.27,0.41,0.43,0.54
					c0.19,0.15,0.36,0.57,0.61,0.63c0.18,0.04,0.38-0.1,0.54-0.14c0.18-0.04,0.4,0.01,0.57-0.05c0.22-0.08,0.13-0.34,0.29-0.45
					c0.1-0.07,0.29-0.01,0.41-0.05c0.2-0.07,0.34-0.26,0.38-0.46c0.02-0.08,0.01-0.14,0.04-0.22c0.04-0.1,0.11-0.16,0.09-0.29
					c-0.01-0.06-0.05-0.12-0.06-0.19c-0.02-0.11,0-0.22,0-0.34c0-0.2,0.02-0.38-0.08-0.55c-0.38-0.69-1.24-0.93-1.97-0.79
					c-0.18,0.03-0.29,0.13-0.44,0.21c-0.17,0.09-0.14,0.17-0.32,0.22c-0.08,0.03-0.22,0.12-0.21,0.22c0,0.12,0,0.05,0.01,0.17
					c-0.02,0.01-0.02,0-0.03-0.03"/>
				<path class="st2" d="M61.78-33.39c0.02,0.07,0.01,0.13-0.03,0.19c-0.05,0.1-0.11,0.06-0.17,0.13c-0.05,0.06-0.1,0.28-0.08,0.36
					c-0.17,0.06-0.01,0.23-0.02,0.35c0,0.05-0.04,0.11-0.04,0.16c-0.01,0.12,0.02,0.27,0.07,0.37c0.1,0.2,0.27,0.41,0.44,0.54
					c0.19,0.15,0.36,0.57,0.61,0.63c0.18,0.04,0.38-0.1,0.54-0.14c0.18-0.04,0.4,0.01,0.57-0.05c0.22-0.08,0.13-0.34,0.29-0.45
					c0.1-0.07,0.29-0.01,0.41-0.05c0.2-0.07,0.34-0.26,0.38-0.46c0.02-0.08,0.01-0.14,0.04-0.22c0.04-0.1,0.11-0.16,0.09-0.29
					c-0.01-0.06-0.05-0.12-0.06-0.19c-0.02-0.11,0-0.22,0-0.34c0-0.2,0.02-0.38-0.08-0.55c-0.38-0.69-1.24-0.93-1.97-0.79
					c-0.18,0.03-0.29,0.13-0.44,0.21c-0.17,0.09-0.14,0.17-0.32,0.22c-0.08,0.03-0.22,0.12-0.21,0.22c0,0.12,0,0.05,0.01,0.17
					c-0.02,0.01-0.02,0-0.03-0.03"/>
				<path class="st2" d="M54.12-33.39c0.02,0.07,0.01,0.13-0.03,0.19c-0.05,0.1-0.11,0.06-0.17,0.13c-0.05,0.06-0.1,0.28-0.08,0.36
					c-0.17,0.06-0.01,0.23-0.02,0.35c0,0.05-0.04,0.11-0.04,0.16c-0.01,0.12,0.02,0.27,0.07,0.37c0.1,0.2,0.27,0.41,0.44,0.54
					c0.19,0.15,0.36,0.57,0.61,0.63c0.18,0.04,0.38-0.1,0.54-0.14c0.18-0.04,0.4,0.01,0.57-0.05c0.22-0.08,0.13-0.34,0.29-0.45
					c0.1-0.07,0.29-0.01,0.41-0.05c0.2-0.07,0.34-0.26,0.38-0.46c0.02-0.08,0.01-0.14,0.04-0.22c0.04-0.1,0.11-0.16,0.09-0.29
					c-0.01-0.06-0.05-0.12-0.06-0.19c-0.02-0.11,0-0.22,0-0.34c0-0.2,0.02-0.38-0.08-0.55c-0.38-0.69-1.24-0.93-1.97-0.79
					c-0.18,0.03-0.29,0.13-0.44,0.21c-0.17,0.09-0.14,0.17-0.32,0.22c-0.08,0.03-0.22,0.12-0.21,0.22c0,0.12,0,0.05,0.01,0.17
					c-0.02,0.01-0.02,0-0.03-0.03"/>
				<path class="st2" d="M46.46-33.39c0.02,0.07,0.01,0.13-0.03,0.19c-0.05,0.1-0.11,0.06-0.16,0.13c-0.05,0.06-0.1,0.28-0.08,0.36
					c-0.17,0.06-0.01,0.23-0.02,0.35c0,0.05-0.04,0.11-0.05,0.16c-0.01,0.12,0.02,0.27,0.07,0.37c0.1,0.2,0.27,0.41,0.44,0.54
					c0.19,0.15,0.36,0.57,0.61,0.63c0.18,0.04,0.38-0.1,0.54-0.14c0.18-0.04,0.4,0.01,0.57-0.05c0.22-0.08,0.13-0.34,0.29-0.45
					c0.1-0.07,0.29-0.01,0.41-0.05c0.2-0.07,0.34-0.26,0.38-0.46c0.02-0.08,0.01-0.14,0.04-0.22c0.04-0.1,0.11-0.16,0.09-0.29
					c-0.01-0.06-0.05-0.12-0.06-0.19c-0.02-0.11,0-0.22,0-0.34c0-0.2,0.02-0.38-0.08-0.55c-0.38-0.69-1.24-0.93-1.97-0.79
					c-0.18,0.03-0.29,0.13-0.44,0.21c-0.17,0.09-0.14,0.17-0.32,0.22c-0.08,0.03-0.22,0.12-0.21,0.22c0,0.12,0,0.05,0.01,0.17
					c-0.02,0.01-0.02,0-0.03-0.03"/>
				<path class="st2" d="M38.8-33.39c0.02,0.07,0.01,0.13-0.03,0.19c-0.05,0.1-0.11,0.06-0.17,0.13c-0.05,0.06-0.1,0.28-0.08,0.36
					c-0.17,0.06-0.01,0.23-0.02,0.35c0,0.05-0.04,0.11-0.04,0.16c-0.01,0.12,0.02,0.27,0.07,0.37c0.1,0.2,0.27,0.41,0.44,0.54
					c0.19,0.15,0.36,0.57,0.61,0.63c0.18,0.04,0.38-0.1,0.54-0.14c0.18-0.04,0.4,0.01,0.57-0.05c0.22-0.08,0.13-0.34,0.29-0.45
					c0.1-0.07,0.29-0.01,0.41-0.05c0.2-0.07,0.34-0.26,0.38-0.46c0.02-0.08,0.01-0.14,0.04-0.22c0.04-0.1,0.11-0.16,0.09-0.29
					c-0.01-0.06-0.05-0.12-0.06-0.19c-0.02-0.11,0-0.22,0-0.34c0-0.2,0.02-0.38-0.08-0.55c-0.38-0.69-1.24-0.93-1.97-0.79
					c-0.18,0.03-0.29,0.13-0.44,0.21c-0.17,0.09-0.14,0.17-0.32,0.22c-0.08,0.03-0.22,0.12-0.21,0.22c0,0.12,0,0.05,0.01,0.17
					c-0.02,0.01-0.02,0-0.03-0.03"/>
				<path class="st2" d="M31.14-33.39c0.02,0.07,0.01,0.13-0.03,0.19c-0.05,0.1-0.11,0.06-0.16,0.13c-0.05,0.06-0.1,0.28-0.08,0.36
					c-0.17,0.06-0.01,0.23-0.02,0.35c0,0.05-0.04,0.11-0.05,0.16c-0.01,0.12,0.02,0.27,0.07,0.37c0.1,0.2,0.27,0.41,0.44,0.54
					c0.19,0.15,0.36,0.57,0.61,0.63c0.18,0.04,0.38-0.1,0.54-0.14c0.18-0.04,0.4,0.01,0.57-0.05c0.22-0.08,0.13-0.34,0.29-0.45
					c0.1-0.07,0.29-0.01,0.41-0.05c0.2-0.07,0.34-0.26,0.38-0.46c0.02-0.08,0.01-0.14,0.04-0.22c0.04-0.1,0.11-0.16,0.09-0.29
					c-0.01-0.06-0.05-0.12-0.06-0.19c-0.02-0.11,0-0.22,0-0.34c0-0.2,0.02-0.38-0.08-0.55c-0.38-0.69-1.24-0.93-1.97-0.79
					c-0.18,0.03-0.29,0.13-0.44,0.21c-0.17,0.09-0.14,0.17-0.32,0.22c-0.08,0.03-0.22,0.12-0.21,0.22c0,0.12,0,0.05,0.01,0.17
					c-0.02,0.01-0.02,0-0.03-0.03"/>
				<path class="st2" d="M23.48-33.39c0.02,0.07,0.01,0.13-0.03,0.19c-0.05,0.1-0.11,0.06-0.17,0.13c-0.05,0.06-0.1,0.28-0.08,0.36
					c-0.17,0.06-0.01,0.23-0.02,0.35c0,0.05-0.04,0.11-0.04,0.16c-0.01,0.12,0.02,0.27,0.07,0.37c0.1,0.2,0.27,0.41,0.44,0.54
					c0.19,0.15,0.36,0.57,0.61,0.63c0.18,0.04,0.38-0.1,0.54-0.14c0.18-0.04,0.4,0.01,0.57-0.05c0.22-0.08,0.13-0.34,0.29-0.45
					c0.1-0.07,0.29-0.01,0.41-0.05c0.2-0.07,0.34-0.26,0.38-0.46c0.02-0.08,0.01-0.14,0.04-0.22c0.04-0.1,0.11-0.16,0.09-0.29
					c-0.01-0.06-0.05-0.12-0.06-0.19c-0.02-0.11,0-0.22,0-0.34c0-0.2,0.02-0.38-0.08-0.55c-0.38-0.69-1.24-0.93-1.97-0.79
					c-0.18,0.03-0.29,0.13-0.44,0.21c-0.17,0.09-0.14,0.17-0.32,0.22c-0.08,0.03-0.22,0.12-0.21,0.22c0,0.12,0,0.05,0.01,0.17
					c-0.02,0.01-0.02,0-0.03-0.03"/>
				<path class="st2" d="M15.82-33.39c0.02,0.07,0.01,0.13-0.03,0.19c-0.05,0.1-0.11,0.06-0.16,0.13c-0.05,0.06-0.1,0.28-0.08,0.36
					c-0.17,0.06-0.01,0.23-0.02,0.35c0,0.05-0.04,0.11-0.05,0.16c-0.01,0.12,0.02,0.27,0.07,0.37c0.1,0.2,0.27,0.41,0.44,0.54
					c0.19,0.15,0.36,0.57,0.61,0.63c0.18,0.04,0.38-0.1,0.54-0.14c0.18-0.04,0.4,0.01,0.57-0.05c0.22-0.08,0.13-0.34,0.29-0.45
					c0.1-0.07,0.29-0.01,0.41-0.05c0.2-0.07,0.34-0.26,0.38-0.46c0.02-0.08,0.01-0.14,0.04-0.22c0.04-0.1,0.11-0.16,0.09-0.29
					c-0.01-0.06-0.05-0.12-0.06-0.19c-0.02-0.11,0-0.22,0-0.34c0-0.2,0.02-0.38-0.08-0.55c-0.38-0.69-1.24-0.93-1.97-0.79
					c-0.18,0.03-0.29,0.13-0.44,0.21c-0.17,0.09-0.14,0.17-0.32,0.22c-0.08,0.03-0.22,0.12-0.21,0.22c0,0.12,0,0.05,0.01,0.17
					c-0.02,0.01-0.02,0-0.03-0.03"/>
				<path class="st2" d="M8.16-33.39c0.02,0.07,0.01,0.13-0.03,0.19c-0.05,0.1-0.11,0.06-0.17,0.13c-0.05,0.06-0.1,0.28-0.08,0.36
					c-0.17,0.06-0.01,0.23-0.02,0.35c0,0.05-0.04,0.11-0.04,0.16c-0.01,0.12,0.02,0.27,0.07,0.37c0.1,0.2,0.27,0.41,0.44,0.54
					c0.19,0.15,0.36,0.57,0.61,0.63c0.18,0.04,0.38-0.1,0.54-0.14c0.18-0.04,0.4,0.01,0.57-0.05c0.22-0.08,0.13-0.34,0.29-0.45
					c0.1-0.07,0.29-0.01,0.41-0.05c0.2-0.07,0.34-0.26,0.38-0.46c0.02-0.08,0.01-0.14,0.04-0.22c0.04-0.1,0.11-0.16,0.09-0.29
					c-0.01-0.06-0.05-0.12-0.06-0.19c-0.02-0.11,0-0.22,0-0.34c0-0.2,0.02-0.38-0.08-0.55c-0.38-0.69-1.24-0.93-1.97-0.79
					c-0.18,0.03-0.29,0.13-0.44,0.21c-0.17,0.09-0.14,0.17-0.32,0.22c-0.08,0.03-0.22,0.12-0.21,0.22c0,0.12,0,0.05,0.01,0.17
					c-0.02,0.01-0.02,0-0.03-0.03"/>
				<path class="st2" d="M0.5-33.39c0.02,0.07,0.01,0.13-0.03,0.19c-0.05,0.1-0.11,0.06-0.17,0.13c-0.05,0.06-0.1,0.28-0.08,0.36
					c-0.17,0.06-0.01,0.23-0.02,0.35c0,0.05-0.04,0.11-0.04,0.16c-0.01,0.12,0.02,0.27,0.07,0.37c0.1,0.2,0.27,0.41,0.44,0.54
					c0.19,0.15,0.36,0.57,0.61,0.63c0.18,0.04,0.38-0.1,0.54-0.14c0.18-0.04,0.4,0.01,0.57-0.05c0.22-0.08,0.13-0.34,0.29-0.45
					c0.1-0.07,0.29-0.01,0.41-0.05c0.2-0.07,0.34-0.26,0.38-0.46c0.02-0.08,0.01-0.14,0.04-0.22c0.04-0.1,0.11-0.16,0.09-0.29
					c-0.01-0.06-0.05-0.12-0.06-0.19c-0.02-0.11,0-0.22,0-0.34c0-0.2,0.02-0.38-0.08-0.55c-0.38-0.69-1.24-0.93-1.97-0.79
					c-0.18,0.03-0.29,0.13-0.44,0.21c-0.17,0.09-0.14,0.17-0.32,0.22c-0.08,0.03-0.22,0.12-0.21,0.22c0,0.12,0,0.05,0.01,0.17
					c-0.02,0.01-0.02,0-0.03-0.03"/>
			</g>
			<g>
				<path class="st2" d="M69.44-25.74c0.02,0.07,0.01,0.13-0.03,0.19c-0.05,0.1-0.11,0.06-0.17,0.13c-0.05,0.06-0.1,0.28-0.08,0.36
					C69-25,69.16-24.83,69.15-24.71c0,0.05-0.04,0.11-0.04,0.16c-0.01,0.12,0.02,0.27,0.07,0.37c0.1,0.2,0.27,0.41,0.43,0.54
					c0.19,0.15,0.36,0.57,0.61,0.63c0.18,0.04,0.38-0.1,0.54-0.14c0.18-0.04,0.4,0.01,0.57-0.05c0.22-0.08,0.13-0.34,0.29-0.45
					c0.1-0.07,0.29-0.01,0.41-0.05c0.2-0.07,0.34-0.26,0.38-0.46c0.02-0.08,0.01-0.14,0.04-0.22c0.04-0.1,0.11-0.16,0.09-0.29
					c-0.01-0.06-0.05-0.12-0.06-0.19c-0.02-0.11,0-0.22,0-0.34c0-0.2,0.02-0.38-0.08-0.55c-0.38-0.69-1.24-0.93-1.97-0.79
					c-0.18,0.03-0.29,0.13-0.44,0.21c-0.17,0.09-0.14,0.17-0.32,0.22c-0.08,0.03-0.22,0.12-0.21,0.22c0,0.12,0,0.05,0.01,0.17
					c-0.02,0.01-0.02,0-0.03-0.03"/>
				<path class="st2" d="M61.78-25.74c0.02,0.07,0.01,0.13-0.03,0.19c-0.05,0.1-0.11,0.06-0.17,0.13c-0.05,0.06-0.1,0.28-0.08,0.36
					c-0.17,0.06-0.01,0.23-0.02,0.35c0,0.05-0.04,0.11-0.04,0.16c-0.01,0.12,0.02,0.27,0.07,0.37c0.1,0.2,0.27,0.41,0.44,0.54
					c0.19,0.15,0.36,0.57,0.61,0.63c0.18,0.04,0.38-0.1,0.54-0.14c0.18-0.04,0.4,0.01,0.57-0.05c0.22-0.08,0.13-0.34,0.29-0.45
					c0.1-0.07,0.29-0.01,0.41-0.05c0.2-0.07,0.34-0.26,0.38-0.46c0.02-0.08,0.01-0.14,0.04-0.22c0.04-0.1,0.11-0.16,0.09-0.29
					c-0.01-0.06-0.05-0.12-0.06-0.19c-0.02-0.11,0-0.22,0-0.34c0-0.2,0.02-0.38-0.08-0.55c-0.38-0.69-1.24-0.93-1.97-0.79
					c-0.18,0.03-0.29,0.13-0.44,0.21c-0.17,0.09-0.14,0.17-0.32,0.22c-0.08,0.03-0.22,0.12-0.21,0.22c0,0.12,0,0.05,0.01,0.17
					c-0.02,0.01-0.02,0-0.03-0.03"/>
				<path class="st2" d="M54.12-25.74c0.02,0.07,0.01,0.13-0.03,0.19c-0.05,0.1-0.11,0.06-0.17,0.13c-0.05,0.06-0.1,0.28-0.08,0.36
					c-0.17,0.06-0.01,0.23-0.02,0.35c0,0.05-0.04,0.11-0.04,0.16c-0.01,0.12,0.02,0.27,0.07,0.37c0.1,0.2,0.27,0.41,0.44,0.54
					c0.19,0.15,0.36,0.57,0.61,0.63c0.18,0.04,0.38-0.1,0.54-0.14c0.18-0.04,0.4,0.01,0.57-0.05c0.22-0.08,0.13-0.34,0.29-0.45
					c0.1-0.07,0.29-0.01,0.41-0.05c0.2-0.07,0.34-0.26,0.38-0.46c0.02-0.08,0.01-0.14,0.04-0.22c0.04-0.1,0.11-0.16,0.09-0.29
					c-0.01-0.06-0.05-0.12-0.06-0.19c-0.02-0.11,0-0.22,0-0.34c0-0.2,0.02-0.38-0.08-0.55c-0.38-0.69-1.24-0.93-1.97-0.79
					c-0.18,0.03-0.29,0.13-0.44,0.21c-0.17,0.09-0.14,0.17-0.32,0.22c-0.08,0.03-0.22,0.12-0.21,0.22c0,0.12,0,0.05,0.01,0.17
					c-0.02,0.01-0.02,0-0.03-0.03"/>
				<path class="st2" d="M46.46-25.74c0.02,0.07,0.01,0.13-0.03,0.19c-0.05,0.1-0.11,0.06-0.16,0.13c-0.05,0.06-0.1,0.28-0.08,0.36
					c-0.17,0.06-0.01,0.23-0.02,0.35c0,0.05-0.04,0.11-0.05,0.16c-0.01,0.12,0.02,0.27,0.07,0.37c0.1,0.2,0.27,0.41,0.44,0.54
					c0.19,0.15,0.36,0.57,0.61,0.63c0.18,0.04,0.38-0.1,0.54-0.14c0.18-0.04,0.4,0.01,0.57-0.05c0.22-0.08,0.13-0.34,0.29-0.45
					c0.1-0.07,0.29-0.01,0.41-0.05c0.2-0.07,0.34-0.26,0.38-0.46c0.02-0.08,0.01-0.14,0.04-0.22c0.04-0.1,0.11-0.16,0.09-0.29
					c-0.01-0.06-0.05-0.12-0.06-0.19c-0.02-0.11,0-0.22,0-0.34c0-0.2,0.02-0.38-0.08-0.55c-0.38-0.69-1.24-0.93-1.97-0.79
					c-0.18,0.03-0.29,0.13-0.44,0.21c-0.17,0.09-0.14,0.17-0.32,0.22c-0.08,0.03-0.22,0.12-0.21,0.22c0,0.12,0,0.05,0.01,0.17
					c-0.02,0.01-0.02,0-0.03-0.03"/>
				<path class="st2" d="M38.8-25.74c0.02,0.07,0.01,0.13-0.03,0.19c-0.05,0.1-0.11,0.06-0.17,0.13c-0.05,0.06-0.1,0.28-0.08,0.36
					c-0.17,0.06-0.01,0.23-0.02,0.35c0,0.05-0.04,0.11-0.04,0.16c-0.01,0.12,0.02,0.27,0.07,0.37c0.1,0.2,0.27,0.41,0.44,0.54
					c0.19,0.15,0.36,0.57,0.61,0.63c0.18,0.04,0.38-0.1,0.54-0.14c0.18-0.04,0.4,0.01,0.57-0.05c0.22-0.08,0.13-0.34,0.29-0.45
					c0.1-0.07,0.29-0.01,0.41-0.05c0.2-0.07,0.34-0.26,0.38-0.46c0.02-0.08,0.01-0.14,0.04-0.22c0.04-0.1,0.11-0.16,0.09-0.29
					c-0.01-0.06-0.05-0.12-0.06-0.19c-0.02-0.11,0-0.22,0-0.34c0-0.2,0.02-0.38-0.08-0.55c-0.38-0.69-1.24-0.93-1.97-0.79
					c-0.18,0.03-0.29,0.13-0.44,0.21c-0.17,0.09-0.14,0.17-0.32,0.22c-0.08,0.03-0.22,0.12-0.21,0.22c0,0.12,0,0.05,0.01,0.17
					c-0.02,0.01-0.02,0-0.03-0.03"/>
				<path class="st2" d="M31.14-25.74c0.02,0.07,0.01,0.13-0.03,0.19c-0.05,0.1-0.11,0.06-0.16,0.13c-0.05,0.06-0.1,0.28-0.08,0.36
					c-0.17,0.06-0.01,0.23-0.02,0.35c0,0.05-0.04,0.11-0.05,0.16c-0.01,0.12,0.02,0.27,0.07,0.37c0.1,0.2,0.27,0.41,0.44,0.54
					c0.19,0.15,0.36,0.57,0.61,0.63c0.18,0.04,0.38-0.1,0.54-0.14c0.18-0.04,0.4,0.01,0.57-0.05c0.22-0.08,0.13-0.34,0.29-0.45
					c0.1-0.07,0.29-0.01,0.41-0.05c0.2-0.07,0.34-0.26,0.38-0.46c0.02-0.08,0.01-0.14,0.04-0.22c0.04-0.1,0.11-0.16,0.09-0.29
					c-0.01-0.06-0.05-0.12-0.06-0.19c-0.02-0.11,0-0.22,0-0.34c0-0.2,0.02-0.38-0.08-0.55c-0.38-0.69-1.24-0.93-1.97-0.79
					c-0.18,0.03-0.29,0.13-0.44,0.21c-0.17,0.09-0.14,0.17-0.32,0.22c-0.08,0.03-0.22,0.12-0.21,0.22c0,0.12,0,0.05,0.01,0.17
					c-0.02,0.01-0.02,0-0.03-0.03"/>
				<path class="st2" d="M23.48-25.74c0.02,0.07,0.01,0.13-0.03,0.19c-0.05,0.1-0.11,0.06-0.17,0.13c-0.05,0.06-0.1,0.28-0.08,0.36
					c-0.17,0.06-0.01,0.23-0.02,0.35c0,0.05-0.04,0.11-0.04,0.16c-0.01,0.12,0.02,0.27,0.07,0.37c0.1,0.2,0.27,0.41,0.44,0.54
					c0.19,0.15,0.36,0.57,0.61,0.63c0.18,0.04,0.38-0.1,0.54-0.14c0.18-0.04,0.4,0.01,0.57-0.05c0.22-0.08,0.13-0.34,0.29-0.45
					c0.1-0.07,0.29-0.01,0.41-0.05c0.2-0.07,0.34-0.26,0.38-0.46c0.02-0.08,0.01-0.14,0.04-0.22c0.04-0.1,0.11-0.16,0.09-0.29
					c-0.01-0.06-0.05-0.12-0.06-0.19c-0.02-0.11,0-0.22,0-0.34c0-0.2,0.02-0.38-0.08-0.55c-0.38-0.69-1.24-0.93-1.97-0.79
					c-0.18,0.03-0.29,0.13-0.44,0.21c-0.17,0.09-0.14,0.17-0.32,0.22c-0.08,0.03-0.22,0.12-0.21,0.22c0,0.12,0,0.05,0.01,0.17
					c-0.02,0.01-0.02,0-0.03-0.03"/>
				<path class="st2" d="M15.82-25.74c0.02,0.07,0.01,0.13-0.03,0.19c-0.05,0.1-0.11,0.06-0.16,0.13c-0.05,0.06-0.1,0.28-0.08,0.36
					c-0.17,0.06-0.01,0.23-0.02,0.35c0,0.05-0.04,0.11-0.05,0.16c-0.01,0.12,0.02,0.27,0.07,0.37c0.1,0.2,0.27,0.41,0.44,0.54
					c0.19,0.15,0.36,0.57,0.61,0.63c0.18,0.04,0.38-0.1,0.54-0.14c0.18-0.04,0.4,0.01,0.57-0.05c0.22-0.08,0.13-0.34,0.29-0.45
					c0.1-0.07,0.29-0.01,0.41-0.05c0.2-0.07,0.34-0.26,0.38-0.46c0.02-0.08,0.01-0.14,0.04-0.22c0.04-0.1,0.11-0.16,0.09-0.29
					c-0.01-0.06-0.05-0.12-0.06-0.19c-0.02-0.11,0-0.22,0-0.34c0-0.2,0.02-0.38-0.08-0.55c-0.38-0.69-1.24-0.93-1.97-0.79
					c-0.18,0.03-0.29,0.13-0.44,0.21c-0.17,0.09-0.14,0.17-0.32,0.22c-0.08,0.03-0.22,0.12-0.21,0.22c0,0.12,0,0.05,0.01,0.17
					c-0.02,0.01-0.02,0-0.03-0.03"/>
				<path class="st2" d="M8.16-25.74c0.02,0.07,0.01,0.13-0.03,0.19c-0.05,0.1-0.11,0.06-0.17,0.13c-0.05,0.06-0.1,0.28-0.08,0.36
					C7.72-25,7.88-24.83,7.87-24.71c0,0.05-0.04,0.11-0.04,0.16c-0.01,0.12,0.02,0.27,0.07,0.37c0.1,0.2,0.27,0.41,0.44,0.54
					c0.19,0.15,0.36,0.57,0.61,0.63c0.18,0.04,0.38-0.1,0.54-0.14c0.18-0.04,0.4,0.01,0.57-0.05c0.22-0.08,0.13-0.34,0.29-0.45
					c0.1-0.07,0.29-0.01,0.41-0.05c0.2-0.07,0.34-0.26,0.38-0.46c0.02-0.08,0.01-0.14,0.04-0.22c0.04-0.1,0.11-0.16,0.09-0.29
					c-0.01-0.06-0.05-0.12-0.06-0.19c-0.02-0.11,0-0.22,0-0.34c0-0.2,0.02-0.38-0.08-0.55c-0.38-0.69-1.24-0.93-1.97-0.79
					c-0.18,0.03-0.29,0.13-0.44,0.21c-0.17,0.09-0.14,0.17-0.32,0.22c-0.08,0.03-0.22,0.12-0.21,0.22c0,0.12,0,0.05,0.01,0.17
					c-0.02,0.01-0.02,0-0.03-0.03"/>
				<path class="st2" d="M0.5-25.74c0.02,0.07,0.01,0.13-0.03,0.19c-0.05,0.1-0.11,0.06-0.17,0.13c-0.05,0.06-0.1,0.28-0.08,0.36
					C0.06-25,0.22-24.83,0.21-24.71c0,0.05-0.04,0.11-0.04,0.16c-0.01,0.12,0.02,0.27,0.07,0.37c0.1,0.2,0.27,0.41,0.44,0.54
					c0.19,0.15,0.36,0.57,0.61,0.63c0.18,0.04,0.38-0.1,0.54-0.14c0.18-0.04,0.4,0.01,0.57-0.05c0.22-0.08,0.13-0.34,0.29-0.45
					c0.1-0.07,0.29-0.01,0.41-0.05c0.2-0.07,0.34-0.26,0.38-0.46c0.02-0.08,0.01-0.14,0.04-0.22c0.04-0.1,0.11-0.16,0.09-0.29
					c-0.01-0.06-0.05-0.12-0.06-0.19c-0.02-0.11,0-0.22,0-0.34c0-0.2,0.02-0.38-0.08-0.55c-0.38-0.69-1.24-0.93-1.97-0.79
					c-0.18,0.03-0.29,0.13-0.44,0.21c-0.17,0.09-0.14,0.17-0.32,0.22c-0.08,0.03-0.22,0.12-0.21,0.22c0,0.12,0,0.05,0.01,0.17
					c-0.02,0.01-0.02,0-0.03-0.03"/>
			</g>
			<g>
				<path class="st2" d="M69.44-18.08c0.02,0.07,0.01,0.13-0.03,0.19c-0.05,0.1-0.11,0.06-0.17,0.13c-0.05,0.06-0.1,0.28-0.08,0.36
					c-0.17,0.06-0.01,0.23-0.02,0.35c0,0.05-0.04,0.11-0.04,0.16c-0.01,0.12,0.02,0.27,0.07,0.37c0.1,0.2,0.27,0.41,0.43,0.54
					c0.19,0.15,0.36,0.57,0.61,0.63c0.18,0.04,0.38-0.1,0.54-0.14c0.18-0.04,0.4,0.01,0.57-0.05c0.22-0.08,0.13-0.34,0.29-0.45
					c0.1-0.07,0.29-0.01,0.41-0.05c0.2-0.07,0.34-0.26,0.38-0.46c0.02-0.08,0.01-0.14,0.04-0.22c0.04-0.1,0.11-0.16,0.09-0.29
					c-0.01-0.06-0.05-0.12-0.06-0.19c-0.02-0.11,0-0.22,0-0.34c0-0.2,0.02-0.38-0.08-0.55c-0.38-0.69-1.24-0.93-1.97-0.79
					c-0.18,0.03-0.29,0.13-0.44,0.21c-0.17,0.09-0.14,0.17-0.32,0.22c-0.08,0.03-0.22,0.12-0.21,0.22c0,0.12,0,0.05,0.01,0.17
					c-0.02,0.01-0.02,0-0.03-0.03"/>
				<path class="st2" d="M61.78-18.08c0.02,0.07,0.01,0.13-0.03,0.19c-0.05,0.1-0.11,0.06-0.17,0.13c-0.05,0.06-0.1,0.28-0.08,0.36
					c-0.17,0.06-0.01,0.23-0.02,0.35c0,0.05-0.04,0.11-0.04,0.16c-0.01,0.12,0.02,0.27,0.07,0.37c0.1,0.2,0.27,0.41,0.44,0.54
					c0.19,0.15,0.36,0.57,0.61,0.63c0.18,0.04,0.38-0.1,0.54-0.14c0.18-0.04,0.4,0.01,0.57-0.05c0.22-0.08,0.13-0.34,0.29-0.45
					c0.1-0.07,0.29-0.01,0.41-0.05c0.2-0.07,0.34-0.26,0.38-0.46c0.02-0.08,0.01-0.14,0.04-0.22c0.04-0.1,0.11-0.16,0.09-0.29
					c-0.01-0.06-0.05-0.12-0.06-0.19c-0.02-0.11,0-0.22,0-0.34c0-0.2,0.02-0.38-0.08-0.55c-0.38-0.69-1.24-0.93-1.97-0.79
					c-0.18,0.03-0.29,0.13-0.44,0.21c-0.17,0.09-0.14,0.17-0.32,0.22c-0.08,0.03-0.22,0.12-0.21,0.22c0,0.12,0,0.05,0.01,0.17
					c-0.02,0.01-0.02,0-0.03-0.03"/>
				<path class="st2" d="M54.12-18.08c0.02,0.07,0.01,0.13-0.03,0.19c-0.05,0.1-0.11,0.06-0.17,0.13c-0.05,0.06-0.1,0.28-0.08,0.36
					c-0.17,0.06-0.01,0.23-0.02,0.35c0,0.05-0.04,0.11-0.04,0.16c-0.01,0.12,0.02,0.27,0.07,0.37c0.1,0.2,0.27,0.41,0.44,0.54
					c0.19,0.15,0.36,0.57,0.61,0.63c0.18,0.04,0.38-0.1,0.54-0.14c0.18-0.04,0.4,0.01,0.57-0.05c0.22-0.08,0.13-0.34,0.29-0.45
					c0.1-0.07,0.29-0.01,0.41-0.05c0.2-0.07,0.34-0.26,0.38-0.46c0.02-0.08,0.01-0.14,0.04-0.22c0.04-0.1,0.11-0.16,0.09-0.29
					c-0.01-0.06-0.05-0.12-0.06-0.19c-0.02-0.11,0-0.22,0-0.34c0-0.2,0.02-0.38-0.08-0.55c-0.38-0.69-1.24-0.93-1.97-0.79
					c-0.18,0.03-0.29,0.13-0.44,0.21c-0.17,0.09-0.14,0.17-0.32,0.22c-0.08,0.03-0.22,0.12-0.21,0.22c0,0.12,0,0.05,0.01,0.17
					c-0.02,0.01-0.02,0-0.03-0.03"/>
				<path class="st2" d="M46.46-18.08c0.02,0.07,0.01,0.13-0.03,0.19c-0.05,0.1-0.11,0.06-0.16,0.13c-0.05,0.06-0.1,0.28-0.08,0.36
					c-0.17,0.06-0.01,0.23-0.02,0.35c0,0.05-0.04,0.11-0.05,0.16c-0.01,0.12,0.02,0.27,0.07,0.37c0.1,0.2,0.27,0.41,0.44,0.54
					c0.19,0.15,0.36,0.57,0.61,0.63c0.18,0.04,0.38-0.1,0.54-0.14c0.18-0.04,0.4,0.01,0.57-0.05c0.22-0.08,0.13-0.34,0.29-0.45
					c0.1-0.07,0.29-0.01,0.41-0.05c0.2-0.07,0.34-0.26,0.38-0.46c0.02-0.08,0.01-0.14,0.04-0.22c0.04-0.1,0.11-0.16,0.09-0.29
					c-0.01-0.06-0.05-0.12-0.06-0.19c-0.02-0.11,0-0.22,0-0.34c0-0.2,0.02-0.38-0.08-0.55c-0.38-0.69-1.24-0.93-1.97-0.79
					c-0.18,0.03-0.29,0.13-0.44,0.21c-0.17,0.09-0.14,0.17-0.32,0.22c-0.08,0.03-0.22,0.12-0.21,0.22c0,0.12,0,0.05,0.01,0.17
					c-0.02,0.01-0.02,0-0.03-0.03"/>
				<path class="st2" d="M38.8-18.08c0.02,0.07,0.01,0.13-0.03,0.19c-0.05,0.1-0.11,0.06-0.17,0.13c-0.05,0.06-0.1,0.28-0.08,0.36
					c-0.17,0.06-0.01,0.23-0.02,0.35c0,0.05-0.04,0.11-0.04,0.16c-0.01,0.12,0.02,0.27,0.07,0.37c0.1,0.2,0.27,0.41,0.44,0.54
					c0.19,0.15,0.36,0.57,0.61,0.63c0.18,0.04,0.38-0.1,0.54-0.14c0.18-0.04,0.4,0.01,0.57-0.05c0.22-0.08,0.13-0.34,0.29-0.45
					c0.1-0.07,0.29-0.01,0.41-0.05c0.2-0.07,0.34-0.26,0.38-0.46c0.02-0.08,0.01-0.14,0.04-0.22c0.04-0.1,0.11-0.16,0.09-0.29
					c-0.01-0.06-0.05-0.12-0.06-0.19c-0.02-0.11,0-0.22,0-0.34c0-0.2,0.02-0.38-0.08-0.55c-0.38-0.69-1.24-0.93-1.97-0.79
					c-0.18,0.03-0.29,0.13-0.44,0.21c-0.17,0.09-0.14,0.17-0.32,0.22c-0.08,0.03-0.22,0.12-0.21,0.22c0,0.12,0,0.05,0.01,0.17
					c-0.02,0.01-0.02,0-0.03-0.03"/>
				<path class="st2" d="M31.14-18.08c0.02,0.07,0.01,0.13-0.03,0.19c-0.05,0.1-0.11,0.06-0.16,0.13c-0.05,0.06-0.1,0.28-0.08,0.36
					c-0.17,0.06-0.01,0.23-0.02,0.35c0,0.05-0.04,0.11-0.05,0.16c-0.01,0.12,0.02,0.27,0.07,0.37c0.1,0.2,0.27,0.41,0.44,0.54
					c0.19,0.15,0.36,0.57,0.61,0.63c0.18,0.04,0.38-0.1,0.54-0.14c0.18-0.04,0.4,0.01,0.57-0.05c0.22-0.08,0.13-0.34,0.29-0.45
					c0.1-0.07,0.29-0.01,0.41-0.05c0.2-0.07,0.34-0.26,0.38-0.46c0.02-0.08,0.01-0.14,0.04-0.22c0.04-0.1,0.11-0.16,0.09-0.29
					c-0.01-0.06-0.05-0.12-0.06-0.19c-0.02-0.11,0-0.22,0-0.34c0-0.2,0.02-0.38-0.08-0.55c-0.38-0.69-1.24-0.93-1.97-0.79
					c-0.18,0.03-0.29,0.13-0.44,0.21c-0.17,0.09-0.14,0.17-0.32,0.22c-0.08,0.03-0.22,0.12-0.21,0.22c0,0.12,0,0.05,0.01,0.17
					c-0.02,0.01-0.02,0-0.03-0.03"/>
				<path class="st2" d="M23.48-18.08c0.02,0.07,0.01,0.13-0.03,0.19c-0.05,0.1-0.11,0.06-0.17,0.13c-0.05,0.06-0.1,0.28-0.08,0.36
					c-0.17,0.06-0.01,0.23-0.02,0.35c0,0.05-0.04,0.11-0.04,0.16c-0.01,0.12,0.02,0.27,0.07,0.37c0.1,0.2,0.27,0.41,0.44,0.54
					c0.19,0.15,0.36,0.57,0.61,0.63c0.18,0.04,0.38-0.1,0.54-0.14c0.18-0.04,0.4,0.01,0.57-0.05c0.22-0.08,0.13-0.34,0.29-0.45
					c0.1-0.07,0.29-0.01,0.41-0.05c0.2-0.07,0.34-0.26,0.38-0.46c0.02-0.08,0.01-0.14,0.04-0.22c0.04-0.1,0.11-0.16,0.09-0.29
					c-0.01-0.06-0.05-0.12-0.06-0.19c-0.02-0.11,0-0.22,0-0.34c0-0.2,0.02-0.38-0.08-0.55c-0.38-0.69-1.24-0.93-1.97-0.79
					c-0.18,0.03-0.29,0.13-0.44,0.21c-0.17,0.09-0.14,0.17-0.32,0.22c-0.08,0.03-0.22,0.12-0.21,0.22c0,0.12,0,0.05,0.01,0.17
					c-0.02,0.01-0.02,0-0.03-0.03"/>
				<path class="st2" d="M15.82-18.08c0.02,0.07,0.01,0.13-0.03,0.19c-0.05,0.1-0.11,0.06-0.16,0.13c-0.05,0.06-0.1,0.28-0.08,0.36
					c-0.17,0.06-0.01,0.23-0.02,0.35c0,0.05-0.04,0.11-0.05,0.16c-0.01,0.12,0.02,0.27,0.07,0.37c0.1,0.2,0.27,0.41,0.44,0.54
					c0.19,0.15,0.36,0.57,0.61,0.63c0.18,0.04,0.38-0.1,0.54-0.14c0.18-0.04,0.4,0.01,0.57-0.05c0.22-0.08,0.13-0.34,0.29-0.45
					c0.1-0.07,0.29-0.01,0.41-0.05c0.2-0.07,0.34-0.26,0.38-0.46c0.02-0.08,0.01-0.14,0.04-0.22c0.04-0.1,0.11-0.16,0.09-0.29
					c-0.01-0.06-0.05-0.12-0.06-0.19c-0.02-0.11,0-0.22,0-0.34c0-0.2,0.02-0.38-0.08-0.55c-0.38-0.69-1.24-0.93-1.97-0.79
					c-0.18,0.03-0.29,0.13-0.44,0.21c-0.17,0.09-0.14,0.17-0.32,0.22c-0.08,0.03-0.22,0.12-0.21,0.22c0,0.12,0,0.05,0.01,0.17
					c-0.02,0.01-0.02,0-0.03-0.03"/>
				<path class="st2" d="M8.16-18.08c0.02,0.07,0.01,0.13-0.03,0.19c-0.05,0.1-0.11,0.06-0.17,0.13c-0.05,0.06-0.1,0.28-0.08,0.36
					c-0.17,0.06-0.01,0.23-0.02,0.35c0,0.05-0.04,0.11-0.04,0.16c-0.01,0.12,0.02,0.27,0.07,0.37c0.1,0.2,0.27,0.41,0.44,0.54
					c0.19,0.15,0.36,0.57,0.61,0.63c0.18,0.04,0.38-0.1,0.54-0.14c0.18-0.04,0.4,0.01,0.57-0.05c0.22-0.08,0.13-0.34,0.29-0.45
					c0.1-0.07,0.29-0.01,0.41-0.05c0.2-0.07,0.34-0.26,0.38-0.46c0.02-0.08,0.01-0.14,0.04-0.22c0.04-0.1,0.11-0.16,0.09-0.29
					c-0.01-0.06-0.05-0.12-0.06-0.19c-0.02-0.11,0-0.22,0-0.34c0-0.2,0.02-0.38-0.08-0.55c-0.38-0.69-1.24-0.93-1.97-0.79
					c-0.18,0.03-0.29,0.13-0.44,0.21c-0.17,0.09-0.14,0.17-0.32,0.22c-0.08,0.03-0.22,0.12-0.21,0.22c0,0.12,0,0.05,0.01,0.17
					c-0.02,0.01-0.02,0-0.03-0.03"/>
				<path class="st2" d="M0.5-18.08c0.02,0.07,0.01,0.13-0.03,0.19c-0.05,0.1-0.11,0.06-0.17,0.13c-0.05,0.06-0.1,0.28-0.08,0.36
					c-0.17,0.06-0.01,0.23-0.02,0.35c0,0.05-0.04,0.11-0.04,0.16c-0.01,0.12,0.02,0.27,0.07,0.37c0.1,0.2,0.27,0.41,0.44,0.54
					c0.19,0.15,0.36,0.57,0.61,0.63c0.18,0.04,0.38-0.1,0.54-0.14c0.18-0.04,0.4,0.01,0.57-0.05c0.22-0.08,0.13-0.34,0.29-0.45
					c0.1-0.07,0.29-0.01,0.41-0.05c0.2-0.07,0.34-0.26,0.38-0.46c0.02-0.08,0.01-0.14,0.04-0.22c0.04-0.1,0.11-0.16,0.09-0.29
					c-0.01-0.06-0.05-0.12-0.06-0.19c-0.02-0.11,0-0.22,0-0.34c0-0.2,0.02-0.38-0.08-0.55c-0.38-0.69-1.24-0.93-1.97-0.79
					c-0.18,0.03-0.29,0.13-0.44,0.21c-0.17,0.09-0.14,0.17-0.32,0.22c-0.08,0.03-0.22,0.12-0.21,0.22c0,0.12,0,0.05,0.01,0.17
					c-0.02,0.01-0.02,0-0.03-0.03"/>
			</g>
			<g>
				<path class="st2" d="M69.44-10.43c0.02,0.07,0.01,0.13-0.03,0.19c-0.05,0.1-0.11,0.06-0.17,0.13c-0.05,0.06-0.1,0.28-0.08,0.36
					C69-9.69,69.16-9.52,69.15-9.4c0,0.05-0.04,0.11-0.04,0.16c-0.01,0.12,0.02,0.27,0.07,0.37c0.1,0.2,0.27,0.41,0.43,0.54
					c0.19,0.15,0.36,0.57,0.61,0.63c0.18,0.04,0.38-0.1,0.54-0.14c0.18-0.04,0.4,0.01,0.57-0.05c0.22-0.08,0.13-0.34,0.29-0.45
					c0.1-0.07,0.29-0.01,0.41-0.05c0.2-0.07,0.34-0.26,0.38-0.46c0.02-0.08,0.01-0.14,0.04-0.22c0.04-0.1,0.11-0.16,0.09-0.29
					c-0.01-0.06-0.05-0.12-0.06-0.19c-0.02-0.11,0-0.22,0-0.34c0-0.2,0.02-0.38-0.08-0.55c-0.38-0.69-1.24-0.93-1.97-0.79
					c-0.18,0.03-0.29,0.13-0.44,0.21c-0.17,0.09-0.14,0.17-0.32,0.22c-0.08,0.03-0.22,0.12-0.21,0.22c0,0.12,0,0.05,0.01,0.17
					c-0.02,0.01-0.02,0-0.03-0.03"/>
				<path class="st2" d="M61.78-10.43c0.02,0.07,0.01,0.13-0.03,0.19c-0.05,0.1-0.11,0.06-0.17,0.13c-0.05,0.06-0.1,0.28-0.08,0.36
					c-0.17,0.06-0.01,0.23-0.02,0.35c0,0.05-0.04,0.11-0.04,0.16c-0.01,0.12,0.02,0.27,0.07,0.37c0.1,0.2,0.27,0.41,0.44,0.54
					c0.19,0.15,0.36,0.57,0.61,0.63c0.18,0.04,0.38-0.1,0.54-0.14c0.18-0.04,0.4,0.01,0.57-0.05c0.22-0.08,0.13-0.34,0.29-0.45
					c0.1-0.07,0.29-0.01,0.41-0.05c0.2-0.07,0.34-0.26,0.38-0.46c0.02-0.08,0.01-0.14,0.04-0.22c0.04-0.1,0.11-0.16,0.09-0.29
					c-0.01-0.06-0.05-0.12-0.06-0.19c-0.02-0.11,0-0.22,0-0.34c0-0.2,0.02-0.38-0.08-0.55c-0.38-0.69-1.24-0.93-1.97-0.79
					c-0.18,0.03-0.29,0.13-0.44,0.21c-0.17,0.09-0.14,0.17-0.32,0.22c-0.08,0.03-0.22,0.12-0.21,0.22c0,0.12,0,0.05,0.01,0.17
					c-0.02,0.01-0.02,0-0.03-0.03"/>
				<path class="st2" d="M54.12-10.43c0.02,0.07,0.01,0.13-0.03,0.19c-0.05,0.1-0.11,0.06-0.17,0.13c-0.05,0.06-0.1,0.28-0.08,0.36
					c-0.17,0.06-0.01,0.23-0.02,0.35c0,0.05-0.04,0.11-0.04,0.16c-0.01,0.12,0.02,0.27,0.07,0.37c0.1,0.2,0.27,0.41,0.44,0.54
					c0.19,0.15,0.36,0.57,0.61,0.63c0.18,0.04,0.38-0.1,0.54-0.14c0.18-0.04,0.4,0.01,0.57-0.05c0.22-0.08,0.13-0.34,0.29-0.45
					c0.1-0.07,0.29-0.01,0.41-0.05c0.2-0.07,0.34-0.26,0.38-0.46C57.1-8.93,57.09-9,57.12-9.07c0.04-0.1,0.11-0.16,0.09-0.29
					c-0.01-0.06-0.05-0.12-0.06-0.19c-0.02-0.11,0-0.22,0-0.34c0-0.2,0.02-0.38-0.08-0.55c-0.38-0.69-1.24-0.93-1.97-0.79
					c-0.18,0.03-0.29,0.13-0.44,0.21c-0.17,0.09-0.14,0.17-0.32,0.22c-0.08,0.03-0.22,0.12-0.21,0.22c0,0.12,0,0.05,0.01,0.17
					c-0.02,0.01-0.02,0-0.03-0.03"/>
				<path class="st2" d="M46.46-10.43c0.02,0.07,0.01,0.13-0.03,0.19c-0.05,0.1-0.11,0.06-0.16,0.13c-0.05,0.06-0.1,0.28-0.08,0.36
					c-0.17,0.06-0.01,0.23-0.02,0.35c0,0.05-0.04,0.11-0.05,0.16c-0.01,0.12,0.02,0.27,0.07,0.37c0.1,0.2,0.27,0.41,0.44,0.54
					c0.19,0.15,0.36,0.57,0.61,0.63c0.18,0.04,0.38-0.1,0.54-0.14c0.18-0.04,0.4,0.01,0.57-0.05c0.22-0.08,0.13-0.34,0.29-0.45
					c0.1-0.07,0.29-0.01,0.41-0.05c0.2-0.07,0.34-0.26,0.38-0.46c0.02-0.08,0.01-0.14,0.04-0.22c0.04-0.1,0.11-0.16,0.09-0.29
					c-0.01-0.06-0.05-0.12-0.06-0.19c-0.02-0.11,0-0.22,0-0.34c0-0.2,0.02-0.38-0.08-0.55c-0.38-0.69-1.24-0.93-1.97-0.79
					c-0.18,0.03-0.29,0.13-0.44,0.21c-0.17,0.09-0.14,0.17-0.32,0.22c-0.08,0.03-0.22,0.12-0.21,0.22c0,0.12,0,0.05,0.01,0.17
					c-0.02,0.01-0.02,0-0.03-0.03"/>
				<path class="st2" d="M38.8-10.43c0.02,0.07,0.01,0.13-0.03,0.19c-0.05,0.1-0.11,0.06-0.17,0.13c-0.05,0.06-0.1,0.28-0.08,0.36
					c-0.17,0.06-0.01,0.23-0.02,0.35c0,0.05-0.04,0.11-0.04,0.16c-0.01,0.12,0.02,0.27,0.07,0.37c0.1,0.2,0.27,0.41,0.44,0.54
					c0.19,0.15,0.36,0.57,0.61,0.63c0.18,0.04,0.38-0.1,0.54-0.14c0.18-0.04,0.4,0.01,0.57-0.05c0.22-0.08,0.13-0.34,0.29-0.45
					c0.1-0.07,0.29-0.01,0.41-0.05c0.2-0.07,0.34-0.26,0.38-0.46C41.78-8.93,41.77-9,41.8-9.07c0.04-0.1,0.11-0.16,0.09-0.29
					c-0.01-0.06-0.05-0.12-0.06-0.19c-0.02-0.11,0-0.22,0-0.34c0-0.2,0.02-0.38-0.08-0.55c-0.38-0.69-1.24-0.93-1.97-0.79
					c-0.18,0.03-0.29,0.13-0.44,0.21c-0.17,0.09-0.14,0.17-0.32,0.22c-0.08,0.03-0.22,0.12-0.21,0.22c0,0.12,0,0.05,0.01,0.17
					c-0.02,0.01-0.02,0-0.03-0.03"/>
				<path class="st2" d="M31.14-10.43c0.02,0.07,0.01,0.13-0.03,0.19c-0.05,0.1-0.11,0.06-0.16,0.13c-0.05,0.06-0.1,0.28-0.08,0.36
					c-0.17,0.06-0.01,0.23-0.02,0.35c0,0.05-0.04,0.11-0.05,0.16c-0.01,0.12,0.02,0.27,0.07,0.37c0.1,0.2,0.27,0.41,0.44,0.54
					c0.19,0.15,0.36,0.57,0.61,0.63c0.18,0.04,0.38-0.1,0.54-0.14c0.18-0.04,0.4,0.01,0.57-0.05c0.22-0.08,0.13-0.34,0.29-0.45
					c0.1-0.07,0.29-0.01,0.41-0.05c0.2-0.07,0.34-0.26,0.38-0.46c0.02-0.08,0.01-0.14,0.04-0.22c0.04-0.1,0.11-0.16,0.09-0.29
					c-0.01-0.06-0.05-0.12-0.06-0.19c-0.02-0.11,0-0.22,0-0.34c0-0.2,0.02-0.38-0.08-0.55c-0.38-0.69-1.24-0.93-1.97-0.79
					c-0.18,0.03-0.29,0.13-0.44,0.21c-0.17,0.09-0.14,0.17-0.32,0.22c-0.08,0.03-0.22,0.12-0.21,0.22c0,0.12,0,0.05,0.01,0.17
					c-0.02,0.01-0.02,0-0.03-0.03"/>
				<path class="st2" d="M23.48-10.43c0.02,0.07,0.01,0.13-0.03,0.19c-0.05,0.1-0.11,0.06-0.17,0.13c-0.05,0.06-0.1,0.28-0.08,0.36
					c-0.17,0.06-0.01,0.23-0.02,0.35c0,0.05-0.04,0.11-0.04,0.16c-0.01,0.12,0.02,0.27,0.07,0.37c0.1,0.2,0.27,0.41,0.44,0.54
					c0.19,0.15,0.36,0.57,0.61,0.63c0.18,0.04,0.38-0.1,0.54-0.14c0.18-0.04,0.4,0.01,0.57-0.05c0.22-0.08,0.13-0.34,0.29-0.45
					c0.1-0.07,0.29-0.01,0.41-0.05c0.2-0.07,0.34-0.26,0.38-0.46c0.02-0.08,0.01-0.14,0.04-0.22c0.04-0.1,0.11-0.16,0.09-0.29
					c-0.01-0.06-0.05-0.12-0.06-0.19c-0.02-0.11,0-0.22,0-0.34c0-0.2,0.02-0.38-0.08-0.55c-0.38-0.69-1.24-0.93-1.97-0.79
					c-0.18,0.03-0.29,0.13-0.44,0.21c-0.17,0.09-0.14,0.17-0.32,0.22c-0.08,0.03-0.22,0.12-0.21,0.22c0,0.12,0,0.05,0.01,0.17
					c-0.02,0.01-0.02,0-0.03-0.03"/>
				<path class="st2" d="M15.82-10.43c0.02,0.07,0.01,0.13-0.03,0.19c-0.05,0.1-0.11,0.06-0.16,0.13c-0.05,0.06-0.1,0.28-0.08,0.36
					c-0.17,0.06-0.01,0.23-0.02,0.35c0,0.05-0.04,0.11-0.05,0.16c-0.01,0.12,0.02,0.27,0.07,0.37c0.1,0.2,0.27,0.41,0.44,0.54
					c0.19,0.15,0.36,0.57,0.61,0.63c0.18,0.04,0.38-0.1,0.54-0.14c0.18-0.04,0.4,0.01,0.57-0.05c0.22-0.08,0.13-0.34,0.29-0.45
					c0.1-0.07,0.29-0.01,0.41-0.05c0.2-0.07,0.34-0.26,0.38-0.46C18.8-8.93,18.79-9,18.82-9.07c0.04-0.1,0.11-0.16,0.09-0.29
					c-0.01-0.06-0.05-0.12-0.06-0.19c-0.02-0.11,0-0.22,0-0.34c0-0.2,0.02-0.38-0.08-0.55c-0.38-0.69-1.24-0.93-1.97-0.79
					c-0.18,0.03-0.29,0.13-0.44,0.21c-0.17,0.09-0.14,0.17-0.32,0.22c-0.08,0.03-0.22,0.12-0.21,0.22c0,0.12,0,0.05,0.01,0.17
					c-0.02,0.01-0.02,0-0.03-0.03"/>
				<path class="st2" d="M8.16-10.43c0.02,0.07,0.01,0.13-0.03,0.19c-0.05,0.1-0.11,0.06-0.17,0.13c-0.05,0.06-0.1,0.28-0.08,0.36
					C7.72-9.69,7.88-9.52,7.87-9.4c0,0.05-0.04,0.11-0.04,0.16C7.82-9.12,7.84-8.97,7.89-8.87c0.1,0.2,0.27,0.41,0.44,0.54
					c0.19,0.15,0.36,0.57,0.61,0.63c0.18,0.04,0.38-0.1,0.54-0.14c0.18-0.04,0.4,0.01,0.57-0.05c0.22-0.08,0.13-0.34,0.29-0.45
					c0.1-0.07,0.29-0.01,0.41-0.05c0.2-0.07,0.34-0.26,0.38-0.46c0.02-0.08,0.01-0.14,0.04-0.22c0.04-0.1,0.11-0.16,0.09-0.29
					c-0.01-0.06-0.05-0.12-0.06-0.19c-0.02-0.11,0-0.22,0-0.34c0-0.2,0.02-0.38-0.08-0.55c-0.38-0.69-1.24-0.93-1.97-0.79
					c-0.18,0.03-0.29,0.13-0.44,0.21c-0.17,0.09-0.14,0.17-0.32,0.22c-0.08,0.03-0.22,0.12-0.21,0.22c0,0.12,0,0.05,0.01,0.17
					c-0.02,0.01-0.02,0-0.03-0.03"/>
				<path class="st2" d="M0.5-10.43c0.02,0.07,0.01,0.13-0.03,0.19c-0.05,0.1-0.11,0.06-0.17,0.13c-0.05,0.06-0.1,0.28-0.08,0.36
					C0.06-9.69,0.22-9.52,0.21-9.4c0,0.05-0.04,0.11-0.04,0.16C0.16-9.12,0.18-8.97,0.23-8.87c0.1,0.2,0.27,0.41,0.44,0.54
					c0.19,0.15,0.36,0.57,0.61,0.63c0.18,0.04,0.38-0.1,0.54-0.14C2-7.88,2.22-7.83,2.39-7.89c0.22-0.08,0.13-0.34,0.29-0.45
					c0.1-0.07,0.29-0.01,0.41-0.05c0.2-0.07,0.34-0.26,0.38-0.46C3.48-8.93,3.47-9,3.5-9.07c0.04-0.1,0.11-0.16,0.09-0.29
					C3.58-9.43,3.54-9.48,3.53-9.55c-0.02-0.11,0-0.22,0-0.34c0-0.2,0.02-0.38-0.08-0.55c-0.38-0.69-1.24-0.93-1.97-0.79
					c-0.18,0.03-0.29,0.13-0.44,0.21c-0.17,0.09-0.14,0.17-0.32,0.22c-0.08,0.03-0.22,0.12-0.21,0.22c0,0.12,0,0.05,0.01,0.17
					c-0.02,0.01-0.02,0-0.03-0.03"/>
			</g>
		</g>
		<g>
			<path class="st2" d="M69.44-2.78c0.02,0.07,0.01,0.13-0.03,0.19c-0.05,0.1-0.11,0.06-0.17,0.13c-0.05,0.06-0.1,0.28-0.08,0.36
				C69-2.04,69.16-1.87,69.15-1.75c0,0.05-0.04,0.11-0.04,0.16c-0.01,0.12,0.02,0.27,0.07,0.37c0.1,0.2,0.27,0.41,0.43,0.54
				c0.19,0.15,0.36,0.57,0.61,0.63C70.4,0,70.6-0.15,70.76-0.18c0.18-0.04,0.4,0.01,0.57-0.05c0.22-0.08,0.13-0.34,0.29-0.45
				c0.1-0.07,0.29-0.01,0.41-0.05C72.23-0.81,72.37-1,72.4-1.2c0.02-0.08,0.01-0.14,0.04-0.22c0.04-0.1,0.11-0.16,0.09-0.29
				c-0.01-0.06-0.05-0.12-0.06-0.19c-0.02-0.11,0-0.22,0-0.34c0-0.2,0.02-0.38-0.08-0.55c-0.38-0.69-1.24-0.93-1.97-0.79
				c-0.18,0.03-0.29,0.13-0.44,0.21c-0.17,0.09-0.14,0.17-0.32,0.22c-0.08,0.03-0.22,0.12-0.21,0.22c0,0.12,0,0.05,0.01,0.17
				c-0.02,0.01-0.02,0-0.03-0.03"/>
			<path class="st2" d="M61.78-2.78c0.02,0.07,0.01,0.13-0.03,0.19c-0.05,0.1-0.11,0.06-0.17,0.13c-0.05,0.06-0.1,0.28-0.08,0.36
				c-0.17,0.06-0.01,0.23-0.02,0.35c0,0.05-0.04,0.11-0.04,0.16c-0.01,0.12,0.02,0.27,0.07,0.37c0.1,0.2,0.27,0.41,0.44,0.54
				c0.19,0.15,0.36,0.57,0.61,0.63c0.18,0.04,0.38-0.1,0.54-0.14c0.18-0.04,0.4,0.01,0.57-0.05c0.22-0.08,0.13-0.34,0.29-0.45
				c0.1-0.07,0.29-0.01,0.41-0.05c0.2-0.07,0.34-0.26,0.38-0.46c0.02-0.08,0.01-0.14,0.04-0.22c0.04-0.1,0.11-0.16,0.09-0.29
				c-0.01-0.06-0.05-0.12-0.06-0.19c-0.02-0.11,0-0.22,0-0.34c0-0.2,0.02-0.38-0.08-0.55c-0.38-0.69-1.24-0.93-1.97-0.79
				c-0.18,0.03-0.29,0.13-0.44,0.21C62.14-3.28,62.18-3.2,62-3.14c-0.08,0.03-0.22,0.12-0.21,0.22c0,0.12,0,0.05,0.01,0.17
				c-0.02,0.01-0.02,0-0.03-0.03"/>
			<path class="st2" d="M54.12-2.78c0.02,0.07,0.01,0.13-0.03,0.19c-0.05,0.1-0.11,0.06-0.17,0.13c-0.05,0.06-0.1,0.28-0.08,0.36
				c-0.17,0.06-0.01,0.23-0.02,0.35c0,0.05-0.04,0.11-0.04,0.16c-0.01,0.12,0.02,0.27,0.07,0.37c0.1,0.2,0.27,0.41,0.44,0.54
				c0.19,0.15,0.36,0.57,0.61,0.63c0.18,0.04,0.38-0.1,0.54-0.14c0.18-0.04,0.4,0.01,0.57-0.05c0.22-0.08,0.13-0.34,0.29-0.45
				c0.1-0.07,0.29-0.01,0.41-0.05c0.2-0.07,0.34-0.26,0.38-0.46c0.02-0.08,0.01-0.14,0.04-0.22c0.04-0.1,0.11-0.16,0.09-0.29
				c-0.01-0.06-0.05-0.12-0.06-0.19c-0.02-0.11,0-0.22,0-0.34c0-0.2,0.02-0.38-0.08-0.55c-0.38-0.69-1.24-0.93-1.97-0.79
				c-0.18,0.03-0.29,0.13-0.44,0.21c-0.17,0.09-0.14,0.17-0.32,0.22c-0.08,0.03-0.22,0.12-0.21,0.22c0,0.12,0,0.05,0.01,0.17
				c-0.02,0.01-0.02,0-0.03-0.03"/>
			<path class="st2" d="M46.46-2.78c0.02,0.07,0.01,0.13-0.03,0.19c-0.05,0.1-0.11,0.06-0.16,0.13c-0.05,0.06-0.1,0.28-0.08,0.36
				c-0.17,0.06-0.01,0.23-0.02,0.35c0,0.05-0.04,0.11-0.05,0.16c-0.01,0.12,0.02,0.27,0.07,0.37c0.1,0.2,0.27,0.41,0.44,0.54
				C46.82-0.52,47-0.1,47.24-0.04c0.18,0.04,0.38-0.1,0.54-0.14c0.18-0.04,0.4,0.01,0.57-0.05c0.22-0.08,0.13-0.34,0.29-0.45
				c0.1-0.07,0.29-0.01,0.41-0.05c0.2-0.07,0.34-0.26,0.38-0.46c0.02-0.08,0.01-0.14,0.04-0.22c0.04-0.1,0.11-0.16,0.09-0.29
				c-0.01-0.06-0.05-0.12-0.06-0.19c-0.02-0.11,0-0.22,0-0.34c0-0.2,0.02-0.38-0.08-0.55c-0.38-0.69-1.24-0.93-1.97-0.79
				c-0.18,0.03-0.29,0.13-0.44,0.21c-0.17,0.09-0.14,0.17-0.32,0.22c-0.08,0.03-0.22,0.12-0.21,0.22c0,0.12,0,0.05,0.01,0.17
				c-0.02,0.01-0.02,0-0.03-0.03"/>
			<path class="st2" d="M38.8-2.78c0.02,0.07,0.01,0.13-0.03,0.19c-0.05,0.1-0.11,0.06-0.17,0.13c-0.05,0.06-0.1,0.28-0.08,0.36
				c-0.17,0.06-0.01,0.23-0.02,0.35c0,0.05-0.04,0.11-0.04,0.16c-0.01,0.12,0.02,0.27,0.07,0.37c0.1,0.2,0.27,0.41,0.44,0.54
				c0.19,0.15,0.36,0.57,0.61,0.63c0.18,0.04,0.38-0.1,0.54-0.14c0.18-0.04,0.4,0.01,0.57-0.05c0.22-0.08,0.13-0.34,0.29-0.45
				c0.1-0.07,0.29-0.01,0.41-0.05c0.2-0.07,0.34-0.26,0.38-0.46c0.02-0.08,0.01-0.14,0.04-0.22c0.04-0.1,0.11-0.16,0.09-0.29
				c-0.01-0.06-0.05-0.12-0.06-0.19c-0.02-0.11,0-0.22,0-0.34c0-0.2,0.02-0.38-0.08-0.55c-0.38-0.69-1.24-0.93-1.97-0.79
				c-0.18,0.03-0.29,0.13-0.44,0.21c-0.17,0.09-0.14,0.17-0.32,0.22c-0.08,0.03-0.22,0.12-0.21,0.22c0,0.12,0,0.05,0.01,0.17
				c-0.02,0.01-0.02,0-0.03-0.03"/>
			<path class="st2" d="M31.14-2.78c0.02,0.07,0.01,0.13-0.03,0.19c-0.05,0.1-0.11,0.06-0.16,0.13c-0.05,0.06-0.1,0.28-0.08,0.36
				c-0.17,0.06-0.01,0.23-0.02,0.35c0,0.05-0.04,0.11-0.05,0.16c-0.01,0.12,0.02,0.27,0.07,0.37c0.1,0.2,0.27,0.41,0.44,0.54
				c0.19,0.15,0.36,0.57,0.61,0.63C32.1,0,32.3-0.15,32.46-0.18c0.18-0.04,0.4,0.01,0.57-0.05c0.22-0.08,0.13-0.34,0.29-0.45
				c0.1-0.07,0.29-0.01,0.41-0.05C33.93-0.81,34.07-1,34.1-1.2c0.02-0.08,0.01-0.14,0.04-0.22c0.04-0.1,0.11-0.16,0.09-0.29
				c-0.01-0.06-0.05-0.12-0.06-0.19c-0.02-0.11,0-0.22,0-0.34c0-0.2,0.02-0.38-0.08-0.55c-0.38-0.69-1.24-0.93-1.97-0.79
				c-0.18,0.03-0.29,0.13-0.44,0.21c-0.17,0.09-0.14,0.17-0.32,0.22c-0.08,0.03-0.22,0.12-0.21,0.22c0,0.12,0,0.05,0.01,0.17
				c-0.02,0.01-0.02,0-0.03-0.03"/>
			<path class="st2" d="M23.48-2.78c0.02,0.07,0.01,0.13-0.03,0.19c-0.05,0.1-0.11,0.06-0.17,0.13c-0.05,0.06-0.1,0.28-0.08,0.36
				c-0.17,0.06-0.01,0.23-0.02,0.35c0,0.05-0.04,0.11-0.04,0.16c-0.01,0.12,0.02,0.27,0.07,0.37c0.1,0.2,0.27,0.41,0.44,0.54
				c0.19,0.15,0.36,0.57,0.61,0.63c0.18,0.04,0.38-0.1,0.54-0.14c0.18-0.04,0.4,0.01,0.57-0.05c0.22-0.08,0.13-0.34,0.29-0.45
				c0.1-0.07,0.29-0.01,0.41-0.05c0.2-0.07,0.34-0.26,0.38-0.46c0.02-0.08,0.01-0.14,0.04-0.22c0.04-0.1,0.11-0.16,0.09-0.29
				c-0.01-0.06-0.05-0.12-0.06-0.19c-0.02-0.11,0-0.22,0-0.34c0-0.2,0.02-0.38-0.08-0.55c-0.38-0.69-1.24-0.93-1.97-0.79
				c-0.18,0.03-0.29,0.13-0.44,0.21c-0.17,0.09-0.14,0.17-0.32,0.22c-0.08,0.03-0.22,0.12-0.21,0.22c0,0.12,0,0.05,0.01,0.17
				c-0.02,0.01-0.02,0-0.03-0.03"/>
			<path class="st2" d="M15.82-2.78c0.02,0.07,0.01,0.13-0.03,0.19c-0.05,0.1-0.11,0.06-0.16,0.13c-0.05,0.06-0.1,0.28-0.08,0.36
				c-0.17,0.06-0.01,0.23-0.02,0.35c0,0.05-0.04,0.11-0.05,0.16c-0.01,0.12,0.02,0.27,0.07,0.37c0.1,0.2,0.27,0.41,0.44,0.54
				c0.19,0.15,0.36,0.57,0.61,0.63c0.18,0.04,0.38-0.1,0.54-0.14c0.18-0.04,0.4,0.01,0.57-0.05c0.22-0.08,0.13-0.34,0.29-0.45
				c0.1-0.07,0.29-0.01,0.41-0.05c0.2-0.07,0.34-0.26,0.38-0.46c0.02-0.08,0.01-0.14,0.04-0.22c0.04-0.1,0.11-0.16,0.09-0.29
				c-0.01-0.06-0.05-0.12-0.06-0.19c-0.02-0.11,0-0.22,0-0.34c0-0.2,0.02-0.38-0.08-0.55c-0.38-0.69-1.24-0.93-1.97-0.79
				c-0.18,0.03-0.29,0.13-0.44,0.21c-0.17,0.09-0.14,0.17-0.32,0.22c-0.08,0.03-0.22,0.12-0.21,0.22c0,0.12,0,0.05,0.01,0.17
				c-0.02,0.01-0.02,0-0.03-0.03"/>
			<path class="st2" d="M8.16-2.78c0.02,0.07,0.01,0.13-0.03,0.19c-0.05,0.1-0.11,0.06-0.17,0.13C7.91-2.4,7.87-2.18,7.89-2.1
				C7.72-2.04,7.88-1.87,7.87-1.75c0,0.05-0.04,0.11-0.04,0.16C7.82-1.47,7.84-1.32,7.89-1.22c0.1,0.2,0.27,0.41,0.44,0.54
				C8.52-0.52,8.69-0.1,8.94-0.04C9.11,0,9.32-0.15,9.48-0.18c0.18-0.04,0.4,0.01,0.57-0.05c0.22-0.08,0.13-0.34,0.29-0.45
				c0.1-0.07,0.29-0.01,0.41-0.05c0.2-0.07,0.34-0.26,0.38-0.46c0.02-0.08,0.01-0.14,0.04-0.22c0.04-0.1,0.11-0.16,0.09-0.29
				c-0.01-0.06-0.05-0.12-0.06-0.19c-0.02-0.11,0-0.22,0-0.34c0-0.2,0.02-0.38-0.08-0.55c-0.38-0.69-1.24-0.93-1.97-0.79
				C8.95-3.54,8.85-3.45,8.69-3.37C8.52-3.28,8.55-3.2,8.37-3.14C8.29-3.12,8.16-3.02,8.16-2.92c0,0.12,0,0.05,0.01,0.17
				c-0.02,0.01-0.02,0-0.03-0.03"/>
			<path class="st2" d="M0.5-2.78C0.51-2.71,0.5-2.65,0.47-2.59C0.42-2.49,0.36-2.53,0.3-2.46C0.25-2.4,0.21-2.18,0.23-2.1
				C0.06-2.04,0.21-1.87,0.21-1.75c0,0.05-0.04,0.11-0.04,0.16C0.15-1.47,0.18-1.32,0.23-1.22c0.1,0.2,0.27,0.41,0.44,0.54
				C0.86-0.52,1.03-0.1,1.28-0.04C1.45,0,1.66-0.15,1.82-0.18C2-0.23,2.22-0.17,2.39-0.24c0.22-0.08,0.13-0.34,0.29-0.45
				c0.1-0.07,0.29-0.01,0.41-0.05C3.28-0.81,3.42-1,3.46-1.2C3.48-1.28,3.47-1.34,3.5-1.42c0.04-0.1,0.11-0.16,0.09-0.29
				C3.58-1.77,3.54-1.83,3.53-1.9c-0.02-0.11,0-0.22,0-0.34c0-0.2,0.02-0.38-0.08-0.55C3.07-3.47,2.21-3.71,1.47-3.57
				C1.29-3.54,1.19-3.45,1.03-3.37C0.86-3.28,0.89-3.2,0.71-3.14C0.63-3.12,0.5-3.02,0.5-2.92c0,0.12,0,0.05,0.01,0.17
				c-0.02,0.01-0.02,0-0.03-0.03"/>
		</g>
	</g>
</pattern>
<g>
	<path class="st3" d="M271.71,99.7c0.17-0.38,0.39-0.71,0.68-0.99c0.29-0.28,0.62-0.5,1-0.66c0.38-0.16,0.79-0.24,1.21-0.24
		c0.43,0,0.83,0.08,1.21,0.24c0.38,0.16,0.71,0.38,1,0.66c0.28,0.28,0.51,0.61,0.68,0.99c0.17,0.38,0.25,0.79,0.25,1.23
		c0,0.45-0.08,0.87-0.25,1.25c-0.17,0.38-0.39,0.71-0.68,0.99c-0.28,0.28-0.62,0.5-1,0.66c-0.38,0.16-0.78,0.23-1.21,0.23
		c-0.43,0-0.83-0.08-1.21-0.23c-0.38-0.16-0.72-0.38-1-0.66c-0.29-0.28-0.51-0.61-0.68-0.99c-0.17-0.38-0.25-0.8-0.25-1.25
		C271.46,100.49,271.54,100.08,271.71,99.7z M272.22,102c0.13,0.33,0.31,0.61,0.54,0.85c0.23,0.24,0.5,0.43,0.82,0.56
		c0.31,0.14,0.66,0.21,1.02,0.21c0.36,0,0.7-0.07,1.01-0.21c0.31-0.14,0.58-0.32,0.81-0.56c0.23-0.24,0.41-0.52,0.54-0.85
		c0.13-0.33,0.2-0.68,0.2-1.06c0-0.37-0.06-0.72-0.2-1.04c-0.13-0.32-0.31-0.6-0.54-0.84c-0.23-0.24-0.5-0.42-0.81-0.56
		c-0.31-0.14-0.65-0.2-1.01-0.2c-0.37,0-0.71,0.07-1.02,0.2c-0.31,0.14-0.59,0.32-0.82,0.56c-0.23,0.24-0.41,0.52-0.54,0.84
		c-0.13,0.32-0.2,0.67-0.2,1.04C272.03,101.32,272.09,101.67,272.22,102z M274.8,99.12c0.43,0,0.76,0.09,0.96,0.26
		c0.21,0.17,0.31,0.43,0.31,0.79c0,0.33-0.09,0.57-0.28,0.72c-0.18,0.15-0.41,0.24-0.69,0.27l1.04,1.61h-0.61l-0.99-1.57h-0.6v1.57
		h-0.57v-3.65H274.8z M274.55,100.74c0.13,0,0.25,0,0.36-0.01c0.11-0.01,0.22-0.03,0.31-0.07c0.09-0.04,0.16-0.1,0.21-0.18
		c0.05-0.08,0.08-0.19,0.08-0.34c0-0.12-0.02-0.22-0.07-0.29c-0.05-0.07-0.11-0.13-0.18-0.17c-0.08-0.04-0.16-0.07-0.26-0.08
		c-0.1-0.01-0.19-0.02-0.29-0.02h-0.75v1.16H274.55z"/>
</g>
<g>
	<path class="st3" d="M39.5,86.27l-1.65-4.44c-1.61-0.79-2.91-1.1-4.56-1.1c-5.31,0-9.4,3.54-9.4,11.48c0,8.89,5.15,11.64,9.4,11.64
		c1.81,0,3.07-0.28,4.72-1.02l1.73-4.68h0.55c0,1.06-0.08,2.12-0.08,3.15c0,1.06,0.08,2.12,0.08,3.18c-2.16,0.51-4.32,0.9-6.53,0.9
		c-7.27,0-13.88-4.6-13.88-12.35c0-7.55,6.25-13.84,14.04-13.84c2,0,4.13,0.16,6.13,0.63c0,1.06-0.08,2.16-0.08,3.22
		c0,1.06,0.08,2.12,0.08,3.23H39.5z"/>
	<path class="st3" d="M42.65,102.43l2.45-0.83c0.8-0.29,0.89-0.41,0.92-2.86c0.03-1.91,0.1-3.85,0.1-5.76c0-1.91-0.06-3.85-0.1-5.76
		c-0.06-2.99-0.09-3.21-0.7-3.44l-2.67-0.89v-0.45c1.53,0.13,3.09,0.25,4.87,0.25c1.59,0,3.15-0.12,4.74-0.25v0.45l-2.67,0.89
		c-0.6,0.22-0.64,0.44-0.7,3.44c-0.03,1.91-0.1,3.85-0.1,5.76c0,1.91,0.06,3.85,0.1,5.76c0.03,2.45,0.13,2.58,0.92,2.86l2.45,0.83
		v0.44c-1.5-0.13-3.34-0.25-4.74-0.25c-1.59,0-3.44,0.13-4.87,0.25V102.43z"/>
	<path class="st3" d="M52.83,82.45c2.77,0.13,5.5,0.25,8.27,0.25c2.77,0,5.5-0.12,8.27-0.25v5.41h-0.45l-0.95-2.55
		c-0.45-1.08-0.76-1.21-5.54-1.21v13.88c0,1.59,0.06,2.42,0.25,2.86c0.19,0.42,0.86,0.8,3.28,1.59v0.44
		c-1.5-0.13-2.89-0.25-4.87-0.25c-1.97,0-3.37,0.13-4.87,0.25v-0.44c2.42-0.79,3.12-1.18,3.28-1.59c0.19-0.44,0.25-1.27,0.25-2.86
		V84.11c-4.77,0-5.09,0.13-5.54,1.21l-0.95,2.55h-0.45V82.45z"/>
	<path class="st3" d="M73.96,102.43l1.46-0.45c1.59-0.48,1.97-0.79,1.97-2v-4.93c-2.93-5.57-4.45-8.37-6.36-11.29
		c-0.51-0.38-1.27-0.63-1.88-0.86v-0.45c1.37,0.13,2.74,0.25,4.14,0.25c1.43,0,2.83-0.12,4.26-0.25v0.45
		c-1.85,0.45-2.45,0.73-2.45,1.43c0,0.73,3.82,7.95,4.49,8.94c1.31-2.54,4.46-8.5,4.46-9.29c0-0.51-1.46-0.86-2.45-1.08v-0.45
		c1.11,0.13,2.26,0.25,3.37,0.25c1.02,0,2-0.12,2.99-0.25v0.45c-1.4,0.16-2,1.18-2.86,2.83l-5.03,9.39v4.87c0,1.21,0.38,1.53,1.97,2
		l1.46,0.45v0.44c-1.4-0.13-3.25-0.25-4.71-0.25c-1.59,0-3.44,0.13-4.84,0.25V102.43z"/>
	<path class="st3" d="M86.21,82.45c1.5,0.13,2.99,0.25,4.45,0.25c1.46,0,2.96-0.12,4.42-0.25v0.45l-1.78,0.57
		c-0.79,0.25-1.18,0.48-1.18,0.86c0,0.67,2.51,9.32,3.95,13.27c2.13-5.15,4.3-10.34,6.08-15.53h0.64
		c1.91,5.35,3.85,10.63,5.98,15.91l1.3-3.6c2.1-6.14,3.12-9.01,3.12-10.12c0-0.57-0.64-0.73-2.77-1.37v-0.45
		c1.21,0.13,2.45,0.25,3.66,0.25c1.11,0,2.2-0.12,3.31-0.25v0.45c-1.53,0.51-1.97,1.27-2.67,3.09c-3.09,7.89-5.41,14.82-6.11,17.28
		h-0.86c-1.75-5.25-4.01-10.53-6.05-15.78c-2.07,5.19-4.42,10.5-6.08,15.78h-0.86c-1.56-5.66-3.53-11.49-5.28-17.28
		c-0.41-1.37-0.7-1.91-0.95-2.1c-0.41-0.35-1.15-0.64-2.32-0.99V82.45z"/>
	<path class="st3" d="M115.8,102.43l2.45-0.83c0.79-0.29,0.89-0.41,0.92-2.86c0.03-1.91,0.1-3.85,0.1-5.76
		c0-1.91-0.06-3.85-0.1-5.76c-0.06-2.99-0.1-3.21-0.7-3.44l-2.67-0.89v-0.45c1.53,0.13,3.09,0.25,4.87,0.25
		c1.59,0,3.15-0.12,4.74-0.25v0.45l-2.67,0.89c-0.6,0.22-0.64,0.44-0.7,3.44c-0.03,1.91-0.09,3.85-0.09,5.76
		c0,1.91,0.06,3.85,0.09,5.76c0.03,2.45,0.13,2.58,0.92,2.86l2.45,0.83v0.44c-1.5-0.13-3.34-0.25-4.74-0.25
		c-1.59,0-3.44,0.13-4.87,0.25V102.43z"/>
	<path class="st3" d="M128.87,87.23c0-2.99-0.09-3.21-0.79-3.44l-2.67-0.89v-0.45c1.37,0.13,2.58,0.25,3.82,0.25
		c1.08,0,3.21-0.25,5.76-0.25c4.71,0,10.44,3.37,10.44,10.28c0,5.47-3.63,10.15-9.8,10.15c-3.63,0-5.22-0.25-6.87-0.25
		c-1.11,0-2.2,0.13-3.34,0.25v-0.44l2.45-0.83c0.89-0.29,1.02-0.41,1.02-2.86V87.23z M131.55,98.17c0.09,2.45,0,1.49,0.19,3.53
		c0.86,0.06,1.75,0.13,2.45,0.13c4.49,0,8.18-1.81,8.18-9.19c0-6.37-3.69-9.13-8.49-9.13c-0.76,0-1.46,0.13-2.13,0.25
		c-0.1,1.43-0.19,2.83-0.19,4.23V98.17z"/>
	<path class="st3" d="M146.75,87.23c0-2.99-0.1-3.21-0.8-3.44l-2.67-0.89v-0.45c2.64,0.13,5.06,0.25,7.48,0.25
		c3.02,0,6.01-0.12,8.81-0.25c-0.03,0.8-0.09,1.94-0.09,2.42c0,0.48,0.06,1.56,0.09,2.29h-0.44l-0.83-2.39
		c-0.32-0.89-0.57-0.89-4.23-0.89c-1.85,0-3.31,0.03-4.49,0.06c-0.07,1.11-0.16,2.29-0.16,3.63v3.91h3.31c3.85,0,4.2-0.06,4.49-0.76
		l0.83-2.26h0.44c-0.03,1.21-0.06,2.42-0.06,3.6c0,1.31,0.03,2.51,0.06,3.85h-0.44l-0.83-2.42c-0.29-0.7-0.64-0.76-4.49-0.76h-3.31
		v4.33c0,1.46,0.09,2.93,0.16,4.26c1.49,0.03,2.99,0.13,4.42,0.13c3.4,0,3.88-0.03,4.2-0.42c0.38-0.48,0.73-1.5,1.3-3.37h0.45
		c-0.06,0.92-0.19,1.88-0.19,2.8v2.42c-1.66-0.13-6.55-0.25-8.34-0.25c-2.8,0-5.85,0.13-8.14,0.25v-0.44l2.45-0.83
		c0.89-0.29,1.02-0.41,1.02-2.86V87.23z"/>
	<path class="st3" d="M173.45,87.23c0-2.99-0.1-3.21-0.79-3.44l-2.67-0.89v-0.45c1.75,0.13,3.37,0.25,4.64,0.25
		c1.27,0,3.69-0.25,5.5-0.25c3.4,0,6.84,1.5,6.84,5.31c0,2.64-2.86,4.2-5.85,4.49v0.06c3.15,0.22,6.81,1.4,6.81,5.16
		c0,2.93-2.29,5.41-6.87,5.41c-2.42,0-4.9-0.25-6.87-0.25c-1.49,0-2.77,0.13-4.2,0.25v-0.44l2.45-0.83
		c0.89-0.29,1.02-0.41,1.02-2.86V87.23z M176.12,91.71h2.45c2.1,0,5.34-0.35,5.34-3.98c0-3.12-2.23-4.23-4.93-4.23
		c-1.02,0-1.69,0-2.77,0.06c-0.06,1.46-0.1,2.39-0.1,3.82V91.71z M176.12,98.81c0,0.99,0.03,1.94,0.1,2.93
		c0.86,0.03,1.62,0.1,2.42,0.1c3.09,0,6.24-0.7,6.24-4.45c0-3.47-2.93-4.62-6.49-4.62h-2.26V98.81z"/>
	<path class="st3" d="M187.19,102.43c0.76-0.29,1.66-0.64,2.42-1.05c2.77-6.52,6.2-13.84,8.5-19.57h0.7
		c2.55,6.62,5.41,13.23,8.11,19.69l2.67,0.92v0.44c-1.69-0.13-3.34-0.25-5.03-0.25c-1.43,0-2.83,0.13-4.26,0.25v-0.44
		c0.8-0.19,2.16-0.6,3.12-0.99c-0.38-1.34-1.4-4.33-1.84-5.28c-1.34-0.03-2.71-0.06-4.04-0.06c-1.34,0-2.64,0.03-3.98,0.06
		c-0.86,1.62-1.37,3.5-1.81,5.28l2.74,0.99v0.44c-1.24-0.13-2.48-0.25-3.75-0.25c-1.18,0-2.35,0.13-3.53,0.25V102.43z M197.66,86.43
		L194,94.86h7.16L197.66,86.43z"/>
	<path class="st3" d="M230.59,83.06l-2.13,0.77c-0.7,0.25-1.02,0.57-1.05,1.14c-0.09,2.58-0.35,8.21-0.35,10.05
		c0,1.3,0,4.96,0.06,8.59h-0.76c-2.04-3.02-4.23-5.92-6.4-8.84l-6.46-8.69h-0.06v3.56c0,4.2,0.06,10.47,0.16,11.07
		c0.1,0.51,0.32,0.76,1.24,1.05l2.1,0.67v0.44c-1.4-0.13-2.83-0.25-4.23-0.25c-1.37,0-2.7,0.13-4.07,0.25v-0.44l2.42-0.92
		c0.44-0.16,0.73-0.45,0.76-0.73c0.13-1.02,0.35-5.76,0.35-9.83v-6.3l-0.41-0.63c-0.99-0.45-1.97-0.8-2.99-1.11v-0.45
		c1.02,0.13,2.04,0.25,3.05,0.25c0.96,0,1.91-0.12,2.86-0.25c0.61,1.11,1.27,2.13,2.04,3.15l9,12.09l0.06-0.06v-7.7
		c0-1.53-0.03-3.09-0.12-4.65c-0.07-0.89-0.32-1.14-1.24-1.53l-2.1-0.86v-0.45c1.3,0.13,2.64,0.25,3.95,0.25
		c1.43,0,2.86-0.12,4.33-0.25V83.06z"/>
	<path class="st3" d="M230.62,102.43l2.45-0.83c0.79-0.29,0.89-0.41,0.92-2.86c0.03-1.91,0.1-3.85,0.1-5.76
		c0-1.91-0.06-3.85-0.1-5.76c-0.06-2.99-0.1-3.21-0.7-3.44l-2.67-0.89v-0.45c1.53,0.13,3.09,0.25,4.87,0.25
		c1.59,0,3.15-0.12,4.74-0.25v0.45l-2.67,0.89c-0.61,0.22-0.64,0.44-0.7,3.44c-0.03,1.91-0.09,3.85-0.09,5.76
		c0,1.91,0.06,3.85,0.09,5.76c0.03,2.45,0.13,2.58,0.92,2.86l2.45,0.83v0.44c-1.5-0.13-3.34-0.25-4.74-0.25
		c-1.59,0-3.43,0.13-4.87,0.25V102.43z M243.76,102.43c1.78-0.51,2.36-0.67,2.36-0.89c0-0.25-0.26-0.44-0.54-0.76l-8.02-8.72
		l6.71-6.11c1.15-1.05,1.78-1.72,1.78-2.04c0-0.35-0.89-0.54-2.23-1.02v-0.45c1.37,0.13,2.77,0.25,4.13,0.25
		c1.18,0,2.36-0.12,3.53-0.25v0.45c-0.86,0.22-2.23,0.57-3.47,1.65l-7.54,6.59l9.35,9.96c0.19,0.19,0.67,0.6,0.76,0.64
		c0.32,0.16,1.18,0.51,1.97,0.7v0.44c-1.53-0.13-3.12-0.25-4.68-0.25c-1.4,0-2.77,0.13-4.14,0.25V102.43z"/>
	<path class="st3" d="M254.42,97.87h0.55l1.34,5.07c1.18,0.67,3.03,0.9,4.01,0.9c3.15,0,6.01-1.42,6.01-5.07
		c0-5.58-12.31-5.11-12.31-12.5c0-4.76,4.4-7.08,8.65-7.08c1.65,0,4.17,0.51,5.82,1.26l-0.24,5.39h-0.43l-1.53-4.36
		c-1.34-0.51-2.64-0.75-3.97-0.75c-2.48,0-4.76,1.93-4.76,4.56c0,6.17,12.31,4.6,12.31,12.74c0,3.42-2.56,7.35-10.3,7.35
		c-1.89,0-3.58-0.24-5.82-1.1L254.42,97.87z"/>
</g>
<path d="M113.95,81.98"/>
<path class="st4" d="M163.35,74.61c0-0.06,0.01-0.11,0.01-0.17c0-4.22-6.42-7.64-14.34-7.64c-7.92,0-14.34,3.42-14.34,7.64
	c0,0.06,0.01,0.11,0.01,0.17h-1.98c0.18-4.75,7.35-8.41,16.31-8.41c8.96,0,16.14,3.66,16.31,8.41H163.35z"/>
<path class="st4" d="M191.49,70.61l6.88-0.61l-5.51,0.05l37.15-6.27l-44.73,2.95l9.63-1.89l-8.26,1.06l38.55-11.74l-42.23,8.61
	l7.67-3.27l-6.59,1.64l30.22-15.71l-37.42,14.16l0.2-0.14l8.08-4.82l-7.94,3.57l0-0.01l25.41-20.5L169.65,57.2l7.45-7.03l-6.91,4.93
	l17.31-23.2l-25.2,23.18l4.05-8.26l-4.74,6.16l6.95-24.09l-14.27,24.36l0.66-8.08l-2.43,8.07l-3.76-44.71L145,53.31l-2.05-8.13
	l0.57,8.56l-14.55-24.85l7,24.25l-4.44-5.81l3.57,7.62L110.03,31.9l17.53,23.5l-7.16-5.18l6.63,6.5L92.78,36.76l27.34,21.36
	l-7.56-3.27l6.91,4.24L81.5,44.24l33.29,17.57l-7.76-2.05l6.71,2.74l-39.7-9.21l38.25,12.98l-9.75-1.33l8.44,1.65l-46.55-3.7
	l43.54,7.07l-7.7,0.06l7.65,0.64L3.63,74.36l107.03,0.06h14.96l-27.1-1.9l31.83,0.02l-26.49-5.22l27.71,3.38l-23.69-7.8l25.66,6.12
	l-19.96-10.09l22.61,8.66l-15.15-11.83l18.35,10.7l-9.78-13.11l13.39,12.32l-3.99-13.82l7.86,13.42l1.98-29.01l1.98,29.01
	l7.86-13.42l-3.99,13.82l13.4-12.32l-9.78,13.11l18.35-10.7l-15.15,11.83l21.66-8.21l-19.01,9.64l25.66-6.12l-23.69,7.8l27.71-3.38
	l-26.49,5.22l37.74-0.02l-33.65,1.9h15.39l98.11-0.06L191.49,70.61z"/>
<rect x="20.96" y="111.95" class="st0" width="258.65" height="18.59"/>
<text transform="matrix(0.9 0 0 1 69.0394 124.4636)" class="st5 st6 st7">a division of HTLF Bank</text>
</svg>
