<?xml version="1.0" encoding="utf-8"?>
<!-- Generator: Adobe Illustrator 27.5.0, SVG Export Plug-In . SVG Version: 6.00 Build 0)  -->
<svg version="1.1" id="Layer_1" xmlns="http://www.w3.org/2000/svg" xmlns:xlink="http://www.w3.org/1999/xlink" x="0px" y="0px"
	 viewBox="0 0 1152.8 620.6" style="enable-background:new 0 0 1152.8 620.6;" xml:space="preserve">
<style type="text/css">
	.st0{clip-path:url(#SVGID_00000041272651476781457420000004369319289692898451_);fill:#FFFFFF;}
	.st1{fill:none;}
	.st2{fill:#FFFFFF;}
	.st3{font-family:'NeurialGrotesk-Light';}
	.st4{font-size:36px;}
</style>
<g>
	<defs>
		<polygon id="SVGID_1_" points="-98.6,-203.5 1253,-112.7 1253,1237.3 -98.6,1146.5 		"/>
	</defs>
	<clipPath id="SVGID_00000079450948830486686060000003495062007656430497_">
		<use xlink:href="#SVGID_1_"  style="overflow:visible;"/>
	</clipPath>
	<path style="clip-path:url(#SVGID_00000079450948830486686060000003495062007656430497_);fill:#FFFFFF;" d="M241.9,405l-13,32.5
		c18.8-13.3,36.3-20.1,88.4-35.2l29.7-99.1c-106.5,22.4-245.7,182.9-268.7,234C177.1,423.1,241.9,405,241.9,405"/>
	<path style="clip-path:url(#SVGID_00000079450948830486686060000003495062007656430497_);fill:#FFFFFF;" d="M506.9,281.5
		c-182.1-19.5-261.7,62.7-261.7,62.7l19.5-47.3c0,0-101.3,27.1-205,151.5c0,0,68.1-158.4,263.5-249.1l-20.6,57.5
		c0,0,46.1-41.7,125.2-49.3l24.9-75.9c-61.8-4.3-147.6,43.6-211.9,98.1l20-47c0,0-135,54.2-240.1,201c0,0,113.2-224.4,304.6-316.6
		l-16.3,52c0,0,166.4-128.5,278.1-84L506.9,281.5z"/>
	<path style="clip-path:url(#SVGID_00000079450948830486686060000003495062007656430497_);fill:#FFFFFF;" d="M428.2,327.2h-4.9
		c-1.8-7.8-7-9.6-14.3-9.6c-14.6,0-24.2,10.1-24.2,32.8v50.2c0,4.9,5.5,6.2,11.2,7.8v3.9c-6.8,0-13.5-1-20.3-1c-6.8,0-13.5,1-20.3,1
		v-3.9c5.2-1.3,11.2-3.1,11.2-7.8v-46.8c0-14.3-1.3-28.1-3.4-31.7c-1.3-2.4-3.4-2.9-5.7-2.9c-2.3,0-5.7,0.5-8.3,1.3v-3.9
		c10.7-2.9,20.3-8.3,29.7-13.8h3.9l1.3,22.1h0.5c7.8-11.2,16.9-22.1,30.7-22.1c4.4,0,8.9,0.8,13,2.1V327.2z"/>
	<path style="clip-path:url(#SVGID_00000079450948830486686060000003495062007656430497_);fill:#FFFFFF;" d="M463.3,302.7
		c-0.3,27.6-1.3,55.7-1.3,71.5v26.3c0,4.9,5.5,6.2,10.7,7.8v3.9c-6.2,0-13-1-19.8-1c-5.5,0-12.2,1-17.7,1v-3.9
		c2.6-1.3,8.6-3.1,8.6-7.8v-34.3c0-14.3-0.8-37.2-1.8-40.3c-1-3.4-3.1-4.4-11.2-4.4v-3.9c8.8-1,24.5-8.6,28.6-14.8H463.3z"/>
	<path style="clip-path:url(#SVGID_00000079450948830486686060000003495062007656430497_);fill:#FFFFFF;" d="M567.3,400.6
		c0,4.9,5.5,6.2,11.7,7.8v3.9c-7.3,0-14-1-20.8-1s-13.5,1-18.2,1v-3.9c3.1-1.3,9.1-3.1,9.1-7.8v-41.9c0-34.9-8.6-42.9-27.3-42.9
		c-6.8,0-15.4,4.9-22.4,9.6c0.3,10.7-0.3,26.3-0.3,42.4v32.8c0,4.9,5.5,6.2,11.2,7.8v3.9c-6.8,0-13.5-1-20.3-1c-6.8,0-13.5,1-18.2,1
		v-3.9c3.1-1.3,9.1-3.1,9.1-7.8v-34.3c0-14.3-0.8-37.2-1.8-42.9c-1-3.4-3.1-4.4-11.2-4.4v-3.9c8.9-1,20-6.8,26.8-12.2h4.7L500,317
		c12.7-6.5,20.3-14.3,37.2-14.3c12.2,0,24.2,5.7,29.4,17.4c12.2-9.1,25.2-17.4,40.6-17.4c14.6,0,28.4,13,28.4,27.8v70
		c0,4.9,5.5,6.2,11.2,7.8v3.9c-6.8,0-13.5-1-20.3-1s-13.5,1-19.8,1v-3.9c4.7-1.3,10.7-3.1,10.7-7.8v-55.9
		c0-19.8-12.7-28.9-23.1-28.9c-10.2,0-17.2,5.5-26.8,10.7V400.6z"/>
	<path style="clip-path:url(#SVGID_00000079450948830486686060000003495062007656430497_);fill:#FFFFFF;" d="M664.7,336.5
		c4.1-15.3,11.7-26.5,29.1-26.5c11.2,0,22.6,8.3,22.6,20c0,4.7-1,6.5-4.2,6.5H664.7z M735.2,392.2l-1.8-2.1
		c-10.9,10.9-19.8,11.7-26,11.7c-25.5,0-45.3-16.1-45.3-42.4c0-4.9,0.3-10.1,0.5-15.6h68.2c4.2,0,6.5-3.9,6.5-7.5
		c0-21.6-24.7-33.6-44-33.6c-32,0-52,25.5-52,55.7c0,32,26,56.5,58,56.5c9.4,0,20.8-2.3,21.8-3.6L735.2,392.2z"/>
	<path style="clip-path:url(#SVGID_00000079450948830486686060000003495062007656430497_);fill:#FFFFFF;" d="M781.5,415.4l-70-160.5
		c-6.2-14.6-9.9-16.9-15.9-19.5v-4.7c7.8,0,15.6,1,23.4,1c7.8,0,15.6-1,22.9-1v4.7c-4.9,0.8-8.9,2.6-8.9,6.2c0,1.8,0.3,4.2,3.4,11.7
		l54.6,129.6l25-50.5l-36.9-86.1c-2.6-5.5-4.9-9.4-15.1-10.9v-4.7c8.1,0,16.1,1,24.2,1c7.8,0,15.9-1,23.9-1v4.7
		c-6.8,0.5-9.6,2.9-9.9,6c0,1.8,0.8,4.9,2.3,9.4l23.2,58.5l25.5-53.9c1.8-3.9,2.4-7,2.4-9.6c0-5.7-1-8.3-9.1-10.4v-4.7
		c6.8,0,13.5,1,20.3,1c6.8,0,13.5-1,20.3-1v4.7c-9.1,0.8-17.2,12-22.6,22.9l-31.2,64.5l25,58.3l53.3-118.4c2.9-6,3.9-12,3.9-16.9
		c0-5.5-1.6-8.6-11.2-10.4v-4.7c7.3,0,14.6,1,21.8,1c7.3,0,14.6-1,21.9-1v4.7c-12.7,4.2-25.5,28.6-46.1,74.4l-47.3,105.6h-5.2
		l-27.6-70.8l-35.1,70.8H781.5z"/>
	<path style="clip-path:url(#SVGID_00000079450948830486686060000003495062007656430497_);fill:#FFFFFF;" d="M917,336.5
		c4.1-15.3,11.7-26.5,29.1-26.5c11.2,0,22.6,8.3,22.6,20c0,4.7-1,6.5-4.2,6.5H917z M987.5,392.2l-1.8-2.1
		c-10.9,10.9-19.8,11.7-26,11.7c-25.5,0-45.3-16.1-45.3-42.4c0-4.9,0.3-10.1,0.5-15.6h68.2c4.2,0,6.5-3.9,6.5-7.5
		c0-21.6-24.7-33.6-44-33.6c-32,0-52,25.5-52,55.7c0,32,26,56.5,58,56.5c9.4,0,20.8-2.3,21.8-3.6L987.5,392.2z"/>
	<path style="clip-path:url(#SVGID_00000079450948830486686060000003495062007656430497_);fill:#FFFFFF;" d="M999,391.7h3.9
		c3.9,10.2,14.8,15.9,25.7,15.9c9.6,0,18.7-6.2,18.7-15.6c0-30.2-53.1-18.5-53.1-53.6c0-22.6,18-35.6,39.8-35.6
		c9.6,0,19,2.3,28.1,4.7l-1.6,17.4h-3.9c-2.9-10.7-12.7-14.8-23.4-14.8c-11.7,0-20.8,6.8-20.8,19.2c0,30.4,53.1,16.9,53.1,53.3
		c0,22.6-18.7,32.3-39.3,32.3c-6.2,0-19.3-2.4-25-5.2L999,391.7z"/>
	<path style="clip-path:url(#SVGID_00000079450948830486686060000003495062007656430497_);fill:#FFFFFF;" d="M1103.3,314.7v63
		c0,15.6,5.2,20.3,14.3,20.3c6.5,0,11.2-3.9,15.4-7.3l3.1,2.6l-18.2,21.6c-11.2,0-32.8-4.7-32.8-32v-68.2h-17.4v-2.6
		c16.9-6.8,26-17.7,28.9-37.5h6v31.7h34.3v8.3H1103.3z"/>
	<path style="clip-path:url(#SVGID_00000079450948830486686060000003495062007656430497_);fill:#FFFFFF;" d="M752.2,497.5l36.4-74.6
		h2.2l3.8,77.4c0.5,10.5,1.3,11.7,7,12.6v2.3c-3.8,0-7.7-0.5-12.2-0.5c-3.8,0-7.7,0.5-10.9,0.5V513c5.5-0.4,6.5-4.2,6.5-8.9
		c0-4.9-0.3-9.1-0.4-11.2l-2.6-46.2h-0.5l-32.3,65.7l-37.6-65.8h-0.7l-2.5,40.9c-0.3,3.4-0.3,9.4-0.3,12.8c0,9.1,3.6,12.2,8.1,12.7
		v2.3c-3.6,0-7.4-0.5-11.3-0.5c-3.8,0-7.4,0.5-11.2,0.5V513c6.9-1.6,7.9-3.8,8.7-15.1l4.9-74.9h2.3L752.2,497.5z"/>
	<path style="clip-path:url(#SVGID_00000079450948830486686060000003495062007656430497_);fill:#FFFFFF;" d="M809.5,488.5
		c0-10.9,4.3-24.3,17.8-24.3c13.5,0,17.8,13.4,17.8,24.3c0,11.1-4.3,24.5-17.8,24.5C813.8,513,809.5,499.6,809.5,488.5 M799.1,488.5
		c0,17.3,12,28.1,28.2,28.1s28.2-10.8,28.2-28.1c0-17.2-12-28-28.2-28S799.1,471.4,799.1,488.5"/>
	<path style="clip-path:url(#SVGID_00000079450948830486686060000003495062007656430497_);fill:#FFFFFF;" d="M893.5,472.8H891
		c-0.9-3.9-3.5-4.8-7.2-4.8c-7.3,0-12.1,5.1-12.1,16.4v25.1c0,2.5,2.7,3.1,5.6,3.9v1.9c-3.4,0-6.8-0.5-10.1-0.5
		c-3.4,0-6.8,0.5-10.2,0.5v-1.9c2.6-0.6,5.6-1.6,5.6-3.9v-23.4c0-7.2-0.7-14.1-1.7-15.9c-0.7-1.2-1.7-1.4-2.9-1.4
		c-1.2,0-2.9,0.3-4.2,0.7v-2c5.3-1.4,10.1-4.1,14.8-6.9h2l0.6,11.1h0.3c3.9-5.6,8.4-11.1,15.4-11.1c2.2,0,4.4,0.4,6.5,1V472.8z"/>
	<path style="clip-path:url(#SVGID_00000079450948830486686060000003495062007656430497_);fill:#FFFFFF;" d="M907.9,466.5V498
		c0,7.8,2.6,10.2,7.2,10.2c3.2,0,5.6-2,7.7-3.7l1.6,1.3l-9.1,10.8c-5.6,0-16.4-2.3-16.4-16v-34.1h-8.7v-1.3
		c8.4-3.4,13-8.9,14.4-18.7h3v15.9h17.2v4.1H907.9z"/>
	<path style="clip-path:url(#SVGID_00000079450948830486686060000003495062007656430497_);fill:#FFFFFF;" d="M960.4,514.9
		c4.2,0,10.4,2.1,10.4,8.5c0,8.1-10.4,11.2-18.2,11.2c-7,0-19.2-1.7-19.2-10.8c0-6.5,4.9-8.9,11.1-8.9H960.4z M939.1,479.2
		c0-8.1,3.6-16.1,12.4-16.1c9.6,0,13,8.1,13,16.1c0,7.9-3.6,16-12.6,16C942.7,495.2,939.1,487.1,939.1,479.2 M983.9,464.9l-16.5,0.5
		c-3.8-3.4-10.7-4.8-15.5-4.8c-13.4,0-23.2,9.1-23.2,18.6c0,7.3,5.2,13.8,12,17.6c-6.2,2.2-14.6,4.3-14.6,10.9c0,5.8,6.1,6,10.4,6.4
		v0.3c-5.5,1.3-12.2,4.3-12.2,10.7c0,10.5,16.4,13.3,24.7,13.3c11.7,0,28.4-1.8,28.4-18.6c0-11.1-11.3-13.4-21.7-13.4
		c-5.7,0-9.9,0.8-12.8,0.8c-5.2,0-7.7-1-7.7-3c0-3.3,8.3-5.9,9.8-5.9c0.8,0,4.8,0.7,6.2,0.7c11.1,0,23.7-6.4,23.7-19.9
		c0-4.2-1.3-7-2.9-9.9h11.8V464.9z"/>
	<path style="clip-path:url(#SVGID_00000079450948830486686060000003495062007656430497_);fill:#FFFFFF;" d="M1012.2,504.5
		c-3.2,3-7.9,5.6-12,5.6c-6.4,0-8.8-4.4-8.8-10.2c0-7.9,6.9-12.5,14.4-12.5h6.4V504.5z M986.1,472.9h1.9c1.2-5.5,7.2-5.9,11.7-5.9
		c10.2,0,12.5,2.6,12.5,9.8v7c-5.6,0-10.9,0-15.9,1.7c-7.3,2.5-14.1,6.9-14.1,15.5c0,6.3,3.8,15.6,13.4,15.6
		c6.2,0,11.8-3.8,16.8-7.6c1.3,3.7,3.5,6.5,5.3,8.2l11.3-7.4l-0.9-2.1c-1.3,0.7-2.3,1-3.8,1c-2.1,0-3.1-2.1-3.1-5.2v-23.8
		c0-12.6-3-19.2-17-19.2c-6.2,0-12.6,0.3-18.2,2.1V472.9z"/>
	<path style="clip-path:url(#SVGID_00000079450948830486686060000003495062007656430497_);fill:#FFFFFF;" d="M1067.9,514.9
		c4.2,0,10.4,2.1,10.4,8.5c0,8.1-10.4,11.2-18.2,11.2c-7,0-19.2-1.7-19.2-10.8c0-6.5,4.9-8.9,11.1-8.9H1067.9z M1046.6,479.2
		c0-8.1,3.6-16.1,12.4-16.1c9.6,0,13,8.1,13,16.1c0,7.9-3.6,16-12.6,16C1050.2,495.2,1046.6,487.1,1046.6,479.2 M1091.3,464.9
		l-16.5,0.5c-3.8-3.4-10.7-4.8-15.5-4.8c-13.4,0-23.1,9.1-23.1,18.6c0,7.3,5.2,13.8,12,17.6c-6.2,2.2-14.6,4.3-14.6,10.9
		c0,5.8,6.1,6,10.4,6.4v0.3c-5.5,1.3-12.2,4.3-12.2,10.7c0,10.5,16.4,13.3,24.7,13.3c11.7,0,28.4-1.8,28.4-18.6
		c0-11.1-11.3-13.4-21.7-13.4c-5.7,0-9.9,0.8-12.7,0.8c-5.2,0-7.7-1-7.7-3c0-3.3,8.3-5.9,9.8-5.9c0.8,0,4.8,0.7,6.2,0.7
		c11.1,0,23.7-6.4,23.7-19.9c0-4.2-1.3-7-2.9-9.9h11.8V464.9z"/>
	<path style="clip-path:url(#SVGID_00000079450948830486686060000003495062007656430497_);fill:#FFFFFF;" d="M1100.5,477.5
		c2.1-7.7,5.8-13.3,14.6-13.3c5.6,0,11.3,4.2,11.3,10c0,2.3-0.5,3.2-2.1,3.2H1100.5z M1135.8,505.3l-0.9-1c-5.5,5.5-9.9,5.9-13,5.9
		c-12.7,0-22.6-8.1-22.6-21.2c0-2.5,0.1-5.1,0.3-7.8h34.1c2.1,0,3.3-2,3.3-3.8c0-10.8-12.4-16.8-22-16.8c-16,0-26,12.7-26,27.8
		c0,16,13,28.2,29,28.2c4.7,0,10.4-1.2,10.9-1.8L1135.8,505.3z"/>
</g>
<rect x="733.9" y="565.8" class="st1" width="1055.6" height="64.7"/>
<text transform="matrix(1 0 0 1 733.8959 592.0342)" class="st2 st3 st4">a division of HTLF Bank</text>
</svg>
