<?xml version="1.0" encoding="utf-8"?>
<!-- Generator: Adobe Illustrator 25.2.0, SVG Export Plug-In . SVG Version: 6.00 Build 0)  -->
<svg version="1.1" id="Layer_1" xmlns="http://www.w3.org/2000/svg" xmlns:xlink="http://www.w3.org/1999/xlink" x="0px" y="0px"
	 viewBox="0 0 300 219.3" style="enable-background:new 0 0 300 219.3;" xml:space="preserve">
<style type="text/css">
	.st0{fill:#ECAC00;}
	.st1{fill:#007284;}
	.st2{fill:#757575;}
</style>
<path class="st0" d="M98.8,75.5L78.3,59.4l30.6-4.4L97.2,26.1l28.6,11.8l4.2-31l19.1,24.7l19-24.7l4.2,31L201,26.1L189.3,55
	l30.6,4.4l-20.6,16.2L180,56.2l-8.1,8.3l-22.7-23l-23,23.2l-8.5-8.5L98.8,75.5z"/>
<path class="st1" d="M16.2,162c2.5,0,4.1-0.8,5.4-2.7c0.3-0.5,0.5-1.2,0.7-1.9c0.5-1.9,0.2-3.2-1.9-3.4c2-0.5,2.7-1.9,3-3
	c0.3-1,0.3-1.9-0.2-2.7s-2-0.8-3.6-0.8H14l-4.1,14.7h6.3V162z M16,153.3l1-3.9h1.7c1.5,0,1.7,0.5,1.5,1.7c-0.2,0.7-0.3,1.2-0.8,1.5
	c-0.7,0.5-1.9,0.5-2.7,0.5H16V153.3z M14.1,159.9l1.2-4.6h1.4c2.2,0,2.4,0.7,2,2.2c-0.2,0.7-0.5,1.7-1.7,2c-0.7,0.2-1.4,0.2-2.2,0.2
	h-0.7L14.1,159.9z M41.7,152c0.3-0.7,0.7-1.4,0.8-2c0.2-0.3,0.3-0.7,0.3-1c0,0.3,0,0.7-0.2,1c-0.2,0.7-0.2,1.4-0.2,2l-0.2,4.2h-3
	L41.7,152z M36.5,162l2-3.7h4.1l-0.2,3.7h3.7L46,147.4h-4.7l-8.5,14.7h3.7L36.5,162z M70,150.3l-1,4.1c-0.3,1.4-0.5,2.9-0.8,4.2
	c-0.2-2.4-0.5-4.1-0.8-5.9l-1.2-5.2h-3.7l-4.1,14.7h3.6l0.7-2.7c0.3-1.2,0.7-2.7,1-4.1c0.3-1.5,0.5-3,0.8-4.2
	c0.2,2.4,0.5,4.1,0.8,5.9l1.4,5.2h3.7l4.1-14.7h-3.6L70,150.3z M87.4,162l1.2-4.2l1.7-1.5L92,162h4.1l-2.5-8.5l6.4-6.3h-4.1l-2.9,3
	c-1,1-2.4,2.4-3.2,3.6l1.7-6.4h-3.6l-4.1,14.7h3.6L87.4,162z M133.1,159.4c-0.8,0.5-1.7,0.8-2.5,0.8c-1.5,0-2-1.2-1.9-2.2
	c0.2-1.4,1.7-2.4,2.5-2.5L133.1,159.4z M134.1,153.7c1.9-0.8,3.4-2,3.9-3.7c0.5-1.9-1.2-3-3.2-3c-2,0-4.6,0.8-5.2,3.2
	c-0.3,1.2,0.2,2.2,0.7,3.2c-2.5,1.2-4.2,2.4-4.9,4.6c-0.7,2.5,1,4.4,3.9,4.4c1.7,0,3.2-0.3,4.7-1.4l0.3,1h3.7l-1.5-2.9
	c1.5-1.5,2.5-3.2,3-4.9h-2.9c-0.3,0.8-0.7,1.9-1.4,2.7C135.3,156.9,134.1,153.7,134.1,153.7z M133.1,151.8c-0.2-0.5-0.7-1.4-0.5-2
	c0.2-0.7,0.8-1,1.5-1c0.7,0,1.2,0.5,1,1.2C135,150.8,134,151.5,133.1,151.8 M169.9,149.5h4.2l-3.6,12.5h3.6l3.6-12.5h4.1l0.5-2
	h-11.7L169.9,149.5z M197.4,149.5h2.7c1.4,0,2.2,0.3,1.7,1.9c-0.3,1.5-1.5,2-2.7,2.2h-2.7L197.4,149.5z M196.3,155.7
	c1,0,2,0,2.9,0.2c1.2,0.3,0.8,1.5,0.5,2.4c-0.2,1-0.8,2.7-0.7,3.7h3.9v-0.3c-0.7-0.5,0.3-4.1,0.5-4.6c0.3-1.4,0-2.4-2-2.7
	c2.4-0.2,3.4-1.9,3.9-3.6c0.7-2.7-1.4-3.6-4.4-3.6h-6.8L190,162h3.6l1.7-6.3C195.2,155.7,196.3,155.7,196.3,155.7z M225.7,157.4
	c-0.3,1.4-0.8,2.9-3.2,2.9s-2.2-1.4-1.7-2.9l2.7-10H220l-2.9,10.3c-0.8,3.2,0,4.7,4.7,4.7c4.6,0,6.4-1.5,7.3-4.7l2.9-10.3h-3.6
	L225.7,157.4L225.7,157.4z M255,151.8c0.3-1.5,1.5-4.7-4.2-4.7c-3.7,0-5.9,1.4-6.6,3.9c-0.2,0.8-0.2,1.5,0.3,2.2
	c1,1.5,3,2.2,4.6,3.4c0.8,0.5,1.2,1,0.8,1.9c-0.3,1.2-1.2,1.7-2.7,1.7c-1.7,0-2-1-1.5-2.5l0.2-0.8h-3.6l-0.3,1
	c-0.7,2.7,0.3,4.4,4.6,4.4c3.4,0,6.3-1.5,6.9-4.2c0.3-1.4,0.2-2.2-0.7-3c-0.8-0.7-2.7-1.9-3.6-2.4c-1-0.5-1.7-1-1.5-2
	c0.3-1,1.2-1.4,2.4-1.4c1.9,0,1.7,1.4,1.4,2.5h3.6L255,151.8z M267.8,149.5h4.1l-3.4,12.5h3.6l3.4-12.5h4.1l0.7-2h-11.8L267.8,149.5
	z M26,130.5h11.7L48,81.4H37.2l-4.7,27.4h-0.2l-3-27.4H17.5L7.2,130.5H18l4.7-27.4h0.2L26,130.5z M65.4,130.5l1.9-8.8h-14l2-9.6
	h12.9l1.9-8.8H57.1l1.7-8.1h13.4l1.9-8.8H50.5l-9.3,44.2H65.4z M102.2,86.3h-10l-10.7,31l3.4-31h-10L73,130.5h11.3l10-31.1L91,130.5
	h11.5l16.6-44.2h-9.6l-9.8,31L102.2,86.3z M124.2,130.5l6.9-38.4h0.2l-0.2,38.4h8.5l16.1-38.4h0.2l-9.3,38.4h10.8l10.3-49.1h-15.9
	l-12.2,28.9h-0.2l0.3-28.9h-16.1l-10.3,49.1H124.2z M185.4,130.5l1.9-8.8h-13.9l2-9.6h12.7l1.9-8.8h-12.7l1.7-8.1h13.2l1.9-8.8
	h-23.5l-9.3,44.2H185.4z"/>
<path class="st1" d="M205.1,86.3h-10.3l4.6,22.2l-14.4,22h9.8l8.6-13.2h0.2l2.2,13.2h10.2l-4.9-22l13.9-22.2h-10.3l-7.4,13.4h-0.2
	L205.1,86.3z M226.9,130.5l9.3-44.2H226l-9.3,44.2H226.9z"/>
<g>
	<path class="st1" d="M264.3,101.7l0.8-3.7c1.9-9-2.5-12.7-11.3-12.7c-9.3,0-14.7,4.4-16.8,14l-3.9,18.1c-1.9,9,0.7,14,10.2,14
		c10.5,0,15.9-5.2,17.4-12.9l1.2-5.4h-10.3l-0.8,4.1c-0.5,2.7-1.7,6.4-5.1,6.4c-2.7,0-3.4-1.5-2.9-3.9l4.6-21.8
		c0.7-2.9,1.7-4.6,4.9-4.6c1.9,0,2.9,1.9,2,5.8l-0.3,2.5H264.3z M295.8,98.5c1.9-8.5-2-13.2-11-13.2c-9,0-14.9,4.7-16.8,13.2
		l-3.9,17.9c-2,10,0.5,15.1,10.8,15.1s14.9-5.2,16.9-15.1L295.8,98.5z M281.6,117.3c-0.5,2.5-1.5,6.3-4.9,6.3
		c-3.4,0-2.9-3.7-2.4-6.3l3.9-18.1c0.5-2.7,1.7-5.9,4.9-5.9c3.4,0,2.9,3.2,2.4,5.9L281.6,117.3z"/>
</g>
<path class="st0" d="M5.7,137.6l-0.5,2.5h281.3l0.5-2.5H5.7z"/>
<g>
	<path class="st2" d="M39.9,191.4H46c3.6,0,5.4,2.2,5.4,4.9s-1.9,4.9-5.4,4.9h-4.6v5.9H40v-15.7H39.9z M46.1,200.1
		c2.4,0,3.7-1.5,3.7-3.6c0-2-1.4-3.7-3.7-3.7h-4.9v7.3C41.2,200.1,46.1,200.1,46.1,200.1z M58.5,195.8c3.4,0,5.6,2.4,5.6,5.9
		c0,3.4-2.2,5.9-5.6,5.9c-3.4,0-5.6-2.4-5.6-5.9C52.7,198.2,55.1,195.8,58.5,195.8z M58.5,206.5c2.5,0,4.2-1.9,4.2-4.7
		S61,197,58.5,197s-4.2,1.9-4.2,4.7C54.1,204.6,56,206.5,58.5,206.5z M69.5,205.8l3.4-9.8h1.4l3.4,9.8l2.7-9.8h1.4l-3.4,11.3h-1.5
		l-3.4-9.6l-3.2,9.6h-1.5L65.3,196h1.4C66.6,196,69.5,205.8,69.5,205.8z M93.5,202.1H84c0,2.9,1.9,4.4,4.2,4.4
		c1.7,0,3.2-0.8,3.9-2.5h1.4c-0.7,2.2-2.5,3.7-5.2,3.7c-3.4,0-5.6-2.4-5.6-5.9s2.2-5.9,5.4-5.9c3.2,0,5.4,2.2,5.4,5.6L93.5,202.1z
		 M84,200.9h8.1c-0.2-2.7-1.9-4.1-4.1-4.1C86.1,196.8,84.2,198.2,84,200.9z M101.8,196v1.2h-1.4c-2,0-3,1.4-3,3.7v6.4h-1.4V196h1
		l0.2,1.9c0.5-1,1.7-1.9,3-1.9H101.8z M113.8,202.1h-9.5c0,2.9,1.9,4.4,4.2,4.4c1.7,0,3.2-0.8,3.9-2.5h1.4c-0.7,2.2-2.5,3.7-5.2,3.7
		c-3.4,0-5.6-2.4-5.6-5.9s2.2-5.9,5.4-5.9c3.2,0,5.4,2.2,5.4,5.6V202.1z M104.4,200.9h8.1c-0.2-2.7-1.9-4.1-4.1-4.1
		C106.2,196.8,104.5,198.2,104.4,200.9z M126.9,190.7v16.6h-1l-0.2-2c-0.8,1.5-2.5,2.4-4.4,2.4c-2.9,0-5.4-2-5.4-5.8
		c0-3.9,2.5-5.9,5.4-5.9c1.9,0,3.4,0.8,4.4,2.2v-7.3h1.2V190.7z M125.5,201.8c0-2.9-1.9-4.9-4.2-4.7c-2.5,0-4.2,1.9-4.2,4.7
		c0,3,1.7,4.7,4.2,4.7C123.7,206.5,125.5,204.8,125.5,201.8z M145,201.8c0,3.9-2.5,5.9-5.4,5.9c-1.7,0-3.4-0.7-4.4-2.2l-0.2,1.9h-1
		v-16.6h1.4v7.3c0.8-1.5,2.5-2.4,4.4-2.4C142.4,195.8,145,197.9,145,201.8z M143.6,201.8c0-2.9-1.7-4.7-4.2-4.7
		c-2.4,0-4.2,1.9-4.2,4.9s1.9,4.7,4.2,4.7C141.9,206.5,143.6,204.6,143.6,201.8z M151.2,206.8L155,196h1.4l-4.7,13.2
		c-0.8,2.2-1.9,2.7-3.6,2.7h-2v-1.2h2c1.4,0,2.2-0.7,2.2-2.2c0-0.3,0-0.7-0.2-1l-4.4-11.3h1.5C147.2,196.2,151.2,206.8,151.2,206.8z
		"/>
	<g>
		<path class="st1" d="M240.4,205v-17.1c0-0.2,0.2-0.3,0.3-0.3h22.2c0.2,0,0.3,0.3,0.2,0.5l-5.2,5.2h-9.6v17.1
			c0,0.2-0.2,0.3-0.3,0.3h-6.9c-0.2,0-0.3-0.2-0.3-0.3v-3.6l-3.9,3.9h-14.9c-0.2,0-0.3-0.2-0.3-0.3v-20.8l-3.7,3.7h-6.1v17.1
			c0,0.2-0.2,0.3-0.3,0.3h-6.9c-0.2,0-0.3-0.2-0.3-0.3v-17.1h-9.3v17.1c0,0.2-0.2,0.3-0.3,0.3h-6.9c-0.2,0-0.3-0.2-0.3-0.3V198
			l-3.9,3.9h-7.4v8.3c0,0.2-0.2,0.3-0.3,0.3h-6.9c-0.2,0-0.3-0.2-0.3-0.3v-22.5c0-0.2,0.2-0.3,0.3-0.3h6.9c0.2,0,0.3,0.2,0.3,0.3
			v8.3h11.5v-8.3c0-0.2,0.2-0.3,0.3-0.3h6.9c0.2,0,0.3,0.2,0.3,0.3v3.6l3.7-3.7h30.1c0.2,0,0.3,0.2,0.3,0.3V205H240.4L240.4,205z"/>
		<path class="st1" d="M260.6,201.6l-5.2-5.2c-0.2-0.2-0.3-0.2-0.3,0l-5.2,5.2c-0.2,0.2,0,0.5,0.2,0.5h10.7
			C260.6,202.1,260.7,201.8,260.6,201.6z"/>
	</g>
</g>
</svg>
