<svg width="544" height="185" viewBox="0 0 544 185" fill="none" xmlns="http://www.w3.org/2000/svg">
<g clip-path="url(#clip0_1_64)">
<path d="M538.7 121.4H192.3V118.8H538.7V121.4Z" fill="#860038"/>
<path d="M519 132.2H502.4V136H508.5V154.8H512.7V136H518.9V132.2H519ZM473.6 150.5C475.3 153.3 478 154.3 479.5 154.8C480.9 155.2 482.3 155.3 483.5 155.3C488.3 155.3 493.1 153.2 493.1 148C493.1 143.2 488.8 141.9 485.8 141.3L483.5 140.8C481.5 140.4 479.3 140 479.3 138.1C479.3 136.4 481.3 135.3 483.6 135.3C487.2 135.3 488.7 137.5 489.5 138.7L493 136.1C491.4 133.9 488.8 131.5 483.9 131.5C478.6 131.5 475 134.2 475 138.5C475 142.2 477.8 143.6 478.8 144C479.5 144.3 480.2 144.4 481.7 144.8L484.4 145.4C486.5 145.9 486.5 145.9 487 146.1C487.7 146.4 488.7 146.9 488.7 148.3C488.7 149.1 488.4 150.2 486.8 150.9C486 151.2 485.2 151.3 484.4 151.3C479.6 151.3 477.9 148.7 477.4 147.9L473.6 150.5ZM457.3 132.2V145.9C457.3 147.8 457.3 149.1 456.1 150.2C454.8 151.3 453.2 151.3 452.5 151.3C451.2 151.3 448.8 151 447.9 148.9C447.6 148 447.6 147.1 447.6 146.1V132.2H443.4V145.7C443.4 148.5 443.4 149.2 443.7 150.2C444.2 151.9 445.6 153.8 448.3 154.8C449.6 155.2 450.9 155.4 452.3 155.4C453.8 155.4 456.8 155.2 459.1 153.2C461.5 151.2 461.5 149 461.5 146.5V132.3H457.3V132.2ZM420 135.8C422.5 135.8 423.6 135.8 424.5 136.3C426.3 137.2 426.3 138.9 426.3 139.3C426.3 142.6 423.3 142.8 422.3 142.8C421.5 142.8 420.9 142.9 419.5 142.9H418V135.8H420ZM413.9 154.8H418.1V146.4H421.9L426.4 154.8H431.2L426.2 145.6C427.5 145.2 430.6 143.7 430.6 139.4C430.6 136.8 429.5 135 428.1 133.8C426.1 132.2 424.1 132.2 421.1 132.2H413.9V154.8ZM401.8 132.2H385.2V136H391.3V154.8H395.5V136H401.7V132.2H401.8ZM355.8 138.3C355.8 139.9 354.3 140.4 353.3 140.7C352.8 139.9 352.3 139.1 352.3 138.3C352.3 137.2 353 136.6 354 136.6C355.1 136.6 355.8 137.4 355.8 138.3ZM355.3 150.7C354 151.9 352.6 151.9 352.2 151.9C350.2 151.9 348.7 150.4 348.7 148.6C348.7 146.8 350 145.8 351.5 145L355.3 150.7ZM359 144.3C358.9 145.5 358.7 146.5 357.8 147.9C357.4 147.4 355.3 144.3 354.9 143.6C358.2 142.4 359.2 140.1 359.2 138.4C359.2 136.1 357.3 133.6 354 133.6C351.1 133.6 348.8 135.5 348.8 138.9C348.8 140.6 349.4 141.6 349.8 142.2C347.1 143.7 344.9 145.6 344.9 148.9C344.9 151.3 346.4 155.3 352.1 155.3C354.6 155.3 356.1 154.6 357.5 153.6C358.3 154.3 359.2 154.9 361.5 154.9C362.1 154.9 362.2 154.9 363.1 154.8V151.6C362.8 151.7 362.7 151.7 362.4 151.7C361.1 151.7 360.6 151.2 360.1 150.7C361.1 149.5 362.3 147.1 362.7 144.4H359V144.3ZM323.1 132.2H318.1L309 142.6V132.2H304.8V154.8H309V148.4L312.7 144.2L318.7 154.8H323.5L315.6 140.7L323.1 132.2ZM289.9 148.1L279.9 132.1H276.1V154.7H280.2L279.9 138.9L289.8 154.7H293.5V132.1H289.3L289.9 148.1ZM252.5 146.7L255.6 136.3L258.7 146.7H252.5ZM261.1 154.8H265.6L257.9 132.2H253.1L245.5 154.8H250L251.3 150.4H259.8L261.1 154.8ZM228.1 144.5C229.5 144.5 231.9 144.5 232.9 146.3C233.2 146.9 233.3 147.5 233.3 148C233.3 149.1 232.9 149.9 232.3 150.4C231.2 151.2 230.5 151.2 228 151.2H223.8V144.5H228.1ZM226.5 135.6C229.6 135.6 230 135.7 230.9 136.2C231.8 136.7 232.2 137.6 232.2 138.4C232.2 139.4 231.6 140.3 230.7 140.7C229.9 141.1 228.9 141.1 227.8 141.1C227.3 141.1 226.4 141.1 225.2 141.1H223.8V135.5H226.5V135.6ZM219.7 154.8H228.5C231.1 154.8 232.2 154.8 233.6 154.3C236.3 153.3 237.6 151 237.6 148.4C237.6 144.9 235.3 142.9 232.8 142.4C234 142.2 234.9 141.7 235.6 140.8C236.2 139.9 236.6 138.7 236.6 137.7C236.6 135.2 234.9 133.2 232.6 132.5C231.5 132.2 230.7 132.1 227.7 132.1H219.6V154.8H219.7ZM542.8 61.6C539.7 61.6 537.4 61.8 536.7 61.8C535.4 61.8 532.4 61.6 529.1 61.6C528.2 61.6 527.5 61.7 527.5 62.2C527.5 62.6 527.7 62.8 528.5 62.8C529.4 62.8 530.9 62.8 531.8 63.2C533.3 63.8 533.9 65 533.9 68.8L534.5 96.8H534.2C533.1 95.8 524.7 86.8 520.5 82.6C511.4 73.6 501.9 63.4 501.1 62.6C500 61.5 499.5 60.7 498.8 60.7C498.2 60.7 498 61.6 498 62.8L497.4 99.8C497.3 105.2 497.1 107 495.5 107.5C494.6 107.8 493.5 107.8 492.7 107.8H491.6C490.7 107.8 489.3 107.7 488.4 107.5C486.5 107.2 486.1 106.1 485.9 104.4C485.6 101.7 485.6 96.8 485.6 90.7V79.7C485.6 70.2 485.6 68.5 485.7 66.5C485.8 64.3 486.3 63.3 488 62.9C488.7 62.8 489.2 62.7 489.9 62.7C490.5 62.7 490.9 62.6 490.9 62.1C490.9 61.7 490.4 61.6 489.6 61.6C487.2 61.6 483.5 61.8 482 61.8C480.2 61.8 476.3 61.6 473.9 61.6C472.9 61.6 472.4 61.7 472.4 62.1C472.4 62.6 472.8 62.7 473.4 62.7C474.1 62.7 475 62.8 475.6 63C477 63.3 477.6 64.4 477.7 66.5C477.8 68.5 477.8 70.2 477.8 79.7V90.7C477.8 96.8 477.8 101.7 477.5 104.3C477.3 106.1 476.9 107.2 475.7 107.4C475.1 107.5 474.4 107.7 473.5 107.7C472.7 107.7 472.5 107.9 472.5 108.2C472.5 108.6 472.9 108.8 473.8 108.8C476.3 108.8 480.2 108.6 481.7 108.6C483.4 108.6 487.3 108.8 491.4 108.8H493C496.2 108.8 499.2 108.6 499.7 108.6C500.9 108.6 503.4 108.8 507.4 108.8C508.3 108.8 508.8 108.7 508.8 108.2C508.8 107.8 508.4 107.7 507.7 107.7C506.7 107.7 505.5 107.6 504.4 107.3C503.2 106.9 502.3 105.2 502.2 100.4L501.5 74.2H501.7C502.8 75.4 509.7 83.2 516.6 89.9C523.1 96.3 531.1 104.5 535 108.3C535.7 109 536.4 109.7 537.1 109.7C537.7 109.7 537.9 109.1 537.9 107.8L538.6 68.4C538.7 64.9 539.2 63.6 540.9 63.1C541.6 62.9 542.1 62.9 542.8 62.9C543.6 62.9 543.9 62.7 543.9 62.3C544.2 61.7 543.6 61.6 542.8 61.6ZM444.2 108.1C443.2 107.7 443 107.3 443 106C443 102.6 443.3 98.8 443.3 97.8C443.4 96.9 443.6 96.2 444.1 96.2C444.7 96.2 444.7 96.8 444.7 97.3C444.7 98.1 445 99.4 445.3 100.5C446.7 105.1 450.4 106.8 454.2 106.8C459.8 106.8 462.6 103 462.6 99.7C462.6 96.6 461.7 93.8 456.5 89.7L453.6 87.5C446.7 82.1 444.4 77.8 444.4 72.7C444.4 65.8 450.1 60.9 458.8 60.9C462.9 60.9 465.5 61.5 467.1 62C467.7 62.1 468 62.3 468 62.8C468 63.6 467.7 65.4 467.7 70.3C467.7 71.7 467.5 72.2 467 72.2C466.6 72.2 466.4 71.8 466.4 71.1C466.4 70.5 466.1 68.6 464.8 67C463.9 65.8 462.1 63.9 458 63.9C453.4 63.9 450.6 66.6 450.6 70.3C450.6 73.2 452 75.4 457.2 79.3L458.9 80.6C466.5 86.3 469.1 90.6 469.1 96.5C469.1 100.1 467.7 104.4 463.2 107.4C460.1 109.4 456.6 110 453.3 110C449.7 109.7 446.9 109.2 444.2 108.1ZM400.4 100.3C400.5 105.2 401.3 106.8 402.6 107.2C403.7 107.6 404.9 107.6 405.8 107.6C406.5 107.6 406.9 107.7 406.9 108.1C406.9 108.6 406.3 108.7 405.5 108.7C401.4 108.7 398.9 108.5 397.8 108.5C397.2 108.5 394.3 108.7 391.1 108.7C390.3 108.7 389.7 108.6 389.7 108.1C389.7 107.7 390.1 107.6 390.7 107.6C391.5 107.6 392.6 107.5 393.5 107.3C395.1 106.8 395.4 105 395.4 99.6L396 62.6C396 61.4 396.2 60.5 396.8 60.5C397.5 60.5 398 61.3 399.1 62.4C399.9 63.2 409.3 73.4 418.5 82.4C422.7 86.6 431.2 95.6 432.2 96.6H432.5L431.9 68.6C431.8 64.8 431.3 63.6 429.8 63C428.9 62.6 427.4 62.6 426.5 62.6C425.7 62.6 425.5 62.4 425.5 62C425.5 61.5 426.2 61.4 427.1 61.4C430.3 61.4 433.3 61.6 434.7 61.6C435.4 61.6 437.8 61.4 440.8 61.4C441.6 61.4 442.2 61.5 442.2 62C442.2 62.4 441.8 62.6 441.1 62.6C440.5 62.6 440 62.6 439.2 62.8C437.5 63.3 437 64.6 436.9 68.1L436.2 107.5C436.2 108.9 435.9 109.4 435.4 109.4C434.7 109.4 434 108.7 433.3 108C429.4 104.3 421.4 96.1 414.9 89.6C408.1 82.9 401.2 75.1 400 73.9H399.8L400.4 100.3ZM383 86.4C383 72.4 375.2 63.7 365.3 63.7C358.3 63.7 350.4 67.7 350.4 83.2C350.4 96.2 357.4 106.5 369 106.5C373.2 106.6 383 104.4 383 86.4ZM342 85.2C342 74.5 348.8 60.7 367 60.7C382.1 60.7 391.5 69.8 391.5 84C391.5 98.3 381.8 109.6 366.4 109.6C349.1 109.7 342 96.2 342 85.2ZM306.3 102.9C300.5 97.5 298.9 90.5 298.9 84.5C298.9 80.3 300.1 72.9 305.8 67.4C310.1 63.3 315.7 60.8 324.5 60.8C328.2 60.8 330.4 61.1 333.1 61.4C335.4 61.7 337.2 62.3 339 62.5C339.6 62.6 339.9 62.9 339.9 63.3C339.9 63.8 339.7 64.6 339.6 66.7C339.5 68.8 339.5 72.2 339.4 73.4C339.3 74.3 339.2 74.8 338.7 74.8C338.2 74.8 338.1 74.3 338.1 73.4C338 71.5 337.3 69.3 335.8 67.7C333.8 65.5 329.2 63.8 323.8 63.8C318.6 63.8 315.3 65.2 312.6 67.7C308.3 71.9 307.1 77.8 307.1 83.9C307.1 98.8 317.8 106.1 325.8 106.1C331.1 106.1 334.3 105.5 336.7 102.6C337.7 101.4 338.5 99.6 338.7 98.5C338.9 97.5 339 97.2 339.5 97.2C339.9 97.2 340 97.6 340 98.1C340 98.9 339.3 104.3 338.7 106.4C338.4 107.5 338.2 107.8 337.2 108.2C334.8 109.2 330.3 109.6 326.5 109.6C318.5 109.7 311.7 107.8 306.3 102.9ZM272.1 108.1C271.1 107.7 270.9 107.3 270.9 106C270.9 102.6 271.1 98.8 271.2 97.8C271.3 96.9 271.4 96.2 272 96.2C272.6 96.2 272.6 96.8 272.6 97.3C272.6 98.1 272.9 99.4 273.2 100.5C274.6 105.1 278.3 106.8 282.1 106.8C287.7 106.8 290.5 103 290.5 99.7C290.5 96.6 289.6 93.8 284.4 89.7L281.5 87.5C274.6 82.1 272.3 77.8 272.3 72.7C272.3 65.8 278 60.9 286.7 60.9C290.8 60.9 293.4 61.5 295 62C295.6 62.1 295.9 62.3 295.9 62.8C295.9 63.6 295.6 65.4 295.6 70.3C295.6 71.7 295.4 72.2 294.9 72.2C294.5 72.2 294.3 71.8 294.3 71.1C294.3 70.5 294 68.6 292.7 67C291.8 65.8 290 63.9 285.9 63.9C281.3 63.9 278.5 66.6 278.5 70.3C278.5 73.2 279.9 75.4 285.1 79.3L286.8 80.6C294.4 86.3 297 90.6 297 96.5C297 100.1 295.6 104.4 291.1 107.4C288 109.4 284.5 110 281.2 110C277.6 109.7 274.8 109.2 272.1 108.1ZM267.9 108.2C267.9 108.6 267.4 108.8 266.7 108.8C262.6 108.8 258.6 108.6 257 108.6C255.6 108.6 251.6 108.8 249.1 108.8C248.3 108.8 247.8 108.6 247.8 108.2C247.8 107.9 248.1 107.7 248.8 107.7C249.7 107.7 250.5 107.6 251 107.4C252.2 107.1 252.6 106.1 252.8 104.3C253.1 101.7 253.1 96.7 253.1 90.7V79.7C253.1 70.2 253.1 68.5 253 66.5C252.9 64.4 252.3 63.3 250.9 63C250.5 62.9 249.2 62.7 248.3 63.1C246.8 63.7 246.1 66.2 244.8 69.7C241.9 77.6 235.4 97.4 232.3 106.8C231.6 109 231.3 109.7 230.5 109.7C229.9 109.7 229.5 108.9 228.6 106.6L215.6 75.3H215.5C214.3 78.5 206 100.6 203.3 106.3C202.1 108.9 201.8 109.6 201.1 109.6C200.5 109.6 200.2 108.9 199.7 107.3L186.5 67.7C185.8 65.4 185.1 63.9 184.2 63.3C183.5 62.9 182.3 62.7 181.7 62.7C181.1 62.7 180.7 62.6 180.7 62.1C180.7 61.7 181.2 61.5 182.1 61.5C185.3 61.5 188.8 61.7 189.3 61.7C189.9 61.7 192.6 61.5 196.2 61.5C197.1 61.5 197.5 61.7 197.5 62.1C197.5 62.6 197 62.7 196.4 62.7C195.9 62.7 195.3 62.7 194.8 63C194.2 63.3 194.1 63.7 194.1 64.4C194.1 65.2 194.7 67.3 195.5 70.1C196.6 74.2 202.4 93.1 203.5 96.6H203.7L215.8 64.1C216.4 62.4 216.9 61.9 217.4 61.9C218.1 61.9 218.4 62.8 219.2 64.8L232.2 96.2H232.4C233.5 92 238.5 75.5 240.7 68.2C241.1 66.8 241.3 65.5 241.3 64.6C241.3 63.6 240.7 62.7 238.3 62.7C237.7 62.7 237.2 62.5 237.2 62.1C237.2 61.7 237.7 61.5 238.6 61.5C241.9 61.5 244.5 61.7 245.1 61.7C245.4 61.7 246.9 61.6 248.4 61.6C248.6 61.6 248.8 61.6 249.1 61.6C249.3 61.6 249.5 61.6 249.6 61.6C249.8 61.6 250 61.6 250.2 61.6C250.3 61.6 250.4 61.6 250.5 61.6C252.8 61.6 255.7 61.8 257.2 61.8C258.8 61.8 262.4 61.6 264.8 61.6C265.6 61.6 266.1 61.7 266.1 62.1C266.1 62.6 265.7 62.7 265.1 62.7C264.5 62.7 264 62.8 263.2 62.9C261.5 63.2 261 64.3 260.9 66.5C260.8 68.5 260.8 70.2 260.8 79.7V90.7C260.8 96.8 260.8 101.7 261.1 104.4C261.3 106.1 261.7 107.2 263.6 107.5C264.5 107.6 265.9 107.8 266.8 107.8C267.6 107.7 267.9 107.9 267.9 108.2Z" fill="#202944"/>
<path d="M154.1 69.4V72L149 73L145.7 79.6L141.3 82.6L139.8 85.6L137.2 84.8L138 78.3C122.3 90.6 107.4 104.4 94.5 119.6C89.8 125.2 85.3 126.4 82.3 126.5C78.2 126.6 74.4 124.5 72.1 120.9C69.4 116.6 69.3 111 71.7 106.2C73.1 103.6 74.9 100.2 76.8 96.8C70.3 101.7 62.5 107.7 55.2 113.9L55.1 114.4L56.9 125.4L60.1 129.8L56.9 135.4L61.5 148.5L69.2 150.3L71.3 154.9L145 155.4L144.3 151.1L146.2 145.4L143.6 141.8L141.8 128.2L147.4 114.6L145.9 109.1L148 99.9L151.6 97.5L152.8 82.6L163.4 66.2L165.3 59.6L163.2 58.5L154.1 69.4Z" fill="#D0CFCE"/>
<path d="M19.2 57.4L17.5 78C29.1 71 45.8 61.9 59.7 57.9C60.3 57.7 61 57.6 61.6 57.6C65.4 57.5 69.3 60.2 71.4 64.5C72.7 67.2 73.2 70 72.8 72.6C84.3 63.6 97 54.4 105.7 50.1C106.7 49.6 107.7 49.4 108.9 49.3C113.3 49.2 119.7 52.3 122.3 57.2C123.4 59.3 123.7 61.6 123.1 63.8C128.8 59.3 135.4 54.3 142.9 49V42.5L134.8 40L136.3 36.4L124.4 32.7L121.9 34.8L110.2 29.4L84.5 22.6L82.1 15.4L70.2 10.4L66 12.9L65.1 11.9L70.1 1.7L63.9 0.5L55 6.4L40.6 9.1L35.9 6.2L33.2 10.1H30.7L30.6 31.3L19.6 36.9L16 46.2L22 53.2L19.2 57.4Z" fill="#D0CFCE"/>
<path d="M230.6 26.6C228.2 21.4 208.3 28.9 205.2 30C168.9 43.3 149.4 52.6 137.1 59.9C154.6 49.4 160.3 41.8 204.4 24.7C212.6 21.5 217.8 18.9 226.5 18.9C229.1 18.9 231.9 19.7 233.4 23.5C234.6 27 231.5 28.7 230.6 26.6ZM72.1 81.7C84.5 71.8 105.4 56.2 109.3 56C111.4 55.9 115.1 57.9 116.4 60.2C117.2 61.1 115.8 62.3 115.3 61.6C114.7 60.8 110.9 58.7 108.4 59.4C105.8 60 72.2 81.7 72.1 81.7ZM25.9 80.8C37.3 74.2 50.8 67.4 61.5 64.3C65 63.3 66.5 69 66.6 70.2C66.7 71.1 65.4 73.1 64.6 70.6C63.6 67.9 61.3 68.2 59.9 68.2C53.7 68.2 26.2 80.7 25.9 80.8ZM235.4 22.8C231 11.5 220.4 15.4 195.4 25.7C129.8 52.8 101.8 88.1 101.8 88.1C105.6 80.1 114.3 69.5 118.2 64C122.1 58.5 111.3 52.3 107.7 54C88.4 63.6 48 98.9 48 98.9C48 98.9 62.2 81.5 66.8 75.8C71.4 70.1 65.5 60.9 60.9 62.3C40.4 68.1 12.4 86.3 5.89999 90.8C1.99999 93.5 -1.50001 97.1 1.29999 103.3C4.79999 111 9.19999 104.4 12.5 101.7C21.7 94 46.8 81 46.8 81C46.8 81 29.9 100 18.3 116C6.69999 132 24.2 139.8 29.3 133.2C45.2 112.8 90.7 81.4 90.7 81.4C90.7 81.4 80.6 99.2 75.7 108.3C70.9 117.5 81 129.3 91.1 116.7C142.9 52 209.4 33.5 221.2 34C230.8 34.4 239.8 34.1 235.4 22.8Z" fill="#860038"/>
<path d="M526.7 132.9V138.9H525.7V132.9H523.4V132.1H528.9V132.9H526.7Z" fill="#003055"/>
<path d="M537 132.1V138.9H536L536.2 133.2L533.8 138.9H533L530.7 133.3L530.8 138.9H529.8V132.1H531.1L533.4 137.7L535.7 132.1H537Z" fill="#003055"/>
<path d="M257 183.3V184.4H256.1C255.3 184.4 254.5 184 254.4 182.8C253.7 183.9 252.2 184.7 250.3 184.7C247.8 184.7 246.3 183.4 246.3 181.3C246.3 179.6 247.3 178.1 250.7 178.1H254.5V177.4C254.5 175 253.2 174.1 251.3 174.1C249.4 174.1 248.2 175 248.1 176.5H246.8C247 174.2 248.9 173 251.3 173C254.3 173 255.8 174.7 255.8 177.3V182.4C255.8 183.2 256 183.4 256.7 183.4H257V183.3ZM254.4 179.6V179H250.6C248.4 179 247.6 179.9 247.6 181.2C247.6 182.7 248.7 183.5 250.4 183.5C252.4 183.5 254.4 182.4 254.4 179.6Z" fill="#343333"/>
<path d="M275.3 168V184.4H274.2L274 182.4C273.1 183.9 271.4 184.7 269.7 184.7C266.8 184.7 264.3 182.7 264.3 178.9C264.3 175.1 266.9 173 269.7 173C271.5 173 273.1 173.8 274 175.2V168H275.3ZM274 178.9C274 176 272.2 174.1 269.8 174.1C267.3 174.1 265.6 176 265.6 178.9C265.6 181.8 267.3 183.6 269.8 183.6C272.1 183.5 274 181.8 274 178.9Z" fill="#343333"/>
<path d="M279 168.7H280.9V170.5H279V168.7ZM279.3 173.2H280.6V184.4H279.3V173.2Z" fill="#343333"/>
<path d="M288.8 182.8L292.9 173.2H294.3L289.5 184.4H288.2L283.4 173.2H284.8L288.8 182.8Z" fill="#343333"/>
<path d="M296.6 168.7H298.5V170.5H296.6V168.7ZM297 173.2H298.3V184.4H297V173.2Z" fill="#343333"/>
<path d="M302.9 181.2C303 182.7 304.2 183.5 306.2 183.5C308.2 183.5 309.4 182.7 309.4 181.3C309.4 180.2 308.8 179.6 307.5 179.4L305.1 179C303 178.7 301.9 177.8 301.9 176C301.9 174.1 303.7 172.9 306.1 172.9C308.6 172.9 310.5 174.1 310.5 176.3H309.2C309.2 174.8 307.9 174 306.1 174C304.4 174 303.2 174.7 303.2 176C303.2 177.1 303.9 177.6 305.4 177.8L307.8 178.2C309.8 178.5 310.8 179.4 310.8 181.2C310.8 183.3 308.9 184.6 306.3 184.6C303.4 184.6 301.7 183.3 301.6 181.2H302.9Z" fill="#343333"/>
<path d="M313.8 168.7H315.7V170.5H313.8V168.7ZM314.1 173.2H315.4V184.4H314.1V173.2Z" fill="#343333"/>
<path d="M324.4 172.9C327.8 172.9 330 175.3 330 178.8C330 182.2 327.8 184.6 324.4 184.6C321 184.6 318.8 182.2 318.8 178.8C318.8 175.3 321 172.9 324.4 172.9ZM324.4 183.5C327 183.5 328.7 181.7 328.7 178.8C328.7 175.9 327 174.1 324.4 174.1C321.8 174.1 320.1 175.9 320.1 178.8C320.2 181.6 321.9 183.5 324.4 183.5Z" fill="#343333"/>
<path d="M343.1 177.7V184.4H341.8V177.9C341.8 175.4 340.4 174.2 338.5 174.2C336.1 174.2 334.9 175.9 334.9 178.3V184.5H333.6V173.3H334.7L334.9 175.2C335.6 173.8 337 173.1 338.7 173.1C341.4 172.9 343.1 174.8 343.1 177.7Z" fill="#343333"/>
<path d="M356.9 172.9C360.3 172.9 362.5 175.3 362.5 178.8C362.5 182.2 360.3 184.6 356.9 184.6C353.5 184.6 351.3 182.2 351.3 178.8C351.3 175.3 353.5 172.9 356.9 172.9ZM356.9 183.5C359.5 183.5 361.2 181.7 361.2 178.8C361.2 175.9 359.5 174.1 356.9 174.1C354.3 174.1 352.6 175.9 352.6 178.8C352.6 181.6 354.4 183.5 356.9 183.5Z" fill="#343333"/>
<path d="M366.4 173.2V170.7C366.4 168.7 367.4 168 369.2 168H370.6V169.2H369.1C368 169.2 367.7 169.8 367.7 170.7V173.2H370.6V174.4H367.7V184.5H366.4V174.4H364.4V173.2H366.4Z" fill="#343333"/>
<path d="M379.7 177.1V184.4H378.3V168.7H379.7V175.8H389.1V168.7H390.5V184.4H389.1V177.1H379.7Z" fill="#343333"/>
<path d="M400.1 184.4H398.8V170H393.2V168.7H405.7V170H400.1V184.4Z" fill="#343333"/>
<path d="M418.1 183.1V184.4H408.5V168.7H409.9V183.1H418.1Z" fill="#343333"/>
<path d="M422.2 170V176.1H430.1V177.4H422.2V184.4H420.8V168.7H431V170H422.2Z" fill="#343333"/>
<path d="M450.8 180.2C450.8 182.7 448.9 184.4 445.9 184.4H438.9V168.7H445.3C448.4 168.7 450.3 170.3 450.3 172.7C450.3 174.1 449.6 175.4 448.1 176.3C449.7 176.8 450.8 178.2 450.8 180.2ZM445.2 170H440.2V175.7H445.5C447.4 175.7 448.7 174.7 448.7 172.8C448.8 171 447.6 170 445.2 170ZM449.3 180.1C449.3 178.2 448 177 445.8 177H440.2V183.2H445.5C448.1 183.1 449.3 181.9 449.3 180.1Z" fill="#343333"/>
<path d="M464.2 183.3V184.4H463.3C462.5 184.4 461.7 184 461.6 182.8C460.9 183.9 459.4 184.7 457.5 184.7C455 184.7 453.5 183.4 453.5 181.3C453.5 179.6 454.5 178.1 457.9 178.1H461.7V177.4C461.7 175 460.4 174.1 458.5 174.1C456.6 174.1 455.4 175 455.3 176.5H454C454.2 174.2 456.1 173 458.5 173C461.5 173 463 174.7 463 177.3V182.4C463 183.2 463.2 183.4 463.9 183.4H464.2V183.3ZM461.7 179.6V179H457.9C455.7 179 454.9 179.9 454.9 181.2C454.9 182.7 456 183.5 457.7 183.5C459.7 183.5 461.7 182.4 461.7 179.6Z" fill="#343333"/>
<path d="M476.7 177.7V184.4H475.4V177.9C475.4 175.4 474 174.2 472.1 174.2C469.7 174.2 468.5 175.9 468.5 178.3V184.5H467.2V173.3H468.3L468.5 175.2C469.2 173.8 470.6 173.1 472.3 173.1C475 172.9 476.7 174.8 476.7 177.7Z" fill="#343333"/>
<path d="M480.6 168H481.9V179.1L487.8 173.1H489.5L484.6 178.1L489.5 184.4H487.9L483.7 179L481.9 180.8V184.3H480.6V168Z" fill="#343333"/>
</g>
<defs>
<clipPath id="clip0_1_64">
<rect width="544" height="185" fill="white"/>
</clipPath>
</defs>
</svg>
