<svg xmlns="http://www.w3.org/2000/svg" viewBox="0 0 187.09 115"><defs><style>.cls-1{fill:#231f20;fill-rule:evenodd;}</style></defs><title>fdic-black</title><g id="Layer_2" data-name="Layer 2"><g id="Layer_1-2" data-name="Layer 1"><path class="cls-1" d="M44.51,41.88H70.08c23.06,0,37.77,14.18,37.77,36.31,0,24.51-16.3,36.44-42.27,36.44H44.51V41.88Zm24,16.69c-.93,0-2.12.13-3.71.13V97.92c13,0,23-5.16,23-20.14,0-12.85-8.21-19.21-19.34-19.21Z"/><path class="cls-1" d="M187.09,63.06V43.85a39.78,39.78,0,0,0-16.3-3.32c-21.34,0-38.43,16.17-38.43,37.5s16.83,37,38,37c7.55,0,12.72-1.59,16.7-4.63V91.15c-6,3.71-10.07,5.3-15.64,5.3-10.73,0-19.08-7.82-19.08-19.34,0-11.27,8.48-19.48,19.08-19.48,5.83,0,10.07,2,15.64,5.43Z"/><path class="cls-1" d="M0,27.3v3.44H14.18V27.3c-4.11-.14-4.77-.67-4.77-3.45V6.49l8.48,24.25h3.58L30.61,6.49v17c0,3.58,0,3.58-5,3.85v3.44H42V27.3c-4.78,0-4.91-.53-4.91-3.05v-17c0-2.78.4-3.71,4.91-3.71V0H28L20.8,19.48,14.18,0H0V3.58c4,0,4.64,0,4.64,3.44v16.3c0,3.18,0,4-4.64,4Z"/><path class="cls-1" d="M68.75,27.3v3.44H81.87V27.3c-3.18-.14-3.18-.53-3.18-4.91V18.68c0-3.57,1.59-6.49,4.9-6.49,2.65,0,3.45,1.72,3.45,4.11v7.82c0,2.65-.13,3.18-3.31,3.18v3.44H95.52V27.3c-2.78,0-3-.27-3-2.92V19c0-3.71,1.72-6.89,5.17-6.89,2.65,0,3.18,1.59,3.18,4.77v8c0,2.25,0,2.52-3.18,2.52v3.44h13V27.3c-4,0-4.24.13-4.24-2.12V16.3c0-5-1.2-8-6.37-8-3,0-5,1.19-7.55,3.84a6.8,6.8,0,0,0-6.36-4c-3.31,0-5.56,1.72-7.42,4.24V8.88H68.75v3.18c4,0,4.38.13,4.38,3.31v7.29c0,4.64,0,4.64-4.38,4.64Z"/><polygon class="cls-1" points="0.64 41.88 0.64 114.63 20.64 114.63 20.78 86.8 40.26 86.8 40.26 69.97 20.91 69.97 20.78 58.71 41.71 58.71 41.71 41.88 0.64 41.88 0.64 41.88"/><path class="cls-1" d="M112.21,0h9.28V11.27c2.52-2.12,4.11-2.91,6.62-2.91,5.3,0,8.88,4.77,8.88,11.39,0,7.16-3.58,11.8-9.67,11.8a8.35,8.35,0,0,1-6.76-3.05L118.7,31h-2.78V7.16c0-3.57-.26-4-3.71-4V0Zm18.56,19.73c0-5-1.86-7.55-4.51-7.55-3.44,0-4.9,2.78-4.9,8,0,4.5,1.72,7.55,4.77,7.55,2.52,0,4.64-2.38,4.64-8Z"/><path class="cls-1" d="M165.21,27.3v3.44h14.31V27.3c-4,0-4.37.13-4.37-3.05V19.48c0-4.37,1.46-8.35,5.43-8.35a3.51,3.51,0,0,1,1.33.27,3.38,3.38,0,0,0-2.25,3,2.89,2.89,0,0,0,3,2.92c2.12,0,3.58-1.59,3.58-4a4.87,4.87,0,0,0-5-5c-2.39,0-4.11,1.19-6.23,3.58v-3h-9.81v3.18c3.45,0,4.38,0,4.38,2.91v9c0,3.05,0,3.32-4.38,3.32Z"/><path class="cls-1" d="M147.19,20.42c0,4.24,2,7.15,5.57,7.15,3.18,0,4.64-1.85,5.17-4.77h4c-.66,5.57-4.37,8.62-9.67,8.62-6.36,0-11.13-3.85-11.13-11.27,0-6.76,4.24-11.79,10.6-11.79s10.2,4.77,10.2,12.06Zm4.51-8.63c-2.65,0-4.24,1.85-4.24,5.16h8.35c0-3.44-1.33-5.16-4.11-5.16Z"/><path class="cls-1" d="M50.73,20.42c0,4.24,2.12,7.15,5.7,7.15,3.18,0,4.64-1.85,5.17-4.77h3.84c-.66,5.57-4.24,8.62-9.54,8.62-6.36,0-11.26-3.85-11.26-11.27,0-6.76,4.37-11.79,10.73-11.79s10.07,4.77,10.07,12.06Zm4.64-8.63c-2.65,0-4.24,1.85-4.24,5.16h8.22c0-3.57-1.33-5.16-4-5.16Z"/><polygon class="cls-1" points="109.97 114.63 129.98 114.63 129.98 41.88 109.97 41.88 109.97 114.63 109.97 114.63"/></g></g></svg>
