<?xml version="1.0" encoding="utf-8"?>
<!-- Generator: Adobe Illustrator 26.3.1, SVG Export Plug-In . SVG Version: 6.00 Build 0)  -->
<svg version="1.1" id="Layer_1" xmlns="http://www.w3.org/2000/svg" xmlns:xlink="http://www.w3.org/1999/xlink" x="0px" y="0px"
	 viewBox="0 0 112.8 48" style="enable-background:new 0 0 112.8 48;" xml:space="preserve">
<style type="text/css">
	.st0{fill:#FFFFFF;}
	.st1{fill:none;}
	.st2{enable-background:new    ;}
</style>
<g>
	<g>
		<g>
			<path class="st0" d="M81.8,22.1V4.2c0-0.2,0.2-0.4,0.4-0.4h23.9c0.3,0,0.4,0.3,0.2,0.5l-5.7,5.6c-0.1,0.1-0.1,0.1-0.2,0.1H90.2
				v17.9c0,0.2-0.2,0.4-0.4,0.4h-7.6c-0.2,0-0.4-0.2-0.4-0.4v-3.7l-4.2,4.1H61.5c-0.2,0-0.4-0.2-0.4-0.4v-22l-4.1,4
				c0,0.1-0.1,0.1-0.2,0.1h-6.2v17.9c0,0.2-0.2,0.4-0.4,0.4h-7.6c-0.2,0-0.4-0.2-0.4-0.4V9.9h-10v17.9c0,0.2-0.2,0.4-0.4,0.4h-7.6
				c-0.2,0-0.4-0.2-0.4-0.4v-13L19.8,19c0,0-0.1,0.1-0.2,0.1h-7.9v8.8c0,0.2-0.2,0.4-0.4,0.4H3.7c-0.2,0-0.4-0.2-0.4-0.4V4.2
				c0-0.2,0.2-0.4,0.4-0.4h7.6c0.2,0,0.4,0.2,0.4,0.4V13H24V4.2c0-0.2,0.2-0.4,0.4-0.4H32c0.2,0,0.4,0.2,0.4,0.4v3.7l4.1-4
				c0,0,0.1-0.1,0.2-0.1l32.4,0c0.2,0,0.4,0.2,0.4,0.4v17.9H81.8z"/>
		</g>
	</g>
	<path class="st0" d="M103.5,18.6l-5.7-5.6c-0.1-0.1-0.3-0.1-0.4,0l-5.7,5.6c-0.2,0.2-0.1,0.5,0.2,0.5h11.4
		C103.5,19.1,103.7,18.8,103.5,18.6z"/>
</g>
<rect x="23.2" y="35.5" class="st1" width="208.9" height="39.9"/>
<g class="st2">
	<path class="st0" d="M36.5,42.6c0,1.7-1.2,2.6-3.2,2.6h-4.2v-9.4h4c2.1,0,3.2,1,3.2,2.5c0,0.7-0.3,1.6-1.2,2
		C36,40.7,36.5,41.6,36.5,42.6z M32.9,37.5h-2v2.3h2c0.9,0,1.3-0.5,1.3-1.2C34.3,38,33.9,37.5,32.9,37.5z M34.6,42.5
		c0-0.8-0.5-1.2-1.4-1.2h-2.2v2.4h2.2C34,43.6,34.6,43.2,34.6,42.5z"/>
	<path class="st0" d="M49,43.3h-3.5l-0.7,2h-1.9l3.5-9.4h1.8l3.5,9.4h-2L49,43.3z M48.5,41.8l-1.2-3.4L46,41.8H48.5z"/>
	<path class="st0" d="M58.8,35.9h1.9l3.9,6.3v-6.3h1.8v9.4h-1.9L60.6,39v6.2h-1.8V35.9z"/>
	<path class="st0" d="M74.1,35.9H76v4.4l4-4.4h2.2l-3.6,4l3.6,5.4h-2.4l-2.6-3.9L76,42.5v2.7h-1.8V35.9z"/>
</g>
</svg>
