<?xml version="1.0" encoding="utf-8"?>
<!-- Generator: Adobe Illustrator 27.4.0, SVG Export Plug-In . SVG Version: 6.00 Build 0)  -->
<svg version="1.1" id="Layer_1" xmlns="http://www.w3.org/2000/svg" xmlns:xlink="http://www.w3.org/1999/xlink" x="0px" y="0px"
	 viewBox="0 0 125 71" style="enable-background:new 0 0 125 71;" xml:space="preserve">
<style type="text/css">
	.st0{fill:#FFFFFF;}
	.st1{fill:none;}
	.st2{font-family:'MyriadPro-Regular';}
	.st3{font-size:9px;}
</style>
<path class="st0" d="M20,46.8v12.8h103V46.8H20z M55.5,51.8h-1.6v4.9h-1.4v-4.9h-1.6v-1.1h4.6V51.8z M65.4,56.7h-3.9v-6h3.7v1.1
	h-2.4V53h2.2v1.1h-2.2v1.4h2.5V56.7z M74,56.7l-0.5-1.1c-0.2-0.4-0.4-0.7-0.5-1.1h0c-0.1,0.3-0.3,0.7-0.5,1.1L72,56.7h-1.6l1.7-3.1
	l-1.7-3H72l0.5,1.1c0.2,0.4,0.3,0.7,0.5,1h0c0.1-0.4,0.3-0.7,0.4-1l0.5-1.1h1.6l-1.7,2.9l1.8,3.1H74z M85.4,56.7l-0.5-1.5h-1.7
	l-0.4,1.5h-1.4l1.8-6H85l1.9,6H85.4z M93.7,56.8c-0.7,0-1.4-0.2-1.7-0.4l0.3-1.1c0.4,0.2,0.9,0.4,1.5,0.4c0.6,0,1-0.3,1-0.7
	c0-0.4-0.3-0.6-1-0.9c-1-0.3-1.7-0.9-1.7-1.8c0-1,0.9-1.8,2.3-1.8c0.7,0,1.2,0.1,1.5,0.3L95.6,52c-0.2-0.1-0.7-0.3-1.3-0.3
	c-0.6,0-0.9,0.3-0.9,0.6c0,0.4,0.3,0.6,1.1,0.9c1.1,0.4,1.6,0.9,1.6,1.8C96.1,55.9,95.4,56.8,93.7,56.8z"/>
<path class="st0" d="M84,51.7L84,51.7c-0.1,0.4-0.2,0.8-0.3,1.2l-0.4,1.3h1.3l-0.4-1.3C84.2,52.5,84.1,52,84,51.7z"/>
<path class="st0" d="M5.3,45.1c0,0,5.9-13.6,22.7-21.4l-1.8,4.9c0,0,4.9-5.3,13.3-6.3l-1.9,8.2c0,0-7.2-0.7-16.3,5.7L23,32
	C23,32,14.3,34.4,5.3,45.1L5.3,45.1L5.3,45.1z"/>
<path class="st0" d="M33.3,32.2c0,2.4-0.1,4.8-0.1,6.1v2.3c0,0.4,0.4,0.5,0.8,0.7v0.3c-0.5,0-1-0.1-1.5-0.1c-0.4,0-0.9,0.1-1.4,0.1
	v-0.3c0.2-0.1,0.7-0.3,0.7-0.7v-2.9c0-1.2-0.1-3.2-0.1-3.5c-0.1-0.3-0.2-0.4-0.9-0.4v-0.3c0.7-0.1,1.9-0.7,2.2-1.3H33.3L33.3,32.2z"
	/>
<path class="st0" d="M39.7,34.3h-0.4c-0.1-0.7-0.5-0.8-1.1-0.8c-1.1,0-1.9,0.9-1.9,2.8v4.3c0,0.4,0.4,0.5,0.9,0.7v0.3
	c-0.5,0-1-0.1-1.6-0.1c-0.5,0-1,0.1-1.6,0.1v-0.3c0.4-0.1,0.9-0.3,0.9-0.7v-4c0-1.2-0.1-2.4-0.3-2.7c-0.1-0.2-0.3-0.2-0.4-0.2
	c-0.2,0-0.4,0-0.6,0.1v-0.3c0.8-0.2,1.6-0.7,2.3-1.2h0.3l0.1,1.9h0c0.6-1,1.3-1.9,2.4-1.9c0.3,0,0.7,0.1,1,0.2V34.3L39.7,34.3z"/>
<path class="st0" d="M40.1,39.8h0.3c0.3,0.9,1.1,1.4,2,1.4c0.7,0,1.4-0.5,1.4-1.3c0-2.6-4.1-1.6-4.1-4.6c0-1.9,1.4-3.1,3.1-3.1
	c0.7,0,1.5,0.2,2.2,0.4l-0.1,1.5h-0.3c-0.2-0.9-1-1.3-1.8-1.3c-0.9,0-1.6,0.6-1.6,1.7c0,2.6,4.1,1.5,4.1,4.6c0,1.9-1.4,2.8-3,2.8
	c-0.5,0-1.5-0.2-1.9-0.4L40.1,39.8L40.1,39.8z"/>
<path class="st0" d="M48.1,33.2v5.4c0,1.3,0.4,1.7,1.1,1.7c0.5,0,0.9-0.3,1.2-0.6l0.2,0.2l-1.4,1.9c-0.9,0-2.5-0.4-2.5-2.7v-5.8
	h-1.3V33c1.3-0.6,2-1.5,2.2-3.2H48v2.7h2.7v0.7H48.1L48.1,33.2z"/>
<path class="st0" d="M54.2,31.4h0.8c2.5,0,4.1-0.9,4.1-3.8c0-2.9-1.6-4.4-3.8-4.4c-0.9,0-1.1,0.4-1.1,1.2L54.2,31.4L54.2,31.4z
	 M54.1,39.5c0,1,0.2,1.3,1.2,1.3c2.7,0,4.1-1.7,4.1-4.4c0-2.9-1.7-4.2-3.9-4.2h-1.4L54.1,39.5L54.1,39.5z M52,25.8
	c0-2.4-0.3-2.7-1.2-2.7v-0.5c0.9,0,1.7,0.1,2.5,0.1s1.6-0.1,2.5-0.1c2.7,0,5.4,1.1,5.4,4.7c0,2.4-1.6,3.9-3.6,4.4v0.1
	c2.6,0.6,4,2.6,4,4.7c0,4.3-3,5-5.7,5c-0.8,0-1.6-0.1-2.5-0.1c-1,0-2,0.1-2.5,0.1v-0.5c0.9,0,1.3-0.8,1.3-1.6L52,25.8L52,25.8z"/>
<path class="st0" d="M66.3,36.8h-1c-1.2,0-2.2,0.8-2.2,2.1c0,1,0.4,1.7,1.4,1.7c0.6,0,1.3-0.4,1.8-1V36.8L66.3,36.8z M62.3,32.5
	c0.9-0.3,1.8-0.4,2.8-0.4c2.2,0,2.6,1.1,2.6,3.3v4.1c0,0.5,0.2,0.9,0.5,0.9c0.2,0,0.4-0.1,0.6-0.2l0.1,0.4l-1.7,1.3
	c-0.3-0.3-0.6-0.8-0.8-1.4c-0.8,0.6-1.6,1.3-2.6,1.3c-1.5,0-2.1-1.6-2.1-2.7c0-1.5,1-2.2,2.2-2.7c0.8-0.3,1.6-0.3,2.5-0.3V35
	c0-1.2-0.4-1.7-1.9-1.7c-0.7,0-1.6,0.1-1.8,1h-0.3V32.5L62.3,32.5z"/>
<path class="st0" d="M70.9,33.6c0.9-0.6,1.8-1.4,3.1-1.4c1.5,0,2.5,1.2,2.5,2.8v5.6c0,0.3,0.2,0.5,0.6,0.7v0.3
	c-0.5,0-0.9-0.1-1.4-0.1s-0.9,0.1-1.4,0.1v-0.3c0.3-0.1,0.8-0.3,0.8-0.7v-2.2c0-1.2-0.1-3-0.1-3.4c-0.2-1.2-1-1.7-2-1.7
	c-0.8,0-1.5,0.6-2,1c0,1,0,2.7,0,4.2v2.1c0,0.4,0.2,0.5,0.6,0.7v0.3c-0.5,0-0.9-0.1-1.4-0.1c-0.5,0-0.9,0.1-1.4,0.1v-0.3
	c0.3-0.1,0.8-0.3,0.8-0.7v-2.9c0-1.2-0.1-3.2-0.1-3.5c-0.1-0.3-0.2-0.4-0.9-0.4v-0.3c0.8-0.3,1.6-0.7,2.1-1.3h0.3L70.9,33.6
	L70.9,33.6z"/>
<path class="st0" d="M79.5,40.6c0,0.4,0.4,0.5,0.9,0.7v0.3c-0.5,0-1-0.1-1.6-0.1c-0.5,0-1,0.1-1.6,0.1v-0.3c0.4-0.1,0.9-0.3,0.9-0.7
	v-7.3c0-2.7-0.1-5.2-0.1-5.5c0-0.6-0.8-0.5-1.1-0.4v-0.4c1-0.4,1.7-0.8,2.5-1.4h0.2c0,1.7-0.1,3.5-0.1,5.2v5.6
	c0.5-0.6,2.8-2.5,2.8-3.1c0-0.3-0.3-0.4-0.5-0.5v-0.3c0.5,0,1,0.1,1.6,0.1c0.5,0,1-0.1,1.6-0.1v0.4c-1.4,0.2-3.1,2.2-4,3.1l3,3.5
	c0.7,0.8,1.1,1.3,2,1.6v0.5c-0.5,0-1-0.1-1.6-0.1c-0.5,0-1,0.1-1.6,0.1v-0.3c0.2,0,0.3-0.2,0.3-0.3c0-0.1,0-0.2-0.1-0.3l-3.2-3.8
	L79.5,37V40.6L79.5,40.6z"/>
<path class="st0" d="M91.4,34c0-0.7-0.4-1.2-1-1.2c-0.7,0-1.1,0.5-1.1,1.1c0,1,0.4,1.3,1,1.9C90.9,35.5,91.4,35.1,91.4,34L91.4,34z
	 M89.7,36.6c-0.6,0.5-1.1,0.9-1.1,1.8c0,1.4,1.2,2.1,2,2.1c0.7,0,1.4-0.4,1.8-1L89.7,36.6L89.7,36.6z M92.7,39.8
	c-0.6,0.9-1.5,1.7-2.5,1.7c-1.2,0-2.4-1-2.4-2.4c0-1.2,0.8-2.1,1.7-2.6c-0.5-0.5-1-1.1-1-1.9c0-1,0.8-2,1.8-2c0.8,0,1.9,0.4,1.9,1.6
	c0,0.7-0.7,1.6-1.5,2l2.4,2.6c0.2-0.4,0.6-1.3,0.6-1.8c0-0.6-0.2-0.7-0.7-0.8v-0.3c0.4,0,0.8,0.1,1.2,0.1c0.4,0,0.8-0.1,1.2-0.1V36
	c-0.4,0.1-0.7,0.2-0.8,0.4c-0.2,0.2-0.8,2.1-1.2,2.5c0.5,0.6,1.2,1.5,1.9,1.8c0.2,0.1,0.3,0.1,0.5,0.1v0.3c-0.3,0-0.7-0.1-1-0.1
	c-0.3,0-0.7,0-1,0.1L92.7,39.8L92.7,39.8z"/>
<path class="st0" d="M97.7,29.6c-1,0-1.4,0.3-1.7,1.2h-0.3l-0.1-2.3h0.1c0.3,0.1,0.6,0.2,0.9,0.2c1.3,0,2.6,0.1,3.9,0.1
	c1.3,0,2.6-0.1,3.9-0.1c0.3,0,0.7-0.1,0.9-0.2h0.1l-0.1,2.3h-0.3c-0.3-0.9-0.6-1.2-1.7-1.2h-2.2l0,10.2c0,0.7,0.2,0.8,1.1,1.1v0.3
	c-0.6,0-1.2-0.1-1.7-0.1c-0.6,0-1.2,0.1-1.7,0.1v-0.3c0.9-0.2,1.1-0.4,1.1-1.1l0-10.2H97.7L97.7,29.6z"/>
<path class="st0" d="M106.9,35.4h-0.3c-0.1-0.5-0.4-0.7-0.9-0.7c-0.9,0-1.5,0.7-1.5,2.2v3.4c0,0.3,0.3,0.4,0.7,0.5v0.3
	c-0.4,0-0.8-0.1-1.2-0.1c-0.4,0-0.8,0.1-1.2,0.1v-0.3c0.3-0.1,0.7-0.2,0.7-0.5v-3.2c0-1-0.1-1.9-0.2-2.2c-0.1-0.2-0.2-0.2-0.4-0.2
	c-0.1,0-0.4,0-0.5,0.1v-0.3c0.7-0.2,1.2-0.6,1.8-0.9h0.2l0.1,1.5h0c0.5-0.8,1-1.5,1.9-1.5c0.3,0,0.5,0.1,0.8,0.1V35.4L106.9,35.4z"
	/>
<path class="st0" d="M107.8,34.6c0-0.3-0.4-0.4-0.7-0.5v-0.3c0.4,0,0.8,0.1,1.2,0.1c0.4,0,0.8-0.1,1.2-0.1v0.3
	c-0.2,0.1-0.5,0.1-0.5,0.5v3.9c0,1.1,0.5,1.9,1.4,1.9c0.6,0,1.3-0.2,1.8-0.7v-1.6c0-1.2-0.1-2.4-0.1-3.6c0-0.3-0.3-0.4-0.5-0.5v-0.3
	c0.4,0,0.8,0.1,1.2,0.1c0.4,0,0.8-0.1,1.2-0.1v0.3c-0.3,0-0.6,0.2-0.6,0.5c0,0.4,0,1.9,0,3.3v1.8c0,0.5,0.2,0.8,0.5,0.8
	c0.1,0,0.3-0.1,0.7-0.3v0.3l-1.6,1c-0.4-0.2-0.7-0.7-0.7-1.2c-0.7,0.5-1.5,1.2-2.4,1.2c-1.4,0-2.1-1.5-2.1-2.8V34.6L107.8,34.6z"/>
<path class="st0" d="M114.8,39.8h0.2c0.2,0.7,0.9,1.1,1.6,1.1c0.6,0,1.2-0.4,1.2-1.1c0-2.1-3.3-1.3-3.3-3.7c0-1.5,1.1-2.4,2.4-2.4
	c0.6,0,1.2,0.2,1.7,0.3l-0.1,1.2h-0.2c-0.2-0.7-0.8-1-1.4-1c-0.7,0-1.3,0.5-1.3,1.3c0,2.1,3.3,1.2,3.3,3.6c0,1.5-1.2,2.2-2.4,2.2
	c-0.4,0-1.2-0.2-1.5-0.4L114.8,39.8L114.8,39.8z"/>
<path class="st0" d="M120.9,34.5v4.3c0,1.1,0.3,1.4,0.9,1.4c0.4,0,0.7-0.3,0.9-0.5l0.2,0.2l-1.1,1.5c-0.7,0-2-0.3-2-2.2v-4.7h-1.1
	v-0.2c1-0.5,1.6-1.2,1.8-2.6h0.4V34h2.1v0.6H120.9L120.9,34.5z"/>
<path class="st0" d="M2,39.5c0,0,9.7-19.3,26.2-27.2l-1.4,4.5c0,0,8.1-10.5,22.5-8.8l-2,9.5c0,0-14.7-1.1-26.4,8.8l1.7-4
	C22.7,22.2,11,26.9,2,39.5L2,39.5L2,39.5z"/>
<path class="st0" d="M29.5,34C11.2,42.7,6.7,53.3,6.7,53.3l0,0c8.9-10.7,14.1-11.4,14.1-11.4l-1.1,2.8c1.6-1.1,3.5-2.1,8-3.5
	L29.5,34L29.5,34z"/>
<g>
	<path class="st0" d="M43.4,67.1v0.5h-0.4c-0.3,0-0.5-0.1-0.5-0.4c-0.2,0.3-0.6,0.4-1,0.4c-0.7,0-1.1-0.4-1.1-0.9
		c0-0.5,0.3-0.9,1.2-0.9h0.9v-0.2c0-0.4-0.3-0.7-0.7-0.7c-0.4,0-0.7,0.2-0.7,0.5h-0.6c0-0.7,0.6-1,1.3-1c0.7,0,1.3,0.4,1.3,1.2v1.2
		c0,0.2,0.1,0.2,0.2,0.2H43.4z M42.5,66.2h-0.8c-0.4,0-0.6,0.2-0.6,0.4c0,0.3,0.2,0.4,0.6,0.4c0.5,0,0.8-0.2,0.8-0.7V66.2z"/>
	<path class="st0" d="M48.2,63.1v4.5h-0.6l-0.1-0.5c-0.2,0.3-0.6,0.5-1.1,0.5C45.7,67.6,45,67,45,66c0-1,0.6-1.6,1.5-1.6
		c0.5,0,0.9,0.2,1.1,0.5v-1.8H48.2z M47.5,66c0-0.6-0.4-1-0.9-1c-0.5,0-0.9,0.4-0.9,1c0,0.6,0.4,1,0.9,1C47.1,67,47.5,66.7,47.5,66z
		"/>
	<path class="st0" d="M49,63.2h0.7v0.7H49V63.2z M49,64.5h0.7v3.1H49V64.5z"/>
	<path class="st0" d="M51.7,66.9l0.9-2.4h0.7l-1.3,3.1h-0.7l-1.2-3.1h0.7L51.7,66.9z"/>
	<path class="st0" d="M53.7,63.2h0.7v0.7h-0.7V63.2z M53.8,64.5h0.7v3.1h-0.7V64.5z"/>
	<path class="st0" d="M55.7,66.6c0,0.3,0.3,0.5,0.7,0.5S57,67,57,66.7c0-0.2-0.1-0.4-0.5-0.4l-0.6-0.1c-0.6-0.1-0.8-0.4-0.8-0.9
		c0-0.6,0.5-0.9,1.2-0.9c0.7,0,1.3,0.4,1.3,1H57c0-0.3-0.3-0.5-0.7-0.5c-0.4,0-0.6,0.1-0.6,0.4c0,0.2,0.2,0.3,0.5,0.4l0.6,0.1
		c0.6,0.1,0.8,0.4,0.8,0.8c0,0.6-0.6,1-1.3,1c-0.8,0-1.4-0.4-1.4-1H55.7z"/>
	<path class="st0" d="M58.3,63.2H59v0.7h-0.7V63.2z M58.3,64.5H59v3.1h-0.7V64.5z"/>
	<path class="st0" d="M61.2,64.4c0.9,0,1.6,0.7,1.6,1.6s-0.6,1.6-1.6,1.6c-0.9,0-1.6-0.6-1.6-1.6S60.3,64.4,61.2,64.4z M61.2,67.1
		c0.6,0,0.9-0.4,0.9-1c0-0.6-0.4-1-0.9-1c-0.5,0-0.9,0.4-0.9,1C60.3,66.6,60.7,67.1,61.2,67.1z"/>
	<path class="st0" d="M66.3,65.7v1.8h-0.7v-1.7c0-0.6-0.3-0.9-0.7-0.9c-0.5,0-0.8,0.4-0.8,0.9v1.7h-0.7v-3.1h0.6l0,0.4
		c0.2-0.3,0.5-0.5,1-0.5C65.9,64.4,66.3,64.9,66.3,65.7z"/>
	<path class="st0" d="M69.7,64.4c0.9,0,1.6,0.7,1.6,1.6s-0.6,1.6-1.6,1.6c-0.9,0-1.6-0.6-1.6-1.6S68.7,64.4,69.7,64.4z M69.7,67.1
		c0.6,0,0.9-0.4,0.9-1c0-0.6-0.4-1-0.9-1c-0.5,0-0.9,0.4-0.9,1C68.8,66.6,69.1,67.1,69.7,67.1z"/>
	<path class="st0" d="M72.1,64.5V64c0-0.6,0.3-0.9,0.9-0.9h0.4v0.6h-0.3c-0.3,0-0.4,0.2-0.4,0.4v0.5h0.7v0.6h-0.7v2.5h-0.7v-2.5
		h-0.5v-0.6H72.1z"/>
	<path class="st0" d="M75.9,65.7v1.9h-0.7v-4.3h0.7v1.8H78v-1.8h0.7v4.3H78v-1.9H75.9z"/>
	<path class="st0" d="M81.3,67.6h-0.7v-3.7h-1.4v-0.6h3.5v0.6h-1.4V67.6z"/>
	<path class="st0" d="M86,66.9v0.6h-2.7v-4.3H84v3.6H86z"/>
	<path class="st0" d="M87.3,63.9v1.3h1.9v0.6h-1.9v1.8h-0.7v-4.3h2.8v0.6H87.3z"/>
	<path class="st0" d="M94.5,66.4c0,0.7-0.5,1.2-1.4,1.2h-1.9v-4.3H93c0.9,0,1.4,0.4,1.4,1.1c0,0.4-0.1,0.8-0.6,0.9
		C94.3,65.5,94.5,65.9,94.5,66.4z M93,63.9h-1.1v1.2H93c0.4,0,0.7-0.2,0.7-0.6C93.7,64.1,93.5,63.9,93,63.9z M93.8,66.3
		c0-0.4-0.3-0.7-0.7-0.7h-1.2V67h1.2C93.6,67,93.8,66.7,93.8,66.3z"/>
	<path class="st0" d="M98.1,67.1v0.5h-0.4c-0.3,0-0.5-0.1-0.5-0.4c-0.2,0.3-0.6,0.4-1,0.4c-0.7,0-1.1-0.4-1.1-0.9
		c0-0.5,0.3-0.9,1.2-0.9h0.9v-0.2c0-0.4-0.3-0.7-0.7-0.7c-0.4,0-0.7,0.2-0.7,0.5h-0.6c0-0.7,0.6-1,1.3-1c0.7,0,1.3,0.4,1.3,1.2v1.2
		c0,0.2,0.1,0.2,0.2,0.2H98.1z M97.1,66.2h-0.8c-0.4,0-0.6,0.2-0.6,0.4c0,0.3,0.2,0.4,0.6,0.4c0.5,0,0.8-0.2,0.8-0.7V66.2z"/>
	<path class="st0" d="M101.5,65.7v1.8h-0.7v-1.7c0-0.6-0.3-0.9-0.7-0.9c-0.5,0-0.8,0.4-0.8,0.9v1.7h-0.7v-3.1h0.6l0,0.4
		c0.2-0.3,0.5-0.5,1-0.5C101,64.4,101.5,64.9,101.5,65.7z"/>
	<path class="st0" d="M102.2,63.1h0.7v2.7l1.3-1.4h0.8l-1.3,1.3l1.3,1.8h-0.8l-1-1.3l-0.4,0.4v0.9h-0.7V63.1z"/>
</g>
<rect x="8.7" y="51.9" class="st1" width="8.8" height="9"/>
<text transform="matrix(1 0 0 1 8.723 58.2938)" class="st0 st2 st3">®</text>
</svg>
