<?xml version="1.0" encoding="utf-8"?>
<!-- Generator: Adobe Illustrator 27.4.0, SVG Export Plug-In . SVG Version: 6.00 Build 0)  -->
<svg version="1.1" id="Layer_1" xmlns="http://www.w3.org/2000/svg" xmlns:xlink="http://www.w3.org/1999/xlink" x="0px" y="0px"
	 viewBox="0 0 135 63" style="enable-background:new 0 0 135 63;" xml:space="preserve">
<style type="text/css">
	.st0{fill:#00693F;}
	.st1{fill:#231F20;}
	.st2{fill:none;}
	.st3{font-family:'NeurialGrotesk-Regular';}
	.st4{font-size:5px;}
	.st5{font-family:'MyriadPro-Regular';}
	.st6{font-size:9px;}
</style>
<path class="st0" d="M31,38.8v12.8h103V38.8H31z M66.5,43.8h-1.6v4.9h-1.4v-4.9h-1.6v-1.1h4.6V43.8z M76.4,48.7h-3.9v-6h3.7v1.1
	h-2.4V45h2.2v1.1h-2.2v1.4h2.5V48.7z M85,48.7l-0.5-1.1c-0.2-0.4-0.4-0.7-0.5-1.1h0c-0.1,0.3-0.3,0.7-0.5,1.1L83,48.7h-1.6l1.7-3.1
	l-1.7-3H83l0.5,1.1c0.2,0.4,0.3,0.7,0.5,1h0c0.1-0.4,0.3-0.7,0.4-1l0.5-1.1h1.6l-1.7,2.9l1.8,3.1H85z M96.4,48.7l-0.5-1.5h-1.7
	l-0.4,1.5h-1.4l1.8-6H96l1.9,6H96.4z M104.7,48.8c-0.7,0-1.4-0.2-1.7-0.4l0.3-1.1c0.4,0.2,0.9,0.4,1.5,0.4c0.6,0,1-0.3,1-0.7
	c0-0.4-0.3-0.6-1-0.9c-1-0.3-1.7-0.9-1.7-1.8c0-1,0.9-1.8,2.3-1.8c0.7,0,1.2,0.1,1.5,0.3l-0.3,1.1c-0.2-0.1-0.7-0.3-1.3-0.3
	c-0.6,0-0.9,0.3-0.9,0.6c0,0.4,0.3,0.6,1.1,0.9c1.1,0.4,1.6,0.9,1.6,1.8C107.1,47.9,106.4,48.8,104.7,48.8z"/>
<path class="st0" d="M95,43.7L95,43.7c-0.1,0.4-0.2,0.8-0.3,1.2l-0.4,1.3h1.3l-0.4-1.3C95.2,44.5,95.1,44,95,43.7z"/>
<path class="st0" d="M5.3,40.1c0,0,5.9-13.6,22.7-21.4l-1.8,4.9c0,0,4.9-5.3,13.3-6.3l-1.9,8.2c0,0-7.2-0.7-16.3,5.7L23,27
	C23,27,14.3,29.4,5.3,40.1L5.3,40.1L5.3,40.1z"/>
<path class="st1" d="M33.3,27.2c0,2.4-0.1,4.8-0.1,6.1v2.3c0,0.4,0.4,0.5,0.8,0.7v0.3c-0.5,0-1-0.1-1.5-0.1c-0.4,0-0.9,0.1-1.4,0.1
	v-0.3c0.2-0.1,0.7-0.3,0.7-0.7v-2.9c0-1.2-0.1-3.2-0.1-3.5c-0.1-0.3-0.2-0.4-0.9-0.4v-0.3c0.7-0.1,1.9-0.7,2.2-1.3H33.3L33.3,27.2z"
	/>
<path class="st1" d="M39.7,29.3h-0.4c-0.1-0.7-0.5-0.8-1.1-0.8c-1.1,0-1.9,0.9-1.9,2.8v4.3c0,0.4,0.4,0.5,0.9,0.7v0.3
	c-0.5,0-1-0.1-1.6-0.1c-0.5,0-1,0.1-1.6,0.1v-0.3c0.4-0.1,0.9-0.3,0.9-0.7v-4c0-1.2-0.1-2.4-0.3-2.7c-0.1-0.2-0.3-0.2-0.4-0.2
	c-0.2,0-0.4,0-0.6,0.1v-0.3c0.8-0.2,1.6-0.7,2.3-1.2h0.3l0.1,1.9h0c0.6-1,1.3-1.9,2.4-1.9c0.3,0,0.7,0.1,1,0.2V29.3L39.7,29.3z"/>
<path class="st1" d="M40.1,34.8h0.3c0.3,0.9,1.1,1.4,2,1.4c0.7,0,1.4-0.5,1.4-1.3c0-2.6-4.1-1.6-4.1-4.6c0-1.9,1.4-3.1,3.1-3.1
	c0.7,0,1.5,0.2,2.2,0.4l-0.1,1.5h-0.3c-0.2-0.9-1-1.3-1.8-1.3c-0.9,0-1.6,0.6-1.6,1.7c0,2.6,4.1,1.5,4.1,4.6c0,1.9-1.4,2.8-3,2.8
	c-0.5,0-1.5-0.2-1.9-0.4L40.1,34.8L40.1,34.8z"/>
<path class="st1" d="M48.1,28.2v5.4c0,1.3,0.4,1.7,1.1,1.7c0.5,0,0.9-0.3,1.2-0.6l0.2,0.2l-1.4,1.9c-0.9,0-2.5-0.4-2.5-2.7v-5.8
	h-1.3V28c1.3-0.6,2-1.5,2.2-3.2H48v2.7h2.7v0.7H48.1L48.1,28.2z"/>
<path class="st1" d="M54.2,26.4h0.8c2.5,0,4.1-0.9,4.1-3.8c0-2.9-1.6-4.4-3.8-4.4c-0.9,0-1.1,0.4-1.1,1.2L54.2,26.4L54.2,26.4z
	 M54.1,34.5c0,1,0.2,1.3,1.2,1.3c2.7,0,4.1-1.7,4.1-4.4c0-2.9-1.7-4.2-3.9-4.2h-1.4L54.1,34.5L54.1,34.5z M52,20.8
	c0-2.4-0.3-2.7-1.2-2.7v-0.5c0.9,0,1.7,0.1,2.5,0.1s1.6-0.1,2.5-0.1c2.7,0,5.4,1.1,5.4,4.7c0,2.4-1.6,3.9-3.6,4.4v0.1
	c2.6,0.6,4,2.6,4,4.7c0,4.3-3,5-5.7,5c-0.8,0-1.6-0.1-2.5-0.1c-1,0-2,0.1-2.5,0.1v-0.5c0.9,0,1.3-0.8,1.3-1.6L52,20.8L52,20.8z"/>
<path class="st1" d="M66.3,31.8h-1c-1.2,0-2.2,0.8-2.2,2.1c0,1,0.4,1.7,1.4,1.7c0.6,0,1.3-0.4,1.8-1V31.8L66.3,31.8z M62.3,27.5
	c0.9-0.3,1.8-0.4,2.8-0.4c2.2,0,2.6,1.1,2.6,3.3v4.1c0,0.5,0.2,0.9,0.5,0.9c0.2,0,0.4-0.1,0.6-0.2l0.1,0.4l-1.7,1.3
	c-0.3-0.3-0.6-0.8-0.8-1.4c-0.8,0.6-1.6,1.3-2.6,1.3c-1.5,0-2.1-1.6-2.1-2.7c0-1.5,1-2.2,2.2-2.7c0.8-0.3,1.6-0.3,2.5-0.3V30
	c0-1.2-0.4-1.7-1.9-1.7c-0.7,0-1.6,0.1-1.8,1h-0.3V27.5L62.3,27.5z"/>
<path class="st1" d="M70.9,28.6c0.9-0.6,1.8-1.4,3.1-1.4c1.5,0,2.5,1.2,2.5,2.8v5.6c0,0.3,0.2,0.5,0.6,0.7v0.3
	c-0.5,0-0.9-0.1-1.4-0.1s-0.9,0.1-1.4,0.1v-0.3c0.3-0.1,0.8-0.3,0.8-0.7v-2.2c0-1.2-0.1-3-0.1-3.4c-0.2-1.2-1-1.7-2-1.7
	c-0.8,0-1.5,0.6-2,1c0,1,0,2.7,0,4.2v2.1c0,0.4,0.2,0.5,0.6,0.7v0.3c-0.5,0-0.9-0.1-1.4-0.1c-0.5,0-0.9,0.1-1.4,0.1v-0.3
	c0.3-0.1,0.8-0.3,0.8-0.7v-2.9c0-1.2-0.1-3.2-0.1-3.5c-0.1-0.3-0.2-0.4-0.9-0.4v-0.3c0.8-0.3,1.6-0.7,2.1-1.3h0.3L70.9,28.6
	L70.9,28.6z"/>
<path class="st1" d="M79.5,35.6c0,0.4,0.4,0.5,0.9,0.7v0.3c-0.5,0-1-0.1-1.6-0.1c-0.5,0-1,0.1-1.6,0.1v-0.3c0.4-0.1,0.9-0.3,0.9-0.7
	v-7.3c0-2.7-0.1-5.2-0.1-5.5c0-0.6-0.8-0.5-1.1-0.4v-0.4c1-0.4,1.7-0.8,2.5-1.4h0.2c0,1.7-0.1,3.5-0.1,5.2v5.6
	c0.5-0.6,2.8-2.5,2.8-3.1c0-0.3-0.3-0.4-0.5-0.5v-0.3c0.5,0,1,0.1,1.6,0.1c0.5,0,1-0.1,1.6-0.1v0.4c-1.4,0.2-3.1,2.2-4,3.1l3,3.5
	c0.7,0.8,1.1,1.3,2,1.6v0.5c-0.5,0-1-0.1-1.6-0.1c-0.5,0-1,0.1-1.6,0.1v-0.3c0.2,0,0.3-0.2,0.3-0.3c0-0.1,0-0.2-0.1-0.3l-3.2-3.8
	L79.5,32V35.6L79.5,35.6z"/>
<path class="st1" d="M91.4,29c0-0.7-0.4-1.2-1-1.2c-0.7,0-1.1,0.5-1.1,1.1c0,1,0.4,1.3,1,1.9C90.9,30.5,91.4,30.1,91.4,29L91.4,29z
	 M89.7,31.6c-0.6,0.5-1.1,0.9-1.1,1.8c0,1.4,1.2,2.1,2,2.1c0.7,0,1.4-0.4,1.8-1L89.7,31.6L89.7,31.6z M92.7,34.8
	c-0.6,0.9-1.5,1.7-2.5,1.7c-1.2,0-2.4-1-2.4-2.4c0-1.2,0.8-2.1,1.7-2.6c-0.5-0.5-1-1.1-1-1.9c0-1,0.8-2,1.8-2c0.8,0,1.9,0.4,1.9,1.6
	c0,0.7-0.7,1.6-1.5,2l2.4,2.6c0.2-0.4,0.6-1.3,0.6-1.8c0-0.6-0.2-0.7-0.7-0.8v-0.3c0.4,0,0.8,0.1,1.2,0.1c0.4,0,0.8-0.1,1.2-0.1V31
	c-0.4,0.1-0.7,0.2-0.8,0.4c-0.2,0.2-0.8,2.1-1.2,2.5c0.5,0.6,1.2,1.5,1.9,1.8c0.2,0.1,0.3,0.1,0.5,0.1v0.3c-0.3,0-0.7-0.1-1-0.1
	c-0.3,0-0.7,0-1,0.1L92.7,34.8L92.7,34.8z"/>
<path class="st1" d="M97.7,24.6c-1,0-1.4,0.3-1.7,1.2h-0.3l-0.1-2.3h0.1c0.3,0.1,0.6,0.2,0.9,0.2c1.3,0,2.6,0.1,3.9,0.1
	c1.3,0,2.6-0.1,3.9-0.1c0.3,0,0.7-0.1,0.9-0.2h0.1l-0.1,2.3h-0.3c-0.3-0.9-0.6-1.2-1.7-1.2h-2.2l0,10.2c0,0.7,0.2,0.8,1.1,1.1v0.3
	c-0.6,0-1.2-0.1-1.7-0.1c-0.6,0-1.2,0.1-1.7,0.1v-0.3c0.9-0.2,1.1-0.4,1.1-1.1l0-10.2H97.7L97.7,24.6z"/>
<path class="st1" d="M106.9,30.4h-0.3c-0.1-0.5-0.4-0.7-0.9-0.7c-0.9,0-1.5,0.7-1.5,2.2v3.4c0,0.3,0.3,0.4,0.7,0.5v0.3
	c-0.4,0-0.8-0.1-1.2-0.1c-0.4,0-0.8,0.1-1.2,0.1v-0.3c0.3-0.1,0.7-0.2,0.7-0.5v-3.2c0-1-0.1-1.9-0.2-2.2c-0.1-0.2-0.2-0.2-0.4-0.2
	c-0.1,0-0.4,0-0.5,0.1v-0.3c0.7-0.2,1.2-0.6,1.8-0.9h0.2l0.1,1.5h0c0.5-0.8,1-1.5,1.9-1.5c0.3,0,0.5,0.1,0.8,0.1V30.4L106.9,30.4z"
	/>
<path class="st1" d="M107.8,29.6c0-0.3-0.4-0.4-0.7-0.5v-0.3c0.4,0,0.8,0.1,1.2,0.1c0.4,0,0.8-0.1,1.2-0.1v0.3
	c-0.2,0.1-0.5,0.1-0.5,0.5v3.9c0,1.1,0.5,1.9,1.4,1.9c0.6,0,1.3-0.2,1.8-0.7v-1.6c0-1.2-0.1-2.4-0.1-3.6c0-0.3-0.3-0.4-0.5-0.5v-0.3
	c0.4,0,0.8,0.1,1.2,0.1c0.4,0,0.8-0.1,1.2-0.1v0.3c-0.3,0-0.6,0.2-0.6,0.5c0,0.4,0,1.9,0,3.3v1.8c0,0.5,0.2,0.8,0.5,0.8
	c0.1,0,0.3-0.1,0.7-0.3v0.3l-1.6,1c-0.4-0.2-0.7-0.7-0.7-1.2c-0.7,0.5-1.5,1.2-2.4,1.2c-1.4,0-2.1-1.5-2.1-2.8V29.6L107.8,29.6z"/>
<path class="st1" d="M114.8,34.8h0.2c0.2,0.7,0.9,1.1,1.6,1.1c0.6,0,1.2-0.4,1.2-1.1c0-2.1-3.3-1.3-3.3-3.7c0-1.5,1.1-2.4,2.4-2.4
	c0.6,0,1.2,0.2,1.7,0.3l-0.1,1.2h-0.2c-0.2-0.7-0.8-1-1.4-1c-0.7,0-1.3,0.5-1.3,1.3c0,2.1,3.3,1.2,3.3,3.6c0,1.5-1.2,2.2-2.4,2.2
	c-0.4,0-1.2-0.2-1.5-0.4L114.8,34.8L114.8,34.8z"/>
<path class="st1" d="M120.9,29.5v4.3c0,1.1,0.3,1.4,0.9,1.4c0.4,0,0.7-0.3,0.9-0.5l0.2,0.2l-1.1,1.5c-0.7,0-2-0.3-2-2.2v-4.7h-1.1
	v-0.2c1-0.5,1.6-1.2,1.8-2.6h0.4V29h2.1v0.6H120.9L120.9,29.5z"/>
<path class="st0" d="M2,34.5c0,0,9.7-19.3,26.2-27.2l-1.4,4.5c0,0,8.1-10.5,22.5-8.8l-2,9.5c0,0-14.7-1.1-26.4,8.8l1.7-4
	C22.7,17.2,11,21.9,2,34.5L2,34.5L2,34.5z"/>
<path class="st0" d="M29.5,29C11.2,37.7,6.7,48.3,6.7,48.3l0,0c8.9-10.7,14.1-11.4,14.1-11.4l-1.1,2.8c1.6-1.1,3.5-2.1,8-3.5
	L29.5,29L29.5,29z"/>
<image style="display:none;overflow:visible;" width="437" height="49" xlink:href="../../../../../Heartland/HTLF Bank/0104-23 - FBT/Weiss font tag line.JPG"  transform="matrix(0.13 0 0 0.13 68 38)">
</image>
<rect x="58.2" y="54.7" class="st2" width="104.8" height="10.5"/>
<text transform="matrix(1 0 0 1 58.2021 58.4209)" class="st3 st4">a division of HTLF Bank</text>
<rect x="9.2" y="47" class="st2" width="8.8" height="9"/>
<text transform="matrix(1 0 0 1 9.1909 53.3677)" class="st5 st6">®</text>
</svg>
