<?xml version="1.0" encoding="utf-8"?>
<!-- Generator: Adobe Illustrator 26.5.0, SVG Export Plug-In . SVG Version: 6.00 Build 0)  -->
<svg version="1.1" xmlns="http://www.w3.org/2000/svg" xmlns:xlink="http://www.w3.org/1999/xlink" x="0px" y="0px"
	 viewBox="0 0 281.28 128.64" style="enable-background:new 0 0 281.28 128.64;" xml:space="preserve">
<style type="text/css">
	.st0{fill:#FFFEF9;}
	.st1{fill:none;}
	.st2{font-family:'NeurialGrotesk-Regular';}
	.st3{font-size:17px;}
</style>
<g id="Layer_1_xA0_Image_00000153683739696288883730000013980392073584072065_">
	<g id="Layer_1_xA0_Image">
		<path class="st0" d="M270.75,98.92c0.13,0,0.25,0,0.36-0.01c0.11-0.01,0.22-0.03,0.3-0.07c0.09-0.04,0.16-0.1,0.21-0.18
			c0.05-0.08,0.08-0.19,0.08-0.34c0-0.12-0.02-0.22-0.07-0.29c-0.05-0.07-0.11-0.13-0.18-0.17c-0.08-0.04-0.16-0.07-0.26-0.08
			c-0.1-0.01-0.19-0.02-0.29-0.02h-0.75v1.16H270.75L270.75,98.92z M271,97.31c0.43,0,0.75,0.09,0.96,0.26
			c0.21,0.17,0.31,0.43,0.31,0.78c0,0.33-0.09,0.57-0.27,0.72c-0.18,0.15-0.41,0.24-0.68,0.27l1.04,1.61h-0.61l-0.99-1.56h-0.6v1.56
			h-0.57v-3.64H271L271,97.31z M268.43,100.17c0.13,0.32,0.31,0.61,0.54,0.85c0.23,0.24,0.5,0.43,0.82,0.56
			c0.31,0.14,0.65,0.2,1.02,0.2c0.36,0,0.7-0.07,1.01-0.2c0.31-0.14,0.58-0.32,0.81-0.56c0.23-0.24,0.41-0.52,0.54-0.85
			c0.13-0.32,0.2-0.68,0.2-1.06c0-0.37-0.06-0.72-0.2-1.04c-0.13-0.32-0.31-0.6-0.54-0.84c-0.23-0.24-0.5-0.42-0.81-0.56
			c-0.31-0.14-0.65-0.2-1.01-0.2c-0.37,0-0.71,0.07-1.02,0.2c-0.31,0.14-0.59,0.32-0.82,0.56c-0.23,0.24-0.41,0.51-0.54,0.84
			c-0.13,0.32-0.2,0.67-0.2,1.04C268.24,99.49,268.3,99.85,268.43,100.17L268.43,100.17z M267.92,97.89
			c0.17-0.38,0.39-0.7,0.68-0.98c0.29-0.28,0.62-0.5,1-0.65c0.38-0.16,0.78-0.24,1.21-0.24s0.83,0.08,1.21,0.24
			c0.38,0.16,0.71,0.38,0.99,0.65c0.28,0.28,0.51,0.6,0.67,0.98c0.17,0.38,0.25,0.79,0.25,1.22c0,0.45-0.08,0.86-0.25,1.24
			c-0.17,0.38-0.39,0.71-0.67,0.99c-0.28,0.28-0.61,0.5-0.99,0.65c-0.38,0.15-0.78,0.23-1.21,0.23s-0.83-0.08-1.21-0.23
			c-0.38-0.16-0.71-0.37-1-0.65c-0.29-0.28-0.51-0.61-0.68-0.99c-0.17-0.38-0.25-0.79-0.25-1.24
			C267.67,98.67,267.76,98.27,267.92,97.89L267.92,97.89z"/>
		<path class="st0" d="M36.68,84.51l-1.65-4.43c-1.61-0.78-2.9-1.1-4.54-1.1c-5.29,0-9.36,3.52-9.36,11.43
			c0,8.85,5.13,11.59,9.36,11.59c1.8,0,3.05-0.28,4.7-1.02l1.72-4.66h0.55c0,1.06-0.08,2.11-0.08,3.13c0,1.06,0.08,2.11,0.08,3.17
			c-2.15,0.51-4.31,0.9-6.5,0.9c-7.24,0-13.82-4.58-13.82-12.29c0-7.52,6.23-13.78,13.98-13.78c2,0,4.11,0.16,6.11,0.63
			c0,1.06-0.08,2.15-0.08,3.21c0,1.06,0.08,2.12,0.08,3.21H36.68L36.68,84.51z"/>
		<path class="st0" d="M39.81,100.61l2.44-0.82c0.79-0.29,0.89-0.41,0.92-2.85c0.03-1.9,0.1-3.83,0.1-5.73c0-1.9-0.06-3.84-0.1-5.74
			c-0.06-2.98-0.09-3.2-0.7-3.42l-2.66-0.89v-0.44c1.52,0.13,3.07,0.25,4.85,0.25c1.58,0,3.14-0.12,4.72-0.25v0.44l-2.66,0.89
			c-0.6,0.22-0.63,0.44-0.7,3.42c-0.03,1.9-0.1,3.83-0.1,5.74c0,1.9,0.06,3.83,0.1,5.73c0.03,2.44,0.13,2.57,0.92,2.85l2.44,0.82
			v0.44c-1.49-0.13-3.33-0.25-4.72-0.25c-1.58,0-3.42,0.13-4.85,0.25V100.61L39.81,100.61z"/>
		<path class="st0" d="M49.95,80.71c2.76,0.13,5.48,0.25,8.24,0.25c2.76,0,5.48-0.12,8.24-0.25v5.39h-0.44l-0.95-2.54
			c-0.44-1.08-0.76-1.2-5.51-1.2v13.82c0,1.58,0.06,2.41,0.25,2.85c0.19,0.41,0.86,0.79,3.26,1.59v0.44
			c-1.49-0.13-2.88-0.25-4.85-0.25s-3.36,0.13-4.85,0.25v-0.44c2.41-0.79,3.11-1.17,3.26-1.59c0.19-0.44,0.25-1.27,0.25-2.85V82.35
			c-4.75,0-5.07,0.13-5.51,1.2l-0.95,2.54h-0.44V80.71L49.95,80.71z"/>
		<path class="st0" d="M70.99,100.61l1.46-0.44c1.58-0.48,1.96-0.79,1.96-2v-4.91c-2.92-5.55-4.44-8.33-6.34-11.25
			c-0.51-0.38-1.27-0.63-1.87-0.85v-0.44c1.36,0.13,2.72,0.25,4.12,0.25c1.43,0,2.82-0.12,4.25-0.25v0.44
			c-1.84,0.44-2.44,0.73-2.44,1.43c0,0.73,3.8,7.92,4.47,8.9c1.3-2.53,4.44-8.46,4.44-9.25c0-0.51-1.46-0.85-2.44-1.08v-0.44
			c1.11,0.13,2.25,0.25,3.36,0.25c1.01,0,2-0.12,2.98-0.25v0.44c-1.39,0.16-2,1.17-2.85,2.82l-5.01,9.35v4.85
			c0,1.2,0.38,1.52,1.96,2l1.46,0.44v0.44c-1.39-0.13-3.23-0.25-4.69-0.25c-1.59,0-3.42,0.13-4.82,0.25V100.61L70.99,100.61z"/>
		<path class="st0" d="M83.19,80.71c1.49,0.13,2.98,0.25,4.44,0.25c1.46,0,2.95-0.12,4.4-0.25v0.44l-1.77,0.57
			c-0.79,0.25-1.17,0.47-1.17,0.86c0,0.67,2.5,9.28,3.93,13.21c2.12-5.13,4.28-10.3,6.05-15.46h0.63c1.9,5.32,3.83,10.58,5.96,15.84
			l1.3-3.58c2.09-6.12,3.11-8.97,3.11-10.08c0-0.57-0.63-0.73-2.76-1.36v-0.44c1.2,0.13,2.44,0.25,3.64,0.25
			c1.11,0,2.19-0.12,3.3-0.25v0.44c-1.52,0.51-1.96,1.27-2.66,3.07c-3.07,7.86-5.39,14.76-6.08,17.2h-0.86
			c-1.74-5.23-3.99-10.49-6.02-15.72c-2.06,5.17-4.4,10.46-6.05,15.72h-0.85c-1.55-5.64-3.52-11.44-5.26-17.2
			c-0.41-1.36-0.7-1.9-0.95-2.09c-0.41-0.35-1.14-0.63-2.31-0.98V80.71L83.19,80.71z"/>
		<path class="st0" d="M112.66,100.61l2.44-0.82c0.79-0.29,0.89-0.41,0.92-2.85c0.03-1.9,0.1-3.83,0.1-5.73
			c0-1.9-0.06-3.84-0.1-5.74c-0.06-2.98-0.09-3.2-0.7-3.42l-2.66-0.89v-0.44c1.52,0.13,3.07,0.25,4.85,0.25
			c1.58,0,3.14-0.12,4.72-0.25v0.44l-2.66,0.89c-0.6,0.22-0.63,0.44-0.7,3.42c-0.03,1.9-0.09,3.83-0.09,5.74
			c0,1.9,0.06,3.83,0.09,5.73c0.03,2.44,0.13,2.57,0.92,2.85l2.44,0.82v0.44c-1.49-0.13-3.33-0.25-4.72-0.25
			c-1.58,0-3.42,0.13-4.85,0.25V100.61L112.66,100.61z"/>
		<path class="st0" d="M128.34,96.36c0.09,2.44,0,1.49,0.19,3.51c0.86,0.06,1.74,0.13,2.44,0.13c4.47,0,8.14-1.81,8.14-9.16
			c0-6.34-3.68-9.1-8.46-9.1c-0.76,0-1.46,0.13-2.12,0.25c-0.09,1.43-0.19,2.82-0.19,4.22V96.36L128.34,96.36z M125.68,85.46
			c0-2.98-0.09-3.2-0.79-3.42l-2.66-0.89v-0.44c1.36,0.13,2.57,0.25,3.8,0.25c1.08,0,3.2-0.25,5.74-0.25
			c4.69,0,10.39,3.36,10.39,10.23c0,5.45-3.61,10.11-9.76,10.11c-3.61,0-5.2-0.25-6.84-0.25c-1.11,0-2.19,0.13-3.33,0.25v-0.44
			l2.44-0.82c0.89-0.29,1.01-0.41,1.01-2.85V85.46L125.68,85.46z"/>
		<path class="st0" d="M143.48,85.46c0-2.98-0.1-3.2-0.79-3.42l-2.66-0.89v-0.44c2.63,0.13,5.04,0.25,7.45,0.25
			c3.01,0,5.99-0.12,8.78-0.25c-0.03,0.79-0.09,1.93-0.09,2.41c0,0.48,0.06,1.55,0.09,2.28h-0.44l-0.82-2.38
			c-0.32-0.89-0.57-0.89-4.21-0.89c-1.84,0-3.3,0.03-4.47,0.06c-0.07,1.11-0.16,2.28-0.16,3.61v3.9h3.3c3.83,0,4.18-0.06,4.47-0.76
			l0.82-2.25h0.44c-0.03,1.2-0.06,2.41-0.06,3.58c0,1.3,0.03,2.5,0.06,3.83h-0.44l-0.82-2.41c-0.29-0.7-0.63-0.76-4.47-0.76h-3.3
			v4.31c0,1.46,0.09,2.92,0.16,4.25c1.49,0.03,2.98,0.13,4.4,0.13c3.39,0,3.87-0.03,4.18-0.41c0.38-0.48,0.73-1.49,1.3-3.36h0.44
			c-0.06,0.92-0.19,1.87-0.19,2.79v2.41c-1.65-0.13-6.53-0.25-8.3-0.25c-2.79,0-5.83,0.13-8.11,0.25v-0.44l2.44-0.82
			c0.89-0.29,1.01-0.41,1.01-2.85V85.46L143.48,85.46z"/>
		<path class="st0" d="M172.73,96.99c0,0.98,0.03,1.93,0.09,2.92c0.86,0.03,1.62,0.1,2.41,0.1c3.08,0,6.21-0.7,6.21-4.44
			c0-3.46-2.92-4.6-6.47-4.6h-2.25V96.99L172.73,96.99z M172.73,89.93h2.44c2.09,0,5.32-0.35,5.32-3.96c0-3.11-2.22-4.21-4.91-4.21
			c-1.01,0-1.68,0-2.76,0.06c-0.06,1.46-0.09,2.38-0.09,3.8V89.93L172.73,89.93z M170.07,85.46c0-2.98-0.1-3.2-0.79-3.42l-2.66-0.89
			v-0.44c1.74,0.13,3.36,0.25,4.63,0.25c1.27,0,3.67-0.25,5.48-0.25c3.39,0,6.81,1.49,6.81,5.29c0,2.63-2.85,4.18-5.83,4.47v0.06
			c3.14,0.22,6.78,1.4,6.78,5.13c0,2.91-2.28,5.38-6.84,5.38c-2.41,0-4.88-0.25-6.84-0.25c-1.49,0-2.75,0.13-4.18,0.25v-0.44
			l2.44-0.82c0.89-0.29,1.01-0.41,1.01-2.85V85.46L170.07,85.46z"/>
		<path class="st0" d="M194.18,84.67l-3.64,8.4h7.13L194.18,84.67L194.18,84.67z M183.75,100.61c0.76-0.28,1.65-0.63,2.41-1.04
			c2.76-6.5,6.18-13.78,8.46-19.49h0.7c2.54,6.59,5.39,13.18,8.08,19.61l2.66,0.92v0.44c-1.68-0.13-3.33-0.25-5.01-0.25
			c-1.43,0-2.82,0.13-4.25,0.25v-0.44c0.79-0.19,2.16-0.6,3.11-0.98c-0.38-1.33-1.4-4.31-1.84-5.26c-1.33-0.03-2.69-0.06-4.03-0.06
			c-1.33,0-2.63,0.03-3.96,0.06c-0.86,1.62-1.36,3.49-1.81,5.26l2.73,0.98v0.44c-1.24-0.13-2.47-0.25-3.74-0.25
			c-1.17,0-2.34,0.13-3.52,0.25V100.61L183.75,100.61z"/>
		<path class="st0" d="M226.97,81.31l-2.12,0.76c-0.7,0.25-1.01,0.57-1.05,1.14c-0.09,2.57-0.35,8.18-0.35,10.01
			c0,1.3,0,4.94,0.06,8.55h-0.76c-2.03-3.01-4.21-5.89-6.37-8.81l-6.43-8.65h-0.06v3.55c0,4.18,0.06,10.42,0.16,11.03
			c0.1,0.51,0.32,0.76,1.24,1.05l2.09,0.67v0.44c-1.39-0.13-2.82-0.25-4.21-0.25c-1.36,0-2.69,0.13-4.06,0.25v-0.44l2.41-0.92
			c0.44-0.16,0.73-0.44,0.76-0.73c0.13-1.01,0.35-5.73,0.35-9.79v-6.27l-0.41-0.63c-0.98-0.45-1.97-0.79-2.98-1.11v-0.44
			c1.01,0.13,2.03,0.25,3.04,0.25c0.95,0,1.9-0.12,2.85-0.25c0.6,1.11,1.27,2.12,2.03,3.14l8.97,12.04l0.06-0.06v-7.67
			c0-1.52-0.03-3.07-0.12-4.63c-0.07-0.89-0.32-1.14-1.24-1.52l-2.09-0.85v-0.44c1.3,0.13,2.63,0.25,3.93,0.25
			c1.43,0,2.85-0.12,4.31-0.25V81.31L226.97,81.31z"/>
		<path class="st0" d="M240.09,100.61c1.78-0.51,2.35-0.67,2.35-0.89c0-0.25-0.25-0.44-0.54-0.76l-7.98-8.68l6.68-6.08
			c1.14-1.05,1.78-1.71,1.78-2.03c0-0.35-0.89-0.54-2.22-1.01v-0.44c1.36,0.13,2.76,0.25,4.12,0.25c1.17,0,2.35-0.12,3.52-0.25v0.44
			c-0.85,0.22-2.22,0.57-3.45,1.65l-7.51,6.56l9.31,9.92c0.19,0.19,0.67,0.6,0.76,0.63c0.32,0.16,1.17,0.51,1.96,0.7v0.44
			c-1.52-0.13-3.1-0.25-4.66-0.25c-1.39,0-2.76,0.13-4.12,0.25V100.61L240.09,100.61z M227,100.61l2.44-0.82
			c0.79-0.29,0.89-0.41,0.92-2.85c0.03-1.9,0.1-3.83,0.1-5.73c0-1.9-0.06-3.84-0.1-5.74c-0.06-2.98-0.1-3.2-0.7-3.42L227,81.15
			v-0.44c1.52,0.13,3.08,0.25,4.85,0.25c1.59,0,3.14-0.12,4.72-0.25v0.44l-2.66,0.89c-0.6,0.22-0.64,0.44-0.7,3.42
			c-0.03,1.9-0.09,3.83-0.09,5.74c0,1.9,0.06,3.83,0.09,5.73c0.03,2.44,0.13,2.57,0.92,2.85l2.44,0.82v0.44
			c-1.49-0.13-3.33-0.25-4.72-0.25c-1.58,0-3.42,0.13-4.85,0.25V100.61L227,100.61z"/>
		<path class="st0" d="M250.71,96.06h0.55l1.33,5.05c1.18,0.67,3.01,0.9,3.99,0.9c3.13,0,5.99-1.41,5.99-5.05
			c0-5.56-12.26-5.09-12.26-12.45c0-4.74,4.39-7.05,8.61-7.05c1.64,0,4.15,0.51,5.8,1.25l-0.24,5.36h-0.43l-1.53-4.35
			c-1.33-0.51-2.62-0.74-3.95-0.74c-2.47,0-4.74,1.92-4.74,4.54c0,6.15,12.26,4.58,12.26,12.68c0,3.41-2.55,7.32-10.26,7.32
			c-1.88,0-3.56-0.23-5.79-1.1L250.71,96.06L250.71,96.06z"/>
		<path class="st0" d="M160.01,72.9c0-0.06,0.01-0.11,0.01-0.17c0-4.2-6.4-7.61-14.28-7.61c-7.89,0-14.28,3.41-14.28,7.61
			c0,0.06,0.01,0.11,0.01,0.17h-1.97c0.18-4.73,7.32-8.38,16.25-8.38c8.93,0,16.07,3.64,16.24,8.38H160.01L160.01,72.9z"/>
		<polygon class="st0" points="188.04,68.91 194.89,68.31 189.41,68.36 226.4,62.11 181.86,65.05 191.45,63.16 183.22,64.22 
			221.62,52.54 179.56,61.11 187.21,57.85 180.64,59.48 210.74,43.84 173.48,57.94 173.68,57.8 181.73,53 173.82,56.56 
			173.81,56.55 199.12,36.13 166.28,55.56 173.7,48.56 166.82,53.47 184.06,30.37 158.97,53.45 163,45.23 158.28,51.36 165.2,27.37 
			150.99,51.63 151.64,43.59 149.22,51.62 145.48,7.1 141.73,51.68 139.69,43.59 140.26,52.12 125.77,27.37 132.73,51.52 
			128.31,45.74 131.87,53.33 106.91,30.36 124.37,53.77 117.24,48.62 123.84,55.09 89.74,35.21 116.97,56.48 109.44,53.22 
			116.32,57.45 78.5,42.66 111.66,60.15 103.93,58.11 110.62,60.84 71.09,51.67 109.17,64.6 99.47,63.28 107.87,64.93 61.51,61.24 
			104.88,68.28 97.21,68.33 104.82,68.97 0.95,72.65 107.54,72.7 122.44,72.7 95.45,70.81 127.15,70.83 100.77,65.63 128.37,69 
			104.78,61.24 130.33,67.33 110.46,57.28 132.97,65.91 117.89,54.12 136.16,64.77 126.42,51.72 139.76,63.99 135.79,50.23 
			143.61,63.59 145.58,34.7 147.55,63.59 155.38,50.23 151.41,63.99 164.75,51.72 155.01,64.77 173.28,54.12 158.19,65.91 
			179.77,57.73 160.83,67.33 186.39,61.24 162.8,69 190.4,65.63 164.02,70.83 201.6,70.81 168.1,72.7 183.42,72.7 281.13,72.65 
			188.04,68.91 		"/>
	</g>
</g>
<g id="A_Division_of_HTLF_Bank">
	<rect x="24.4" y="109.32" class="st1" width="240.48" height="17.28"/>
	<text transform="matrix(0.9 0 0 1 63.3968 121.8317)" class="st0 st2 st3">a division of HTLF Bank</text>
</g>
</svg>
